<?xml version="1.0" encoding="utf-8" standalone="no"?>
<!DOCTYPE svg PUBLIC "-//W3C//DTD SVG 1.1//EN"
  "http://www.w3.org/Graphics/SVG/1.1/DTD/svg11.dtd">
<!-- Created with matplotlib (https://matplotlib.org/) -->
<svg height="310.86825pt" version="1.1" viewBox="0 0 408.10125 310.86825" width="408.10125pt" xmlns="http://www.w3.org/2000/svg" xmlns:xlink="http://www.w3.org/1999/xlink">
 <metadata>
  <rdf:RDF xmlns:cc="http://creativecommons.org/ns#" xmlns:dc="http://purl.org/dc/elements/1.1/" xmlns:rdf="http://www.w3.org/1999/02/22-rdf-syntax-ns#">
   <cc:Work>
    <dc:type rdf:resource="http://purl.org/dc/dcmitype/StillImage"/>
    <dc:date>2021-12-27T09:35:43.272096</dc:date>
    <dc:format>image/svg+xml</dc:format>
    <dc:creator>
     <cc:Agent>
      <dc:title>Matplotlib v3.3.4, https://matplotlib.org/</dc:title>
     </cc:Agent>
    </dc:creator>
   </cc:Work>
  </rdf:RDF>
 </metadata>
 <defs>
  <style type="text/css">*{stroke-linecap:butt;stroke-linejoin:round;}</style>
 </defs>
 <g id="figure_1">
  <g id="patch_1">
   <path d="M 0 310.86825 
L 408.10125 310.86825 
L 408.10125 0 
L 0 0 
z
" style="fill:#ffffff;"/>
  </g>
  <g id="axes_1">
   <g id="patch_2">
    <path d="M 43.78125 273.312 
L 400.90125 273.312 
L 400.90125 7.2 
L 43.78125 7.2 
z
" style="fill:#ffffff;"/>
   </g>
   <g id="PathCollection_1">
    <path clip-path="url(#p3e94b649f8)" d="M 384.668523 141.388407 
C 385.646816 141.388407 386.585174 140.999727 387.276932 140.307969 
C 387.96869 139.61621 388.35737 138.677853 388.35737 137.69956 
C 388.35737 136.721266 387.96869 135.782909 387.276932 135.091151 
C 386.585174 134.399392 385.646816 134.010712 384.668523 134.010712 
C 383.690229 134.010712 382.751872 134.399392 382.060114 135.091151 
C 381.368356 135.782909 380.979675 136.721266 380.979675 137.69956 
C 380.979675 138.677853 381.368356 139.61621 382.060114 140.307969 
C 382.751872 140.999727 383.690229 141.388407 384.668523 141.388407 
z
" style="fill:#2ca02c;stroke:#ffffff;stroke-width:0.534008;"/>
    <path clip-path="url(#p3e94b649f8)" d="M 384.668523 127.03646 
C 385.646816 127.03646 386.585174 126.64778 387.276932 125.956022 
C 387.96869 125.264264 388.35737 124.325907 388.35737 123.347613 
C 388.35737 122.369319 387.96869 121.430962 387.276932 120.739204 
C 386.585174 120.047446 385.646816 119.658766 384.668523 119.658766 
C 383.690229 119.658766 382.751872 120.047446 382.060114 120.739204 
C 381.368356 121.430962 380.979675 122.369319 380.979675 123.347613 
C 380.979675 124.325907 381.368356 125.264264 382.060114 125.956022 
C 382.751872 126.64778 383.690229 127.03646 384.668523 127.03646 
z
" style="fill:#1f77b4;stroke:#ffffff;stroke-width:0.534008;"/>
    <path clip-path="url(#p3e94b649f8)" d="M 384.668523 22.984847 
C 385.646816 22.984847 386.585174 22.596167 387.276932 21.904409 
C 387.96869 21.212651 388.35737 20.274294 388.35737 19.296 
C 388.35737 18.317706 387.96869 17.379349 387.276932 16.687591 
C 386.585174 15.995833 385.646816 15.607153 384.668523 15.607153 
C 383.690229 15.607153 382.751872 15.995833 382.060114 16.687591 
C 381.368356 17.379349 380.979675 18.317706 380.979675 19.296 
C 380.979675 20.274294 381.368356 21.212651 382.060114 21.904409 
C 382.751872 22.596167 383.690229 22.984847 384.668523 22.984847 
z
" style="fill:#ff7f0e;stroke:#ffffff;stroke-width:0.534008;"/>
    <path clip-path="url(#p3e94b649f8)" d="M 384.668523 85.415815 
C 385.646816 85.415815 386.585174 85.027135 387.276932 84.335377 
C 387.96869 83.643619 388.35737 82.705262 388.35737 81.726968 
C 388.35737 80.748674 387.96869 79.810317 387.276932 79.118559 
C 386.585174 78.426801 385.646816 78.03812 384.668523 78.03812 
C 383.690229 78.03812 382.751872 78.426801 382.060114 79.118559 
C 381.368356 79.810317 380.979675 80.748674 380.979675 81.726968 
C 380.979675 82.705262 381.368356 83.643619 382.060114 84.335377 
C 382.751872 85.027135 383.690229 85.415815 384.668523 85.415815 
z
" style="fill:#d62728;stroke:#ffffff;stroke-width:0.534008;"/>
    <path clip-path="url(#p3e94b649f8)" d="M 344.086705 202.294405 
C 345.41272 202.294405 346.684604 201.767574 347.622238 200.829939 
C 348.559873 199.892305 349.086705 198.620421 349.086705 197.294405 
C 349.086705 195.96839 348.559873 194.696506 347.622238 193.758871 
C 346.684604 192.821237 345.41272 192.294405 344.086705 192.294405 
C 342.760689 192.294405 341.488805 192.821237 340.551171 193.758871 
C 339.613536 194.696506 339.086705 195.96839 339.086705 197.294405 
C 339.086705 198.620421 339.613536 199.892305 340.551171 200.829939 
C 341.488805 201.767574 342.760689 202.294405 344.086705 202.294405 
z
" style="fill:#2ca02c;stroke:#ffffff;stroke-width:0.534008;"/>
    <path clip-path="url(#p3e94b649f8)" d="M 344.086705 190.842027 
C 345.41272 190.842027 346.684604 190.315195 347.622238 189.377561 
C 348.559873 188.439926 349.086705 187.168042 349.086705 185.842027 
C 349.086705 184.516011 348.559873 183.244127 347.622238 182.306493 
C 346.684604 181.368858 345.41272 180.842027 344.086705 180.842027 
C 342.760689 180.842027 341.488805 181.368858 340.551171 182.306493 
C 339.613536 183.244127 339.086705 184.516011 339.086705 185.842027 
C 339.086705 187.168042 339.613536 188.439926 340.551171 189.377561 
C 341.488805 190.315195 342.760689 190.842027 344.086705 190.842027 
z
" style="fill:#1f77b4;stroke:#ffffff;stroke-width:0.534008;"/>
    <path clip-path="url(#p3e94b649f8)" d="M 344.086705 45.233215 
C 345.41272 45.233215 346.684604 44.706383 347.622238 43.768749 
C 348.559873 42.831114 349.086705 41.55923 349.086705 40.233215 
C 349.086705 38.907199 348.559873 37.635315 347.622238 36.697681 
C 346.684604 35.760046 345.41272 35.233215 344.086705 35.233215 
C 342.760689 35.233215 341.488805 35.760046 340.551171 36.697681 
C 339.613536 37.635315 339.086705 38.907199 339.086705 40.233215 
C 339.086705 41.55923 339.613536 42.831114 340.551171 43.768749 
C 341.488805 44.706383 342.760689 45.233215 344.086705 45.233215 
z
" style="fill:#ff7f0e;stroke:#ffffff;stroke-width:0.534008;"/>
    <path clip-path="url(#p3e94b649f8)" d="M 344.086705 142.305756 
C 345.41272 142.305756 346.684604 141.778925 347.622238 140.84129 
C 348.559873 139.903655 349.086705 138.631772 349.086705 137.305756 
C 349.086705 135.979741 348.559873 134.707857 347.622238 133.770222 
C 346.684604 132.832588 345.41272 132.305756 344.086705 132.305756 
C 342.760689 132.305756 341.488805 132.832588 340.551171 133.770222 
C 339.613536 134.707857 339.086705 135.979741 339.086705 137.305756 
C 339.086705 138.631772 339.613536 139.903655 340.551171 140.84129 
C 341.488805 141.778925 342.760689 142.305756 344.086705 142.305756 
z
" style="fill:#d62728;stroke:#ffffff;stroke-width:0.534008;"/>
    <path clip-path="url(#p3e94b649f8)" d="M 60.013977 264.378278 
C 60.852623 264.378278 61.657033 264.04508 62.250045 263.452068 
C 62.843057 262.859056 63.176255 262.054646 63.176255 261.216 
C 63.176255 260.377354 62.843057 259.572944 62.250045 258.979932 
C 61.657033 258.38692 60.852623 258.053722 60.013977 258.053722 
C 59.175331 258.053722 58.370921 258.38692 57.777909 258.979932 
C 57.184897 259.572944 56.8517 260.377354 56.8517 261.216 
C 56.8517 262.054646 57.184897 262.859056 57.777909 263.452068 
C 58.370921 264.04508 59.175331 264.378278 60.013977 264.378278 
z
" style="fill:#2ca02c;stroke:#ffffff;stroke-width:0.534008;"/>
    <path clip-path="url(#p3e94b649f8)" d="M 60.013977 246.819568 
C 60.852623 246.819568 61.657033 246.48637 62.250045 245.893358 
C 62.843057 245.300346 63.176255 244.495936 63.176255 243.65729 
C 63.176255 242.818644 62.843057 242.014235 62.250045 241.421222 
C 61.657033 240.82821 60.852623 240.495013 60.013977 240.495013 
C 59.175331 240.495013 58.370921 240.82821 57.777909 241.421222 
C 57.184897 242.014235 56.8517 242.818644 56.8517 243.65729 
C 56.8517 244.495936 57.184897 245.300346 57.777909 245.893358 
C 58.370921 246.48637 59.175331 246.819568 60.013977 246.819568 
z
" style="fill:#1f77b4;stroke:#ffffff;stroke-width:0.534008;"/>
    <path clip-path="url(#p3e94b649f8)" d="M 60.013977 159.02602 
C 60.852623 159.02602 61.657033 158.692822 62.250045 158.09981 
C 62.843057 157.506798 63.176255 156.702388 63.176255 155.863742 
C 63.176255 155.025096 62.843057 154.220686 62.250045 153.627674 
C 61.657033 153.034662 60.852623 152.701464 60.013977 152.701464 
C 59.175331 152.701464 58.370921 153.034662 57.777909 153.627674 
C 57.184897 154.220686 56.8517 155.025096 56.8517 155.863742 
C 56.8517 156.702388 57.184897 157.506798 57.777909 158.09981 
C 58.370921 158.692822 59.175331 159.02602 60.013977 159.02602 
z
" style="fill:#ff7f0e;stroke:#ffffff;stroke-width:0.534008;"/>
    <path clip-path="url(#p3e94b649f8)" d="M 60.013977 217.555052 
C 60.852623 217.555052 61.657033 217.221854 62.250045 216.628842 
C 62.843057 216.03583 63.176255 215.23142 63.176255 214.392774 
C 63.176255 213.554128 62.843057 212.749718 62.250045 212.156706 
C 61.657033 211.563694 60.852623 211.230497 60.013977 211.230497 
C 59.175331 211.230497 58.370921 211.563694 57.777909 212.156706 
C 57.184897 212.749718 56.8517 213.554128 56.8517 214.392774 
C 56.8517 215.23142 57.184897 216.03583 57.777909 216.628842 
C 58.370921 217.221854 59.175331 217.555052 60.013977 217.555052 
z
" style="fill:#d62728;stroke:#ffffff;stroke-width:0.534008;"/>
    <path clip-path="url(#p3e94b649f8)" d="M 100.595795 239.180125 
C 101.525085 239.180125 102.416438 238.810914 103.073545 238.153808 
C 103.730651 237.496701 104.099862 236.605348 104.099862 235.676059 
C 104.099862 234.746769 103.730651 233.855416 103.073545 233.19831 
C 102.416438 232.541203 101.525085 232.171992 100.595795 232.171992 
C 99.666506 232.171992 98.775153 232.541203 98.118046 233.19831 
C 97.46094 233.855416 97.091729 234.746769 97.091729 235.676059 
C 97.091729 236.605348 97.46094 237.496701 98.118046 238.153808 
C 98.775153 238.810914 99.666506 239.180125 100.595795 239.180125 
z
" style="fill:#2ca02c;stroke:#ffffff;stroke-width:0.534008;"/>
    <path clip-path="url(#p3e94b649f8)" d="M 100.595795 211.011072 
C 101.525085 211.011072 102.416438 210.641862 103.073545 209.984755 
C 103.730651 209.327648 104.099862 208.436295 104.099862 207.507006 
C 104.099862 206.577716 103.730651 205.686363 103.073545 205.029257 
C 102.416438 204.37215 101.525085 204.002939 100.595795 204.002939 
C 99.666506 204.002939 98.775153 204.37215 98.118046 205.029257 
C 97.46094 205.686363 97.091729 206.577716 97.091729 207.507006 
C 97.091729 208.436295 97.46094 209.327648 98.118046 209.984755 
C 98.775153 210.641862 99.666506 211.011072 100.595795 211.011072 
z
" style="fill:#1f77b4;stroke:#ffffff;stroke-width:0.534008;"/>
    <path clip-path="url(#p3e94b649f8)" d="M 100.595795 143.405345 
C 101.525085 143.405345 102.416438 143.036134 103.073545 142.379028 
C 103.730651 141.721921 104.099862 140.830568 104.099862 139.901279 
C 104.099862 138.971989 103.730651 138.080636 103.073545 137.42353 
C 102.416438 136.766423 101.525085 136.397212 100.595795 136.397212 
C 99.666506 136.397212 98.775153 136.766423 98.118046 137.42353 
C 97.46094 138.080636 97.091729 138.971989 97.091729 139.901279 
C 97.091729 140.830568 97.46094 141.721921 98.118046 142.379028 
C 98.775153 143.036134 99.666506 143.405345 100.595795 143.405345 
z
" style="fill:#ff7f0e;stroke:#ffffff;stroke-width:0.534008;"/>
    <path clip-path="url(#p3e94b649f8)" d="M 100.595795 184.451679 
C 101.525085 184.451679 102.416438 184.082469 103.073545 183.425362 
C 103.730651 182.768255 104.099862 181.876902 104.099862 180.947613 
C 104.099862 180.018324 103.730651 179.126971 103.073545 178.469864 
C 102.416438 177.812757 101.525085 177.443547 100.595795 177.443547 
C 99.666506 177.443547 98.775153 177.812757 98.118046 178.469864 
C 97.46094 179.126971 97.091729 180.018324 97.091729 180.947613 
C 97.091729 181.876902 97.46094 182.768255 98.118046 183.425362 
C 98.775153 184.082469 99.666506 184.451679 100.595795 184.451679 
z
" style="fill:#d62728;stroke:#ffffff;stroke-width:0.534008;"/>
    <path clip-path="url(#p3e94b649f8)" d="M 141.177614 227.008054 
C 142.135213 227.008054 143.05372 226.627596 143.730844 225.950471 
C 144.407969 225.273347 144.788427 224.35484 144.788427 223.397241 
C 144.788427 222.439642 144.407969 221.521135 143.730844 220.84401 
C 143.05372 220.166885 142.135213 219.786427 141.177614 219.786427 
C 140.220015 219.786427 139.301508 220.166885 138.624383 220.84401 
C 137.947258 221.521135 137.5668 222.439642 137.5668 223.397241 
C 137.5668 224.35484 137.947258 225.273347 138.624383 225.950471 
C 139.301508 226.627596 140.220015 227.008054 141.177614 227.008054 
z
" style="fill:#2ca02c;stroke:#ffffff;stroke-width:0.534008;"/>
    <path clip-path="url(#p3e94b649f8)" d="M 141.177614 201.281007 
C 142.135213 201.281007 143.05372 200.900549 143.730844 200.223424 
C 144.407969 199.5463 144.788427 198.627793 144.788427 197.670194 
C 144.788427 196.712595 144.407969 195.794087 143.730844 195.116963 
C 143.05372 194.439838 142.135213 194.05938 141.177614 194.05938 
C 140.220015 194.05938 139.301508 194.439838 138.624383 195.116963 
C 137.947258 195.794087 137.5668 196.712595 137.5668 197.670194 
C 137.5668 198.627793 137.947258 199.5463 138.624383 200.223424 
C 139.301508 200.900549 140.220015 201.281007 141.177614 201.281007 
z
" style="fill:#1f77b4;stroke:#ffffff;stroke-width:0.534008;"/>
    <path clip-path="url(#p3e94b649f8)" d="M 141.177614 118.954456 
C 142.135213 118.954456 143.05372 118.573998 143.730844 117.896873 
C 144.407969 117.219749 144.788427 116.301242 144.788427 115.343643 
C 144.788427 114.386044 144.407969 113.467537 143.730844 112.790412 
C 143.05372 112.113287 142.135213 111.732829 141.177614 111.732829 
C 140.220015 111.732829 139.301508 112.113287 138.624383 112.790412 
C 137.947258 113.467537 137.5668 114.386044 137.5668 115.343643 
C 137.5668 116.301242 137.947258 117.219749 138.624383 117.896873 
C 139.301508 118.573998 140.220015 118.954456 141.177614 118.954456 
z
" style="fill:#ff7f0e;stroke:#ffffff;stroke-width:0.534008;"/>
    <path clip-path="url(#p3e94b649f8)" d="M 141.177614 169.803208 
C 142.135213 169.803208 143.05372 169.42275 143.730844 168.745625 
C 144.407969 168.068501 144.788427 167.149994 144.788427 166.192395 
C 144.788427 165.234796 144.407969 164.316289 143.730844 163.639164 
C 143.05372 162.962039 142.135213 162.581581 141.177614 162.581581 
C 140.220015 162.581581 139.301508 162.962039 138.624383 163.639164 
C 137.947258 164.316289 137.5668 165.234796 137.5668 166.192395 
C 137.5668 167.149994 137.947258 168.068501 138.624383 168.745625 
C 139.301508 169.42275 140.220015 169.803208 141.177614 169.803208 
z
" style="fill:#d62728;stroke:#ffffff;stroke-width:0.534008;"/>
    <path clip-path="url(#p3e94b649f8)" d="M 181.759432 237.767255 
C 182.78439 237.767255 183.767506 237.360035 184.492261 236.635281 
C 185.217016 235.910526 185.624236 234.92741 185.624236 233.902452 
C 185.624236 232.877494 185.217016 231.894377 184.492261 231.169623 
C 183.767506 230.444868 182.78439 230.037648 181.759432 230.037648 
C 180.734474 230.037648 179.751358 230.444868 179.026603 231.169623 
C 178.301848 231.894377 177.894628 232.877494 177.894628 233.902452 
C 177.894628 234.92741 178.301848 235.910526 179.026603 236.635281 
C 179.751358 237.360035 180.734474 237.767255 181.759432 237.767255 
z
" style="fill:#2ca02c;stroke:#ffffff;stroke-width:0.534008;"/>
    <path clip-path="url(#p3e94b649f8)" d="M 181.759432 218.257578 
C 182.78439 218.257578 183.767506 217.850358 184.492261 217.125603 
C 185.217016 216.400848 185.624236 215.417732 185.624236 214.392774 
C 185.624236 213.367816 185.217016 212.3847 184.492261 211.659945 
C 183.767506 210.93519 182.78439 210.52797 181.759432 210.52797 
C 180.734474 210.52797 179.751358 210.93519 179.026603 211.659945 
C 178.301848 212.3847 177.894628 213.367816 177.894628 214.392774 
C 177.894628 215.417732 178.301848 216.400848 179.026603 217.125603 
C 179.751358 217.850358 180.734474 218.257578 181.759432 218.257578 
z
" style="fill:#1f77b4;stroke:#ffffff;stroke-width:0.534008;"/>
    <path clip-path="url(#p3e94b649f8)" d="M 181.759432 115.831772 
C 182.78439 115.831772 183.767506 115.424551 184.492261 114.699797 
C 185.217016 113.975042 185.624236 112.991926 185.624236 111.966968 
C 185.624236 110.94201 185.217016 109.958893 184.492261 109.234139 
C 183.767506 108.509384 182.78439 108.102164 181.759432 108.102164 
C 180.734474 108.102164 179.751358 108.509384 179.026603 109.234139 
C 178.301848 109.958893 177.894628 110.94201 177.894628 111.966968 
C 177.894628 112.991926 178.301848 113.975042 179.026603 114.699797 
C 179.751358 115.424551 180.734474 115.831772 181.759432 115.831772 
z
" style="fill:#ff7f0e;stroke:#ffffff;stroke-width:0.534008;"/>
    <path clip-path="url(#p3e94b649f8)" d="M 181.759432 182.631211 
C 182.78439 182.631211 183.767506 182.22399 184.492261 181.499236 
C 185.217016 180.774481 185.624236 179.791365 185.624236 178.766407 
C 185.624236 177.741449 185.217016 176.758332 184.492261 176.033578 
C 183.767506 175.308823 182.78439 174.901603 181.759432 174.901603 
C 180.734474 174.901603 179.751358 175.308823 179.026603 176.033578 
C 178.301848 176.758332 177.894628 177.741449 177.894628 178.766407 
C 177.894628 179.791365 178.301848 180.774481 179.026603 181.499236 
C 179.751358 182.22399 180.734474 182.631211 181.759432 182.631211 
z
" style="fill:#d62728;stroke:#ffffff;stroke-width:0.534008;"/>
    <path clip-path="url(#p3e94b649f8)" d="M 222.34125 243.943281 
C 223.429405 243.943281 224.473139 243.510952 225.242581 242.741511 
C 226.012023 241.972069 226.444352 240.928335 226.444352 239.84018 
C 226.444352 238.752024 226.012023 237.708291 225.242581 236.938849 
C 224.473139 236.169407 223.429405 235.737078 222.34125 235.737078 
C 221.253095 235.737078 220.209361 236.169407 219.439919 236.938849 
C 218.670477 237.708291 218.238148 238.752024 218.238148 239.84018 
C 218.238148 240.928335 218.670477 241.972069 219.439919 242.741511 
C 220.209361 243.510952 221.253095 243.943281 222.34125 243.943281 
z
" style="fill:#2ca02c;stroke:#ffffff;stroke-width:0.534008;"/>
    <path clip-path="url(#p3e94b649f8)" d="M 222.34125 227.500342 
C 223.429405 227.500342 224.473139 227.068014 225.242581 226.298572 
C 226.012023 225.52913 226.444352 224.485396 226.444352 223.397241 
C 226.444352 222.309085 226.012023 221.265352 225.242581 220.49591 
C 224.473139 219.726468 223.429405 219.294139 222.34125 219.294139 
C 221.253095 219.294139 220.209361 219.726468 219.439919 220.49591 
C 218.670477 221.265352 218.238148 222.309085 218.238148 223.397241 
C 218.238148 224.485396 218.670477 225.52913 219.439919 226.298572 
C 220.209361 227.068014 221.253095 227.500342 222.34125 227.500342 
z
" style="fill:#1f77b4;stroke:#ffffff;stroke-width:0.534008;"/>
    <path clip-path="url(#p3e94b649f8)" d="M 222.34125 113.759713 
C 223.429405 113.759713 224.473139 113.327384 225.242581 112.557942 
C 226.012023 111.7885 226.444352 110.744766 226.444352 109.656611 
C 226.444352 108.568456 226.012023 107.524722 225.242581 106.75528 
C 224.473139 105.985838 223.429405 105.55351 222.34125 105.55351 
C 221.253095 105.55351 220.209361 105.985838 219.439919 106.75528 
C 218.670477 107.524722 218.238148 108.568456 218.238148 109.656611 
C 218.238148 110.744766 218.670477 111.7885 219.439919 112.557942 
C 220.209361 113.327384 221.253095 113.759713 222.34125 113.759713 
z
" style="fill:#ff7f0e;stroke:#ffffff;stroke-width:0.534008;"/>
    <path clip-path="url(#p3e94b649f8)" d="M 222.34125 190.240481 
C 223.429405 190.240481 224.473139 189.808152 225.242581 189.03871 
C 226.012023 188.269268 226.444352 187.225535 226.444352 186.137379 
C 226.444352 185.049224 226.012023 184.00549 225.242581 183.236048 
C 224.473139 182.466606 223.429405 182.034278 222.34125 182.034278 
C 221.253095 182.034278 220.209361 182.466606 219.439919 183.236048 
C 218.670477 184.00549 218.238148 185.049224 218.238148 186.137379 
C 218.238148 187.225535 218.670477 188.269268 219.439919 189.03871 
C 220.209361 189.808152 221.253095 190.240481 222.34125 190.240481 
z
" style="fill:#d62728;stroke:#ffffff;stroke-width:0.534008;"/>
    <path clip-path="url(#p3e94b649f8)" d="M 262.923068 227.212398 
C 264.065115 227.212398 265.16054 226.758658 265.968089 225.951109 
C 266.775638 225.14356 267.229378 224.048135 267.229378 222.906088 
C 267.229378 221.764041 266.775638 220.668616 265.968089 219.861067 
C 265.16054 219.053518 264.065115 218.599778 262.923068 218.599778 
C 261.781021 218.599778 260.685596 219.053518 259.878047 219.861067 
C 259.070498 220.668616 258.616758 221.764041 258.616758 222.906088 
C 258.616758 224.048135 259.070498 225.14356 259.878047 225.951109 
C 260.685596 226.758658 261.781021 227.212398 262.923068 227.212398 
z
" style="fill:#2ca02c;stroke:#ffffff;stroke-width:0.534008;"/>
    <path clip-path="url(#p3e94b649f8)" d="M 262.923068 211.382955 
C 264.065115 211.382955 265.16054 210.929215 265.968089 210.121666 
C 266.775638 209.314117 267.229378 208.218692 267.229378 207.076645 
C 267.229378 205.934598 266.775638 204.839173 265.968089 204.031624 
C 265.16054 203.224075 264.065115 202.770335 262.923068 202.770335 
C 261.781021 202.770335 260.685596 203.224075 259.878047 204.031624 
C 259.070498 204.839173 258.616758 205.934598 258.616758 207.076645 
C 258.616758 208.218692 259.070498 209.314117 259.878047 210.121666 
C 260.685596 210.929215 261.781021 211.382955 262.923068 211.382955 
z
" style="fill:#1f77b4;stroke:#ffffff;stroke-width:0.534008;"/>
    <path clip-path="url(#p3e94b649f8)" d="M 262.923068 87.008761 
C 264.065115 87.008761 265.16054 86.555021 265.968089 85.747472 
C 266.775638 84.939923 267.229378 83.844498 267.229378 82.702452 
C 267.229378 81.560405 266.775638 80.46498 265.968089 79.657431 
C 265.16054 78.849882 264.065115 78.396142 262.923068 78.396142 
C 261.781021 78.396142 260.685596 78.849882 259.878047 79.657431 
C 259.070498 80.46498 258.616758 81.560405 258.616758 82.702452 
C 258.616758 83.844498 259.070498 84.939923 259.878047 85.747472 
C 260.685596 86.555021 261.781021 87.008761 262.923068 87.008761 
z
" style="fill:#ff7f0e;stroke:#ffffff;stroke-width:0.534008;"/>
    <path clip-path="url(#p3e94b649f8)" d="M 262.923068 169.92489 
C 264.065115 169.92489 265.16054 169.47115 265.968089 168.663601 
C 266.775638 167.856053 267.229378 166.760627 267.229378 165.618581 
C 267.229378 164.476534 266.775638 163.381109 265.968089 162.57356 
C 265.16054 161.766011 264.065115 161.312271 262.923068 161.312271 
C 261.781021 161.312271 260.685596 161.766011 259.878047 162.57356 
C 259.070498 163.381109 258.616758 164.476534 258.616758 165.618581 
C 258.616758 166.760627 259.070498 167.856053 259.878047 168.663601 
C 260.685596 169.47115 261.781021 169.92489 262.923068 169.92489 
z
" style="fill:#d62728;stroke:#ffffff;stroke-width:0.534008;"/>
    <path clip-path="url(#p3e94b649f8)" d="M 303.504886 200.623128 
C 304.731502 200.623128 305.908043 200.135788 306.775391 199.26844 
C 307.642739 198.401092 308.130079 197.224551 308.130079 195.997935 
C 308.130079 194.77132 307.642739 193.594779 306.775391 192.727431 
C 305.908043 191.860083 304.731502 191.372743 303.504886 191.372743 
C 302.278271 191.372743 301.101729 191.860083 300.234381 192.727431 
C 299.367033 193.594779 298.879694 194.77132 298.879694 195.997935 
C 298.879694 197.224551 299.367033 198.401092 300.234381 199.26844 
C 301.101729 200.135788 302.278271 200.623128 303.504886 200.623128 
z
" style="fill:#2ca02c;stroke:#ffffff;stroke-width:0.534008;"/>
    <path clip-path="url(#p3e94b649f8)" d="M 303.504886 185.572805 
C 304.731502 185.572805 305.908043 185.085466 306.775391 184.218118 
C 307.642739 183.35077 308.130079 182.174228 308.130079 180.947613 
C 308.130079 179.720998 307.642739 178.544456 306.775391 177.677108 
C 305.908043 176.80976 304.731502 176.32242 303.504886 176.32242 
C 302.278271 176.32242 301.101729 176.80976 300.234381 177.677108 
C 299.367033 178.544456 298.879694 179.720998 298.879694 180.947613 
C 298.879694 182.174228 299.367033 183.35077 300.234381 184.218118 
C 301.101729 185.085466 302.278271 185.572805 303.504886 185.572805 
z
" style="fill:#1f77b4;stroke:#ffffff;stroke-width:0.534008;"/>
    <path clip-path="url(#p3e94b649f8)" d="M 303.504886 57.202407 
C 304.731502 57.202407 305.908043 56.715067 306.775391 55.847719 
C 307.642739 54.980371 308.130079 53.80383 308.130079 52.577214 
C 308.130079 51.350599 307.642739 50.174058 306.775391 49.306709 
C 305.908043 48.439361 304.731502 47.952022 303.504886 47.952022 
C 302.278271 47.952022 301.101729 48.439361 300.234381 49.306709 
C 299.367033 50.174058 298.879694 51.350599 298.879694 52.577214 
C 298.879694 53.80383 299.367033 54.980371 300.234381 55.847719 
C 301.101729 56.715067 302.278271 57.202407 303.504886 57.202407 
z
" style="fill:#ff7f0e;stroke:#ffffff;stroke-width:0.534008;"/>
    <path clip-path="url(#p3e94b649f8)" d="M 303.504886 140.576996 
C 304.731502 140.576996 305.908043 140.089656 306.775391 139.222308 
C 307.642739 138.35496 308.130079 137.178418 308.130079 135.951803 
C 308.130079 134.725188 307.642739 133.548646 306.775391 132.681298 
C 305.908043 131.81395 304.731502 131.326611 303.504886 131.326611 
C 302.278271 131.326611 301.101729 131.81395 300.234381 132.681298 
C 299.367033 133.548646 298.879694 134.725188 298.879694 135.951803 
C 298.879694 137.178418 299.367033 138.35496 300.234381 139.222308 
C 301.101729 140.089656 302.278271 140.576996 303.504886 140.576996 
z
" style="fill:#d62728;stroke:#ffffff;stroke-width:0.534008;"/>
   </g>
   <g id="PathCollection_2"/>
   <g id="PathCollection_3"/>
   <g id="PathCollection_4"/>
   <g id="PathCollection_5"/>
   <g id="PathCollection_6"/>
   <g id="PathCollection_7"/>
   <g id="PathCollection_8"/>
   <g id="PathCollection_9"/>
   <g id="PathCollection_10"/>
   <g id="matplotlib.axis_1">
    <g id="xtick_1">
     <g id="line2d_1">
      <defs>
       <path d="M 0 0 
L 0 3.5 
" id="mca39a0f8d6" style="stroke:#000000;stroke-width:0.8;"/>
      </defs>
      <g>
       <use style="stroke:#000000;stroke-width:0.8;" x="60.013977" xlink:href="#mca39a0f8d6" y="273.312"/>
      </g>
     </g>
     <g id="text_1">
      <!-- 20 -->
      <g transform="translate(53.651477 287.910437)scale(0.1 -0.1)">
       <defs>
        <path d="M 19.1875 8.296875 
L 53.609375 8.296875 
L 53.609375 0 
L 7.328125 0 
L 7.328125 8.296875 
Q 12.9375 14.109375 22.625 23.890625 
Q 32.328125 33.6875 34.8125 36.53125 
Q 39.546875 41.84375 41.421875 45.53125 
Q 43.3125 49.21875 43.3125 52.78125 
Q 43.3125 58.59375 39.234375 62.25 
Q 35.15625 65.921875 28.609375 65.921875 
Q 23.96875 65.921875 18.8125 64.3125 
Q 13.671875 62.703125 7.8125 59.421875 
L 7.8125 69.390625 
Q 13.765625 71.78125 18.9375 73 
Q 24.125 74.21875 28.421875 74.21875 
Q 39.75 74.21875 46.484375 68.546875 
Q 53.21875 62.890625 53.21875 53.421875 
Q 53.21875 48.921875 51.53125 44.890625 
Q 49.859375 40.875 45.40625 35.40625 
Q 44.1875 33.984375 37.640625 27.21875 
Q 31.109375 20.453125 19.1875 8.296875 
z
" id="DejaVuSans-50"/>
        <path d="M 31.78125 66.40625 
Q 24.171875 66.40625 20.328125 58.90625 
Q 16.5 51.421875 16.5 36.375 
Q 16.5 21.390625 20.328125 13.890625 
Q 24.171875 6.390625 31.78125 6.390625 
Q 39.453125 6.390625 43.28125 13.890625 
Q 47.125 21.390625 47.125 36.375 
Q 47.125 51.421875 43.28125 58.90625 
Q 39.453125 66.40625 31.78125 66.40625 
z
M 31.78125 74.21875 
Q 44.046875 74.21875 50.515625 64.515625 
Q 56.984375 54.828125 56.984375 36.375 
Q 56.984375 17.96875 50.515625 8.265625 
Q 44.046875 -1.421875 31.78125 -1.421875 
Q 19.53125 -1.421875 13.0625 8.265625 
Q 6.59375 17.96875 6.59375 36.375 
Q 6.59375 54.828125 13.0625 64.515625 
Q 19.53125 74.21875 31.78125 74.21875 
z
" id="DejaVuSans-48"/>
       </defs>
       <use xlink:href="#DejaVuSans-50"/>
       <use x="63.623047" xlink:href="#DejaVuSans-48"/>
      </g>
     </g>
    </g>
    <g id="xtick_2">
     <g id="line2d_2">
      <g>
       <use style="stroke:#000000;stroke-width:0.8;" x="100.595795" xlink:href="#mca39a0f8d6" y="273.312"/>
      </g>
     </g>
     <g id="text_2">
      <!-- 30 -->
      <g transform="translate(94.233295 287.910437)scale(0.1 -0.1)">
       <defs>
        <path d="M 40.578125 39.3125 
Q 47.65625 37.796875 51.625 33 
Q 55.609375 28.21875 55.609375 21.1875 
Q 55.609375 10.40625 48.1875 4.484375 
Q 40.765625 -1.421875 27.09375 -1.421875 
Q 22.515625 -1.421875 17.65625 -0.515625 
Q 12.796875 0.390625 7.625 2.203125 
L 7.625 11.71875 
Q 11.71875 9.328125 16.59375 8.109375 
Q 21.484375 6.890625 26.8125 6.890625 
Q 36.078125 6.890625 40.9375 10.546875 
Q 45.796875 14.203125 45.796875 21.1875 
Q 45.796875 27.640625 41.28125 31.265625 
Q 36.765625 34.90625 28.71875 34.90625 
L 20.21875 34.90625 
L 20.21875 43.015625 
L 29.109375 43.015625 
Q 36.375 43.015625 40.234375 45.921875 
Q 44.09375 48.828125 44.09375 54.296875 
Q 44.09375 59.90625 40.109375 62.90625 
Q 36.140625 65.921875 28.71875 65.921875 
Q 24.65625 65.921875 20.015625 65.03125 
Q 15.375 64.15625 9.8125 62.3125 
L 9.8125 71.09375 
Q 15.4375 72.65625 20.34375 73.4375 
Q 25.25 74.21875 29.59375 74.21875 
Q 40.828125 74.21875 47.359375 69.109375 
Q 53.90625 64.015625 53.90625 55.328125 
Q 53.90625 49.265625 50.4375 45.09375 
Q 46.96875 40.921875 40.578125 39.3125 
z
" id="DejaVuSans-51"/>
       </defs>
       <use xlink:href="#DejaVuSans-51"/>
       <use x="63.623047" xlink:href="#DejaVuSans-48"/>
      </g>
     </g>
    </g>
    <g id="xtick_3">
     <g id="line2d_3">
      <g>
       <use style="stroke:#000000;stroke-width:0.8;" x="141.177614" xlink:href="#mca39a0f8d6" y="273.312"/>
      </g>
     </g>
     <g id="text_3">
      <!-- 40 -->
      <g transform="translate(134.815114 287.910437)scale(0.1 -0.1)">
       <defs>
        <path d="M 37.796875 64.3125 
L 12.890625 25.390625 
L 37.796875 25.390625 
z
M 35.203125 72.90625 
L 47.609375 72.90625 
L 47.609375 25.390625 
L 58.015625 25.390625 
L 58.015625 17.1875 
L 47.609375 17.1875 
L 47.609375 0 
L 37.796875 0 
L 37.796875 17.1875 
L 4.890625 17.1875 
L 4.890625 26.703125 
z
" id="DejaVuSans-52"/>
       </defs>
       <use xlink:href="#DejaVuSans-52"/>
       <use x="63.623047" xlink:href="#DejaVuSans-48"/>
      </g>
     </g>
    </g>
    <g id="xtick_4">
     <g id="line2d_4">
      <g>
       <use style="stroke:#000000;stroke-width:0.8;" x="181.759432" xlink:href="#mca39a0f8d6" y="273.312"/>
      </g>
     </g>
     <g id="text_4">
      <!-- 50 -->
      <g transform="translate(175.396932 287.910437)scale(0.1 -0.1)">
       <defs>
        <path d="M 10.796875 72.90625 
L 49.515625 72.90625 
L 49.515625 64.59375 
L 19.828125 64.59375 
L 19.828125 46.734375 
Q 21.96875 47.46875 24.109375 47.828125 
Q 26.265625 48.1875 28.421875 48.1875 
Q 40.625 48.1875 47.75 41.5 
Q 54.890625 34.8125 54.890625 23.390625 
Q 54.890625 11.625 47.5625 5.09375 
Q 40.234375 -1.421875 26.90625 -1.421875 
Q 22.3125 -1.421875 17.546875 -0.640625 
Q 12.796875 0.140625 7.71875 1.703125 
L 7.71875 11.625 
Q 12.109375 9.234375 16.796875 8.0625 
Q 21.484375 6.890625 26.703125 6.890625 
Q 35.15625 6.890625 40.078125 11.328125 
Q 45.015625 15.765625 45.015625 23.390625 
Q 45.015625 31 40.078125 35.4375 
Q 35.15625 39.890625 26.703125 39.890625 
Q 22.75 39.890625 18.8125 39.015625 
Q 14.890625 38.140625 10.796875 36.28125 
z
" id="DejaVuSans-53"/>
       </defs>
       <use xlink:href="#DejaVuSans-53"/>
       <use x="63.623047" xlink:href="#DejaVuSans-48"/>
      </g>
     </g>
    </g>
    <g id="xtick_5">
     <g id="line2d_5">
      <g>
       <use style="stroke:#000000;stroke-width:0.8;" x="222.34125" xlink:href="#mca39a0f8d6" y="273.312"/>
      </g>
     </g>
     <g id="text_5">
      <!-- 70 -->
      <g transform="translate(215.97875 287.910437)scale(0.1 -0.1)">
       <defs>
        <path d="M 8.203125 72.90625 
L 55.078125 72.90625 
L 55.078125 68.703125 
L 28.609375 0 
L 18.3125 0 
L 43.21875 64.59375 
L 8.203125 64.59375 
z
" id="DejaVuSans-55"/>
       </defs>
       <use xlink:href="#DejaVuSans-55"/>
       <use x="63.623047" xlink:href="#DejaVuSans-48"/>
      </g>
     </g>
    </g>
    <g id="xtick_6">
     <g id="line2d_6">
      <g>
       <use style="stroke:#000000;stroke-width:0.8;" x="262.923068" xlink:href="#mca39a0f8d6" y="273.312"/>
      </g>
     </g>
     <g id="text_6">
      <!-- 100 -->
      <g transform="translate(253.379318 287.910437)scale(0.1 -0.1)">
       <defs>
        <path d="M 12.40625 8.296875 
L 28.515625 8.296875 
L 28.515625 63.921875 
L 10.984375 60.40625 
L 10.984375 69.390625 
L 28.421875 72.90625 
L 38.28125 72.90625 
L 38.28125 8.296875 
L 54.390625 8.296875 
L 54.390625 0 
L 12.40625 0 
z
" id="DejaVuSans-49"/>
       </defs>
       <use xlink:href="#DejaVuSans-49"/>
       <use x="63.623047" xlink:href="#DejaVuSans-48"/>
       <use x="127.246094" xlink:href="#DejaVuSans-48"/>
      </g>
     </g>
    </g>
    <g id="xtick_7">
     <g id="line2d_7">
      <g>
       <use style="stroke:#000000;stroke-width:0.8;" x="303.504886" xlink:href="#mca39a0f8d6" y="273.312"/>
      </g>
     </g>
     <g id="text_7">
      <!-- 150 -->
      <g transform="translate(293.961136 287.910437)scale(0.1 -0.1)">
       <use xlink:href="#DejaVuSans-49"/>
       <use x="63.623047" xlink:href="#DejaVuSans-53"/>
       <use x="127.246094" xlink:href="#DejaVuSans-48"/>
      </g>
     </g>
    </g>
    <g id="xtick_8">
     <g id="line2d_8">
      <g>
       <use style="stroke:#000000;stroke-width:0.8;" x="344.086705" xlink:href="#mca39a0f8d6" y="273.312"/>
      </g>
     </g>
     <g id="text_8">
      <!-- 200 -->
      <g transform="translate(334.542955 287.910437)scale(0.1 -0.1)">
       <use xlink:href="#DejaVuSans-50"/>
       <use x="63.623047" xlink:href="#DejaVuSans-48"/>
       <use x="127.246094" xlink:href="#DejaVuSans-48"/>
      </g>
     </g>
    </g>
    <g id="xtick_9">
     <g id="line2d_9">
      <g>
       <use style="stroke:#000000;stroke-width:0.8;" x="384.668523" xlink:href="#mca39a0f8d6" y="273.312"/>
      </g>
     </g>
     <g id="text_9">
      <!-- 200&lt; -->
      <g transform="translate(370.934929 287.910437)scale(0.1 -0.1)">
       <defs>
        <path d="M 73.1875 49.21875 
L 22.796875 31.296875 
L 73.1875 13.484375 
L 73.1875 4.59375 
L 10.59375 27.296875 
L 10.59375 35.40625 
L 73.1875 58.109375 
z
" id="DejaVuSans-60"/>
       </defs>
       <use xlink:href="#DejaVuSans-50"/>
       <use x="63.623047" xlink:href="#DejaVuSans-48"/>
       <use x="127.246094" xlink:href="#DejaVuSans-48"/>
       <use x="190.869141" xlink:href="#DejaVuSans-60"/>
      </g>
     </g>
    </g>
    <g id="text_10">
     <!-- nrows -->
     <g transform="translate(207.476406 301.588562)scale(0.1 -0.1)">
      <defs>
       <path d="M 54.890625 33.015625 
L 54.890625 0 
L 45.90625 0 
L 45.90625 32.71875 
Q 45.90625 40.484375 42.875 44.328125 
Q 39.84375 48.1875 33.796875 48.1875 
Q 26.515625 48.1875 22.3125 43.546875 
Q 18.109375 38.921875 18.109375 30.90625 
L 18.109375 0 
L 9.078125 0 
L 9.078125 54.6875 
L 18.109375 54.6875 
L 18.109375 46.1875 
Q 21.34375 51.125 25.703125 53.5625 
Q 30.078125 56 35.796875 56 
Q 45.21875 56 50.046875 50.171875 
Q 54.890625 44.34375 54.890625 33.015625 
z
" id="DejaVuSans-110"/>
       <path d="M 41.109375 46.296875 
Q 39.59375 47.171875 37.8125 47.578125 
Q 36.03125 48 33.890625 48 
Q 26.265625 48 22.1875 43.046875 
Q 18.109375 38.09375 18.109375 28.8125 
L 18.109375 0 
L 9.078125 0 
L 9.078125 54.6875 
L 18.109375 54.6875 
L 18.109375 46.1875 
Q 20.953125 51.171875 25.484375 53.578125 
Q 30.03125 56 36.53125 56 
Q 37.453125 56 38.578125 55.875 
Q 39.703125 55.765625 41.0625 55.515625 
z
" id="DejaVuSans-114"/>
       <path d="M 30.609375 48.390625 
Q 23.390625 48.390625 19.1875 42.75 
Q 14.984375 37.109375 14.984375 27.296875 
Q 14.984375 17.484375 19.15625 11.84375 
Q 23.34375 6.203125 30.609375 6.203125 
Q 37.796875 6.203125 41.984375 11.859375 
Q 46.1875 17.53125 46.1875 27.296875 
Q 46.1875 37.015625 41.984375 42.703125 
Q 37.796875 48.390625 30.609375 48.390625 
z
M 30.609375 56 
Q 42.328125 56 49.015625 48.375 
Q 55.71875 40.765625 55.71875 27.296875 
Q 55.71875 13.875 49.015625 6.21875 
Q 42.328125 -1.421875 30.609375 -1.421875 
Q 18.84375 -1.421875 12.171875 6.21875 
Q 5.515625 13.875 5.515625 27.296875 
Q 5.515625 40.765625 12.171875 48.375 
Q 18.84375 56 30.609375 56 
z
" id="DejaVuSans-111"/>
       <path d="M 4.203125 54.6875 
L 13.1875 54.6875 
L 24.421875 12.015625 
L 35.59375 54.6875 
L 46.1875 54.6875 
L 57.421875 12.015625 
L 68.609375 54.6875 
L 77.59375 54.6875 
L 63.28125 0 
L 52.6875 0 
L 40.921875 44.828125 
L 29.109375 0 
L 18.5 0 
z
" id="DejaVuSans-119"/>
       <path d="M 44.28125 53.078125 
L 44.28125 44.578125 
Q 40.484375 46.53125 36.375 47.5 
Q 32.28125 48.484375 27.875 48.484375 
Q 21.1875 48.484375 17.84375 46.4375 
Q 14.5 44.390625 14.5 40.28125 
Q 14.5 37.15625 16.890625 35.375 
Q 19.28125 33.59375 26.515625 31.984375 
L 29.59375 31.296875 
Q 39.15625 29.25 43.1875 25.515625 
Q 47.21875 21.78125 47.21875 15.09375 
Q 47.21875 7.46875 41.1875 3.015625 
Q 35.15625 -1.421875 24.609375 -1.421875 
Q 20.21875 -1.421875 15.453125 -0.5625 
Q 10.6875 0.296875 5.421875 2 
L 5.421875 11.28125 
Q 10.40625 8.6875 15.234375 7.390625 
Q 20.0625 6.109375 24.8125 6.109375 
Q 31.15625 6.109375 34.5625 8.28125 
Q 37.984375 10.453125 37.984375 14.40625 
Q 37.984375 18.0625 35.515625 20.015625 
Q 33.0625 21.96875 24.703125 23.78125 
L 21.578125 24.515625 
Q 13.234375 26.265625 9.515625 29.90625 
Q 5.8125 33.546875 5.8125 39.890625 
Q 5.8125 47.609375 11.28125 51.796875 
Q 16.75 56 26.8125 56 
Q 31.78125 56 36.171875 55.265625 
Q 40.578125 54.546875 44.28125 53.078125 
z
" id="DejaVuSans-115"/>
      </defs>
      <use xlink:href="#DejaVuSans-110"/>
      <use x="63.378906" xlink:href="#DejaVuSans-114"/>
      <use x="102.242188" xlink:href="#DejaVuSans-111"/>
      <use x="163.423828" xlink:href="#DejaVuSans-119"/>
      <use x="245.210938" xlink:href="#DejaVuSans-115"/>
     </g>
    </g>
   </g>
   <g id="matplotlib.axis_2">
    <g id="ytick_1">
     <g id="line2d_10">
      <defs>
       <path d="M 0 0 
L -3.5 0 
" id="mfe64ee1447" style="stroke:#000000;stroke-width:0.8;"/>
      </defs>
      <g>
       <use style="stroke:#000000;stroke-width:0.8;" x="43.78125" xlink:href="#mfe64ee1447" y="261.216"/>
      </g>
     </g>
     <g id="text_11">
      <!-- 0.2 -->
      <g transform="translate(20.878125 265.015219)scale(0.1 -0.1)">
       <defs>
        <path d="M 10.6875 12.40625 
L 21 12.40625 
L 21 0 
L 10.6875 0 
z
" id="DejaVuSans-46"/>
       </defs>
       <use xlink:href="#DejaVuSans-48"/>
       <use x="63.623047" xlink:href="#DejaVuSans-46"/>
       <use x="95.410156" xlink:href="#DejaVuSans-50"/>
      </g>
     </g>
    </g>
    <g id="ytick_2">
     <g id="line2d_11">
      <g>
       <use style="stroke:#000000;stroke-width:0.8;" x="43.78125" xlink:href="#mfe64ee1447" y="226.098581"/>
      </g>
     </g>
     <g id="text_12">
      <!-- 0.3 -->
      <g transform="translate(20.878125 229.897799)scale(0.1 -0.1)">
       <use xlink:href="#DejaVuSans-48"/>
       <use x="63.623047" xlink:href="#DejaVuSans-46"/>
       <use x="95.410156" xlink:href="#DejaVuSans-51"/>
      </g>
     </g>
    </g>
    <g id="ytick_3">
     <g id="line2d_12">
      <g>
       <use style="stroke:#000000;stroke-width:0.8;" x="43.78125" xlink:href="#mfe64ee1447" y="190.981161"/>
      </g>
     </g>
     <g id="text_13">
      <!-- 0.4 -->
      <g transform="translate(20.878125 194.78038)scale(0.1 -0.1)">
       <use xlink:href="#DejaVuSans-48"/>
       <use x="63.623047" xlink:href="#DejaVuSans-46"/>
       <use x="95.410156" xlink:href="#DejaVuSans-52"/>
      </g>
     </g>
    </g>
    <g id="ytick_4">
     <g id="line2d_13">
      <g>
       <use style="stroke:#000000;stroke-width:0.8;" x="43.78125" xlink:href="#mfe64ee1447" y="155.863742"/>
      </g>
     </g>
     <g id="text_14">
      <!-- 0.5 -->
      <g transform="translate(20.878125 159.662961)scale(0.1 -0.1)">
       <use xlink:href="#DejaVuSans-48"/>
       <use x="63.623047" xlink:href="#DejaVuSans-46"/>
       <use x="95.410156" xlink:href="#DejaVuSans-53"/>
      </g>
     </g>
    </g>
    <g id="ytick_5">
     <g id="line2d_14">
      <g>
       <use style="stroke:#000000;stroke-width:0.8;" x="43.78125" xlink:href="#mfe64ee1447" y="120.746323"/>
      </g>
     </g>
     <g id="text_15">
      <!-- 0.6 -->
      <g transform="translate(20.878125 124.545541)scale(0.1 -0.1)">
       <defs>
        <path d="M 33.015625 40.375 
Q 26.375 40.375 22.484375 35.828125 
Q 18.609375 31.296875 18.609375 23.390625 
Q 18.609375 15.53125 22.484375 10.953125 
Q 26.375 6.390625 33.015625 6.390625 
Q 39.65625 6.390625 43.53125 10.953125 
Q 47.40625 15.53125 47.40625 23.390625 
Q 47.40625 31.296875 43.53125 35.828125 
Q 39.65625 40.375 33.015625 40.375 
z
M 52.59375 71.296875 
L 52.59375 62.3125 
Q 48.875 64.0625 45.09375 64.984375 
Q 41.3125 65.921875 37.59375 65.921875 
Q 27.828125 65.921875 22.671875 59.328125 
Q 17.53125 52.734375 16.796875 39.40625 
Q 19.671875 43.65625 24.015625 45.921875 
Q 28.375 48.1875 33.59375 48.1875 
Q 44.578125 48.1875 50.953125 41.515625 
Q 57.328125 34.859375 57.328125 23.390625 
Q 57.328125 12.15625 50.6875 5.359375 
Q 44.046875 -1.421875 33.015625 -1.421875 
Q 20.359375 -1.421875 13.671875 8.265625 
Q 6.984375 17.96875 6.984375 36.375 
Q 6.984375 53.65625 15.1875 63.9375 
Q 23.390625 74.21875 37.203125 74.21875 
Q 40.921875 74.21875 44.703125 73.484375 
Q 48.484375 72.75 52.59375 71.296875 
z
" id="DejaVuSans-54"/>
       </defs>
       <use xlink:href="#DejaVuSans-48"/>
       <use x="63.623047" xlink:href="#DejaVuSans-46"/>
       <use x="95.410156" xlink:href="#DejaVuSans-54"/>
      </g>
     </g>
    </g>
    <g id="ytick_6">
     <g id="line2d_15">
      <g>
       <use style="stroke:#000000;stroke-width:0.8;" x="43.78125" xlink:href="#mfe64ee1447" y="85.628903"/>
      </g>
     </g>
     <g id="text_16">
      <!-- 0.7 -->
      <g transform="translate(20.878125 89.428122)scale(0.1 -0.1)">
       <use xlink:href="#DejaVuSans-48"/>
       <use x="63.623047" xlink:href="#DejaVuSans-46"/>
       <use x="95.410156" xlink:href="#DejaVuSans-55"/>
      </g>
     </g>
    </g>
    <g id="ytick_7">
     <g id="line2d_16">
      <g>
       <use style="stroke:#000000;stroke-width:0.8;" x="43.78125" xlink:href="#mfe64ee1447" y="50.511484"/>
      </g>
     </g>
     <g id="text_17">
      <!-- 0.8 -->
      <g transform="translate(20.878125 54.310703)scale(0.1 -0.1)">
       <defs>
        <path d="M 31.78125 34.625 
Q 24.75 34.625 20.71875 30.859375 
Q 16.703125 27.09375 16.703125 20.515625 
Q 16.703125 13.921875 20.71875 10.15625 
Q 24.75 6.390625 31.78125 6.390625 
Q 38.8125 6.390625 42.859375 10.171875 
Q 46.921875 13.96875 46.921875 20.515625 
Q 46.921875 27.09375 42.890625 30.859375 
Q 38.875 34.625 31.78125 34.625 
z
M 21.921875 38.8125 
Q 15.578125 40.375 12.03125 44.71875 
Q 8.5 49.078125 8.5 55.328125 
Q 8.5 64.0625 14.71875 69.140625 
Q 20.953125 74.21875 31.78125 74.21875 
Q 42.671875 74.21875 48.875 69.140625 
Q 55.078125 64.0625 55.078125 55.328125 
Q 55.078125 49.078125 51.53125 44.71875 
Q 48 40.375 41.703125 38.8125 
Q 48.828125 37.15625 52.796875 32.3125 
Q 56.78125 27.484375 56.78125 20.515625 
Q 56.78125 9.90625 50.3125 4.234375 
Q 43.84375 -1.421875 31.78125 -1.421875 
Q 19.734375 -1.421875 13.25 4.234375 
Q 6.78125 9.90625 6.78125 20.515625 
Q 6.78125 27.484375 10.78125 32.3125 
Q 14.796875 37.15625 21.921875 38.8125 
z
M 18.3125 54.390625 
Q 18.3125 48.734375 21.84375 45.5625 
Q 25.390625 42.390625 31.78125 42.390625 
Q 38.140625 42.390625 41.71875 45.5625 
Q 45.3125 48.734375 45.3125 54.390625 
Q 45.3125 60.0625 41.71875 63.234375 
Q 38.140625 66.40625 31.78125 66.40625 
Q 25.390625 66.40625 21.84375 63.234375 
Q 18.3125 60.0625 18.3125 54.390625 
z
" id="DejaVuSans-56"/>
       </defs>
       <use xlink:href="#DejaVuSans-48"/>
       <use x="63.623047" xlink:href="#DejaVuSans-46"/>
       <use x="95.410156" xlink:href="#DejaVuSans-56"/>
      </g>
     </g>
    </g>
    <g id="ytick_8">
     <g id="line2d_17">
      <g>
       <use style="stroke:#000000;stroke-width:0.8;" x="43.78125" xlink:href="#mfe64ee1447" y="15.394065"/>
      </g>
     </g>
     <g id="text_18">
      <!-- 0.9 -->
      <g transform="translate(20.878125 19.193283)scale(0.1 -0.1)">
       <defs>
        <path d="M 10.984375 1.515625 
L 10.984375 10.5 
Q 14.703125 8.734375 18.5 7.8125 
Q 22.3125 6.890625 25.984375 6.890625 
Q 35.75 6.890625 40.890625 13.453125 
Q 46.046875 20.015625 46.78125 33.40625 
Q 43.953125 29.203125 39.59375 26.953125 
Q 35.25 24.703125 29.984375 24.703125 
Q 19.046875 24.703125 12.671875 31.3125 
Q 6.296875 37.9375 6.296875 49.421875 
Q 6.296875 60.640625 12.9375 67.421875 
Q 19.578125 74.21875 30.609375 74.21875 
Q 43.265625 74.21875 49.921875 64.515625 
Q 56.59375 54.828125 56.59375 36.375 
Q 56.59375 19.140625 48.40625 8.859375 
Q 40.234375 -1.421875 26.421875 -1.421875 
Q 22.703125 -1.421875 18.890625 -0.6875 
Q 15.09375 0.046875 10.984375 1.515625 
z
M 30.609375 32.421875 
Q 37.25 32.421875 41.125 36.953125 
Q 45.015625 41.5 45.015625 49.421875 
Q 45.015625 57.28125 41.125 61.84375 
Q 37.25 66.40625 30.609375 66.40625 
Q 23.96875 66.40625 20.09375 61.84375 
Q 16.21875 57.28125 16.21875 49.421875 
Q 16.21875 41.5 20.09375 36.953125 
Q 23.96875 32.421875 30.609375 32.421875 
z
" id="DejaVuSans-57"/>
       </defs>
       <use xlink:href="#DejaVuSans-48"/>
       <use x="63.623047" xlink:href="#DejaVuSans-46"/>
       <use x="95.410156" xlink:href="#DejaVuSans-57"/>
      </g>
     </g>
    </g>
    <g id="text_19">
     <!-- score -->
     <g transform="translate(14.798438 153.688812)rotate(-90)scale(0.1 -0.1)">
      <defs>
       <path d="M 48.78125 52.59375 
L 48.78125 44.1875 
Q 44.96875 46.296875 41.140625 47.34375 
Q 37.3125 48.390625 33.40625 48.390625 
Q 24.65625 48.390625 19.8125 42.84375 
Q 14.984375 37.3125 14.984375 27.296875 
Q 14.984375 17.28125 19.8125 11.734375 
Q 24.65625 6.203125 33.40625 6.203125 
Q 37.3125 6.203125 41.140625 7.25 
Q 44.96875 8.296875 48.78125 10.40625 
L 48.78125 2.09375 
Q 45.015625 0.34375 40.984375 -0.53125 
Q 36.96875 -1.421875 32.421875 -1.421875 
Q 20.0625 -1.421875 12.78125 6.34375 
Q 5.515625 14.109375 5.515625 27.296875 
Q 5.515625 40.671875 12.859375 48.328125 
Q 20.21875 56 33.015625 56 
Q 37.15625 56 41.109375 55.140625 
Q 45.0625 54.296875 48.78125 52.59375 
z
" id="DejaVuSans-99"/>
       <path d="M 56.203125 29.59375 
L 56.203125 25.203125 
L 14.890625 25.203125 
Q 15.484375 15.921875 20.484375 11.0625 
Q 25.484375 6.203125 34.421875 6.203125 
Q 39.59375 6.203125 44.453125 7.46875 
Q 49.3125 8.734375 54.109375 11.28125 
L 54.109375 2.78125 
Q 49.265625 0.734375 44.1875 -0.34375 
Q 39.109375 -1.421875 33.890625 -1.421875 
Q 20.796875 -1.421875 13.15625 6.1875 
Q 5.515625 13.8125 5.515625 26.8125 
Q 5.515625 40.234375 12.765625 48.109375 
Q 20.015625 56 32.328125 56 
Q 43.359375 56 49.78125 48.890625 
Q 56.203125 41.796875 56.203125 29.59375 
z
M 47.21875 32.234375 
Q 47.125 39.59375 43.09375 43.984375 
Q 39.0625 48.390625 32.421875 48.390625 
Q 24.90625 48.390625 20.390625 44.140625 
Q 15.875 39.890625 15.1875 32.171875 
z
" id="DejaVuSans-101"/>
      </defs>
      <use xlink:href="#DejaVuSans-115"/>
      <use x="52.099609" xlink:href="#DejaVuSans-99"/>
      <use x="107.080078" xlink:href="#DejaVuSans-111"/>
      <use x="168.261719" xlink:href="#DejaVuSans-114"/>
      <use x="207.125" xlink:href="#DejaVuSans-101"/>
     </g>
    </g>
   </g>
   <g id="line2d_18">
    <path clip-path="url(#p3e94b649f8)" d="M 60.013977 243.65729 
L 100.595795 207.507006 
L 141.177614 197.670194 
L 181.759432 214.392774 
L 222.34125 223.397241 
L 262.923068 207.076645 
L 303.504886 180.947613 
L 344.086705 185.842027 
L 384.668523 123.347613 
" style="fill:none;stroke:#1f77b4;stroke-dasharray:3.7,1.6;stroke-dashoffset:0;"/>
   </g>
   <g id="line2d_19">
    <path clip-path="url(#p3e94b649f8)" d="M 60.013977 155.863742 
L 100.595795 139.901279 
L 141.177614 115.343643 
L 181.759432 111.966968 
L 222.34125 109.656611 
L 262.923068 82.702452 
L 303.504886 52.577214 
L 344.086705 40.233215 
L 384.668523 19.296 
" style="fill:none;stroke:#ff7f0e;stroke-dasharray:1,1.65;stroke-dashoffset:0;"/>
   </g>
   <g id="line2d_20">
    <path clip-path="url(#p3e94b649f8)" d="M 60.013977 261.216 
L 100.595795 235.676059 
L 141.177614 223.397241 
L 181.759432 233.902452 
L 222.34125 239.84018 
L 262.923068 222.906088 
L 303.504886 195.997935 
L 344.086705 197.294405 
L 384.668523 137.69956 
" style="fill:none;stroke:#2ca02c;stroke-dasharray:6.4,1.6,1,1.6;stroke-dashoffset:0;"/>
   </g>
   <g id="line2d_21">
    <path clip-path="url(#p3e94b649f8)" d="M 60.013977 214.392774 
L 100.595795 180.947613 
L 141.177614 166.192395 
L 181.759432 178.766407 
L 222.34125 186.137379 
L 262.923068 165.618581 
L 303.504886 135.951803 
L 344.086705 137.305756 
L 384.668523 81.726968 
" style="fill:none;stroke:#d62728;stroke-linecap:square;"/>
   </g>
   <g id="patch_3">
    <path d="M 43.78125 273.312 
L 43.78125 7.2 
" style="fill:none;stroke:#000000;stroke-linecap:square;stroke-linejoin:miter;stroke-width:0.8;"/>
   </g>
   <g id="patch_4">
    <path d="M 400.90125 273.312 
L 400.90125 7.2 
" style="fill:none;stroke:#000000;stroke-linecap:square;stroke-linejoin:miter;stroke-width:0.8;"/>
   </g>
   <g id="patch_5">
    <path d="M 43.78125 273.312 
L 400.90125 273.312 
" style="fill:none;stroke:#000000;stroke-linecap:square;stroke-linejoin:miter;stroke-width:0.8;"/>
   </g>
   <g id="patch_6">
    <path d="M 43.78125 7.2 
L 400.90125 7.2 
" style="fill:none;stroke:#000000;stroke-linecap:square;stroke-linejoin:miter;stroke-width:0.8;"/>
   </g>
   <g id="legend_1">
    <g id="patch_7">
     <path d="M 48.63925 124.804806 
L 102.159662 124.804806 
Q 103.547663 124.804806 103.547663 123.416806 
L 103.547663 12.058 
Q 103.547663 10.67 102.159662 10.67 
L 48.63925 10.67 
Q 47.25125 10.67 47.25125 12.058 
L 47.25125 123.416806 
Q 47.25125 124.804806 48.63925 124.804806 
z
" style="fill:#ffffff;opacity:0.8;stroke:#cccccc;stroke-linejoin:miter;"/>
    </g>
    <g id="text_20">
     <!-- metric -->
     <g transform="translate(69.45925 18.719316)scale(0.0694 -0.0694)">
      <defs>
       <path d="M 52 44.1875 
Q 55.375 50.25 60.0625 53.125 
Q 64.75 56 71.09375 56 
Q 79.640625 56 84.28125 50.015625 
Q 88.921875 44.046875 88.921875 33.015625 
L 88.921875 0 
L 79.890625 0 
L 79.890625 32.71875 
Q 79.890625 40.578125 77.09375 44.375 
Q 74.3125 48.1875 68.609375 48.1875 
Q 61.625 48.1875 57.5625 43.546875 
Q 53.515625 38.921875 53.515625 30.90625 
L 53.515625 0 
L 44.484375 0 
L 44.484375 32.71875 
Q 44.484375 40.625 41.703125 44.40625 
Q 38.921875 48.1875 33.109375 48.1875 
Q 26.21875 48.1875 22.15625 43.53125 
Q 18.109375 38.875 18.109375 30.90625 
L 18.109375 0 
L 9.078125 0 
L 9.078125 54.6875 
L 18.109375 54.6875 
L 18.109375 46.1875 
Q 21.1875 51.21875 25.484375 53.609375 
Q 29.78125 56 35.6875 56 
Q 41.65625 56 45.828125 52.96875 
Q 50 49.953125 52 44.1875 
z
" id="DejaVuSans-109"/>
       <path d="M 18.3125 70.21875 
L 18.3125 54.6875 
L 36.8125 54.6875 
L 36.8125 47.703125 
L 18.3125 47.703125 
L 18.3125 18.015625 
Q 18.3125 11.328125 20.140625 9.421875 
Q 21.96875 7.515625 27.59375 7.515625 
L 36.8125 7.515625 
L 36.8125 0 
L 27.59375 0 
Q 17.1875 0 13.234375 3.875 
Q 9.28125 7.765625 9.28125 18.015625 
L 9.28125 47.703125 
L 2.6875 47.703125 
L 2.6875 54.6875 
L 9.28125 54.6875 
L 9.28125 70.21875 
z
" id="DejaVuSans-116"/>
       <path d="M 9.421875 54.6875 
L 18.40625 54.6875 
L 18.40625 0 
L 9.421875 0 
z
M 9.421875 75.984375 
L 18.40625 75.984375 
L 18.40625 64.59375 
L 9.421875 64.59375 
z
" id="DejaVuSans-105"/>
      </defs>
      <use xlink:href="#DejaVuSans-109"/>
      <use x="97.412109" xlink:href="#DejaVuSans-101"/>
      <use x="158.935547" xlink:href="#DejaVuSans-116"/>
      <use x="198.144531" xlink:href="#DejaVuSans-114"/>
      <use x="239.257812" xlink:href="#DejaVuSans-105"/>
      <use x="267.041016" xlink:href="#DejaVuSans-99"/>
     </g>
    </g>
    <g id="PathCollection_11">
     <defs>
      <path d="M 0 3 
C 0.795609 3 1.55874 2.683901 2.12132 2.12132 
C 2.683901 1.55874 3 0.795609 3 0 
C 3 -0.795609 2.683901 -1.55874 2.12132 -2.12132 
C 1.55874 -2.683901 0.795609 -3 0 -3 
C -0.795609 -3 -1.55874 -2.683901 -2.12132 -2.12132 
C -2.683901 -1.55874 -3 -0.795609 -3 0 
C -3 0.795609 -2.683901 1.55874 -2.12132 2.12132 
C -1.55874 2.683901 -0.795609 3 0 3 
z
" id="m86fc5e8819" style="stroke:#1f77b4;"/>
     </defs>
     <g>
      <use style="fill:#1f77b4;stroke:#1f77b4;" x="56.96725" xlink:href="#m86fc5e8819" y="27.084184"/>
     </g>
    </g>
    <g id="text_21">
     <!-- precision -->
     <g transform="translate(69.45925 28.905934)scale(0.0694 -0.0694)">
      <defs>
       <path d="M 18.109375 8.203125 
L 18.109375 -20.796875 
L 9.078125 -20.796875 
L 9.078125 54.6875 
L 18.109375 54.6875 
L 18.109375 46.390625 
Q 20.953125 51.265625 25.265625 53.625 
Q 29.59375 56 35.59375 56 
Q 45.5625 56 51.78125 48.09375 
Q 58.015625 40.1875 58.015625 27.296875 
Q 58.015625 14.40625 51.78125 6.484375 
Q 45.5625 -1.421875 35.59375 -1.421875 
Q 29.59375 -1.421875 25.265625 0.953125 
Q 20.953125 3.328125 18.109375 8.203125 
z
M 48.6875 27.296875 
Q 48.6875 37.203125 44.609375 42.84375 
Q 40.53125 48.484375 33.40625 48.484375 
Q 26.265625 48.484375 22.1875 42.84375 
Q 18.109375 37.203125 18.109375 27.296875 
Q 18.109375 17.390625 22.1875 11.75 
Q 26.265625 6.109375 33.40625 6.109375 
Q 40.53125 6.109375 44.609375 11.75 
Q 48.6875 17.390625 48.6875 27.296875 
z
" id="DejaVuSans-112"/>
      </defs>
      <use xlink:href="#DejaVuSans-112"/>
      <use x="63.476562" xlink:href="#DejaVuSans-114"/>
      <use x="102.339844" xlink:href="#DejaVuSans-101"/>
      <use x="163.863281" xlink:href="#DejaVuSans-99"/>
      <use x="218.84375" xlink:href="#DejaVuSans-105"/>
      <use x="246.626953" xlink:href="#DejaVuSans-115"/>
      <use x="298.726562" xlink:href="#DejaVuSans-105"/>
      <use x="326.509766" xlink:href="#DejaVuSans-111"/>
      <use x="387.691406" xlink:href="#DejaVuSans-110"/>
     </g>
    </g>
    <g id="PathCollection_12">
     <defs>
      <path d="M 0 3 
C 0.795609 3 1.55874 2.683901 2.12132 2.12132 
C 2.683901 1.55874 3 0.795609 3 0 
C 3 -0.795609 2.683901 -1.55874 2.12132 -2.12132 
C 1.55874 -2.683901 0.795609 -3 0 -3 
C -0.795609 -3 -1.55874 -2.683901 -2.12132 -2.12132 
C -2.683901 -1.55874 -3 -0.795609 -3 0 
C -3 0.795609 -2.683901 1.55874 -2.12132 2.12132 
C -1.55874 2.683901 -0.795609 3 0 3 
z
" id="m5ff3cb28a1" style="stroke:#ff7f0e;"/>
     </defs>
     <g>
      <use style="fill:#ff7f0e;stroke:#ff7f0e;" x="56.96725" xlink:href="#m5ff3cb28a1" y="37.270803"/>
     </g>
    </g>
    <g id="text_22">
     <!-- recall -->
     <g transform="translate(69.45925 39.092553)scale(0.0694 -0.0694)">
      <defs>
       <path d="M 34.28125 27.484375 
Q 23.390625 27.484375 19.1875 25 
Q 14.984375 22.515625 14.984375 16.5 
Q 14.984375 11.71875 18.140625 8.90625 
Q 21.296875 6.109375 26.703125 6.109375 
Q 34.1875 6.109375 38.703125 11.40625 
Q 43.21875 16.703125 43.21875 25.484375 
L 43.21875 27.484375 
z
M 52.203125 31.203125 
L 52.203125 0 
L 43.21875 0 
L 43.21875 8.296875 
Q 40.140625 3.328125 35.546875 0.953125 
Q 30.953125 -1.421875 24.3125 -1.421875 
Q 15.921875 -1.421875 10.953125 3.296875 
Q 6 8.015625 6 15.921875 
Q 6 25.140625 12.171875 29.828125 
Q 18.359375 34.515625 30.609375 34.515625 
L 43.21875 34.515625 
L 43.21875 35.40625 
Q 43.21875 41.609375 39.140625 45 
Q 35.0625 48.390625 27.6875 48.390625 
Q 23 48.390625 18.546875 47.265625 
Q 14.109375 46.140625 10.015625 43.890625 
L 10.015625 52.203125 
Q 14.9375 54.109375 19.578125 55.046875 
Q 24.21875 56 28.609375 56 
Q 40.484375 56 46.34375 49.84375 
Q 52.203125 43.703125 52.203125 31.203125 
z
" id="DejaVuSans-97"/>
       <path d="M 9.421875 75.984375 
L 18.40625 75.984375 
L 18.40625 0 
L 9.421875 0 
z
" id="DejaVuSans-108"/>
      </defs>
      <use xlink:href="#DejaVuSans-114"/>
      <use x="38.863281" xlink:href="#DejaVuSans-101"/>
      <use x="100.386719" xlink:href="#DejaVuSans-99"/>
      <use x="155.367188" xlink:href="#DejaVuSans-97"/>
      <use x="216.646484" xlink:href="#DejaVuSans-108"/>
      <use x="244.429688" xlink:href="#DejaVuSans-108"/>
     </g>
    </g>
    <g id="PathCollection_13">
     <defs>
      <path d="M 0 3 
C 0.795609 3 1.55874 2.683901 2.12132 2.12132 
C 2.683901 1.55874 3 0.795609 3 0 
C 3 -0.795609 2.683901 -1.55874 2.12132 -2.12132 
C 1.55874 -2.683901 0.795609 -3 0 -3 
C -0.795609 -3 -1.55874 -2.683901 -2.12132 -2.12132 
C -2.683901 -1.55874 -3 -0.795609 -3 0 
C -3 0.795609 -2.683901 1.55874 -2.12132 2.12132 
C -1.55874 2.683901 -0.795609 3 0 3 
z
" id="m2a073fe320" style="stroke:#2ca02c;"/>
     </defs>
     <g>
      <use style="fill:#2ca02c;stroke:#2ca02c;" x="56.96725" xlink:href="#m2a073fe320" y="47.457422"/>
     </g>
    </g>
    <g id="text_23">
     <!-- accuracy -->
     <g transform="translate(69.45925 49.279172)scale(0.0694 -0.0694)">
      <defs>
       <path d="M 8.5 21.578125 
L 8.5 54.6875 
L 17.484375 54.6875 
L 17.484375 21.921875 
Q 17.484375 14.15625 20.5 10.265625 
Q 23.53125 6.390625 29.59375 6.390625 
Q 36.859375 6.390625 41.078125 11.03125 
Q 45.3125 15.671875 45.3125 23.6875 
L 45.3125 54.6875 
L 54.296875 54.6875 
L 54.296875 0 
L 45.3125 0 
L 45.3125 8.40625 
Q 42.046875 3.421875 37.71875 1 
Q 33.40625 -1.421875 27.6875 -1.421875 
Q 18.265625 -1.421875 13.375 4.4375 
Q 8.5 10.296875 8.5 21.578125 
z
M 31.109375 56 
z
" id="DejaVuSans-117"/>
       <path d="M 32.171875 -5.078125 
Q 28.375 -14.84375 24.75 -17.8125 
Q 21.140625 -20.796875 15.09375 -20.796875 
L 7.90625 -20.796875 
L 7.90625 -13.28125 
L 13.1875 -13.28125 
Q 16.890625 -13.28125 18.9375 -11.515625 
Q 21 -9.765625 23.484375 -3.21875 
L 25.09375 0.875 
L 2.984375 54.6875 
L 12.5 54.6875 
L 29.59375 11.921875 
L 46.6875 54.6875 
L 56.203125 54.6875 
z
" id="DejaVuSans-121"/>
      </defs>
      <use xlink:href="#DejaVuSans-97"/>
      <use x="61.279297" xlink:href="#DejaVuSans-99"/>
      <use x="116.259766" xlink:href="#DejaVuSans-99"/>
      <use x="171.240234" xlink:href="#DejaVuSans-117"/>
      <use x="234.619141" xlink:href="#DejaVuSans-114"/>
      <use x="275.732422" xlink:href="#DejaVuSans-97"/>
      <use x="337.011719" xlink:href="#DejaVuSans-99"/>
      <use x="391.992188" xlink:href="#DejaVuSans-121"/>
     </g>
    </g>
    <g id="PathCollection_14">
     <defs>
      <path d="M 0 3 
C 0.795609 3 1.55874 2.683901 2.12132 2.12132 
C 2.683901 1.55874 3 0.795609 3 0 
C 3 -0.795609 2.683901 -1.55874 2.12132 -2.12132 
C 1.55874 -2.683901 0.795609 -3 0 -3 
C -0.795609 -3 -1.55874 -2.683901 -2.12132 -2.12132 
C -2.683901 -1.55874 -3 -0.795609 -3 0 
C -3 0.795609 -2.683901 1.55874 -2.12132 2.12132 
C -1.55874 2.683901 -0.795609 3 0 3 
z
" id="m455334f94c" style="stroke:#d62728;"/>
     </defs>
     <g>
      <use style="fill:#d62728;stroke:#d62728;" x="56.96725" xlink:href="#m455334f94c" y="57.644041"/>
     </g>
    </g>
    <g id="text_24">
     <!-- f1 -->
     <g transform="translate(69.45925 59.465791)scale(0.0694 -0.0694)">
      <defs>
       <path d="M 37.109375 75.984375 
L 37.109375 68.5 
L 28.515625 68.5 
Q 23.6875 68.5 21.796875 66.546875 
Q 19.921875 64.59375 19.921875 59.515625 
L 19.921875 54.6875 
L 34.71875 54.6875 
L 34.71875 47.703125 
L 19.921875 47.703125 
L 19.921875 0 
L 10.890625 0 
L 10.890625 47.703125 
L 2.296875 47.703125 
L 2.296875 54.6875 
L 10.890625 54.6875 
L 10.890625 58.5 
Q 10.890625 67.625 15.140625 71.796875 
Q 19.390625 75.984375 28.609375 75.984375 
z
" id="DejaVuSans-102"/>
      </defs>
      <use xlink:href="#DejaVuSans-102"/>
      <use x="35.205078" xlink:href="#DejaVuSans-49"/>
     </g>
    </g>
    <g id="text_25">
     <!-- ncols -->
     <g transform="translate(69.45925 69.652409)scale(0.0694 -0.0694)">
      <use xlink:href="#DejaVuSans-110"/>
      <use x="63.378906" xlink:href="#DejaVuSans-99"/>
      <use x="118.359375" xlink:href="#DejaVuSans-111"/>
      <use x="179.541016" xlink:href="#DejaVuSans-108"/>
      <use x="207.324219" xlink:href="#DejaVuSans-115"/>
     </g>
    </g>
    <g id="PathCollection_15">
     <defs>
      <path d="M 0 3.308983 
C 0.877552 3.308983 1.719281 2.960327 2.339804 2.339804 
C 2.960327 1.719281 3.308983 0.877552 3.308983 0 
C 3.308983 -0.877552 2.960327 -1.719281 2.339804 -2.339804 
C 1.719281 -2.960327 0.877552 -3.308983 0 -3.308983 
C -0.877552 -3.308983 -1.719281 -2.960327 -2.339804 -2.339804 
C -2.960327 -1.719281 -3.308983 -0.877552 -3.308983 0 
C -3.308983 0.877552 -2.960327 1.719281 -2.339804 2.339804 
C -1.719281 2.960327 -0.877552 3.308983 0 3.308983 
z
" id="me04e9f2db6" style="stroke:#333333;"/>
     </defs>
     <g>
      <use style="fill:#333333;stroke:#333333;" x="56.96725" xlink:href="#me04e9f2db6" y="78.017278"/>
     </g>
    </g>
    <g id="text_26">
     <!-- 15 -->
     <g transform="translate(69.45925 79.839028)scale(0.0694 -0.0694)">
      <use xlink:href="#DejaVuSans-49"/>
      <use x="63.623047" xlink:href="#DejaVuSans-53"/>
     </g>
    </g>
    <g id="PathCollection_16">
     <defs>
      <path d="M 0 3.714494 
C 0.985095 3.714494 1.929976 3.323112 2.626544 2.626544 
C 3.323112 1.929976 3.714494 0.985095 3.714494 0 
C 3.714494 -0.985095 3.323112 -1.929976 2.626544 -2.626544 
C 1.929976 -3.323112 0.985095 -3.714494 0 -3.714494 
C -0.985095 -3.714494 -1.929976 -3.323112 -2.626544 -2.626544 
C -3.323112 -1.929976 -3.714494 -0.985095 -3.714494 0 
C -3.714494 0.985095 -3.323112 1.929976 -2.626544 2.626544 
C -1.929976 3.323112 -0.985095 3.714494 0 3.714494 
z
" id="m60371719a9" style="stroke:#333333;"/>
     </defs>
     <g>
      <use style="fill:#333333;stroke:#333333;" x="56.96725" xlink:href="#m60371719a9" y="88.203897"/>
     </g>
    </g>
    <g id="text_27">
     <!-- 30 -->
     <g transform="translate(69.45925 90.025647)scale(0.0694 -0.0694)">
      <use xlink:href="#DejaVuSans-51"/>
      <use x="63.623047" xlink:href="#DejaVuSans-48"/>
     </g>
    </g>
    <g id="PathCollection_17">
     <defs>
      <path d="M 0 4.079898 
C 1.082002 4.079898 2.119833 3.650014 2.884924 2.884924 
C 3.650014 2.119833 4.079898 1.082002 4.079898 0 
C 4.079898 -1.082002 3.650014 -2.119833 2.884924 -2.884924 
C 2.119833 -3.650014 1.082002 -4.079898 0 -4.079898 
C -1.082002 -4.079898 -2.119833 -3.650014 -2.884924 -2.884924 
C -3.650014 -2.119833 -4.079898 -1.082002 -4.079898 0 
C -4.079898 1.082002 -3.650014 2.119833 -2.884924 2.884924 
C -2.119833 3.650014 -1.082002 4.079898 0 4.079898 
z
" id="m7be34928d8" style="stroke:#333333;"/>
     </defs>
     <g>
      <use style="fill:#333333;stroke:#333333;" x="56.96725" xlink:href="#m7be34928d8" y="98.390516"/>
     </g>
    </g>
    <g id="text_28">
     <!-- 45 -->
     <g transform="translate(69.45925 100.212266)scale(0.0694 -0.0694)">
      <use xlink:href="#DejaVuSans-52"/>
      <use x="63.623047" xlink:href="#DejaVuSans-53"/>
     </g>
    </g>
    <g id="PathCollection_18">
     <defs>
      <path d="M 0 4.415164 
C 1.170915 4.415164 2.29403 3.949954 3.121992 3.121992 
C 3.949954 2.29403 4.415164 1.170915 4.415164 0 
C 4.415164 -1.170915 3.949954 -2.29403 3.121992 -3.121992 
C 2.29403 -3.949954 1.170915 -4.415164 0 -4.415164 
C -1.170915 -4.415164 -2.29403 -3.949954 -3.121992 -3.121992 
C -3.949954 -2.29403 -4.415164 -1.170915 -4.415164 0 
C -4.415164 1.170915 -3.949954 2.29403 -3.121992 3.121992 
C -2.29403 3.949954 -1.170915 4.415164 0 4.415164 
z
" id="mb9a72bc63a" style="stroke:#333333;"/>
     </defs>
     <g>
      <use style="fill:#333333;stroke:#333333;" x="56.96725" xlink:href="#mb9a72bc63a" y="108.577134"/>
     </g>
    </g>
    <g id="text_29">
     <!-- 60 -->
     <g transform="translate(69.45925 110.398884)scale(0.0694 -0.0694)">
      <use xlink:href="#DejaVuSans-54"/>
      <use x="63.623047" xlink:href="#DejaVuSans-48"/>
     </g>
    </g>
    <g id="PathCollection_19">
     <defs>
      <path d="M 0 4.726708 
C 1.253538 4.726708 2.455903 4.228673 3.342288 3.342288 
C 4.228673 2.455903 4.726708 1.253538 4.726708 0 
C 4.726708 -1.253538 4.228673 -2.455903 3.342288 -3.342288 
C 2.455903 -4.228673 1.253538 -4.726708 0 -4.726708 
C -1.253538 -4.726708 -2.455903 -4.228673 -3.342288 -3.342288 
C -4.228673 -2.455903 -4.726708 -1.253538 -4.726708 0 
C -4.726708 1.253538 -4.228673 2.455903 -3.342288 3.342288 
C -2.455903 4.228673 -1.253538 4.726708 0 4.726708 
z
" id="m6a9c0934fe" style="stroke:#333333;"/>
     </defs>
     <g>
      <use style="fill:#333333;stroke:#333333;" x="56.96725" xlink:href="#m6a9c0934fe" y="118.763753"/>
     </g>
    </g>
    <g id="text_30">
     <!-- 75 -->
     <g transform="translate(69.45925 120.585503)scale(0.0694 -0.0694)">
      <use xlink:href="#DejaVuSans-55"/>
      <use x="63.623047" xlink:href="#DejaVuSans-53"/>
     </g>
    </g>
   </g>
  </g>
 </g>
 <defs>
  <clipPath id="p3e94b649f8">
   <rect height="266.112" width="357.12" x="43.78125" y="7.2"/>
  </clipPath>
 </defs>
</svg>
