<?xml version="1.0" encoding="utf-8" standalone="no"?>
<!DOCTYPE svg PUBLIC "-//W3C//DTD SVG 1.1//EN"
  "http://www.w3.org/Graphics/SVG/1.1/DTD/svg11.dtd">
<!-- Created with matplotlib (https://matplotlib.org/) -->
<svg height="354.157575pt" version="1.1" viewBox="0 0 479.875625 354.157575" width="479.875625pt" xmlns="http://www.w3.org/2000/svg" xmlns:xlink="http://www.w3.org/1999/xlink">
 <metadata>
  <rdf:RDF xmlns:cc="http://creativecommons.org/ns#" xmlns:dc="http://purl.org/dc/elements/1.1/" xmlns:rdf="http://www.w3.org/1999/02/22-rdf-syntax-ns#">
   <cc:Work>
    <dc:type rdf:resource="http://purl.org/dc/dcmitype/StillImage"/>
    <dc:date>2021-12-17T09:51:40.057871</dc:date>
    <dc:format>image/svg+xml</dc:format>
    <dc:creator>
     <cc:Agent>
      <dc:title>Matplotlib v3.3.4, https://matplotlib.org/</dc:title>
     </cc:Agent>
    </dc:creator>
   </cc:Work>
  </rdf:RDF>
 </metadata>
 <defs>
  <style type="text/css">*{stroke-linecap:butt;stroke-linejoin:round;}</style>
 </defs>
 <g id="figure_1">
  <g id="patch_1">
   <path d="M 0 354.157575 
L 479.875625 354.157575 
L 479.875625 0 
L 0 0 
z
" style="fill:#ffffff;"/>
  </g>
  <g id="axes_1">
   <g id="patch_2">
    <path d="M 115.555625 273.312 
L 472.675625 273.312 
L 472.675625 7.2 
L 115.555625 7.2 
z
" style="fill:#ffffff;"/>
   </g>
   <g id="patch_3">
    <path clip-path="url(#pfdb94889ed)" d="M 115.555625 8.4096 
L 403.344636 8.4096 
L 403.344636 11.6352 
L 115.555625 11.6352 
z
" style="fill:#e49467;"/>
   </g>
   <g id="patch_4">
    <path clip-path="url(#pfdb94889ed)" d="M 115.555625 20.5056 
L 228.927054 20.5056 
L 228.927054 23.7312 
L 115.555625 23.7312 
z
" style="fill:#e49467;"/>
   </g>
   <g id="patch_5">
    <path clip-path="url(#pfdb94889ed)" d="M 115.555625 32.6016 
L 228.927054 32.6016 
L 228.927054 35.8272 
L 115.555625 35.8272 
z
" style="fill:#e49467;"/>
   </g>
   <g id="patch_6">
    <path clip-path="url(#pfdb94889ed)" d="M 115.555625 44.6976 
L 115.555625 44.6976 
L 115.555625 47.9232 
L 115.555625 47.9232 
z
" style="fill:#e49467;"/>
   </g>
   <g id="patch_7">
    <path clip-path="url(#pfdb94889ed)" d="M 115.555625 56.7936 
L 364.10068 56.7936 
L 364.10068 60.0192 
L 115.555625 60.0192 
z
" style="fill:#e49467;"/>
   </g>
   <g id="patch_8">
    <path clip-path="url(#pfdb94889ed)" d="M 115.555625 68.8896 
L 115.555625 68.8896 
L 115.555625 72.1152 
L 115.555625 72.1152 
z
" style="fill:#e49467;"/>
   </g>
   <g id="patch_9">
    <path clip-path="url(#pfdb94889ed)" d="M 115.555625 80.9856 
L 115.555625 80.9856 
L 115.555625 84.2112 
L 115.555625 84.2112 
z
" style="fill:#e49467;"/>
   </g>
   <g id="patch_10">
    <path clip-path="url(#pfdb94889ed)" d="M 115.555625 93.0816 
L 115.555625 93.0816 
L 115.555625 96.3072 
L 115.555625 96.3072 
z
" style="fill:#e49467;"/>
   </g>
   <g id="patch_11">
    <path clip-path="url(#pfdb94889ed)" d="M 115.555625 105.1776 
L 183.578482 105.1776 
L 183.578482 108.4032 
L 115.555625 108.4032 
z
" style="fill:#e49467;"/>
   </g>
   <g id="patch_12">
    <path clip-path="url(#pfdb94889ed)" d="M 115.555625 117.2736 
L 228.927054 117.2736 
L 228.927054 120.4992 
L 115.555625 120.4992 
z
" style="fill:#e49467;"/>
   </g>
   <g id="patch_13">
    <path clip-path="url(#pfdb94889ed)" d="M 115.555625 129.3696 
L 115.555625 129.3696 
L 115.555625 132.5952 
L 115.555625 132.5952 
z
" style="fill:#e49467;"/>
   </g>
   <g id="patch_14">
    <path clip-path="url(#pfdb94889ed)" d="M 115.555625 141.4656 
L 285.612768 141.4656 
L 285.612768 144.6912 
L 115.555625 144.6912 
z
" style="fill:#e49467;"/>
   </g>
   <g id="patch_15">
    <path clip-path="url(#pfdb94889ed)" d="M 115.555625 153.5616 
L 115.555625 153.5616 
L 115.555625 156.7872 
L 115.555625 156.7872 
z
" style="fill:#e49467;"/>
   </g>
   <g id="patch_16">
    <path clip-path="url(#pfdb94889ed)" d="M 115.555625 165.6576 
L 455.669911 165.6576 
L 455.669911 168.8832 
L 115.555625 168.8832 
z
" style="fill:#e49467;"/>
   </g>
   <g id="patch_17">
    <path clip-path="url(#pfdb94889ed)" d="M 115.555625 177.7536 
L 115.555625 177.7536 
L 115.555625 180.9792 
L 115.555625 180.9792 
z
" style="fill:#e49467;"/>
   </g>
   <g id="patch_18">
    <path clip-path="url(#pfdb94889ed)" d="M 115.555625 189.8496 
L 115.555625 189.8496 
L 115.555625 193.0752 
L 115.555625 193.0752 
z
" style="fill:#e49467;"/>
   </g>
   <g id="patch_19">
    <path clip-path="url(#pfdb94889ed)" d="M 115.555625 201.9456 
L 115.555625 201.9456 
L 115.555625 205.1712 
L 115.555625 205.1712 
z
" style="fill:#e49467;"/>
   </g>
   <g id="patch_20">
    <path clip-path="url(#pfdb94889ed)" d="M 115.555625 214.0416 
L 115.555625 214.0416 
L 115.555625 217.2672 
L 115.555625 217.2672 
z
" style="fill:#e49467;"/>
   </g>
   <g id="patch_21">
    <path clip-path="url(#pfdb94889ed)" d="M 115.555625 226.1376 
L 455.669911 226.1376 
L 455.669911 229.3632 
L 115.555625 229.3632 
z
" style="fill:#e49467;"/>
   </g>
   <g id="patch_22">
    <path clip-path="url(#pfdb94889ed)" d="M 115.555625 238.2336 
L 115.555625 238.2336 
L 115.555625 241.4592 
L 115.555625 241.4592 
z
" style="fill:#e49467;"/>
   </g>
   <g id="patch_23">
    <path clip-path="url(#pfdb94889ed)" d="M 115.555625 250.3296 
L 115.555625 250.3296 
L 115.555625 253.5552 
L 115.555625 253.5552 
z
" style="fill:#e49467;"/>
   </g>
   <g id="patch_24">
    <path clip-path="url(#pfdb94889ed)" d="M 115.555625 262.4256 
L 455.669911 262.4256 
L 455.669911 265.6512 
L 115.555625 265.6512 
z
" style="fill:#e49467;"/>
   </g>
   <g id="patch_25">
    <path clip-path="url(#pfdb94889ed)" d="M 115.555625 11.6352 
L 455.669911 11.6352 
L 455.669911 14.8608 
L 115.555625 14.8608 
z
" style="fill:#f7f7c6;"/>
   </g>
   <g id="patch_26">
    <path clip-path="url(#pfdb94889ed)" d="M 115.555625 23.7312 
L 455.669911 23.7312 
L 455.669911 26.9568 
L 115.555625 26.9568 
z
" style="fill:#f7f7c6;"/>
   </g>
   <g id="patch_27">
    <path clip-path="url(#pfdb94889ed)" d="M 115.555625 35.8272 
L 455.669911 35.8272 
L 455.669911 39.0528 
L 115.555625 39.0528 
z
" style="fill:#f7f7c6;"/>
   </g>
   <g id="patch_28">
    <path clip-path="url(#pfdb94889ed)" d="M 115.555625 47.9232 
L 115.555625 47.9232 
L 115.555625 51.1488 
L 115.555625 51.1488 
z
" style="fill:#f7f7c6;"/>
   </g>
   <g id="patch_29">
    <path clip-path="url(#pfdb94889ed)" d="M 115.555625 60.0192 
L 364.10068 60.0192 
L 364.10068 63.2448 
L 115.555625 63.2448 
z
" style="fill:#f7f7c6;"/>
   </g>
   <g id="patch_30">
    <path clip-path="url(#pfdb94889ed)" d="M 115.555625 72.1152 
L 115.555625 72.1152 
L 115.555625 75.3408 
L 115.555625 75.3408 
z
" style="fill:#f7f7c6;"/>
   </g>
   <g id="patch_31">
    <path clip-path="url(#pfdb94889ed)" d="M 115.555625 84.2112 
L 115.555625 84.2112 
L 115.555625 87.4368 
L 115.555625 87.4368 
z
" style="fill:#f7f7c6;"/>
   </g>
   <g id="patch_32">
    <path clip-path="url(#pfdb94889ed)" d="M 115.555625 96.3072 
L 115.555625 96.3072 
L 115.555625 99.5328 
L 115.555625 99.5328 
z
" style="fill:#f7f7c6;"/>
   </g>
   <g id="patch_33">
    <path clip-path="url(#pfdb94889ed)" d="M 115.555625 108.4032 
L 455.669911 108.4032 
L 455.669911 111.6288 
L 115.555625 111.6288 
z
" style="fill:#f7f7c6;"/>
   </g>
   <g id="patch_34">
    <path clip-path="url(#pfdb94889ed)" d="M 115.555625 120.4992 
L 455.669911 120.4992 
L 455.669911 123.7248 
L 115.555625 123.7248 
z
" style="fill:#f7f7c6;"/>
   </g>
   <g id="patch_35">
    <path clip-path="url(#pfdb94889ed)" d="M 115.555625 132.5952 
L 115.555625 132.5952 
L 115.555625 135.8208 
L 115.555625 135.8208 
z
" style="fill:#f7f7c6;"/>
   </g>
   <g id="patch_36">
    <path clip-path="url(#pfdb94889ed)" d="M 115.555625 144.6912 
L 455.669911 144.6912 
L 455.669911 147.9168 
L 115.555625 147.9168 
z
" style="fill:#f7f7c6;"/>
   </g>
   <g id="patch_37">
    <path clip-path="url(#pfdb94889ed)" d="M 115.555625 156.7872 
L 115.555625 156.7872 
L 115.555625 160.0128 
L 115.555625 160.0128 
z
" style="fill:#f7f7c6;"/>
   </g>
   <g id="patch_38">
    <path clip-path="url(#pfdb94889ed)" d="M 115.555625 168.8832 
L 455.669911 168.8832 
L 455.669911 172.1088 
L 115.555625 172.1088 
z
" style="fill:#f7f7c6;"/>
   </g>
   <g id="patch_39">
    <path clip-path="url(#pfdb94889ed)" d="M 115.555625 180.9792 
L 115.555625 180.9792 
L 115.555625 184.2048 
L 115.555625 184.2048 
z
" style="fill:#f7f7c6;"/>
   </g>
   <g id="patch_40">
    <path clip-path="url(#pfdb94889ed)" d="M 115.555625 193.0752 
L 115.555625 193.0752 
L 115.555625 196.3008 
L 115.555625 196.3008 
z
" style="fill:#f7f7c6;"/>
   </g>
   <g id="patch_41">
    <path clip-path="url(#pfdb94889ed)" d="M 115.555625 205.1712 
L 115.555625 205.1712 
L 115.555625 208.3968 
L 115.555625 208.3968 
z
" style="fill:#f7f7c6;"/>
   </g>
   <g id="patch_42">
    <path clip-path="url(#pfdb94889ed)" d="M 115.555625 217.2672 
L 115.555625 217.2672 
L 115.555625 220.4928 
L 115.555625 220.4928 
z
" style="fill:#f7f7c6;"/>
   </g>
   <g id="patch_43">
    <path clip-path="url(#pfdb94889ed)" d="M 115.555625 229.3632 
L 455.669911 229.3632 
L 455.669911 232.5888 
L 115.555625 232.5888 
z
" style="fill:#f7f7c6;"/>
   </g>
   <g id="patch_44">
    <path clip-path="url(#pfdb94889ed)" d="M 115.555625 241.4592 
L 115.555625 241.4592 
L 115.555625 244.6848 
L 115.555625 244.6848 
z
" style="fill:#f7f7c6;"/>
   </g>
   <g id="patch_45">
    <path clip-path="url(#pfdb94889ed)" d="M 115.555625 253.5552 
L 115.555625 253.5552 
L 115.555625 256.7808 
L 115.555625 256.7808 
z
" style="fill:#f7f7c6;"/>
   </g>
   <g id="patch_46">
    <path clip-path="url(#pfdb94889ed)" d="M 115.555625 265.6512 
L 455.669911 265.6512 
L 455.669911 268.8768 
L 115.555625 268.8768 
z
" style="fill:#f7f7c6;"/>
   </g>
   <g id="patch_47">
    <path clip-path="url(#pfdb94889ed)" d="M 115.555625 14.8608 
L 427.327054 14.8608 
L 427.327054 18.0864 
L 115.555625 18.0864 
z
" style="fill:#90c6a6;"/>
   </g>
   <g id="patch_48">
    <path clip-path="url(#pfdb94889ed)" d="M 115.555625 26.9568 
L 285.612768 26.9568 
L 285.612768 30.1824 
L 115.555625 30.1824 
z
" style="fill:#90c6a6;"/>
   </g>
   <g id="patch_49">
    <path clip-path="url(#pfdb94889ed)" d="M 115.555625 39.0528 
L 285.612768 39.0528 
L 285.612768 42.2784 
L 115.555625 42.2784 
z
" style="fill:#90c6a6;"/>
   </g>
   <g id="patch_50">
    <path clip-path="url(#pfdb94889ed)" d="M 115.555625 51.1488 
L 115.555625 51.1488 
L 115.555625 54.3744 
L 115.555625 54.3744 
z
" style="fill:#90c6a6;"/>
   </g>
   <g id="patch_51">
    <path clip-path="url(#pfdb94889ed)" d="M 115.555625 63.2448 
L 364.10068 63.2448 
L 364.10068 66.4704 
L 115.555625 66.4704 
z
" style="fill:#90c6a6;"/>
   </g>
   <g id="patch_52">
    <path clip-path="url(#pfdb94889ed)" d="M 115.555625 75.3408 
L 115.555625 75.3408 
L 115.555625 78.5664 
L 115.555625 78.5664 
z
" style="fill:#90c6a6;"/>
   </g>
   <g id="patch_53">
    <path clip-path="url(#pfdb94889ed)" d="M 115.555625 87.4368 
L 115.555625 87.4368 
L 115.555625 90.6624 
L 115.555625 90.6624 
z
" style="fill:#90c6a6;"/>
   </g>
   <g id="patch_54">
    <path clip-path="url(#pfdb94889ed)" d="M 115.555625 99.5328 
L 115.555625 99.5328 
L 115.555625 102.7584 
L 115.555625 102.7584 
z
" style="fill:#90c6a6;"/>
   </g>
   <g id="patch_55">
    <path clip-path="url(#pfdb94889ed)" d="M 115.555625 111.6288 
L 228.927054 111.6288 
L 228.927054 114.8544 
L 115.555625 114.8544 
z
" style="fill:#90c6a6;"/>
   </g>
   <g id="patch_56">
    <path clip-path="url(#pfdb94889ed)" d="M 115.555625 123.7248 
L 285.612768 123.7248 
L 285.612768 126.9504 
L 115.555625 126.9504 
z
" style="fill:#90c6a6;"/>
   </g>
   <g id="patch_57">
    <path clip-path="url(#pfdb94889ed)" d="M 115.555625 135.8208 
L 115.555625 135.8208 
L 115.555625 139.0464 
L 115.555625 139.0464 
z
" style="fill:#90c6a6;"/>
   </g>
   <g id="patch_58">
    <path clip-path="url(#pfdb94889ed)" d="M 115.555625 147.9168 
L 342.298482 147.9168 
L 342.298482 151.1424 
L 115.555625 151.1424 
z
" style="fill:#90c6a6;"/>
   </g>
   <g id="patch_59">
    <path clip-path="url(#pfdb94889ed)" d="M 115.555625 160.0128 
L 115.555625 160.0128 
L 115.555625 163.2384 
L 115.555625 163.2384 
z
" style="fill:#90c6a6;"/>
   </g>
   <g id="patch_60">
    <path clip-path="url(#pfdb94889ed)" d="M 115.555625 172.1088 
L 455.669911 172.1088 
L 455.669911 175.3344 
L 115.555625 175.3344 
z
" style="fill:#90c6a6;"/>
   </g>
   <g id="patch_61">
    <path clip-path="url(#pfdb94889ed)" d="M 115.555625 184.2048 
L 115.555625 184.2048 
L 115.555625 187.4304 
L 115.555625 187.4304 
z
" style="fill:#90c6a6;"/>
   </g>
   <g id="patch_62">
    <path clip-path="url(#pfdb94889ed)" d="M 115.555625 196.3008 
L 115.555625 196.3008 
L 115.555625 199.5264 
L 115.555625 199.5264 
z
" style="fill:#90c6a6;"/>
   </g>
   <g id="patch_63">
    <path clip-path="url(#pfdb94889ed)" d="M 115.555625 208.3968 
L 115.555625 208.3968 
L 115.555625 211.6224 
L 115.555625 211.6224 
z
" style="fill:#90c6a6;"/>
   </g>
   <g id="patch_64">
    <path clip-path="url(#pfdb94889ed)" d="M 115.555625 220.4928 
L 115.555625 220.4928 
L 115.555625 223.7184 
L 115.555625 223.7184 
z
" style="fill:#90c6a6;"/>
   </g>
   <g id="patch_65">
    <path clip-path="url(#pfdb94889ed)" d="M 115.555625 232.5888 
L 455.669911 232.5888 
L 455.669911 235.8144 
L 115.555625 235.8144 
z
" style="fill:#90c6a6;"/>
   </g>
   <g id="patch_66">
    <path clip-path="url(#pfdb94889ed)" d="M 115.555625 244.6848 
L 115.555625 244.6848 
L 115.555625 247.9104 
L 115.555625 247.9104 
z
" style="fill:#90c6a6;"/>
   </g>
   <g id="patch_67">
    <path clip-path="url(#pfdb94889ed)" d="M 115.555625 256.7808 
L 115.555625 256.7808 
L 115.555625 260.0064 
L 115.555625 260.0064 
z
" style="fill:#90c6a6;"/>
   </g>
   <g id="patch_68">
    <path clip-path="url(#pfdb94889ed)" d="M 115.555625 268.8768 
L 455.669911 268.8768 
L 455.669911 272.1024 
L 115.555625 272.1024 
z
" style="fill:#90c6a6;"/>
   </g>
   <g id="matplotlib.axis_1">
    <g id="xtick_1">
     <g id="line2d_1">
      <defs>
       <path d="M 0 0 
L 0 3.5 
" id="m486a414a9a" style="stroke:#000000;stroke-width:0.8;"/>
      </defs>
      <g>
       <use style="stroke:#000000;stroke-width:0.8;" x="115.555625" xlink:href="#m486a414a9a" y="273.312"/>
      </g>
     </g>
     <g id="text_1">
      <!-- 0.0 -->
      <g transform="translate(107.604062 287.910437)scale(0.1 -0.1)">
       <defs>
        <path d="M 31.78125 66.40625 
Q 24.171875 66.40625 20.328125 58.90625 
Q 16.5 51.421875 16.5 36.375 
Q 16.5 21.390625 20.328125 13.890625 
Q 24.171875 6.390625 31.78125 6.390625 
Q 39.453125 6.390625 43.28125 13.890625 
Q 47.125 21.390625 47.125 36.375 
Q 47.125 51.421875 43.28125 58.90625 
Q 39.453125 66.40625 31.78125 66.40625 
z
M 31.78125 74.21875 
Q 44.046875 74.21875 50.515625 64.515625 
Q 56.984375 54.828125 56.984375 36.375 
Q 56.984375 17.96875 50.515625 8.265625 
Q 44.046875 -1.421875 31.78125 -1.421875 
Q 19.53125 -1.421875 13.0625 8.265625 
Q 6.59375 17.96875 6.59375 36.375 
Q 6.59375 54.828125 13.0625 64.515625 
Q 19.53125 74.21875 31.78125 74.21875 
z
" id="DejaVuSans-48"/>
        <path d="M 10.6875 12.40625 
L 21 12.40625 
L 21 0 
L 10.6875 0 
z
" id="DejaVuSans-46"/>
       </defs>
       <use xlink:href="#DejaVuSans-48"/>
       <use x="63.623047" xlink:href="#DejaVuSans-46"/>
       <use x="95.410156" xlink:href="#DejaVuSans-48"/>
      </g>
     </g>
    </g>
    <g id="xtick_2">
     <g id="line2d_2">
      <g>
       <use style="stroke:#000000;stroke-width:0.8;" x="183.578482" xlink:href="#m486a414a9a" y="273.312"/>
      </g>
     </g>
     <g id="text_2">
      <!-- 0.2 -->
      <g transform="translate(175.62692 287.910437)scale(0.1 -0.1)">
       <defs>
        <path d="M 19.1875 8.296875 
L 53.609375 8.296875 
L 53.609375 0 
L 7.328125 0 
L 7.328125 8.296875 
Q 12.9375 14.109375 22.625 23.890625 
Q 32.328125 33.6875 34.8125 36.53125 
Q 39.546875 41.84375 41.421875 45.53125 
Q 43.3125 49.21875 43.3125 52.78125 
Q 43.3125 58.59375 39.234375 62.25 
Q 35.15625 65.921875 28.609375 65.921875 
Q 23.96875 65.921875 18.8125 64.3125 
Q 13.671875 62.703125 7.8125 59.421875 
L 7.8125 69.390625 
Q 13.765625 71.78125 18.9375 73 
Q 24.125 74.21875 28.421875 74.21875 
Q 39.75 74.21875 46.484375 68.546875 
Q 53.21875 62.890625 53.21875 53.421875 
Q 53.21875 48.921875 51.53125 44.890625 
Q 49.859375 40.875 45.40625 35.40625 
Q 44.1875 33.984375 37.640625 27.21875 
Q 31.109375 20.453125 19.1875 8.296875 
z
" id="DejaVuSans-50"/>
       </defs>
       <use xlink:href="#DejaVuSans-48"/>
       <use x="63.623047" xlink:href="#DejaVuSans-46"/>
       <use x="95.410156" xlink:href="#DejaVuSans-50"/>
      </g>
     </g>
    </g>
    <g id="xtick_3">
     <g id="line2d_3">
      <g>
       <use style="stroke:#000000;stroke-width:0.8;" x="251.601339" xlink:href="#m486a414a9a" y="273.312"/>
      </g>
     </g>
     <g id="text_3">
      <!-- 0.4 -->
      <g transform="translate(243.649777 287.910437)scale(0.1 -0.1)">
       <defs>
        <path d="M 37.796875 64.3125 
L 12.890625 25.390625 
L 37.796875 25.390625 
z
M 35.203125 72.90625 
L 47.609375 72.90625 
L 47.609375 25.390625 
L 58.015625 25.390625 
L 58.015625 17.1875 
L 47.609375 17.1875 
L 47.609375 0 
L 37.796875 0 
L 37.796875 17.1875 
L 4.890625 17.1875 
L 4.890625 26.703125 
z
" id="DejaVuSans-52"/>
       </defs>
       <use xlink:href="#DejaVuSans-48"/>
       <use x="63.623047" xlink:href="#DejaVuSans-46"/>
       <use x="95.410156" xlink:href="#DejaVuSans-52"/>
      </g>
     </g>
    </g>
    <g id="xtick_4">
     <g id="line2d_4">
      <g>
       <use style="stroke:#000000;stroke-width:0.8;" x="319.624196" xlink:href="#m486a414a9a" y="273.312"/>
      </g>
     </g>
     <g id="text_4">
      <!-- 0.6 -->
      <g transform="translate(311.672634 287.910437)scale(0.1 -0.1)">
       <defs>
        <path d="M 33.015625 40.375 
Q 26.375 40.375 22.484375 35.828125 
Q 18.609375 31.296875 18.609375 23.390625 
Q 18.609375 15.53125 22.484375 10.953125 
Q 26.375 6.390625 33.015625 6.390625 
Q 39.65625 6.390625 43.53125 10.953125 
Q 47.40625 15.53125 47.40625 23.390625 
Q 47.40625 31.296875 43.53125 35.828125 
Q 39.65625 40.375 33.015625 40.375 
z
M 52.59375 71.296875 
L 52.59375 62.3125 
Q 48.875 64.0625 45.09375 64.984375 
Q 41.3125 65.921875 37.59375 65.921875 
Q 27.828125 65.921875 22.671875 59.328125 
Q 17.53125 52.734375 16.796875 39.40625 
Q 19.671875 43.65625 24.015625 45.921875 
Q 28.375 48.1875 33.59375 48.1875 
Q 44.578125 48.1875 50.953125 41.515625 
Q 57.328125 34.859375 57.328125 23.390625 
Q 57.328125 12.15625 50.6875 5.359375 
Q 44.046875 -1.421875 33.015625 -1.421875 
Q 20.359375 -1.421875 13.671875 8.265625 
Q 6.984375 17.96875 6.984375 36.375 
Q 6.984375 53.65625 15.1875 63.9375 
Q 23.390625 74.21875 37.203125 74.21875 
Q 40.921875 74.21875 44.703125 73.484375 
Q 48.484375 72.75 52.59375 71.296875 
z
" id="DejaVuSans-54"/>
       </defs>
       <use xlink:href="#DejaVuSans-48"/>
       <use x="63.623047" xlink:href="#DejaVuSans-46"/>
       <use x="95.410156" xlink:href="#DejaVuSans-54"/>
      </g>
     </g>
    </g>
    <g id="xtick_5">
     <g id="line2d_5">
      <g>
       <use style="stroke:#000000;stroke-width:0.8;" x="387.647054" xlink:href="#m486a414a9a" y="273.312"/>
      </g>
     </g>
     <g id="text_5">
      <!-- 0.8 -->
      <g transform="translate(379.695491 287.910437)scale(0.1 -0.1)">
       <defs>
        <path d="M 31.78125 34.625 
Q 24.75 34.625 20.71875 30.859375 
Q 16.703125 27.09375 16.703125 20.515625 
Q 16.703125 13.921875 20.71875 10.15625 
Q 24.75 6.390625 31.78125 6.390625 
Q 38.8125 6.390625 42.859375 10.171875 
Q 46.921875 13.96875 46.921875 20.515625 
Q 46.921875 27.09375 42.890625 30.859375 
Q 38.875 34.625 31.78125 34.625 
z
M 21.921875 38.8125 
Q 15.578125 40.375 12.03125 44.71875 
Q 8.5 49.078125 8.5 55.328125 
Q 8.5 64.0625 14.71875 69.140625 
Q 20.953125 74.21875 31.78125 74.21875 
Q 42.671875 74.21875 48.875 69.140625 
Q 55.078125 64.0625 55.078125 55.328125 
Q 55.078125 49.078125 51.53125 44.71875 
Q 48 40.375 41.703125 38.8125 
Q 48.828125 37.15625 52.796875 32.3125 
Q 56.78125 27.484375 56.78125 20.515625 
Q 56.78125 9.90625 50.3125 4.234375 
Q 43.84375 -1.421875 31.78125 -1.421875 
Q 19.734375 -1.421875 13.25 4.234375 
Q 6.78125 9.90625 6.78125 20.515625 
Q 6.78125 27.484375 10.78125 32.3125 
Q 14.796875 37.15625 21.921875 38.8125 
z
M 18.3125 54.390625 
Q 18.3125 48.734375 21.84375 45.5625 
Q 25.390625 42.390625 31.78125 42.390625 
Q 38.140625 42.390625 41.71875 45.5625 
Q 45.3125 48.734375 45.3125 54.390625 
Q 45.3125 60.0625 41.71875 63.234375 
Q 38.140625 66.40625 31.78125 66.40625 
Q 25.390625 66.40625 21.84375 63.234375 
Q 18.3125 60.0625 18.3125 54.390625 
z
" id="DejaVuSans-56"/>
       </defs>
       <use xlink:href="#DejaVuSans-48"/>
       <use x="63.623047" xlink:href="#DejaVuSans-46"/>
       <use x="95.410156" xlink:href="#DejaVuSans-56"/>
      </g>
     </g>
    </g>
    <g id="xtick_6">
     <g id="line2d_6">
      <g>
       <use style="stroke:#000000;stroke-width:0.8;" x="455.669911" xlink:href="#m486a414a9a" y="273.312"/>
      </g>
     </g>
     <g id="text_6">
      <!-- 1.0 -->
      <g transform="translate(447.718348 287.910437)scale(0.1 -0.1)">
       <defs>
        <path d="M 12.40625 8.296875 
L 28.515625 8.296875 
L 28.515625 63.921875 
L 10.984375 60.40625 
L 10.984375 69.390625 
L 28.421875 72.90625 
L 38.28125 72.90625 
L 38.28125 8.296875 
L 54.390625 8.296875 
L 54.390625 0 
L 12.40625 0 
z
" id="DejaVuSans-49"/>
       </defs>
       <use xlink:href="#DejaVuSans-49"/>
       <use x="63.623047" xlink:href="#DejaVuSans-46"/>
       <use x="95.410156" xlink:href="#DejaVuSans-48"/>
      </g>
     </g>
    </g>
    <g id="text_7">
     <!-- Value -->
     <g transform="translate(280.384375 301.588562)scale(0.1 -0.1)">
      <defs>
       <path d="M 28.609375 0 
L 0.78125 72.90625 
L 11.078125 72.90625 
L 34.1875 11.53125 
L 57.328125 72.90625 
L 67.578125 72.90625 
L 39.796875 0 
z
" id="DejaVuSans-86"/>
       <path d="M 34.28125 27.484375 
Q 23.390625 27.484375 19.1875 25 
Q 14.984375 22.515625 14.984375 16.5 
Q 14.984375 11.71875 18.140625 8.90625 
Q 21.296875 6.109375 26.703125 6.109375 
Q 34.1875 6.109375 38.703125 11.40625 
Q 43.21875 16.703125 43.21875 25.484375 
L 43.21875 27.484375 
z
M 52.203125 31.203125 
L 52.203125 0 
L 43.21875 0 
L 43.21875 8.296875 
Q 40.140625 3.328125 35.546875 0.953125 
Q 30.953125 -1.421875 24.3125 -1.421875 
Q 15.921875 -1.421875 10.953125 3.296875 
Q 6 8.015625 6 15.921875 
Q 6 25.140625 12.171875 29.828125 
Q 18.359375 34.515625 30.609375 34.515625 
L 43.21875 34.515625 
L 43.21875 35.40625 
Q 43.21875 41.609375 39.140625 45 
Q 35.0625 48.390625 27.6875 48.390625 
Q 23 48.390625 18.546875 47.265625 
Q 14.109375 46.140625 10.015625 43.890625 
L 10.015625 52.203125 
Q 14.9375 54.109375 19.578125 55.046875 
Q 24.21875 56 28.609375 56 
Q 40.484375 56 46.34375 49.84375 
Q 52.203125 43.703125 52.203125 31.203125 
z
" id="DejaVuSans-97"/>
       <path d="M 9.421875 75.984375 
L 18.40625 75.984375 
L 18.40625 0 
L 9.421875 0 
z
" id="DejaVuSans-108"/>
       <path d="M 8.5 21.578125 
L 8.5 54.6875 
L 17.484375 54.6875 
L 17.484375 21.921875 
Q 17.484375 14.15625 20.5 10.265625 
Q 23.53125 6.390625 29.59375 6.390625 
Q 36.859375 6.390625 41.078125 11.03125 
Q 45.3125 15.671875 45.3125 23.6875 
L 45.3125 54.6875 
L 54.296875 54.6875 
L 54.296875 0 
L 45.3125 0 
L 45.3125 8.40625 
Q 42.046875 3.421875 37.71875 1 
Q 33.40625 -1.421875 27.6875 -1.421875 
Q 18.265625 -1.421875 13.375 4.4375 
Q 8.5 10.296875 8.5 21.578125 
z
M 31.109375 56 
z
" id="DejaVuSans-117"/>
       <path d="M 56.203125 29.59375 
L 56.203125 25.203125 
L 14.890625 25.203125 
Q 15.484375 15.921875 20.484375 11.0625 
Q 25.484375 6.203125 34.421875 6.203125 
Q 39.59375 6.203125 44.453125 7.46875 
Q 49.3125 8.734375 54.109375 11.28125 
L 54.109375 2.78125 
Q 49.265625 0.734375 44.1875 -0.34375 
Q 39.109375 -1.421875 33.890625 -1.421875 
Q 20.796875 -1.421875 13.15625 6.1875 
Q 5.515625 13.8125 5.515625 26.8125 
Q 5.515625 40.234375 12.765625 48.109375 
Q 20.015625 56 32.328125 56 
Q 43.359375 56 49.78125 48.890625 
Q 56.203125 41.796875 56.203125 29.59375 
z
M 47.21875 32.234375 
Q 47.125 39.59375 43.09375 43.984375 
Q 39.0625 48.390625 32.421875 48.390625 
Q 24.90625 48.390625 20.390625 44.140625 
Q 15.875 39.890625 15.1875 32.171875 
z
" id="DejaVuSans-101"/>
      </defs>
      <use xlink:href="#DejaVuSans-86"/>
      <use x="60.658203" xlink:href="#DejaVuSans-97"/>
      <use x="121.9375" xlink:href="#DejaVuSans-108"/>
      <use x="149.720703" xlink:href="#DejaVuSans-117"/>
      <use x="213.099609" xlink:href="#DejaVuSans-101"/>
     </g>
    </g>
   </g>
   <g id="matplotlib.axis_2">
    <g id="ytick_1">
     <g id="line2d_7">
      <defs>
       <path d="M 0 0 
L -3.5 0 
" id="mfc90e0dcb2" style="stroke:#000000;stroke-width:0.8;"/>
      </defs>
      <g>
       <use style="stroke:#000000;stroke-width:0.8;" x="115.555625" xlink:href="#mfc90e0dcb2" y="13.248"/>
      </g>
     </g>
     <g id="text_8">
      <!-- elevation -->
      <g transform="translate(71.526875 16.287375)scale(0.08 -0.08)">
       <defs>
        <path d="M 2.984375 54.6875 
L 12.5 54.6875 
L 29.59375 8.796875 
L 46.6875 54.6875 
L 56.203125 54.6875 
L 35.6875 0 
L 23.484375 0 
z
" id="DejaVuSans-118"/>
        <path d="M 18.3125 70.21875 
L 18.3125 54.6875 
L 36.8125 54.6875 
L 36.8125 47.703125 
L 18.3125 47.703125 
L 18.3125 18.015625 
Q 18.3125 11.328125 20.140625 9.421875 
Q 21.96875 7.515625 27.59375 7.515625 
L 36.8125 7.515625 
L 36.8125 0 
L 27.59375 0 
Q 17.1875 0 13.234375 3.875 
Q 9.28125 7.765625 9.28125 18.015625 
L 9.28125 47.703125 
L 2.6875 47.703125 
L 2.6875 54.6875 
L 9.28125 54.6875 
L 9.28125 70.21875 
z
" id="DejaVuSans-116"/>
        <path d="M 9.421875 54.6875 
L 18.40625 54.6875 
L 18.40625 0 
L 9.421875 0 
z
M 9.421875 75.984375 
L 18.40625 75.984375 
L 18.40625 64.59375 
L 9.421875 64.59375 
z
" id="DejaVuSans-105"/>
        <path d="M 30.609375 48.390625 
Q 23.390625 48.390625 19.1875 42.75 
Q 14.984375 37.109375 14.984375 27.296875 
Q 14.984375 17.484375 19.15625 11.84375 
Q 23.34375 6.203125 30.609375 6.203125 
Q 37.796875 6.203125 41.984375 11.859375 
Q 46.1875 17.53125 46.1875 27.296875 
Q 46.1875 37.015625 41.984375 42.703125 
Q 37.796875 48.390625 30.609375 48.390625 
z
M 30.609375 56 
Q 42.328125 56 49.015625 48.375 
Q 55.71875 40.765625 55.71875 27.296875 
Q 55.71875 13.875 49.015625 6.21875 
Q 42.328125 -1.421875 30.609375 -1.421875 
Q 18.84375 -1.421875 12.171875 6.21875 
Q 5.515625 13.875 5.515625 27.296875 
Q 5.515625 40.765625 12.171875 48.375 
Q 18.84375 56 30.609375 56 
z
" id="DejaVuSans-111"/>
        <path d="M 54.890625 33.015625 
L 54.890625 0 
L 45.90625 0 
L 45.90625 32.71875 
Q 45.90625 40.484375 42.875 44.328125 
Q 39.84375 48.1875 33.796875 48.1875 
Q 26.515625 48.1875 22.3125 43.546875 
Q 18.109375 38.921875 18.109375 30.90625 
L 18.109375 0 
L 9.078125 0 
L 9.078125 54.6875 
L 18.109375 54.6875 
L 18.109375 46.1875 
Q 21.34375 51.125 25.703125 53.5625 
Q 30.078125 56 35.796875 56 
Q 45.21875 56 50.046875 50.171875 
Q 54.890625 44.34375 54.890625 33.015625 
z
" id="DejaVuSans-110"/>
       </defs>
       <use xlink:href="#DejaVuSans-101"/>
       <use x="61.523438" xlink:href="#DejaVuSans-108"/>
       <use x="89.306641" xlink:href="#DejaVuSans-101"/>
       <use x="150.830078" xlink:href="#DejaVuSans-118"/>
       <use x="210.009766" xlink:href="#DejaVuSans-97"/>
       <use x="271.289062" xlink:href="#DejaVuSans-116"/>
       <use x="310.498047" xlink:href="#DejaVuSans-105"/>
       <use x="338.28125" xlink:href="#DejaVuSans-111"/>
       <use x="399.462891" xlink:href="#DejaVuSans-110"/>
      </g>
     </g>
    </g>
    <g id="ytick_2">
     <g id="line2d_8">
      <g>
       <use style="stroke:#000000;stroke-width:0.8;" x="115.555625" xlink:href="#mfc90e0dcb2" y="25.344"/>
      </g>
     </g>
     <g id="text_9">
      <!-- population -->
      <g transform="translate(65.984375 28.383375)scale(0.08 -0.08)">
       <defs>
        <path d="M 18.109375 8.203125 
L 18.109375 -20.796875 
L 9.078125 -20.796875 
L 9.078125 54.6875 
L 18.109375 54.6875 
L 18.109375 46.390625 
Q 20.953125 51.265625 25.265625 53.625 
Q 29.59375 56 35.59375 56 
Q 45.5625 56 51.78125 48.09375 
Q 58.015625 40.1875 58.015625 27.296875 
Q 58.015625 14.40625 51.78125 6.484375 
Q 45.5625 -1.421875 35.59375 -1.421875 
Q 29.59375 -1.421875 25.265625 0.953125 
Q 20.953125 3.328125 18.109375 8.203125 
z
M 48.6875 27.296875 
Q 48.6875 37.203125 44.609375 42.84375 
Q 40.53125 48.484375 33.40625 48.484375 
Q 26.265625 48.484375 22.1875 42.84375 
Q 18.109375 37.203125 18.109375 27.296875 
Q 18.109375 17.390625 22.1875 11.75 
Q 26.265625 6.109375 33.40625 6.109375 
Q 40.53125 6.109375 44.609375 11.75 
Q 48.6875 17.390625 48.6875 27.296875 
z
" id="DejaVuSans-112"/>
       </defs>
       <use xlink:href="#DejaVuSans-112"/>
       <use x="63.476562" xlink:href="#DejaVuSans-111"/>
       <use x="124.658203" xlink:href="#DejaVuSans-112"/>
       <use x="188.134766" xlink:href="#DejaVuSans-117"/>
       <use x="251.513672" xlink:href="#DejaVuSans-108"/>
       <use x="279.296875" xlink:href="#DejaVuSans-97"/>
       <use x="340.576172" xlink:href="#DejaVuSans-116"/>
       <use x="379.785156" xlink:href="#DejaVuSans-105"/>
       <use x="407.568359" xlink:href="#DejaVuSans-111"/>
       <use x="468.75" xlink:href="#DejaVuSans-110"/>
      </g>
     </g>
    </g>
    <g id="ytick_3">
     <g id="line2d_9">
      <g>
       <use style="stroke:#000000;stroke-width:0.8;" x="115.555625" xlink:href="#mfc90e0dcb2" y="37.44"/>
      </g>
     </g>
     <g id="text_10">
      <!-- area -->
      <g transform="translate(90.719375 40.479375)scale(0.08 -0.08)">
       <defs>
        <path d="M 41.109375 46.296875 
Q 39.59375 47.171875 37.8125 47.578125 
Q 36.03125 48 33.890625 48 
Q 26.265625 48 22.1875 43.046875 
Q 18.109375 38.09375 18.109375 28.8125 
L 18.109375 0 
L 9.078125 0 
L 9.078125 54.6875 
L 18.109375 54.6875 
L 18.109375 46.1875 
Q 20.953125 51.171875 25.484375 53.578125 
Q 30.03125 56 36.53125 56 
Q 37.453125 56 38.578125 55.875 
Q 39.703125 55.765625 41.0625 55.515625 
z
" id="DejaVuSans-114"/>
       </defs>
       <use xlink:href="#DejaVuSans-97"/>
       <use x="61.279297" xlink:href="#DejaVuSans-114"/>
       <use x="100.142578" xlink:href="#DejaVuSans-101"/>
       <use x="161.666016" xlink:href="#DejaVuSans-97"/>
      </g>
     </g>
    </g>
    <g id="ytick_4">
     <g id="line2d_10">
      <g>
       <use style="stroke:#000000;stroke-width:0.8;" x="115.555625" xlink:href="#mfc90e0dcb2" y="49.536"/>
      </g>
     </g>
     <g id="text_11">
      <!-- number of employees -->
      <g transform="translate(20.878125 52.575375)scale(0.08 -0.08)">
       <defs>
        <path d="M 52 44.1875 
Q 55.375 50.25 60.0625 53.125 
Q 64.75 56 71.09375 56 
Q 79.640625 56 84.28125 50.015625 
Q 88.921875 44.046875 88.921875 33.015625 
L 88.921875 0 
L 79.890625 0 
L 79.890625 32.71875 
Q 79.890625 40.578125 77.09375 44.375 
Q 74.3125 48.1875 68.609375 48.1875 
Q 61.625 48.1875 57.5625 43.546875 
Q 53.515625 38.921875 53.515625 30.90625 
L 53.515625 0 
L 44.484375 0 
L 44.484375 32.71875 
Q 44.484375 40.625 41.703125 44.40625 
Q 38.921875 48.1875 33.109375 48.1875 
Q 26.21875 48.1875 22.15625 43.53125 
Q 18.109375 38.875 18.109375 30.90625 
L 18.109375 0 
L 9.078125 0 
L 9.078125 54.6875 
L 18.109375 54.6875 
L 18.109375 46.1875 
Q 21.1875 51.21875 25.484375 53.609375 
Q 29.78125 56 35.6875 56 
Q 41.65625 56 45.828125 52.96875 
Q 50 49.953125 52 44.1875 
z
" id="DejaVuSans-109"/>
        <path d="M 48.6875 27.296875 
Q 48.6875 37.203125 44.609375 42.84375 
Q 40.53125 48.484375 33.40625 48.484375 
Q 26.265625 48.484375 22.1875 42.84375 
Q 18.109375 37.203125 18.109375 27.296875 
Q 18.109375 17.390625 22.1875 11.75 
Q 26.265625 6.109375 33.40625 6.109375 
Q 40.53125 6.109375 44.609375 11.75 
Q 48.6875 17.390625 48.6875 27.296875 
z
M 18.109375 46.390625 
Q 20.953125 51.265625 25.265625 53.625 
Q 29.59375 56 35.59375 56 
Q 45.5625 56 51.78125 48.09375 
Q 58.015625 40.1875 58.015625 27.296875 
Q 58.015625 14.40625 51.78125 6.484375 
Q 45.5625 -1.421875 35.59375 -1.421875 
Q 29.59375 -1.421875 25.265625 0.953125 
Q 20.953125 3.328125 18.109375 8.203125 
L 18.109375 0 
L 9.078125 0 
L 9.078125 75.984375 
L 18.109375 75.984375 
z
" id="DejaVuSans-98"/>
        <path id="DejaVuSans-32"/>
        <path d="M 37.109375 75.984375 
L 37.109375 68.5 
L 28.515625 68.5 
Q 23.6875 68.5 21.796875 66.546875 
Q 19.921875 64.59375 19.921875 59.515625 
L 19.921875 54.6875 
L 34.71875 54.6875 
L 34.71875 47.703125 
L 19.921875 47.703125 
L 19.921875 0 
L 10.890625 0 
L 10.890625 47.703125 
L 2.296875 47.703125 
L 2.296875 54.6875 
L 10.890625 54.6875 
L 10.890625 58.5 
Q 10.890625 67.625 15.140625 71.796875 
Q 19.390625 75.984375 28.609375 75.984375 
z
" id="DejaVuSans-102"/>
        <path d="M 32.171875 -5.078125 
Q 28.375 -14.84375 24.75 -17.8125 
Q 21.140625 -20.796875 15.09375 -20.796875 
L 7.90625 -20.796875 
L 7.90625 -13.28125 
L 13.1875 -13.28125 
Q 16.890625 -13.28125 18.9375 -11.515625 
Q 21 -9.765625 23.484375 -3.21875 
L 25.09375 0.875 
L 2.984375 54.6875 
L 12.5 54.6875 
L 29.59375 11.921875 
L 46.6875 54.6875 
L 56.203125 54.6875 
z
" id="DejaVuSans-121"/>
        <path d="M 44.28125 53.078125 
L 44.28125 44.578125 
Q 40.484375 46.53125 36.375 47.5 
Q 32.28125 48.484375 27.875 48.484375 
Q 21.1875 48.484375 17.84375 46.4375 
Q 14.5 44.390625 14.5 40.28125 
Q 14.5 37.15625 16.890625 35.375 
Q 19.28125 33.59375 26.515625 31.984375 
L 29.59375 31.296875 
Q 39.15625 29.25 43.1875 25.515625 
Q 47.21875 21.78125 47.21875 15.09375 
Q 47.21875 7.46875 41.1875 3.015625 
Q 35.15625 -1.421875 24.609375 -1.421875 
Q 20.21875 -1.421875 15.453125 -0.5625 
Q 10.6875 0.296875 5.421875 2 
L 5.421875 11.28125 
Q 10.40625 8.6875 15.234375 7.390625 
Q 20.0625 6.109375 24.8125 6.109375 
Q 31.15625 6.109375 34.5625 8.28125 
Q 37.984375 10.453125 37.984375 14.40625 
Q 37.984375 18.0625 35.515625 20.015625 
Q 33.0625 21.96875 24.703125 23.78125 
L 21.578125 24.515625 
Q 13.234375 26.265625 9.515625 29.90625 
Q 5.8125 33.546875 5.8125 39.890625 
Q 5.8125 47.609375 11.28125 51.796875 
Q 16.75 56 26.8125 56 
Q 31.78125 56 36.171875 55.265625 
Q 40.578125 54.546875 44.28125 53.078125 
z
" id="DejaVuSans-115"/>
       </defs>
       <use xlink:href="#DejaVuSans-110"/>
       <use x="63.378906" xlink:href="#DejaVuSans-117"/>
       <use x="126.757812" xlink:href="#DejaVuSans-109"/>
       <use x="224.169922" xlink:href="#DejaVuSans-98"/>
       <use x="287.646484" xlink:href="#DejaVuSans-101"/>
       <use x="349.169922" xlink:href="#DejaVuSans-114"/>
       <use x="390.283203" xlink:href="#DejaVuSans-32"/>
       <use x="422.070312" xlink:href="#DejaVuSans-111"/>
       <use x="483.251953" xlink:href="#DejaVuSans-102"/>
       <use x="518.457031" xlink:href="#DejaVuSans-32"/>
       <use x="550.244141" xlink:href="#DejaVuSans-101"/>
       <use x="611.767578" xlink:href="#DejaVuSans-109"/>
       <use x="709.179688" xlink:href="#DejaVuSans-112"/>
       <use x="772.65625" xlink:href="#DejaVuSans-108"/>
       <use x="800.439453" xlink:href="#DejaVuSans-111"/>
       <use x="861.621094" xlink:href="#DejaVuSans-121"/>
       <use x="920.800781" xlink:href="#DejaVuSans-101"/>
       <use x="982.324219" xlink:href="#DejaVuSans-101"/>
       <use x="1043.847656" xlink:href="#DejaVuSans-115"/>
      </g>
     </g>
    </g>
    <g id="ytick_5">
     <g id="line2d_11">
      <g>
       <use style="stroke:#000000;stroke-width:0.8;" x="115.555625" xlink:href="#mfc90e0dcb2" y="61.632"/>
      </g>
     </g>
     <g id="text_12">
      <!-- year -->
      <g transform="translate(90.706875 64.671375)scale(0.08 -0.08)">
       <use xlink:href="#DejaVuSans-121"/>
       <use x="59.179688" xlink:href="#DejaVuSans-101"/>
       <use x="120.703125" xlink:href="#DejaVuSans-97"/>
       <use x="181.982422" xlink:href="#DejaVuSans-114"/>
      </g>
     </g>
    </g>
    <g id="ytick_6">
     <g id="line2d_12">
      <g>
       <use style="stroke:#000000;stroke-width:0.8;" x="115.555625" xlink:href="#mfc90e0dcb2" y="73.728"/>
      </g>
     </g>
     <g id="text_13">
      <!-- prediction change -->
      <g transform="translate(36.436875 76.767375)scale(0.08 -0.08)">
       <defs>
        <path d="M 45.40625 46.390625 
L 45.40625 75.984375 
L 54.390625 75.984375 
L 54.390625 0 
L 45.40625 0 
L 45.40625 8.203125 
Q 42.578125 3.328125 38.25 0.953125 
Q 33.9375 -1.421875 27.875 -1.421875 
Q 17.96875 -1.421875 11.734375 6.484375 
Q 5.515625 14.40625 5.515625 27.296875 
Q 5.515625 40.1875 11.734375 48.09375 
Q 17.96875 56 27.875 56 
Q 33.9375 56 38.25 53.625 
Q 42.578125 51.265625 45.40625 46.390625 
z
M 14.796875 27.296875 
Q 14.796875 17.390625 18.875 11.75 
Q 22.953125 6.109375 30.078125 6.109375 
Q 37.203125 6.109375 41.296875 11.75 
Q 45.40625 17.390625 45.40625 27.296875 
Q 45.40625 37.203125 41.296875 42.84375 
Q 37.203125 48.484375 30.078125 48.484375 
Q 22.953125 48.484375 18.875 42.84375 
Q 14.796875 37.203125 14.796875 27.296875 
z
" id="DejaVuSans-100"/>
        <path d="M 48.78125 52.59375 
L 48.78125 44.1875 
Q 44.96875 46.296875 41.140625 47.34375 
Q 37.3125 48.390625 33.40625 48.390625 
Q 24.65625 48.390625 19.8125 42.84375 
Q 14.984375 37.3125 14.984375 27.296875 
Q 14.984375 17.28125 19.8125 11.734375 
Q 24.65625 6.203125 33.40625 6.203125 
Q 37.3125 6.203125 41.140625 7.25 
Q 44.96875 8.296875 48.78125 10.40625 
L 48.78125 2.09375 
Q 45.015625 0.34375 40.984375 -0.53125 
Q 36.96875 -1.421875 32.421875 -1.421875 
Q 20.0625 -1.421875 12.78125 6.34375 
Q 5.515625 14.109375 5.515625 27.296875 
Q 5.515625 40.671875 12.859375 48.328125 
Q 20.21875 56 33.015625 56 
Q 37.15625 56 41.109375 55.140625 
Q 45.0625 54.296875 48.78125 52.59375 
z
" id="DejaVuSans-99"/>
        <path d="M 54.890625 33.015625 
L 54.890625 0 
L 45.90625 0 
L 45.90625 32.71875 
Q 45.90625 40.484375 42.875 44.328125 
Q 39.84375 48.1875 33.796875 48.1875 
Q 26.515625 48.1875 22.3125 43.546875 
Q 18.109375 38.921875 18.109375 30.90625 
L 18.109375 0 
L 9.078125 0 
L 9.078125 75.984375 
L 18.109375 75.984375 
L 18.109375 46.1875 
Q 21.34375 51.125 25.703125 53.5625 
Q 30.078125 56 35.796875 56 
Q 45.21875 56 50.046875 50.171875 
Q 54.890625 44.34375 54.890625 33.015625 
z
" id="DejaVuSans-104"/>
        <path d="M 45.40625 27.984375 
Q 45.40625 37.75 41.375 43.109375 
Q 37.359375 48.484375 30.078125 48.484375 
Q 22.859375 48.484375 18.828125 43.109375 
Q 14.796875 37.75 14.796875 27.984375 
Q 14.796875 18.265625 18.828125 12.890625 
Q 22.859375 7.515625 30.078125 7.515625 
Q 37.359375 7.515625 41.375 12.890625 
Q 45.40625 18.265625 45.40625 27.984375 
z
M 54.390625 6.78125 
Q 54.390625 -7.171875 48.1875 -13.984375 
Q 42 -20.796875 29.203125 -20.796875 
Q 24.46875 -20.796875 20.265625 -20.09375 
Q 16.0625 -19.390625 12.109375 -17.921875 
L 12.109375 -9.1875 
Q 16.0625 -11.328125 19.921875 -12.34375 
Q 23.78125 -13.375 27.78125 -13.375 
Q 36.625 -13.375 41.015625 -8.765625 
Q 45.40625 -4.15625 45.40625 5.171875 
L 45.40625 9.625 
Q 42.625 4.78125 38.28125 2.390625 
Q 33.9375 0 27.875 0 
Q 17.828125 0 11.671875 7.65625 
Q 5.515625 15.328125 5.515625 27.984375 
Q 5.515625 40.671875 11.671875 48.328125 
Q 17.828125 56 27.875 56 
Q 33.9375 56 38.28125 53.609375 
Q 42.625 51.21875 45.40625 46.390625 
L 45.40625 54.6875 
L 54.390625 54.6875 
z
" id="DejaVuSans-103"/>
       </defs>
       <use xlink:href="#DejaVuSans-112"/>
       <use x="63.476562" xlink:href="#DejaVuSans-114"/>
       <use x="102.339844" xlink:href="#DejaVuSans-101"/>
       <use x="163.863281" xlink:href="#DejaVuSans-100"/>
       <use x="227.339844" xlink:href="#DejaVuSans-105"/>
       <use x="255.123047" xlink:href="#DejaVuSans-99"/>
       <use x="310.103516" xlink:href="#DejaVuSans-116"/>
       <use x="349.3125" xlink:href="#DejaVuSans-105"/>
       <use x="377.095703" xlink:href="#DejaVuSans-111"/>
       <use x="438.277344" xlink:href="#DejaVuSans-110"/>
       <use x="501.65625" xlink:href="#DejaVuSans-32"/>
       <use x="533.443359" xlink:href="#DejaVuSans-99"/>
       <use x="588.423828" xlink:href="#DejaVuSans-104"/>
       <use x="651.802734" xlink:href="#DejaVuSans-97"/>
       <use x="713.082031" xlink:href="#DejaVuSans-110"/>
       <use x="776.460938" xlink:href="#DejaVuSans-103"/>
       <use x="839.9375" xlink:href="#DejaVuSans-101"/>
      </g>
     </g>
    </g>
    <g id="ytick_7">
     <g id="line2d_13">
      <g>
       <use style="stroke:#000000;stroke-width:0.8;" x="115.555625" xlink:href="#mfc90e0dcb2" y="85.824"/>
      </g>
     </g>
     <g id="text_14">
      <!-- ranking -->
      <g transform="translate(78.290625 88.863375)scale(0.08 -0.08)">
       <defs>
        <path d="M 9.078125 75.984375 
L 18.109375 75.984375 
L 18.109375 31.109375 
L 44.921875 54.6875 
L 56.390625 54.6875 
L 27.390625 29.109375 
L 57.625 0 
L 45.90625 0 
L 18.109375 26.703125 
L 18.109375 0 
L 9.078125 0 
z
" id="DejaVuSans-107"/>
       </defs>
       <use xlink:href="#DejaVuSans-114"/>
       <use x="41.113281" xlink:href="#DejaVuSans-97"/>
       <use x="102.392578" xlink:href="#DejaVuSans-110"/>
       <use x="165.771484" xlink:href="#DejaVuSans-107"/>
       <use x="223.681641" xlink:href="#DejaVuSans-105"/>
       <use x="251.464844" xlink:href="#DejaVuSans-110"/>
       <use x="314.84375" xlink:href="#DejaVuSans-103"/>
      </g>
     </g>
    </g>
    <g id="ytick_8">
     <g id="line2d_14">
      <g>
       <use style="stroke:#000000;stroke-width:0.8;" x="115.555625" xlink:href="#mfc90e0dcb2" y="97.92"/>
      </g>
     </g>
     <g id="text_15">
      <!-- number of years -->
      <g transform="translate(42.520625 100.959375)scale(0.08 -0.08)">
       <use xlink:href="#DejaVuSans-110"/>
       <use x="63.378906" xlink:href="#DejaVuSans-117"/>
       <use x="126.757812" xlink:href="#DejaVuSans-109"/>
       <use x="224.169922" xlink:href="#DejaVuSans-98"/>
       <use x="287.646484" xlink:href="#DejaVuSans-101"/>
       <use x="349.169922" xlink:href="#DejaVuSans-114"/>
       <use x="390.283203" xlink:href="#DejaVuSans-32"/>
       <use x="422.070312" xlink:href="#DejaVuSans-111"/>
       <use x="483.251953" xlink:href="#DejaVuSans-102"/>
       <use x="518.457031" xlink:href="#DejaVuSans-32"/>
       <use x="550.244141" xlink:href="#DejaVuSans-121"/>
       <use x="609.423828" xlink:href="#DejaVuSans-101"/>
       <use x="670.947266" xlink:href="#DejaVuSans-97"/>
       <use x="732.226562" xlink:href="#DejaVuSans-114"/>
       <use x="773.339844" xlink:href="#DejaVuSans-115"/>
      </g>
     </g>
    </g>
    <g id="ytick_9">
     <g id="line2d_15">
      <g>
       <use style="stroke:#000000;stroke-width:0.8;" x="115.555625" xlink:href="#mfc90e0dcb2" y="110.016"/>
      </g>
     </g>
     <g id="text_16">
      <!-- iso number -->
      <g transform="translate(63.505625 113.055375)scale(0.08 -0.08)">
       <use xlink:href="#DejaVuSans-105"/>
       <use x="27.783203" xlink:href="#DejaVuSans-115"/>
       <use x="79.882812" xlink:href="#DejaVuSans-111"/>
       <use x="141.064453" xlink:href="#DejaVuSans-32"/>
       <use x="172.851562" xlink:href="#DejaVuSans-110"/>
       <use x="236.230469" xlink:href="#DejaVuSans-117"/>
       <use x="299.609375" xlink:href="#DejaVuSans-109"/>
       <use x="397.021484" xlink:href="#DejaVuSans-98"/>
       <use x="460.498047" xlink:href="#DejaVuSans-101"/>
       <use x="522.021484" xlink:href="#DejaVuSans-114"/>
      </g>
     </g>
    </g>
    <g id="ytick_10">
     <g id="line2d_16">
      <g>
       <use style="stroke:#000000;stroke-width:0.8;" x="115.555625" xlink:href="#mfc90e0dcb2" y="122.112"/>
      </g>
     </g>
     <g id="text_17">
      <!-- number of seats -->
      <g transform="translate(43.240625 125.151375)scale(0.08 -0.08)">
       <use xlink:href="#DejaVuSans-110"/>
       <use x="63.378906" xlink:href="#DejaVuSans-117"/>
       <use x="126.757812" xlink:href="#DejaVuSans-109"/>
       <use x="224.169922" xlink:href="#DejaVuSans-98"/>
       <use x="287.646484" xlink:href="#DejaVuSans-101"/>
       <use x="349.169922" xlink:href="#DejaVuSans-114"/>
       <use x="390.283203" xlink:href="#DejaVuSans-32"/>
       <use x="422.070312" xlink:href="#DejaVuSans-111"/>
       <use x="483.251953" xlink:href="#DejaVuSans-102"/>
       <use x="518.457031" xlink:href="#DejaVuSans-32"/>
       <use x="550.244141" xlink:href="#DejaVuSans-115"/>
       <use x="602.34375" xlink:href="#DejaVuSans-101"/>
       <use x="663.867188" xlink:href="#DejaVuSans-97"/>
       <use x="725.146484" xlink:href="#DejaVuSans-116"/>
       <use x="764.355469" xlink:href="#DejaVuSans-115"/>
      </g>
     </g>
    </g>
    <g id="ytick_11">
     <g id="line2d_17">
      <g>
       <use style="stroke:#000000;stroke-width:0.8;" x="115.555625" xlink:href="#mfc90e0dcb2" y="134.208"/>
      </g>
     </g>
     <g id="text_18">
      <!-- number of beds -->
      <g transform="translate(45.289375 137.247375)scale(0.08 -0.08)">
       <use xlink:href="#DejaVuSans-110"/>
       <use x="63.378906" xlink:href="#DejaVuSans-117"/>
       <use x="126.757812" xlink:href="#DejaVuSans-109"/>
       <use x="224.169922" xlink:href="#DejaVuSans-98"/>
       <use x="287.646484" xlink:href="#DejaVuSans-101"/>
       <use x="349.169922" xlink:href="#DejaVuSans-114"/>
       <use x="390.283203" xlink:href="#DejaVuSans-32"/>
       <use x="422.070312" xlink:href="#DejaVuSans-111"/>
       <use x="483.251953" xlink:href="#DejaVuSans-102"/>
       <use x="518.457031" xlink:href="#DejaVuSans-32"/>
       <use x="550.244141" xlink:href="#DejaVuSans-98"/>
       <use x="613.720703" xlink:href="#DejaVuSans-101"/>
       <use x="675.244141" xlink:href="#DejaVuSans-100"/>
       <use x="738.720703" xlink:href="#DejaVuSans-115"/>
      </g>
     </g>
    </g>
    <g id="ytick_12">
     <g id="line2d_18">
      <g>
       <use style="stroke:#000000;stroke-width:0.8;" x="115.555625" xlink:href="#mfc90e0dcb2" y="146.304"/>
      </g>
     </g>
     <g id="text_19">
      <!-- number of votes -->
      <g transform="translate(42.680625 149.343375)scale(0.08 -0.08)">
       <use xlink:href="#DejaVuSans-110"/>
       <use x="63.378906" xlink:href="#DejaVuSans-117"/>
       <use x="126.757812" xlink:href="#DejaVuSans-109"/>
       <use x="224.169922" xlink:href="#DejaVuSans-98"/>
       <use x="287.646484" xlink:href="#DejaVuSans-101"/>
       <use x="349.169922" xlink:href="#DejaVuSans-114"/>
       <use x="390.283203" xlink:href="#DejaVuSans-32"/>
       <use x="422.070312" xlink:href="#DejaVuSans-111"/>
       <use x="483.251953" xlink:href="#DejaVuSans-102"/>
       <use x="518.457031" xlink:href="#DejaVuSans-32"/>
       <use x="550.244141" xlink:href="#DejaVuSans-118"/>
       <use x="609.423828" xlink:href="#DejaVuSans-111"/>
       <use x="670.605469" xlink:href="#DejaVuSans-116"/>
       <use x="709.814453" xlink:href="#DejaVuSans-101"/>
       <use x="771.337891" xlink:href="#DejaVuSans-115"/>
      </g>
     </g>
    </g>
    <g id="ytick_13">
     <g id="line2d_19">
      <g>
       <use style="stroke:#000000;stroke-width:0.8;" x="115.555625" xlink:href="#mfc90e0dcb2" y="158.4"/>
      </g>
     </g>
     <g id="text_20">
      <!-- number of passenges -->
      <g transform="translate(22.059375 161.439375)scale(0.08 -0.08)">
       <use xlink:href="#DejaVuSans-110"/>
       <use x="63.378906" xlink:href="#DejaVuSans-117"/>
       <use x="126.757812" xlink:href="#DejaVuSans-109"/>
       <use x="224.169922" xlink:href="#DejaVuSans-98"/>
       <use x="287.646484" xlink:href="#DejaVuSans-101"/>
       <use x="349.169922" xlink:href="#DejaVuSans-114"/>
       <use x="390.283203" xlink:href="#DejaVuSans-32"/>
       <use x="422.070312" xlink:href="#DejaVuSans-111"/>
       <use x="483.251953" xlink:href="#DejaVuSans-102"/>
       <use x="518.457031" xlink:href="#DejaVuSans-32"/>
       <use x="550.244141" xlink:href="#DejaVuSans-112"/>
       <use x="613.720703" xlink:href="#DejaVuSans-97"/>
       <use x="675" xlink:href="#DejaVuSans-115"/>
       <use x="727.099609" xlink:href="#DejaVuSans-115"/>
       <use x="779.199219" xlink:href="#DejaVuSans-101"/>
       <use x="840.722656" xlink:href="#DejaVuSans-110"/>
       <use x="904.101562" xlink:href="#DejaVuSans-103"/>
       <use x="967.578125" xlink:href="#DejaVuSans-101"/>
       <use x="1029.101562" xlink:href="#DejaVuSans-115"/>
      </g>
     </g>
    </g>
    <g id="ytick_14">
     <g id="line2d_20">
      <g>
       <use style="stroke:#000000;stroke-width:0.8;" x="115.555625" xlink:href="#mfc90e0dcb2" y="170.496"/>
      </g>
     </g>
     <g id="text_21">
      <!-- imdb votes -->
      <g transform="translate(63.984375 173.535375)scale(0.08 -0.08)">
       <use xlink:href="#DejaVuSans-105"/>
       <use x="27.783203" xlink:href="#DejaVuSans-109"/>
       <use x="125.195312" xlink:href="#DejaVuSans-100"/>
       <use x="188.671875" xlink:href="#DejaVuSans-98"/>
       <use x="252.148438" xlink:href="#DejaVuSans-32"/>
       <use x="283.935547" xlink:href="#DejaVuSans-118"/>
       <use x="343.115234" xlink:href="#DejaVuSans-111"/>
       <use x="404.296875" xlink:href="#DejaVuSans-116"/>
       <use x="443.505859" xlink:href="#DejaVuSans-101"/>
       <use x="505.029297" xlink:href="#DejaVuSans-115"/>
      </g>
     </g>
    </g>
    <g id="ytick_15">
     <g id="line2d_21">
      <g>
       <use style="stroke:#000000;stroke-width:0.8;" x="115.555625" xlink:href="#mfc90e0dcb2" y="182.592"/>
      </g>
     </g>
     <g id="text_22">
      <!-- area of catchment -->
      <g transform="translate(35.095625 185.631375)scale(0.08 -0.08)">
       <use xlink:href="#DejaVuSans-97"/>
       <use x="61.279297" xlink:href="#DejaVuSans-114"/>
       <use x="100.142578" xlink:href="#DejaVuSans-101"/>
       <use x="161.666016" xlink:href="#DejaVuSans-97"/>
       <use x="222.945312" xlink:href="#DejaVuSans-32"/>
       <use x="254.732422" xlink:href="#DejaVuSans-111"/>
       <use x="315.914062" xlink:href="#DejaVuSans-102"/>
       <use x="351.119141" xlink:href="#DejaVuSans-32"/>
       <use x="382.90625" xlink:href="#DejaVuSans-99"/>
       <use x="437.886719" xlink:href="#DejaVuSans-97"/>
       <use x="499.166016" xlink:href="#DejaVuSans-116"/>
       <use x="538.375" xlink:href="#DejaVuSans-99"/>
       <use x="593.355469" xlink:href="#DejaVuSans-104"/>
       <use x="656.734375" xlink:href="#DejaVuSans-109"/>
       <use x="754.146484" xlink:href="#DejaVuSans-101"/>
       <use x="815.669922" xlink:href="#DejaVuSans-110"/>
       <use x="879.048828" xlink:href="#DejaVuSans-116"/>
      </g>
     </g>
    </g>
    <g id="ytick_16">
     <g id="line2d_22">
      <g>
       <use style="stroke:#000000;stroke-width:0.8;" x="115.555625" xlink:href="#mfc90e0dcb2" y="194.688"/>
      </g>
     </g>
     <g id="text_23">
      <!-- number of wins -->
      <g transform="translate(46.534375 197.727375)scale(0.08 -0.08)">
       <defs>
        <path d="M 4.203125 54.6875 
L 13.1875 54.6875 
L 24.421875 12.015625 
L 35.59375 54.6875 
L 46.1875 54.6875 
L 57.421875 12.015625 
L 68.609375 54.6875 
L 77.59375 54.6875 
L 63.28125 0 
L 52.6875 0 
L 40.921875 44.828125 
L 29.109375 0 
L 18.5 0 
z
" id="DejaVuSans-119"/>
       </defs>
       <use xlink:href="#DejaVuSans-110"/>
       <use x="63.378906" xlink:href="#DejaVuSans-117"/>
       <use x="126.757812" xlink:href="#DejaVuSans-109"/>
       <use x="224.169922" xlink:href="#DejaVuSans-98"/>
       <use x="287.646484" xlink:href="#DejaVuSans-101"/>
       <use x="349.169922" xlink:href="#DejaVuSans-114"/>
       <use x="390.283203" xlink:href="#DejaVuSans-32"/>
       <use x="422.070312" xlink:href="#DejaVuSans-111"/>
       <use x="483.251953" xlink:href="#DejaVuSans-102"/>
       <use x="518.457031" xlink:href="#DejaVuSans-32"/>
       <use x="550.244141" xlink:href="#DejaVuSans-119"/>
       <use x="632.03125" xlink:href="#DejaVuSans-105"/>
       <use x="659.814453" xlink:href="#DejaVuSans-110"/>
       <use x="723.193359" xlink:href="#DejaVuSans-115"/>
      </g>
     </g>
    </g>
    <g id="ytick_17">
     <g id="line2d_23">
      <g>
       <use style="stroke:#000000;stroke-width:0.8;" x="115.555625" xlink:href="#mfc90e0dcb2" y="206.784"/>
      </g>
     </g>
     <g id="text_24">
      <!-- film length -->
      <g transform="translate(65.459375 209.823375)scale(0.08 -0.08)">
       <use xlink:href="#DejaVuSans-102"/>
       <use x="35.205078" xlink:href="#DejaVuSans-105"/>
       <use x="62.988281" xlink:href="#DejaVuSans-108"/>
       <use x="90.771484" xlink:href="#DejaVuSans-109"/>
       <use x="188.183594" xlink:href="#DejaVuSans-32"/>
       <use x="219.970703" xlink:href="#DejaVuSans-108"/>
       <use x="247.753906" xlink:href="#DejaVuSans-101"/>
       <use x="309.277344" xlink:href="#DejaVuSans-110"/>
       <use x="372.65625" xlink:href="#DejaVuSans-103"/>
       <use x="436.132812" xlink:href="#DejaVuSans-116"/>
       <use x="475.341797" xlink:href="#DejaVuSans-104"/>
      </g>
     </g>
    </g>
    <g id="ytick_18">
     <g id="line2d_24">
      <g>
       <use style="stroke:#000000;stroke-width:0.8;" x="115.555625" xlink:href="#mfc90e0dcb2" y="218.88"/>
      </g>
     </g>
     <g id="text_25">
      <!-- frequencies -->
      <g transform="translate(61.855625 221.919375)scale(0.08 -0.08)">
       <defs>
        <path d="M 14.796875 27.296875 
Q 14.796875 17.390625 18.875 11.75 
Q 22.953125 6.109375 30.078125 6.109375 
Q 37.203125 6.109375 41.296875 11.75 
Q 45.40625 17.390625 45.40625 27.296875 
Q 45.40625 37.203125 41.296875 42.84375 
Q 37.203125 48.484375 30.078125 48.484375 
Q 22.953125 48.484375 18.875 42.84375 
Q 14.796875 37.203125 14.796875 27.296875 
z
M 45.40625 8.203125 
Q 42.578125 3.328125 38.25 0.953125 
Q 33.9375 -1.421875 27.875 -1.421875 
Q 17.96875 -1.421875 11.734375 6.484375 
Q 5.515625 14.40625 5.515625 27.296875 
Q 5.515625 40.1875 11.734375 48.09375 
Q 17.96875 56 27.875 56 
Q 33.9375 56 38.25 53.625 
Q 42.578125 51.265625 45.40625 46.390625 
L 45.40625 54.6875 
L 54.390625 54.6875 
L 54.390625 -20.796875 
L 45.40625 -20.796875 
z
" id="DejaVuSans-113"/>
       </defs>
       <use xlink:href="#DejaVuSans-102"/>
       <use x="35.205078" xlink:href="#DejaVuSans-114"/>
       <use x="74.068359" xlink:href="#DejaVuSans-101"/>
       <use x="135.591797" xlink:href="#DejaVuSans-113"/>
       <use x="199.068359" xlink:href="#DejaVuSans-117"/>
       <use x="262.447266" xlink:href="#DejaVuSans-101"/>
       <use x="323.970703" xlink:href="#DejaVuSans-110"/>
       <use x="387.349609" xlink:href="#DejaVuSans-99"/>
       <use x="442.330078" xlink:href="#DejaVuSans-105"/>
       <use x="470.113281" xlink:href="#DejaVuSans-101"/>
       <use x="531.636719" xlink:href="#DejaVuSans-115"/>
      </g>
     </g>
    </g>
    <g id="ytick_19">
     <g id="line2d_25">
      <g>
       <use style="stroke:#000000;stroke-width:0.8;" x="115.555625" xlink:href="#mfc90e0dcb2" y="230.976"/>
      </g>
     </g>
     <g id="text_26">
      <!-- number of visitors -->
      <g transform="translate(35.701875 234.015375)scale(0.08 -0.08)">
       <use xlink:href="#DejaVuSans-110"/>
       <use x="63.378906" xlink:href="#DejaVuSans-117"/>
       <use x="126.757812" xlink:href="#DejaVuSans-109"/>
       <use x="224.169922" xlink:href="#DejaVuSans-98"/>
       <use x="287.646484" xlink:href="#DejaVuSans-101"/>
       <use x="349.169922" xlink:href="#DejaVuSans-114"/>
       <use x="390.283203" xlink:href="#DejaVuSans-32"/>
       <use x="422.070312" xlink:href="#DejaVuSans-111"/>
       <use x="483.251953" xlink:href="#DejaVuSans-102"/>
       <use x="518.457031" xlink:href="#DejaVuSans-32"/>
       <use x="550.244141" xlink:href="#DejaVuSans-118"/>
       <use x="609.423828" xlink:href="#DejaVuSans-105"/>
       <use x="637.207031" xlink:href="#DejaVuSans-115"/>
       <use x="689.306641" xlink:href="#DejaVuSans-105"/>
       <use x="717.089844" xlink:href="#DejaVuSans-116"/>
       <use x="756.298828" xlink:href="#DejaVuSans-111"/>
       <use x="817.480469" xlink:href="#DejaVuSans-114"/>
       <use x="858.59375" xlink:href="#DejaVuSans-115"/>
      </g>
     </g>
    </g>
    <g id="ytick_20">
     <g id="line2d_26">
      <g>
       <use style="stroke:#000000;stroke-width:0.8;" x="115.555625" xlink:href="#mfc90e0dcb2" y="243.072"/>
      </g>
     </g>
     <g id="text_27">
      <!-- squad number -->
      <g transform="translate(50.493125 246.111375)scale(0.08 -0.08)">
       <use xlink:href="#DejaVuSans-115"/>
       <use x="52.099609" xlink:href="#DejaVuSans-113"/>
       <use x="115.576172" xlink:href="#DejaVuSans-117"/>
       <use x="178.955078" xlink:href="#DejaVuSans-97"/>
       <use x="240.234375" xlink:href="#DejaVuSans-100"/>
       <use x="303.710938" xlink:href="#DejaVuSans-32"/>
       <use x="335.498047" xlink:href="#DejaVuSans-110"/>
       <use x="398.876953" xlink:href="#DejaVuSans-117"/>
       <use x="462.255859" xlink:href="#DejaVuSans-109"/>
       <use x="559.667969" xlink:href="#DejaVuSans-98"/>
       <use x="623.144531" xlink:href="#DejaVuSans-101"/>
       <use x="684.667969" xlink:href="#DejaVuSans-114"/>
      </g>
     </g>
    </g>
    <g id="ytick_21">
     <g id="line2d_27">
      <g>
       <use style="stroke:#000000;stroke-width:0.8;" x="115.555625" xlink:href="#mfc90e0dcb2" y="255.168"/>
      </g>
     </g>
     <g id="text_28">
      <!-- rating -->
      <g transform="translate(84.856875 258.207375)scale(0.08 -0.08)">
       <use xlink:href="#DejaVuSans-114"/>
       <use x="41.113281" xlink:href="#DejaVuSans-97"/>
       <use x="102.392578" xlink:href="#DejaVuSans-116"/>
       <use x="141.601562" xlink:href="#DejaVuSans-105"/>
       <use x="169.384766" xlink:href="#DejaVuSans-110"/>
       <use x="232.763672" xlink:href="#DejaVuSans-103"/>
      </g>
     </g>
    </g>
    <g id="ytick_22">
     <g id="line2d_28">
      <g>
       <use style="stroke:#000000;stroke-width:0.8;" x="115.555625" xlink:href="#mfc90e0dcb2" y="267.264"/>
      </g>
     </g>
     <g id="text_29">
      <!-- series number -->
      <g transform="translate(51.099375 270.303375)scale(0.08 -0.08)">
       <use xlink:href="#DejaVuSans-115"/>
       <use x="52.099609" xlink:href="#DejaVuSans-101"/>
       <use x="113.623047" xlink:href="#DejaVuSans-114"/>
       <use x="154.736328" xlink:href="#DejaVuSans-105"/>
       <use x="182.519531" xlink:href="#DejaVuSans-101"/>
       <use x="244.042969" xlink:href="#DejaVuSans-115"/>
       <use x="296.142578" xlink:href="#DejaVuSans-32"/>
       <use x="327.929688" xlink:href="#DejaVuSans-110"/>
       <use x="391.308594" xlink:href="#DejaVuSans-117"/>
       <use x="454.6875" xlink:href="#DejaVuSans-109"/>
       <use x="552.099609" xlink:href="#DejaVuSans-98"/>
       <use x="615.576172" xlink:href="#DejaVuSans-101"/>
       <use x="677.099609" xlink:href="#DejaVuSans-114"/>
      </g>
     </g>
    </g>
    <g id="text_30">
     <!-- Property Concept -->
     <g transform="translate(14.798437 183.680219)rotate(-90)scale(0.1 -0.1)">
      <defs>
       <path d="M 19.671875 64.796875 
L 19.671875 37.40625 
L 32.078125 37.40625 
Q 38.96875 37.40625 42.71875 40.96875 
Q 46.484375 44.53125 46.484375 51.125 
Q 46.484375 57.671875 42.71875 61.234375 
Q 38.96875 64.796875 32.078125 64.796875 
z
M 9.8125 72.90625 
L 32.078125 72.90625 
Q 44.34375 72.90625 50.609375 67.359375 
Q 56.890625 61.8125 56.890625 51.125 
Q 56.890625 40.328125 50.609375 34.8125 
Q 44.34375 29.296875 32.078125 29.296875 
L 19.671875 29.296875 
L 19.671875 0 
L 9.8125 0 
z
" id="DejaVuSans-80"/>
       <path d="M 64.40625 67.28125 
L 64.40625 56.890625 
Q 59.421875 61.53125 53.78125 63.8125 
Q 48.140625 66.109375 41.796875 66.109375 
Q 29.296875 66.109375 22.65625 58.46875 
Q 16.015625 50.828125 16.015625 36.375 
Q 16.015625 21.96875 22.65625 14.328125 
Q 29.296875 6.6875 41.796875 6.6875 
Q 48.140625 6.6875 53.78125 8.984375 
Q 59.421875 11.28125 64.40625 15.921875 
L 64.40625 5.609375 
Q 59.234375 2.09375 53.4375 0.328125 
Q 47.65625 -1.421875 41.21875 -1.421875 
Q 24.65625 -1.421875 15.125 8.703125 
Q 5.609375 18.84375 5.609375 36.375 
Q 5.609375 53.953125 15.125 64.078125 
Q 24.65625 74.21875 41.21875 74.21875 
Q 47.75 74.21875 53.53125 72.484375 
Q 59.328125 70.75 64.40625 67.28125 
z
" id="DejaVuSans-67"/>
      </defs>
      <use xlink:href="#DejaVuSans-80"/>
      <use x="58.552734" xlink:href="#DejaVuSans-114"/>
      <use x="97.416016" xlink:href="#DejaVuSans-111"/>
      <use x="158.597656" xlink:href="#DejaVuSans-112"/>
      <use x="222.074219" xlink:href="#DejaVuSans-101"/>
      <use x="283.597656" xlink:href="#DejaVuSans-114"/>
      <use x="324.710938" xlink:href="#DejaVuSans-116"/>
      <use x="363.919922" xlink:href="#DejaVuSans-121"/>
      <use x="423.099609" xlink:href="#DejaVuSans-32"/>
      <use x="454.886719" xlink:href="#DejaVuSans-67"/>
      <use x="524.710938" xlink:href="#DejaVuSans-111"/>
      <use x="585.892578" xlink:href="#DejaVuSans-110"/>
      <use x="649.271484" xlink:href="#DejaVuSans-99"/>
      <use x="704.251953" xlink:href="#DejaVuSans-101"/>
      <use x="765.775391" xlink:href="#DejaVuSans-112"/>
      <use x="829.251953" xlink:href="#DejaVuSans-116"/>
     </g>
    </g>
   </g>
   <g id="line2d_29">
    <path clip-path="url(#pfdb94889ed)" d="M 0 0 
" style="fill:none;stroke:#000000;stroke-linecap:square;stroke-width:2.7;"/>
   </g>
   <g id="line2d_30">
    <path clip-path="url(#pfdb94889ed)" d="M 0 0 
" style="fill:none;stroke:#000000;stroke-linecap:square;stroke-width:2.7;"/>
   </g>
   <g id="line2d_31">
    <path clip-path="url(#pfdb94889ed)" d="M 0 0 
" style="fill:none;stroke:#000000;stroke-linecap:square;stroke-width:2.7;"/>
   </g>
   <g id="line2d_32">
    <path clip-path="url(#pfdb94889ed)" d="M 0 0 
" style="fill:none;stroke:#000000;stroke-linecap:square;stroke-width:2.7;"/>
   </g>
   <g id="line2d_33">
    <path clip-path="url(#pfdb94889ed)" d="M 0 0 
" style="fill:none;stroke:#000000;stroke-linecap:square;stroke-width:2.7;"/>
   </g>
   <g id="line2d_34">
    <path clip-path="url(#pfdb94889ed)" d="M 0 0 
" style="fill:none;stroke:#000000;stroke-linecap:square;stroke-width:2.7;"/>
   </g>
   <g id="line2d_35">
    <path clip-path="url(#pfdb94889ed)" d="M 0 0 
" style="fill:none;stroke:#000000;stroke-linecap:square;stroke-width:2.7;"/>
   </g>
   <g id="line2d_36">
    <path clip-path="url(#pfdb94889ed)" d="M 0 0 
" style="fill:none;stroke:#000000;stroke-linecap:square;stroke-width:2.7;"/>
   </g>
   <g id="line2d_37">
    <path clip-path="url(#pfdb94889ed)" d="M 0 0 
" style="fill:none;stroke:#000000;stroke-linecap:square;stroke-width:2.7;"/>
   </g>
   <g id="line2d_38">
    <path clip-path="url(#pfdb94889ed)" d="M 0 0 
" style="fill:none;stroke:#000000;stroke-linecap:square;stroke-width:2.7;"/>
   </g>
   <g id="line2d_39">
    <path clip-path="url(#pfdb94889ed)" d="M 0 0 
" style="fill:none;stroke:#000000;stroke-linecap:square;stroke-width:2.7;"/>
   </g>
   <g id="line2d_40">
    <path clip-path="url(#pfdb94889ed)" d="M 0 0 
" style="fill:none;stroke:#000000;stroke-linecap:square;stroke-width:2.7;"/>
   </g>
   <g id="line2d_41">
    <path clip-path="url(#pfdb94889ed)" d="M 0 0 
" style="fill:none;stroke:#000000;stroke-linecap:square;stroke-width:2.7;"/>
   </g>
   <g id="line2d_42">
    <path clip-path="url(#pfdb94889ed)" d="M 0 0 
" style="fill:none;stroke:#000000;stroke-linecap:square;stroke-width:2.7;"/>
   </g>
   <g id="line2d_43">
    <path clip-path="url(#pfdb94889ed)" d="M 0 0 
" style="fill:none;stroke:#000000;stroke-linecap:square;stroke-width:2.7;"/>
   </g>
   <g id="line2d_44">
    <path clip-path="url(#pfdb94889ed)" d="M 0 0 
" style="fill:none;stroke:#000000;stroke-linecap:square;stroke-width:2.7;"/>
   </g>
   <g id="line2d_45">
    <path clip-path="url(#pfdb94889ed)" d="M 0 0 
" style="fill:none;stroke:#000000;stroke-linecap:square;stroke-width:2.7;"/>
   </g>
   <g id="line2d_46">
    <path clip-path="url(#pfdb94889ed)" d="M 0 0 
" style="fill:none;stroke:#000000;stroke-linecap:square;stroke-width:2.7;"/>
   </g>
   <g id="line2d_47">
    <path clip-path="url(#pfdb94889ed)" d="M 0 0 
" style="fill:none;stroke:#000000;stroke-linecap:square;stroke-width:2.7;"/>
   </g>
   <g id="line2d_48">
    <path clip-path="url(#pfdb94889ed)" d="M 0 0 
" style="fill:none;stroke:#000000;stroke-linecap:square;stroke-width:2.7;"/>
   </g>
   <g id="line2d_49">
    <path clip-path="url(#pfdb94889ed)" d="M 0 0 
" style="fill:none;stroke:#000000;stroke-linecap:square;stroke-width:2.7;"/>
   </g>
   <g id="line2d_50">
    <path clip-path="url(#pfdb94889ed)" d="M 0 0 
" style="fill:none;stroke:#000000;stroke-linecap:square;stroke-width:2.7;"/>
   </g>
   <g id="line2d_51">
    <path clip-path="url(#pfdb94889ed)" d="M 0 0 
" style="fill:none;stroke:#000000;stroke-linecap:square;stroke-width:2.7;"/>
   </g>
   <g id="line2d_52">
    <path clip-path="url(#pfdb94889ed)" d="M 0 0 
" style="fill:none;stroke:#000000;stroke-linecap:square;stroke-width:2.7;"/>
   </g>
   <g id="line2d_53">
    <path clip-path="url(#pfdb94889ed)" d="M 0 0 
" style="fill:none;stroke:#000000;stroke-linecap:square;stroke-width:2.7;"/>
   </g>
   <g id="line2d_54">
    <path clip-path="url(#pfdb94889ed)" d="M 0 0 
" style="fill:none;stroke:#000000;stroke-linecap:square;stroke-width:2.7;"/>
   </g>
   <g id="line2d_55">
    <path clip-path="url(#pfdb94889ed)" d="M 0 0 
" style="fill:none;stroke:#000000;stroke-linecap:square;stroke-width:2.7;"/>
   </g>
   <g id="line2d_56">
    <path clip-path="url(#pfdb94889ed)" d="M 0 0 
" style="fill:none;stroke:#000000;stroke-linecap:square;stroke-width:2.7;"/>
   </g>
   <g id="line2d_57">
    <path clip-path="url(#pfdb94889ed)" d="M 0 0 
" style="fill:none;stroke:#000000;stroke-linecap:square;stroke-width:2.7;"/>
   </g>
   <g id="line2d_58">
    <path clip-path="url(#pfdb94889ed)" d="M 0 0 
" style="fill:none;stroke:#000000;stroke-linecap:square;stroke-width:2.7;"/>
   </g>
   <g id="line2d_59">
    <path clip-path="url(#pfdb94889ed)" d="M 0 0 
" style="fill:none;stroke:#000000;stroke-linecap:square;stroke-width:2.7;"/>
   </g>
   <g id="line2d_60">
    <path clip-path="url(#pfdb94889ed)" d="M 0 0 
" style="fill:none;stroke:#000000;stroke-linecap:square;stroke-width:2.7;"/>
   </g>
   <g id="line2d_61">
    <path clip-path="url(#pfdb94889ed)" d="M 0 0 
" style="fill:none;stroke:#000000;stroke-linecap:square;stroke-width:2.7;"/>
   </g>
   <g id="line2d_62">
    <path clip-path="url(#pfdb94889ed)" d="M 0 0 
" style="fill:none;stroke:#000000;stroke-linecap:square;stroke-width:2.7;"/>
   </g>
   <g id="line2d_63">
    <path clip-path="url(#pfdb94889ed)" d="M 0 0 
" style="fill:none;stroke:#000000;stroke-linecap:square;stroke-width:2.7;"/>
   </g>
   <g id="line2d_64">
    <path clip-path="url(#pfdb94889ed)" d="M 0 0 
" style="fill:none;stroke:#000000;stroke-linecap:square;stroke-width:2.7;"/>
   </g>
   <g id="line2d_65">
    <path clip-path="url(#pfdb94889ed)" d="M 0 0 
" style="fill:none;stroke:#000000;stroke-linecap:square;stroke-width:2.7;"/>
   </g>
   <g id="line2d_66">
    <path clip-path="url(#pfdb94889ed)" d="M 0 0 
" style="fill:none;stroke:#000000;stroke-linecap:square;stroke-width:2.7;"/>
   </g>
   <g id="line2d_67">
    <path clip-path="url(#pfdb94889ed)" d="M 0 0 
" style="fill:none;stroke:#000000;stroke-linecap:square;stroke-width:2.7;"/>
   </g>
   <g id="line2d_68">
    <path clip-path="url(#pfdb94889ed)" d="M 0 0 
" style="fill:none;stroke:#000000;stroke-linecap:square;stroke-width:2.7;"/>
   </g>
   <g id="line2d_69">
    <path clip-path="url(#pfdb94889ed)" d="M 0 0 
" style="fill:none;stroke:#000000;stroke-linecap:square;stroke-width:2.7;"/>
   </g>
   <g id="line2d_70">
    <path clip-path="url(#pfdb94889ed)" d="M 0 0 
" style="fill:none;stroke:#000000;stroke-linecap:square;stroke-width:2.7;"/>
   </g>
   <g id="line2d_71">
    <path clip-path="url(#pfdb94889ed)" d="M 0 0 
" style="fill:none;stroke:#000000;stroke-linecap:square;stroke-width:2.7;"/>
   </g>
   <g id="line2d_72">
    <path clip-path="url(#pfdb94889ed)" d="M 0 0 
" style="fill:none;stroke:#000000;stroke-linecap:square;stroke-width:2.7;"/>
   </g>
   <g id="line2d_73">
    <path clip-path="url(#pfdb94889ed)" d="M 0 0 
" style="fill:none;stroke:#000000;stroke-linecap:square;stroke-width:2.7;"/>
   </g>
   <g id="line2d_74">
    <path clip-path="url(#pfdb94889ed)" d="M 0 0 
" style="fill:none;stroke:#000000;stroke-linecap:square;stroke-width:2.7;"/>
   </g>
   <g id="line2d_75">
    <path clip-path="url(#pfdb94889ed)" d="M 0 0 
" style="fill:none;stroke:#000000;stroke-linecap:square;stroke-width:2.7;"/>
   </g>
   <g id="line2d_76">
    <path clip-path="url(#pfdb94889ed)" d="M 0 0 
" style="fill:none;stroke:#000000;stroke-linecap:square;stroke-width:2.7;"/>
   </g>
   <g id="line2d_77">
    <path clip-path="url(#pfdb94889ed)" d="M 0 0 
" style="fill:none;stroke:#000000;stroke-linecap:square;stroke-width:2.7;"/>
   </g>
   <g id="line2d_78">
    <path clip-path="url(#pfdb94889ed)" d="M 0 0 
" style="fill:none;stroke:#000000;stroke-linecap:square;stroke-width:2.7;"/>
   </g>
   <g id="line2d_79">
    <path clip-path="url(#pfdb94889ed)" d="M 0 0 
" style="fill:none;stroke:#000000;stroke-linecap:square;stroke-width:2.7;"/>
   </g>
   <g id="line2d_80">
    <path clip-path="url(#pfdb94889ed)" d="M 0 0 
" style="fill:none;stroke:#000000;stroke-linecap:square;stroke-width:2.7;"/>
   </g>
   <g id="line2d_81">
    <path clip-path="url(#pfdb94889ed)" d="M 0 0 
" style="fill:none;stroke:#000000;stroke-linecap:square;stroke-width:2.7;"/>
   </g>
   <g id="line2d_82">
    <path clip-path="url(#pfdb94889ed)" d="M 0 0 
" style="fill:none;stroke:#000000;stroke-linecap:square;stroke-width:2.7;"/>
   </g>
   <g id="line2d_83">
    <path clip-path="url(#pfdb94889ed)" d="M 0 0 
" style="fill:none;stroke:#000000;stroke-linecap:square;stroke-width:2.7;"/>
   </g>
   <g id="line2d_84">
    <path clip-path="url(#pfdb94889ed)" d="M 0 0 
" style="fill:none;stroke:#000000;stroke-linecap:square;stroke-width:2.7;"/>
   </g>
   <g id="line2d_85">
    <path clip-path="url(#pfdb94889ed)" d="M 0 0 
" style="fill:none;stroke:#000000;stroke-linecap:square;stroke-width:2.7;"/>
   </g>
   <g id="line2d_86">
    <path clip-path="url(#pfdb94889ed)" d="M 0 0 
" style="fill:none;stroke:#000000;stroke-linecap:square;stroke-width:2.7;"/>
   </g>
   <g id="line2d_87">
    <path clip-path="url(#pfdb94889ed)" d="M 0 0 
" style="fill:none;stroke:#000000;stroke-linecap:square;stroke-width:2.7;"/>
   </g>
   <g id="line2d_88">
    <path clip-path="url(#pfdb94889ed)" d="M 0 0 
" style="fill:none;stroke:#000000;stroke-linecap:square;stroke-width:2.7;"/>
   </g>
   <g id="line2d_89">
    <path clip-path="url(#pfdb94889ed)" d="M 0 0 
" style="fill:none;stroke:#000000;stroke-linecap:square;stroke-width:2.7;"/>
   </g>
   <g id="line2d_90">
    <path clip-path="url(#pfdb94889ed)" d="M 0 0 
" style="fill:none;stroke:#000000;stroke-linecap:square;stroke-width:2.7;"/>
   </g>
   <g id="line2d_91">
    <path clip-path="url(#pfdb94889ed)" d="M 0 0 
" style="fill:none;stroke:#000000;stroke-linecap:square;stroke-width:2.7;"/>
   </g>
   <g id="line2d_92">
    <path clip-path="url(#pfdb94889ed)" d="M 0 0 
" style="fill:none;stroke:#000000;stroke-linecap:square;stroke-width:2.7;"/>
   </g>
   <g id="line2d_93">
    <path clip-path="url(#pfdb94889ed)" d="M 0 0 
" style="fill:none;stroke:#000000;stroke-linecap:square;stroke-width:2.7;"/>
   </g>
   <g id="line2d_94">
    <path clip-path="url(#pfdb94889ed)" d="M 0 0 
" style="fill:none;stroke:#000000;stroke-linecap:square;stroke-width:2.7;"/>
   </g>
   <g id="patch_69">
    <path d="M 115.555625 273.312 
L 115.555625 7.2 
" style="fill:none;stroke:#000000;stroke-linecap:square;stroke-linejoin:miter;stroke-width:0.8;"/>
   </g>
   <g id="patch_70">
    <path d="M 472.675625 273.312 
L 472.675625 7.2 
" style="fill:none;stroke:#000000;stroke-linecap:square;stroke-linejoin:miter;stroke-width:0.8;"/>
   </g>
   <g id="patch_71">
    <path d="M 115.555625 273.312 
L 472.675625 273.312 
" style="fill:none;stroke:#000000;stroke-linecap:square;stroke-linejoin:miter;stroke-width:0.8;"/>
   </g>
   <g id="patch_72">
    <path d="M 115.555625 7.2 
L 472.675625 7.2 
" style="fill:none;stroke:#000000;stroke-linecap:square;stroke-linejoin:miter;stroke-width:0.8;"/>
   </g>
   <g id="legend_1">
    <g id="patch_73">
     <path d="M 416.789687 346.957575 
L 470.675625 346.957575 
Q 472.675625 346.957575 472.675625 344.957575 
L 472.675625 301.9232 
Q 472.675625 299.9232 470.675625 299.9232 
L 416.789687 299.9232 
Q 414.789687 299.9232 414.789687 301.9232 
L 414.789687 344.957575 
Q 414.789687 346.957575 416.789687 346.957575 
z
" style="fill:#ffffff;opacity:0.8;stroke:#cccccc;stroke-linejoin:miter;"/>
    </g>
    <g id="patch_74">
     <path d="M 418.789687 311.521637 
L 438.789687 311.521637 
L 438.789687 304.521637 
L 418.789687 304.521637 
z
" style="fill:#e49467;"/>
    </g>
    <g id="text_31">
     <!-- prec -->
     <g transform="translate(446.789687 311.521637)scale(0.1 -0.1)">
      <use xlink:href="#DejaVuSans-112"/>
      <use x="63.476562" xlink:href="#DejaVuSans-114"/>
      <use x="102.339844" xlink:href="#DejaVuSans-101"/>
      <use x="163.863281" xlink:href="#DejaVuSans-99"/>
     </g>
    </g>
    <g id="patch_75">
     <path d="M 418.789687 326.199762 
L 438.789687 326.199762 
L 438.789687 319.199762 
L 418.789687 319.199762 
z
" style="fill:#f7f7c6;"/>
    </g>
    <g id="text_32">
     <!-- rec -->
     <g transform="translate(446.789687 326.199762)scale(0.1 -0.1)">
      <use xlink:href="#DejaVuSans-114"/>
      <use x="38.863281" xlink:href="#DejaVuSans-101"/>
      <use x="100.386719" xlink:href="#DejaVuSans-99"/>
     </g>
    </g>
    <g id="patch_76">
     <path d="M 418.789687 340.877887 
L 438.789687 340.877887 
L 438.789687 333.877887 
L 418.789687 333.877887 
z
" style="fill:#90c6a6;"/>
    </g>
    <g id="text_33">
     <!-- f1 -->
     <g transform="translate(446.789687 340.877887)scale(0.1 -0.1)">
      <use xlink:href="#DejaVuSans-102"/>
      <use x="35.205078" xlink:href="#DejaVuSans-49"/>
     </g>
    </g>
   </g>
  </g>
 </g>
 <defs>
  <clipPath id="pfdb94889ed">
   <rect height="266.112" width="357.12" x="115.555625" y="7.2"/>
  </clipPath>
 </defs>
</svg>
