<?xml version="1.0" encoding="utf-8" standalone="no"?>
<!DOCTYPE svg PUBLIC "-//W3C//DTD SVG 1.1//EN"
  "http://www.w3.org/Graphics/SVG/1.1/DTD/svg11.dtd">
<!-- Created with matplotlib (https://matplotlib.org/) -->
<svg height="345.6pt" version="1.1" viewBox="0 0 460.8 345.6" width="460.8pt" xmlns="http://www.w3.org/2000/svg" xmlns:xlink="http://www.w3.org/1999/xlink">
 <metadata>
  <rdf:RDF xmlns:cc="http://creativecommons.org/ns#" xmlns:dc="http://purl.org/dc/elements/1.1/" xmlns:rdf="http://www.w3.org/1999/02/22-rdf-syntax-ns#">
   <cc:Work>
    <dc:type rdf:resource="http://purl.org/dc/dcmitype/StillImage"/>
    <dc:date>2021-12-23T15:29:32.406220</dc:date>
    <dc:format>image/svg+xml</dc:format>
    <dc:creator>
     <cc:Agent>
      <dc:title>Matplotlib v3.3.4, https://matplotlib.org/</dc:title>
     </cc:Agent>
    </dc:creator>
   </cc:Work>
  </rdf:RDF>
 </metadata>
 <defs>
  <style type="text/css">*{stroke-linecap:butt;stroke-linejoin:round;}</style>
 </defs>
 <g id="figure_1">
  <g id="patch_1">
   <path d="M 0 345.6 
L 460.8 345.6 
L 460.8 0 
L 0 0 
z
" style="fill:#ffffff;"/>
  </g>
  <g id="axes_1">
   <g id="patch_2">
    <path d="M 57.6 307.584 
L 414.72 307.584 
L 414.72 41.472 
L 57.6 41.472 
z
" style="fill:#ffffff;"/>
   </g>
   <g id="matplotlib.axis_1">
    <g id="xtick_1">
     <g id="line2d_1">
      <defs>
       <path d="M 0 0 
L 0 3.5 
" id="mdef7485eab" style="stroke:#000000;stroke-width:0.8;"/>
      </defs>
      <g>
       <use style="stroke:#000000;stroke-width:0.8;" x="73.832727" xlink:href="#mdef7485eab" y="307.584"/>
      </g>
     </g>
    </g>
    <g id="xtick_2">
     <g id="line2d_2">
      <g>
       <use style="stroke:#000000;stroke-width:0.8;" x="77.112066" xlink:href="#mdef7485eab" y="307.584"/>
      </g>
     </g>
    </g>
    <g id="xtick_3">
     <g id="line2d_3">
      <g>
       <use style="stroke:#000000;stroke-width:0.8;" x="80.391405" xlink:href="#mdef7485eab" y="307.584"/>
      </g>
     </g>
    </g>
    <g id="xtick_4">
     <g id="line2d_4">
      <g>
       <use style="stroke:#000000;stroke-width:0.8;" x="83.670744" xlink:href="#mdef7485eab" y="307.584"/>
      </g>
     </g>
    </g>
    <g id="xtick_5">
     <g id="line2d_5">
      <g>
       <use style="stroke:#000000;stroke-width:0.8;" x="86.950083" xlink:href="#mdef7485eab" y="307.584"/>
      </g>
     </g>
    </g>
    <g id="xtick_6">
     <g id="line2d_6">
      <g>
       <use style="stroke:#000000;stroke-width:0.8;" x="90.229421" xlink:href="#mdef7485eab" y="307.584"/>
      </g>
     </g>
    </g>
    <g id="xtick_7">
     <g id="line2d_7">
      <g>
       <use style="stroke:#000000;stroke-width:0.8;" x="93.50876" xlink:href="#mdef7485eab" y="307.584"/>
      </g>
     </g>
    </g>
    <g id="xtick_8">
     <g id="line2d_8">
      <g>
       <use style="stroke:#000000;stroke-width:0.8;" x="96.788099" xlink:href="#mdef7485eab" y="307.584"/>
      </g>
     </g>
    </g>
    <g id="xtick_9">
     <g id="line2d_9">
      <g>
       <use style="stroke:#000000;stroke-width:0.8;" x="100.067438" xlink:href="#mdef7485eab" y="307.584"/>
      </g>
     </g>
    </g>
    <g id="xtick_10">
     <g id="line2d_10">
      <g>
       <use style="stroke:#000000;stroke-width:0.8;" x="103.346777" xlink:href="#mdef7485eab" y="307.584"/>
      </g>
     </g>
    </g>
    <g id="xtick_11">
     <g id="line2d_11">
      <g>
       <use style="stroke:#000000;stroke-width:0.8;" x="106.626116" xlink:href="#mdef7485eab" y="307.584"/>
      </g>
     </g>
    </g>
    <g id="xtick_12">
     <g id="line2d_12">
      <g>
       <use style="stroke:#000000;stroke-width:0.8;" x="109.905455" xlink:href="#mdef7485eab" y="307.584"/>
      </g>
     </g>
    </g>
    <g id="xtick_13">
     <g id="line2d_13">
      <g>
       <use style="stroke:#000000;stroke-width:0.8;" x="113.184793" xlink:href="#mdef7485eab" y="307.584"/>
      </g>
     </g>
    </g>
    <g id="xtick_14">
     <g id="line2d_14">
      <g>
       <use style="stroke:#000000;stroke-width:0.8;" x="116.464132" xlink:href="#mdef7485eab" y="307.584"/>
      </g>
     </g>
    </g>
    <g id="xtick_15">
     <g id="line2d_15">
      <g>
       <use style="stroke:#000000;stroke-width:0.8;" x="119.743471" xlink:href="#mdef7485eab" y="307.584"/>
      </g>
     </g>
    </g>
    <g id="xtick_16">
     <g id="line2d_16">
      <g>
       <use style="stroke:#000000;stroke-width:0.8;" x="123.02281" xlink:href="#mdef7485eab" y="307.584"/>
      </g>
     </g>
    </g>
    <g id="xtick_17">
     <g id="line2d_17">
      <g>
       <use style="stroke:#000000;stroke-width:0.8;" x="126.302149" xlink:href="#mdef7485eab" y="307.584"/>
      </g>
     </g>
    </g>
    <g id="xtick_18">
     <g id="line2d_18">
      <g>
       <use style="stroke:#000000;stroke-width:0.8;" x="129.581488" xlink:href="#mdef7485eab" y="307.584"/>
      </g>
     </g>
    </g>
    <g id="xtick_19">
     <g id="line2d_19">
      <g>
       <use style="stroke:#000000;stroke-width:0.8;" x="132.860826" xlink:href="#mdef7485eab" y="307.584"/>
      </g>
     </g>
    </g>
    <g id="xtick_20">
     <g id="line2d_20">
      <g>
       <use style="stroke:#000000;stroke-width:0.8;" x="136.140165" xlink:href="#mdef7485eab" y="307.584"/>
      </g>
     </g>
    </g>
    <g id="xtick_21">
     <g id="line2d_21">
      <g>
       <use style="stroke:#000000;stroke-width:0.8;" x="139.419504" xlink:href="#mdef7485eab" y="307.584"/>
      </g>
     </g>
    </g>
    <g id="xtick_22">
     <g id="line2d_22">
      <g>
       <use style="stroke:#000000;stroke-width:0.8;" x="142.698843" xlink:href="#mdef7485eab" y="307.584"/>
      </g>
     </g>
    </g>
    <g id="xtick_23">
     <g id="line2d_23">
      <g>
       <use style="stroke:#000000;stroke-width:0.8;" x="145.978182" xlink:href="#mdef7485eab" y="307.584"/>
      </g>
     </g>
    </g>
    <g id="xtick_24">
     <g id="line2d_24">
      <g>
       <use style="stroke:#000000;stroke-width:0.8;" x="149.257521" xlink:href="#mdef7485eab" y="307.584"/>
      </g>
     </g>
    </g>
    <g id="xtick_25">
     <g id="line2d_25">
      <g>
       <use style="stroke:#000000;stroke-width:0.8;" x="152.53686" xlink:href="#mdef7485eab" y="307.584"/>
      </g>
     </g>
    </g>
    <g id="xtick_26">
     <g id="line2d_26">
      <g>
       <use style="stroke:#000000;stroke-width:0.8;" x="155.816198" xlink:href="#mdef7485eab" y="307.584"/>
      </g>
     </g>
    </g>
    <g id="xtick_27">
     <g id="line2d_27">
      <g>
       <use style="stroke:#000000;stroke-width:0.8;" x="159.095537" xlink:href="#mdef7485eab" y="307.584"/>
      </g>
     </g>
    </g>
    <g id="xtick_28">
     <g id="line2d_28">
      <g>
       <use style="stroke:#000000;stroke-width:0.8;" x="162.374876" xlink:href="#mdef7485eab" y="307.584"/>
      </g>
     </g>
    </g>
    <g id="xtick_29">
     <g id="line2d_29">
      <g>
       <use style="stroke:#000000;stroke-width:0.8;" x="165.654215" xlink:href="#mdef7485eab" y="307.584"/>
      </g>
     </g>
    </g>
    <g id="xtick_30">
     <g id="line2d_30">
      <g>
       <use style="stroke:#000000;stroke-width:0.8;" x="168.933554" xlink:href="#mdef7485eab" y="307.584"/>
      </g>
     </g>
    </g>
    <g id="xtick_31">
     <g id="line2d_31">
      <g>
       <use style="stroke:#000000;stroke-width:0.8;" x="172.212893" xlink:href="#mdef7485eab" y="307.584"/>
      </g>
     </g>
    </g>
    <g id="xtick_32">
     <g id="line2d_32">
      <g>
       <use style="stroke:#000000;stroke-width:0.8;" x="175.492231" xlink:href="#mdef7485eab" y="307.584"/>
      </g>
     </g>
    </g>
    <g id="xtick_33">
     <g id="line2d_33">
      <g>
       <use style="stroke:#000000;stroke-width:0.8;" x="178.77157" xlink:href="#mdef7485eab" y="307.584"/>
      </g>
     </g>
    </g>
    <g id="xtick_34">
     <g id="line2d_34">
      <g>
       <use style="stroke:#000000;stroke-width:0.8;" x="182.050909" xlink:href="#mdef7485eab" y="307.584"/>
      </g>
     </g>
    </g>
    <g id="xtick_35">
     <g id="line2d_35">
      <g>
       <use style="stroke:#000000;stroke-width:0.8;" x="185.330248" xlink:href="#mdef7485eab" y="307.584"/>
      </g>
     </g>
    </g>
    <g id="xtick_36">
     <g id="line2d_36">
      <g>
       <use style="stroke:#000000;stroke-width:0.8;" x="188.609587" xlink:href="#mdef7485eab" y="307.584"/>
      </g>
     </g>
    </g>
    <g id="xtick_37">
     <g id="line2d_37">
      <g>
       <use style="stroke:#000000;stroke-width:0.8;" x="191.888926" xlink:href="#mdef7485eab" y="307.584"/>
      </g>
     </g>
    </g>
    <g id="xtick_38">
     <g id="line2d_38">
      <g>
       <use style="stroke:#000000;stroke-width:0.8;" x="195.168264" xlink:href="#mdef7485eab" y="307.584"/>
      </g>
     </g>
    </g>
    <g id="xtick_39">
     <g id="line2d_39">
      <g>
       <use style="stroke:#000000;stroke-width:0.8;" x="198.447603" xlink:href="#mdef7485eab" y="307.584"/>
      </g>
     </g>
    </g>
    <g id="xtick_40">
     <g id="line2d_40">
      <g>
       <use style="stroke:#000000;stroke-width:0.8;" x="201.726942" xlink:href="#mdef7485eab" y="307.584"/>
      </g>
     </g>
    </g>
    <g id="xtick_41">
     <g id="line2d_41">
      <g>
       <use style="stroke:#000000;stroke-width:0.8;" x="205.006281" xlink:href="#mdef7485eab" y="307.584"/>
      </g>
     </g>
    </g>
    <g id="xtick_42">
     <g id="line2d_42">
      <g>
       <use style="stroke:#000000;stroke-width:0.8;" x="208.28562" xlink:href="#mdef7485eab" y="307.584"/>
      </g>
     </g>
    </g>
    <g id="xtick_43">
     <g id="line2d_43">
      <g>
       <use style="stroke:#000000;stroke-width:0.8;" x="211.564959" xlink:href="#mdef7485eab" y="307.584"/>
      </g>
     </g>
    </g>
    <g id="xtick_44">
     <g id="line2d_44">
      <g>
       <use style="stroke:#000000;stroke-width:0.8;" x="214.844298" xlink:href="#mdef7485eab" y="307.584"/>
      </g>
     </g>
    </g>
    <g id="xtick_45">
     <g id="line2d_45">
      <g>
       <use style="stroke:#000000;stroke-width:0.8;" x="218.123636" xlink:href="#mdef7485eab" y="307.584"/>
      </g>
     </g>
    </g>
    <g id="xtick_46">
     <g id="line2d_46">
      <g>
       <use style="stroke:#000000;stroke-width:0.8;" x="221.402975" xlink:href="#mdef7485eab" y="307.584"/>
      </g>
     </g>
    </g>
    <g id="xtick_47">
     <g id="line2d_47">
      <g>
       <use style="stroke:#000000;stroke-width:0.8;" x="224.682314" xlink:href="#mdef7485eab" y="307.584"/>
      </g>
     </g>
    </g>
    <g id="xtick_48">
     <g id="line2d_48">
      <g>
       <use style="stroke:#000000;stroke-width:0.8;" x="227.961653" xlink:href="#mdef7485eab" y="307.584"/>
      </g>
     </g>
    </g>
    <g id="xtick_49">
     <g id="line2d_49">
      <g>
       <use style="stroke:#000000;stroke-width:0.8;" x="231.240992" xlink:href="#mdef7485eab" y="307.584"/>
      </g>
     </g>
    </g>
    <g id="xtick_50">
     <g id="line2d_50">
      <g>
       <use style="stroke:#000000;stroke-width:0.8;" x="234.520331" xlink:href="#mdef7485eab" y="307.584"/>
      </g>
     </g>
    </g>
    <g id="xtick_51">
     <g id="line2d_51">
      <g>
       <use style="stroke:#000000;stroke-width:0.8;" x="237.799669" xlink:href="#mdef7485eab" y="307.584"/>
      </g>
     </g>
    </g>
    <g id="xtick_52">
     <g id="line2d_52">
      <g>
       <use style="stroke:#000000;stroke-width:0.8;" x="241.079008" xlink:href="#mdef7485eab" y="307.584"/>
      </g>
     </g>
    </g>
    <g id="xtick_53">
     <g id="line2d_53">
      <g>
       <use style="stroke:#000000;stroke-width:0.8;" x="244.358347" xlink:href="#mdef7485eab" y="307.584"/>
      </g>
     </g>
    </g>
    <g id="xtick_54">
     <g id="line2d_54">
      <g>
       <use style="stroke:#000000;stroke-width:0.8;" x="247.637686" xlink:href="#mdef7485eab" y="307.584"/>
      </g>
     </g>
    </g>
    <g id="xtick_55">
     <g id="line2d_55">
      <g>
       <use style="stroke:#000000;stroke-width:0.8;" x="250.917025" xlink:href="#mdef7485eab" y="307.584"/>
      </g>
     </g>
    </g>
    <g id="xtick_56">
     <g id="line2d_56">
      <g>
       <use style="stroke:#000000;stroke-width:0.8;" x="254.196364" xlink:href="#mdef7485eab" y="307.584"/>
      </g>
     </g>
    </g>
    <g id="xtick_57">
     <g id="line2d_57">
      <g>
       <use style="stroke:#000000;stroke-width:0.8;" x="257.475702" xlink:href="#mdef7485eab" y="307.584"/>
      </g>
     </g>
    </g>
    <g id="xtick_58">
     <g id="line2d_58">
      <g>
       <use style="stroke:#000000;stroke-width:0.8;" x="260.755041" xlink:href="#mdef7485eab" y="307.584"/>
      </g>
     </g>
    </g>
    <g id="xtick_59">
     <g id="line2d_59">
      <g>
       <use style="stroke:#000000;stroke-width:0.8;" x="264.03438" xlink:href="#mdef7485eab" y="307.584"/>
      </g>
     </g>
    </g>
    <g id="xtick_60">
     <g id="line2d_60">
      <g>
       <use style="stroke:#000000;stroke-width:0.8;" x="267.313719" xlink:href="#mdef7485eab" y="307.584"/>
      </g>
     </g>
    </g>
    <g id="xtick_61">
     <g id="line2d_61">
      <g>
       <use style="stroke:#000000;stroke-width:0.8;" x="270.593058" xlink:href="#mdef7485eab" y="307.584"/>
      </g>
     </g>
    </g>
    <g id="xtick_62">
     <g id="line2d_62">
      <g>
       <use style="stroke:#000000;stroke-width:0.8;" x="273.872397" xlink:href="#mdef7485eab" y="307.584"/>
      </g>
     </g>
    </g>
    <g id="xtick_63">
     <g id="line2d_63">
      <g>
       <use style="stroke:#000000;stroke-width:0.8;" x="277.151736" xlink:href="#mdef7485eab" y="307.584"/>
      </g>
     </g>
    </g>
    <g id="xtick_64">
     <g id="line2d_64">
      <g>
       <use style="stroke:#000000;stroke-width:0.8;" x="280.431074" xlink:href="#mdef7485eab" y="307.584"/>
      </g>
     </g>
    </g>
    <g id="xtick_65">
     <g id="line2d_65">
      <g>
       <use style="stroke:#000000;stroke-width:0.8;" x="283.710413" xlink:href="#mdef7485eab" y="307.584"/>
      </g>
     </g>
    </g>
    <g id="xtick_66">
     <g id="line2d_66">
      <g>
       <use style="stroke:#000000;stroke-width:0.8;" x="286.989752" xlink:href="#mdef7485eab" y="307.584"/>
      </g>
     </g>
    </g>
    <g id="xtick_67">
     <g id="line2d_67">
      <g>
       <use style="stroke:#000000;stroke-width:0.8;" x="290.269091" xlink:href="#mdef7485eab" y="307.584"/>
      </g>
     </g>
    </g>
    <g id="xtick_68">
     <g id="line2d_68">
      <g>
       <use style="stroke:#000000;stroke-width:0.8;" x="293.54843" xlink:href="#mdef7485eab" y="307.584"/>
      </g>
     </g>
    </g>
    <g id="xtick_69">
     <g id="line2d_69">
      <g>
       <use style="stroke:#000000;stroke-width:0.8;" x="296.827769" xlink:href="#mdef7485eab" y="307.584"/>
      </g>
     </g>
    </g>
    <g id="xtick_70">
     <g id="line2d_70">
      <g>
       <use style="stroke:#000000;stroke-width:0.8;" x="300.107107" xlink:href="#mdef7485eab" y="307.584"/>
      </g>
     </g>
    </g>
    <g id="xtick_71">
     <g id="line2d_71">
      <g>
       <use style="stroke:#000000;stroke-width:0.8;" x="303.386446" xlink:href="#mdef7485eab" y="307.584"/>
      </g>
     </g>
    </g>
    <g id="xtick_72">
     <g id="line2d_72">
      <g>
       <use style="stroke:#000000;stroke-width:0.8;" x="306.665785" xlink:href="#mdef7485eab" y="307.584"/>
      </g>
     </g>
    </g>
    <g id="xtick_73">
     <g id="line2d_73">
      <g>
       <use style="stroke:#000000;stroke-width:0.8;" x="309.945124" xlink:href="#mdef7485eab" y="307.584"/>
      </g>
     </g>
    </g>
    <g id="xtick_74">
     <g id="line2d_74">
      <g>
       <use style="stroke:#000000;stroke-width:0.8;" x="313.224463" xlink:href="#mdef7485eab" y="307.584"/>
      </g>
     </g>
    </g>
    <g id="xtick_75">
     <g id="line2d_75">
      <g>
       <use style="stroke:#000000;stroke-width:0.8;" x="316.503802" xlink:href="#mdef7485eab" y="307.584"/>
      </g>
     </g>
    </g>
    <g id="xtick_76">
     <g id="line2d_76">
      <g>
       <use style="stroke:#000000;stroke-width:0.8;" x="319.78314" xlink:href="#mdef7485eab" y="307.584"/>
      </g>
     </g>
    </g>
    <g id="xtick_77">
     <g id="line2d_77">
      <g>
       <use style="stroke:#000000;stroke-width:0.8;" x="323.062479" xlink:href="#mdef7485eab" y="307.584"/>
      </g>
     </g>
    </g>
    <g id="xtick_78">
     <g id="line2d_78">
      <g>
       <use style="stroke:#000000;stroke-width:0.8;" x="326.341818" xlink:href="#mdef7485eab" y="307.584"/>
      </g>
     </g>
    </g>
    <g id="xtick_79">
     <g id="line2d_79">
      <g>
       <use style="stroke:#000000;stroke-width:0.8;" x="329.621157" xlink:href="#mdef7485eab" y="307.584"/>
      </g>
     </g>
    </g>
    <g id="xtick_80">
     <g id="line2d_80">
      <g>
       <use style="stroke:#000000;stroke-width:0.8;" x="332.900496" xlink:href="#mdef7485eab" y="307.584"/>
      </g>
     </g>
    </g>
    <g id="xtick_81">
     <g id="line2d_81">
      <g>
       <use style="stroke:#000000;stroke-width:0.8;" x="336.179835" xlink:href="#mdef7485eab" y="307.584"/>
      </g>
     </g>
    </g>
    <g id="xtick_82">
     <g id="line2d_82">
      <g>
       <use style="stroke:#000000;stroke-width:0.8;" x="339.459174" xlink:href="#mdef7485eab" y="307.584"/>
      </g>
     </g>
    </g>
    <g id="xtick_83">
     <g id="line2d_83">
      <g>
       <use style="stroke:#000000;stroke-width:0.8;" x="342.738512" xlink:href="#mdef7485eab" y="307.584"/>
      </g>
     </g>
    </g>
    <g id="xtick_84">
     <g id="line2d_84">
      <g>
       <use style="stroke:#000000;stroke-width:0.8;" x="346.017851" xlink:href="#mdef7485eab" y="307.584"/>
      </g>
     </g>
    </g>
    <g id="xtick_85">
     <g id="line2d_85">
      <g>
       <use style="stroke:#000000;stroke-width:0.8;" x="349.29719" xlink:href="#mdef7485eab" y="307.584"/>
      </g>
     </g>
    </g>
    <g id="xtick_86">
     <g id="line2d_86">
      <g>
       <use style="stroke:#000000;stroke-width:0.8;" x="352.576529" xlink:href="#mdef7485eab" y="307.584"/>
      </g>
     </g>
    </g>
    <g id="xtick_87">
     <g id="line2d_87">
      <g>
       <use style="stroke:#000000;stroke-width:0.8;" x="355.855868" xlink:href="#mdef7485eab" y="307.584"/>
      </g>
     </g>
    </g>
    <g id="xtick_88">
     <g id="line2d_88">
      <g>
       <use style="stroke:#000000;stroke-width:0.8;" x="359.135207" xlink:href="#mdef7485eab" y="307.584"/>
      </g>
     </g>
    </g>
    <g id="xtick_89">
     <g id="line2d_89">
      <g>
       <use style="stroke:#000000;stroke-width:0.8;" x="362.414545" xlink:href="#mdef7485eab" y="307.584"/>
      </g>
     </g>
    </g>
    <g id="xtick_90">
     <g id="line2d_90">
      <g>
       <use style="stroke:#000000;stroke-width:0.8;" x="365.693884" xlink:href="#mdef7485eab" y="307.584"/>
      </g>
     </g>
    </g>
    <g id="xtick_91">
     <g id="line2d_91">
      <g>
       <use style="stroke:#000000;stroke-width:0.8;" x="368.973223" xlink:href="#mdef7485eab" y="307.584"/>
      </g>
     </g>
    </g>
    <g id="xtick_92">
     <g id="line2d_92">
      <g>
       <use style="stroke:#000000;stroke-width:0.8;" x="372.252562" xlink:href="#mdef7485eab" y="307.584"/>
      </g>
     </g>
    </g>
    <g id="xtick_93">
     <g id="line2d_93">
      <g>
       <use style="stroke:#000000;stroke-width:0.8;" x="375.531901" xlink:href="#mdef7485eab" y="307.584"/>
      </g>
     </g>
    </g>
    <g id="xtick_94">
     <g id="line2d_94">
      <g>
       <use style="stroke:#000000;stroke-width:0.8;" x="378.81124" xlink:href="#mdef7485eab" y="307.584"/>
      </g>
     </g>
    </g>
    <g id="xtick_95">
     <g id="line2d_95">
      <g>
       <use style="stroke:#000000;stroke-width:0.8;" x="382.090579" xlink:href="#mdef7485eab" y="307.584"/>
      </g>
     </g>
    </g>
    <g id="xtick_96">
     <g id="line2d_96">
      <g>
       <use style="stroke:#000000;stroke-width:0.8;" x="385.369917" xlink:href="#mdef7485eab" y="307.584"/>
      </g>
     </g>
    </g>
    <g id="xtick_97">
     <g id="line2d_97">
      <g>
       <use style="stroke:#000000;stroke-width:0.8;" x="388.649256" xlink:href="#mdef7485eab" y="307.584"/>
      </g>
     </g>
    </g>
    <g id="xtick_98">
     <g id="line2d_98">
      <g>
       <use style="stroke:#000000;stroke-width:0.8;" x="391.928595" xlink:href="#mdef7485eab" y="307.584"/>
      </g>
     </g>
    </g>
    <g id="xtick_99">
     <g id="line2d_99">
      <g>
       <use style="stroke:#000000;stroke-width:0.8;" x="395.207934" xlink:href="#mdef7485eab" y="307.584"/>
      </g>
     </g>
    </g>
    <g id="xtick_100">
     <g id="line2d_100">
      <g>
       <use style="stroke:#000000;stroke-width:0.8;" x="398.487273" xlink:href="#mdef7485eab" y="307.584"/>
      </g>
     </g>
    </g>
   </g>
   <g id="matplotlib.axis_2">
    <g id="ytick_1">
     <g id="line2d_101">
      <defs>
       <path d="M 0 0 
L -3.5 0 
" id="meaf5a622bc" style="stroke:#000000;stroke-width:0.8;"/>
      </defs>
      <g>
       <use style="stroke:#000000;stroke-width:0.8;" x="57.6" xlink:href="#meaf5a622bc" y="295.488"/>
      </g>
     </g>
     <g id="text_1">
      <!-- 0.00 -->
      <g transform="translate(28.334375 299.287219)scale(0.1 -0.1)">
       <defs>
        <path d="M 31.78125 66.40625 
Q 24.171875 66.40625 20.328125 58.90625 
Q 16.5 51.421875 16.5 36.375 
Q 16.5 21.390625 20.328125 13.890625 
Q 24.171875 6.390625 31.78125 6.390625 
Q 39.453125 6.390625 43.28125 13.890625 
Q 47.125 21.390625 47.125 36.375 
Q 47.125 51.421875 43.28125 58.90625 
Q 39.453125 66.40625 31.78125 66.40625 
z
M 31.78125 74.21875 
Q 44.046875 74.21875 50.515625 64.515625 
Q 56.984375 54.828125 56.984375 36.375 
Q 56.984375 17.96875 50.515625 8.265625 
Q 44.046875 -1.421875 31.78125 -1.421875 
Q 19.53125 -1.421875 13.0625 8.265625 
Q 6.59375 17.96875 6.59375 36.375 
Q 6.59375 54.828125 13.0625 64.515625 
Q 19.53125 74.21875 31.78125 74.21875 
z
" id="DejaVuSans-48"/>
        <path d="M 10.6875 12.40625 
L 21 12.40625 
L 21 0 
L 10.6875 0 
z
" id="DejaVuSans-46"/>
       </defs>
       <use xlink:href="#DejaVuSans-48"/>
       <use x="63.623047" xlink:href="#DejaVuSans-46"/>
       <use x="95.410156" xlink:href="#DejaVuSans-48"/>
       <use x="159.033203" xlink:href="#DejaVuSans-48"/>
      </g>
     </g>
    </g>
    <g id="ytick_2">
     <g id="line2d_102">
      <g>
       <use style="stroke:#000000;stroke-width:0.8;" x="57.6" xlink:href="#meaf5a622bc" y="236.636535"/>
      </g>
     </g>
     <g id="text_2">
      <!-- 0.01 -->
      <g transform="translate(28.334375 240.435753)scale(0.1 -0.1)">
       <defs>
        <path d="M 12.40625 8.296875 
L 28.515625 8.296875 
L 28.515625 63.921875 
L 10.984375 60.40625 
L 10.984375 69.390625 
L 28.421875 72.90625 
L 38.28125 72.90625 
L 38.28125 8.296875 
L 54.390625 8.296875 
L 54.390625 0 
L 12.40625 0 
z
" id="DejaVuSans-49"/>
       </defs>
       <use xlink:href="#DejaVuSans-48"/>
       <use x="63.623047" xlink:href="#DejaVuSans-46"/>
       <use x="95.410156" xlink:href="#DejaVuSans-48"/>
       <use x="159.033203" xlink:href="#DejaVuSans-49"/>
      </g>
     </g>
    </g>
    <g id="ytick_3">
     <g id="line2d_103">
      <g>
       <use style="stroke:#000000;stroke-width:0.8;" x="57.6" xlink:href="#meaf5a622bc" y="177.785069"/>
      </g>
     </g>
     <g id="text_3">
      <!-- 0.02 -->
      <g transform="translate(28.334375 181.584288)scale(0.1 -0.1)">
       <defs>
        <path d="M 19.1875 8.296875 
L 53.609375 8.296875 
L 53.609375 0 
L 7.328125 0 
L 7.328125 8.296875 
Q 12.9375 14.109375 22.625 23.890625 
Q 32.328125 33.6875 34.8125 36.53125 
Q 39.546875 41.84375 41.421875 45.53125 
Q 43.3125 49.21875 43.3125 52.78125 
Q 43.3125 58.59375 39.234375 62.25 
Q 35.15625 65.921875 28.609375 65.921875 
Q 23.96875 65.921875 18.8125 64.3125 
Q 13.671875 62.703125 7.8125 59.421875 
L 7.8125 69.390625 
Q 13.765625 71.78125 18.9375 73 
Q 24.125 74.21875 28.421875 74.21875 
Q 39.75 74.21875 46.484375 68.546875 
Q 53.21875 62.890625 53.21875 53.421875 
Q 53.21875 48.921875 51.53125 44.890625 
Q 49.859375 40.875 45.40625 35.40625 
Q 44.1875 33.984375 37.640625 27.21875 
Q 31.109375 20.453125 19.1875 8.296875 
z
" id="DejaVuSans-50"/>
       </defs>
       <use xlink:href="#DejaVuSans-48"/>
       <use x="63.623047" xlink:href="#DejaVuSans-46"/>
       <use x="95.410156" xlink:href="#DejaVuSans-48"/>
       <use x="159.033203" xlink:href="#DejaVuSans-50"/>
      </g>
     </g>
    </g>
    <g id="ytick_4">
     <g id="line2d_104">
      <g>
       <use style="stroke:#000000;stroke-width:0.8;" x="57.6" xlink:href="#meaf5a622bc" y="118.933604"/>
      </g>
     </g>
     <g id="text_4">
      <!-- 0.03 -->
      <g transform="translate(28.334375 122.732823)scale(0.1 -0.1)">
       <defs>
        <path d="M 40.578125 39.3125 
Q 47.65625 37.796875 51.625 33 
Q 55.609375 28.21875 55.609375 21.1875 
Q 55.609375 10.40625 48.1875 4.484375 
Q 40.765625 -1.421875 27.09375 -1.421875 
Q 22.515625 -1.421875 17.65625 -0.515625 
Q 12.796875 0.390625 7.625 2.203125 
L 7.625 11.71875 
Q 11.71875 9.328125 16.59375 8.109375 
Q 21.484375 6.890625 26.8125 6.890625 
Q 36.078125 6.890625 40.9375 10.546875 
Q 45.796875 14.203125 45.796875 21.1875 
Q 45.796875 27.640625 41.28125 31.265625 
Q 36.765625 34.90625 28.71875 34.90625 
L 20.21875 34.90625 
L 20.21875 43.015625 
L 29.109375 43.015625 
Q 36.375 43.015625 40.234375 45.921875 
Q 44.09375 48.828125 44.09375 54.296875 
Q 44.09375 59.90625 40.109375 62.90625 
Q 36.140625 65.921875 28.71875 65.921875 
Q 24.65625 65.921875 20.015625 65.03125 
Q 15.375 64.15625 9.8125 62.3125 
L 9.8125 71.09375 
Q 15.4375 72.65625 20.34375 73.4375 
Q 25.25 74.21875 29.59375 74.21875 
Q 40.828125 74.21875 47.359375 69.109375 
Q 53.90625 64.015625 53.90625 55.328125 
Q 53.90625 49.265625 50.4375 45.09375 
Q 46.96875 40.921875 40.578125 39.3125 
z
" id="DejaVuSans-51"/>
       </defs>
       <use xlink:href="#DejaVuSans-48"/>
       <use x="63.623047" xlink:href="#DejaVuSans-46"/>
       <use x="95.410156" xlink:href="#DejaVuSans-48"/>
       <use x="159.033203" xlink:href="#DejaVuSans-51"/>
      </g>
     </g>
    </g>
    <g id="ytick_5">
     <g id="line2d_105">
      <g>
       <use style="stroke:#000000;stroke-width:0.8;" x="57.6" xlink:href="#meaf5a622bc" y="60.082139"/>
      </g>
     </g>
     <g id="text_5">
      <!-- 0.04 -->
      <g transform="translate(28.334375 63.881357)scale(0.1 -0.1)">
       <defs>
        <path d="M 37.796875 64.3125 
L 12.890625 25.390625 
L 37.796875 25.390625 
z
M 35.203125 72.90625 
L 47.609375 72.90625 
L 47.609375 25.390625 
L 58.015625 25.390625 
L 58.015625 17.1875 
L 47.609375 17.1875 
L 47.609375 0 
L 37.796875 0 
L 37.796875 17.1875 
L 4.890625 17.1875 
L 4.890625 26.703125 
z
" id="DejaVuSans-52"/>
       </defs>
       <use xlink:href="#DejaVuSans-48"/>
       <use x="63.623047" xlink:href="#DejaVuSans-46"/>
       <use x="95.410156" xlink:href="#DejaVuSans-48"/>
       <use x="159.033203" xlink:href="#DejaVuSans-52"/>
      </g>
     </g>
    </g>
    <g id="text_6">
     <!-- frequency -->
     <g transform="translate(22.254687 199.604562)rotate(-90)scale(0.1 -0.1)">
      <defs>
       <path d="M 37.109375 75.984375 
L 37.109375 68.5 
L 28.515625 68.5 
Q 23.6875 68.5 21.796875 66.546875 
Q 19.921875 64.59375 19.921875 59.515625 
L 19.921875 54.6875 
L 34.71875 54.6875 
L 34.71875 47.703125 
L 19.921875 47.703125 
L 19.921875 0 
L 10.890625 0 
L 10.890625 47.703125 
L 2.296875 47.703125 
L 2.296875 54.6875 
L 10.890625 54.6875 
L 10.890625 58.5 
Q 10.890625 67.625 15.140625 71.796875 
Q 19.390625 75.984375 28.609375 75.984375 
z
" id="DejaVuSans-102"/>
       <path d="M 41.109375 46.296875 
Q 39.59375 47.171875 37.8125 47.578125 
Q 36.03125 48 33.890625 48 
Q 26.265625 48 22.1875 43.046875 
Q 18.109375 38.09375 18.109375 28.8125 
L 18.109375 0 
L 9.078125 0 
L 9.078125 54.6875 
L 18.109375 54.6875 
L 18.109375 46.1875 
Q 20.953125 51.171875 25.484375 53.578125 
Q 30.03125 56 36.53125 56 
Q 37.453125 56 38.578125 55.875 
Q 39.703125 55.765625 41.0625 55.515625 
z
" id="DejaVuSans-114"/>
       <path d="M 56.203125 29.59375 
L 56.203125 25.203125 
L 14.890625 25.203125 
Q 15.484375 15.921875 20.484375 11.0625 
Q 25.484375 6.203125 34.421875 6.203125 
Q 39.59375 6.203125 44.453125 7.46875 
Q 49.3125 8.734375 54.109375 11.28125 
L 54.109375 2.78125 
Q 49.265625 0.734375 44.1875 -0.34375 
Q 39.109375 -1.421875 33.890625 -1.421875 
Q 20.796875 -1.421875 13.15625 6.1875 
Q 5.515625 13.8125 5.515625 26.8125 
Q 5.515625 40.234375 12.765625 48.109375 
Q 20.015625 56 32.328125 56 
Q 43.359375 56 49.78125 48.890625 
Q 56.203125 41.796875 56.203125 29.59375 
z
M 47.21875 32.234375 
Q 47.125 39.59375 43.09375 43.984375 
Q 39.0625 48.390625 32.421875 48.390625 
Q 24.90625 48.390625 20.390625 44.140625 
Q 15.875 39.890625 15.1875 32.171875 
z
" id="DejaVuSans-101"/>
       <path d="M 14.796875 27.296875 
Q 14.796875 17.390625 18.875 11.75 
Q 22.953125 6.109375 30.078125 6.109375 
Q 37.203125 6.109375 41.296875 11.75 
Q 45.40625 17.390625 45.40625 27.296875 
Q 45.40625 37.203125 41.296875 42.84375 
Q 37.203125 48.484375 30.078125 48.484375 
Q 22.953125 48.484375 18.875 42.84375 
Q 14.796875 37.203125 14.796875 27.296875 
z
M 45.40625 8.203125 
Q 42.578125 3.328125 38.25 0.953125 
Q 33.9375 -1.421875 27.875 -1.421875 
Q 17.96875 -1.421875 11.734375 6.484375 
Q 5.515625 14.40625 5.515625 27.296875 
Q 5.515625 40.1875 11.734375 48.09375 
Q 17.96875 56 27.875 56 
Q 33.9375 56 38.25 53.625 
Q 42.578125 51.265625 45.40625 46.390625 
L 45.40625 54.6875 
L 54.390625 54.6875 
L 54.390625 -20.796875 
L 45.40625 -20.796875 
z
" id="DejaVuSans-113"/>
       <path d="M 8.5 21.578125 
L 8.5 54.6875 
L 17.484375 54.6875 
L 17.484375 21.921875 
Q 17.484375 14.15625 20.5 10.265625 
Q 23.53125 6.390625 29.59375 6.390625 
Q 36.859375 6.390625 41.078125 11.03125 
Q 45.3125 15.671875 45.3125 23.6875 
L 45.3125 54.6875 
L 54.296875 54.6875 
L 54.296875 0 
L 45.3125 0 
L 45.3125 8.40625 
Q 42.046875 3.421875 37.71875 1 
Q 33.40625 -1.421875 27.6875 -1.421875 
Q 18.265625 -1.421875 13.375 4.4375 
Q 8.5 10.296875 8.5 21.578125 
z
M 31.109375 56 
z
" id="DejaVuSans-117"/>
       <path d="M 54.890625 33.015625 
L 54.890625 0 
L 45.90625 0 
L 45.90625 32.71875 
Q 45.90625 40.484375 42.875 44.328125 
Q 39.84375 48.1875 33.796875 48.1875 
Q 26.515625 48.1875 22.3125 43.546875 
Q 18.109375 38.921875 18.109375 30.90625 
L 18.109375 0 
L 9.078125 0 
L 9.078125 54.6875 
L 18.109375 54.6875 
L 18.109375 46.1875 
Q 21.34375 51.125 25.703125 53.5625 
Q 30.078125 56 35.796875 56 
Q 45.21875 56 50.046875 50.171875 
Q 54.890625 44.34375 54.890625 33.015625 
z
" id="DejaVuSans-110"/>
       <path d="M 48.78125 52.59375 
L 48.78125 44.1875 
Q 44.96875 46.296875 41.140625 47.34375 
Q 37.3125 48.390625 33.40625 48.390625 
Q 24.65625 48.390625 19.8125 42.84375 
Q 14.984375 37.3125 14.984375 27.296875 
Q 14.984375 17.28125 19.8125 11.734375 
Q 24.65625 6.203125 33.40625 6.203125 
Q 37.3125 6.203125 41.140625 7.25 
Q 44.96875 8.296875 48.78125 10.40625 
L 48.78125 2.09375 
Q 45.015625 0.34375 40.984375 -0.53125 
Q 36.96875 -1.421875 32.421875 -1.421875 
Q 20.0625 -1.421875 12.78125 6.34375 
Q 5.515625 14.109375 5.515625 27.296875 
Q 5.515625 40.671875 12.859375 48.328125 
Q 20.21875 56 33.015625 56 
Q 37.15625 56 41.109375 55.140625 
Q 45.0625 54.296875 48.78125 52.59375 
z
" id="DejaVuSans-99"/>
       <path d="M 32.171875 -5.078125 
Q 28.375 -14.84375 24.75 -17.8125 
Q 21.140625 -20.796875 15.09375 -20.796875 
L 7.90625 -20.796875 
L 7.90625 -13.28125 
L 13.1875 -13.28125 
Q 16.890625 -13.28125 18.9375 -11.515625 
Q 21 -9.765625 23.484375 -3.21875 
L 25.09375 0.875 
L 2.984375 54.6875 
L 12.5 54.6875 
L 29.59375 11.921875 
L 46.6875 54.6875 
L 56.203125 54.6875 
z
" id="DejaVuSans-121"/>
      </defs>
      <use xlink:href="#DejaVuSans-102"/>
      <use x="35.205078" xlink:href="#DejaVuSans-114"/>
      <use x="74.068359" xlink:href="#DejaVuSans-101"/>
      <use x="135.591797" xlink:href="#DejaVuSans-113"/>
      <use x="199.068359" xlink:href="#DejaVuSans-117"/>
      <use x="262.447266" xlink:href="#DejaVuSans-101"/>
      <use x="323.970703" xlink:href="#DejaVuSans-110"/>
      <use x="387.349609" xlink:href="#DejaVuSans-99"/>
      <use x="442.330078" xlink:href="#DejaVuSans-121"/>
     </g>
    </g>
   </g>
   <g id="line2d_106">
    <path clip-path="url(#pa257ca74a6)" d="M 73.832727 274.28451 
L 77.112066 248.958118 
L 80.391405 196.538378 
L 83.670744 186.525619 
L 86.950083 165.322129 
L 90.229421 147.652554 
L 93.50876 83.453097 
L 96.788099 94.054842 
L 100.067438 117.614276 
L 103.346777 121.737177 
L 106.626116 137.050808 
L 109.905455 129.393992 
L 113.184793 148.241539 
L 116.464132 168.267058 
L 119.743471 195.949393 
L 123.02281 208.318095 
L 126.302149 205.962152 
L 129.581488 203.017223 
L 132.860826 202.428237 
L 136.140165 210.085053 
L 139.419504 200.072294 
L 142.698843 206.551138 
L 145.978182 211.263025 
L 149.257521 194.182435 
L 152.53686 194.771421 
L 155.816198 193.593449 
L 159.095537 188.881563 
L 162.374876 213.618968 
L 165.654215 203.017223 
L 168.933554 211.263025 
L 172.212893 206.551138 
L 175.492231 222.453756 
L 178.77157 214.79694 
L 182.050909 222.453756 
L 185.330248 198.894322 
L 188.609587 184.758662 
L 191.888926 176.51286 
L 195.168264 185.347647 
L 198.447603 193.004463 
L 201.726942 217.152883 
L 205.006281 239.534345 
L 208.28562 247.191161 
L 211.564959 244.835218 
L 214.844298 260.737835 
L 218.123636 255.436963 
L 221.402975 262.504793 
L 224.682314 271.928566 
L 227.961653 270.750595 
L 231.240992 259.559864 
L 234.520331 265.449722 
L 237.799669 264.860736 
L 241.079008 253.670005 
L 244.358347 273.695524 
L 247.637686 253.670005 
L 250.917025 272.517552 
L 254.196364 277.229439 
L 257.475702 227.165642 
L 260.755041 267.805665 
L 264.03438 184.758662 
L 267.313719 258.381892 
L 270.593058 245.424203 
L 273.872397 104.656587 
L 277.151736 225.987671 
L 280.431074 212.440996 
L 283.710413 244.246232 
L 286.989752 254.258991 
L 290.269091 266.038708 
L 293.54843 271.928566 
L 296.827769 278.407411 
L 300.107107 279.585382 
L 303.386446 281.35234 
L 306.665785 283.119297 
L 309.945124 289.009156 
L 313.224463 284.886255 
L 316.503802 283.708283 
L 319.78314 286.653212 
L 323.062479 289.009156 
L 326.341818 286.064227 
L 329.621157 292.543071 
L 332.900496 290.187127 
L 336.179835 288.42017 
L 339.459174 291.954085 
L 342.738512 287.831184 
L 346.017851 289.009156 
L 349.29719 289.598142 
L 352.576529 289.009156 
L 355.855868 289.598142 
L 359.135207 286.653212 
L 362.414545 289.009156 
L 365.693884 287.831184 
L 368.973223 289.598142 
L 372.252562 293.721042 
L 375.531901 293.132057 
L 378.81124 294.310028 
L 382.090579 293.132057 
L 385.369917 292.543071 
L 388.649256 292.543071 
L 391.928595 294.899014 
L 395.207934 292.543071 
L 398.487273 293.721042 
" style="fill:none;stroke:#1f77b4;stroke-linecap:square;stroke-width:1.5;"/>
   </g>
   <g id="line2d_107">
    <path clip-path="url(#pa257ca74a6)" d="M 73.832727 294.307902 
L 77.112066 295.488 
L 80.391405 295.488 
L 83.670744 295.488 
L 86.950083 295.488 
L 90.229421 295.488 
L 93.50876 295.488 
L 96.788099 295.488 
L 100.067438 294.897951 
L 103.346777 295.488 
L 106.626116 295.488 
L 109.905455 295.488 
L 113.184793 292.537756 
L 116.464132 267.165659 
L 119.743471 218.781659 
L 123.02281 160.366829 
L 126.302149 143.845463 
L 129.581488 120.243512 
L 132.860826 70.089366 
L 136.140165 53.568 
L 139.419504 78.350049 
L 142.698843 96.641561 
L 145.978182 124.963902 
L 149.257521 111.39278 
L 152.53686 143.255415 
L 155.816198 154.466341 
L 159.095537 169.80761 
L 162.374876 188.099122 
L 165.654215 205.800585 
L 168.933554 209.340878 
L 172.212893 199.900098 
L 175.492231 199.900098 
L 178.77157 186.919024 
L 182.050909 205.800585 
L 185.330248 193.409561 
L 188.609587 198.72 
L 191.888926 192.819512 
L 195.168264 193.99961 
L 198.447603 199.900098 
L 201.726942 204.620488 
L 205.006281 188.099122 
L 208.28562 192.229463 
L 211.564959 192.229463 
L 214.844298 193.99961 
L 218.123636 182.198634 
L 221.402975 175.708098 
L 224.682314 158.006634 
L 227.961653 168.037463 
L 231.240992 172.757854 
L 234.520331 206.390634 
L 237.799669 234.122927 
L 241.079008 224.092098 
L 244.358347 240.023415 
L 247.637686 238.843317 
L 250.917025 248.874146 
L 254.196364 253.004488 
L 257.475702 262.445268 
L 260.755041 239.433366 
L 264.03438 243.563707 
L 267.313719 240.023415 
L 270.593058 251.234341 
L 273.872397 265.395512 
L 277.151736 257.724878 
L 280.431074 281.326829 
L 283.710413 253.594537 
L 286.989752 281.326829 
L 290.269091 227.63239 
L 293.54843 268.345756 
L 296.827769 194.589659 
L 300.107107 238.253268 
L 303.386446 267.165659 
L 306.665785 241.203512 
L 309.945124 256.54478 
L 313.224463 263.035317 
L 316.503802 278.966634 
L 319.78314 283.096976 
L 323.062479 284.277073 
L 326.341818 285.457171 
L 329.621157 285.457171 
L 332.900496 288.407415 
L 336.179835 288.407415 
L 339.459174 284.867122 
L 342.738512 290.177561 
L 346.017851 288.997463 
L 349.29719 291.947707 
L 352.576529 293.127805 
L 355.855868 292.537756 
L 359.135207 292.537756 
L 362.414545 292.537756 
L 365.693884 291.357659 
L 368.973223 290.177561 
L 372.252562 291.947707 
L 375.531901 290.177561 
L 378.81124 291.357659 
L 382.090579 292.537756 
L 385.369917 291.947707 
L 388.649256 293.127805 
L 391.928595 293.127805 
L 395.207934 294.897951 
L 398.487273 292.537756 
" style="fill:none;stroke:#ff7f0e;stroke-linecap:square;stroke-width:1.5;"/>
   </g>
   <g id="line2d_108">
    <path clip-path="url(#pa257ca74a6)" d="M 73.832727 267.987315 
L 77.112066 295.488 
L 80.391405 267.987315 
L 83.670744 267.987315 
L 86.950083 295.488 
L 90.229421 267.987315 
L 93.50876 295.488 
L 96.788099 295.488 
L 100.067438 212.985946 
L 103.346777 267.987315 
L 106.626116 267.987315 
L 109.905455 240.48663 
L 113.184793 295.488 
L 116.464132 267.987315 
L 119.743471 240.48663 
L 123.02281 267.987315 
L 126.302149 295.488 
L 129.581488 212.985946 
L 132.860826 267.987315 
L 136.140165 240.48663 
L 139.419504 295.488 
L 142.698843 240.48663 
L 145.978182 185.485261 
L 149.257521 240.48663 
L 152.53686 267.987315 
L 155.816198 240.48663 
L 159.095537 240.48663 
L 162.374876 185.485261 
L 165.654215 267.987315 
L 168.933554 240.48663 
L 172.212893 240.48663 
L 175.492231 157.984576 
L 178.77157 157.984576 
L 182.050909 185.485261 
L 185.330248 240.48663 
L 188.609587 185.485261 
L 191.888926 267.987315 
L 195.168264 130.483891 
L 198.447603 267.987315 
L 201.726942 212.985946 
L 205.006281 185.485261 
L 208.28562 240.48663 
L 211.564959 212.985946 
L 214.844298 267.987315 
L 218.123636 267.987315 
L 221.402975 240.48663 
L 224.682314 240.48663 
L 227.961653 240.48663 
L 231.240992 267.987315 
L 234.520331 157.984576 
L 237.799669 295.488 
L 241.079008 185.485261 
L 244.358347 102.983207 
L 247.637686 212.985946 
L 250.917025 212.985946 
L 254.196364 240.48663 
L 257.475702 240.48663 
L 260.755041 212.985946 
L 264.03438 185.485261 
L 267.313719 157.984576 
L 270.593058 212.985946 
L 273.872397 185.485261 
L 277.151736 185.485261 
L 280.431074 240.48663 
L 283.710413 130.483891 
L 286.989752 240.48663 
L 290.269091 267.987315 
L 293.54843 185.485261 
L 296.827769 157.984576 
L 300.107107 185.485261 
L 303.386446 185.485261 
L 306.665785 185.485261 
L 309.945124 185.485261 
L 313.224463 212.985946 
L 316.503802 130.483891 
L 319.78314 295.488 
L 323.062479 267.987315 
L 326.341818 212.985946 
L 329.621157 295.488 
L 332.900496 212.985946 
L 336.179835 267.987315 
L 339.459174 267.987315 
L 342.738512 212.985946 
L 346.017851 212.985946 
L 349.29719 267.987315 
L 352.576529 295.488 
L 355.855868 240.48663 
L 359.135207 212.985946 
L 362.414545 240.48663 
L 365.693884 295.488 
L 368.973223 267.987315 
L 372.252562 295.488 
L 375.531901 295.488 
L 378.81124 267.987315 
L 382.090579 295.488 
L 385.369917 267.987315 
L 388.649256 295.488 
L 391.928595 267.987315 
L 395.207934 295.488 
L 398.487273 295.488 
" style="fill:none;stroke:#2ca02c;stroke-linecap:square;stroke-width:1.5;"/>
   </g>
   <g id="line2d_109"/>
   <g id="line2d_110"/>
   <g id="line2d_111"/>
   <g id="patch_3">
    <path d="M 57.6 307.584 
L 57.6 41.472 
" style="fill:none;stroke:#000000;stroke-linecap:square;stroke-linejoin:miter;stroke-width:0.8;"/>
   </g>
   <g id="patch_4">
    <path d="M 414.72 307.584 
L 414.72 41.472 
" style="fill:none;stroke:#000000;stroke-linecap:square;stroke-linejoin:miter;stroke-width:0.8;"/>
   </g>
   <g id="patch_5">
    <path d="M 57.6 307.584 
L 414.72 307.584 
" style="fill:none;stroke:#000000;stroke-linecap:square;stroke-linejoin:miter;stroke-width:0.8;"/>
   </g>
   <g id="patch_6">
    <path d="M 57.6 41.472 
L 414.72 41.472 
" style="fill:none;stroke:#000000;stroke-linecap:square;stroke-linejoin:miter;stroke-width:0.8;"/>
   </g>
   <g id="legend_1">
    <g id="patch_7">
     <path d="M 217.77625 108.1845 
L 407.72 108.1845 
Q 409.72 108.1845 409.72 106.1845 
L 409.72 48.472 
Q 409.72 46.472 407.72 46.472 
L 217.77625 46.472 
Q 215.77625 46.472 215.77625 48.472 
L 215.77625 106.1845 
Q 215.77625 108.1845 217.77625 108.1845 
z
" style="fill:#ffffff;opacity:0.8;stroke:#cccccc;stroke-linejoin:miter;"/>
    </g>
    <g id="text_7">
     <!-- source -->
     <g transform="translate(296.146562 58.070438)scale(0.1 -0.1)">
      <defs>
       <path d="M 44.28125 53.078125 
L 44.28125 44.578125 
Q 40.484375 46.53125 36.375 47.5 
Q 32.28125 48.484375 27.875 48.484375 
Q 21.1875 48.484375 17.84375 46.4375 
Q 14.5 44.390625 14.5 40.28125 
Q 14.5 37.15625 16.890625 35.375 
Q 19.28125 33.59375 26.515625 31.984375 
L 29.59375 31.296875 
Q 39.15625 29.25 43.1875 25.515625 
Q 47.21875 21.78125 47.21875 15.09375 
Q 47.21875 7.46875 41.1875 3.015625 
Q 35.15625 -1.421875 24.609375 -1.421875 
Q 20.21875 -1.421875 15.453125 -0.5625 
Q 10.6875 0.296875 5.421875 2 
L 5.421875 11.28125 
Q 10.40625 8.6875 15.234375 7.390625 
Q 20.0625 6.109375 24.8125 6.109375 
Q 31.15625 6.109375 34.5625 8.28125 
Q 37.984375 10.453125 37.984375 14.40625 
Q 37.984375 18.0625 35.515625 20.015625 
Q 33.0625 21.96875 24.703125 23.78125 
L 21.578125 24.515625 
Q 13.234375 26.265625 9.515625 29.90625 
Q 5.8125 33.546875 5.8125 39.890625 
Q 5.8125 47.609375 11.28125 51.796875 
Q 16.75 56 26.8125 56 
Q 31.78125 56 36.171875 55.265625 
Q 40.578125 54.546875 44.28125 53.078125 
z
" id="DejaVuSans-115"/>
       <path d="M 30.609375 48.390625 
Q 23.390625 48.390625 19.1875 42.75 
Q 14.984375 37.109375 14.984375 27.296875 
Q 14.984375 17.484375 19.15625 11.84375 
Q 23.34375 6.203125 30.609375 6.203125 
Q 37.796875 6.203125 41.984375 11.859375 
Q 46.1875 17.53125 46.1875 27.296875 
Q 46.1875 37.015625 41.984375 42.703125 
Q 37.796875 48.390625 30.609375 48.390625 
z
M 30.609375 56 
Q 42.328125 56 49.015625 48.375 
Q 55.71875 40.765625 55.71875 27.296875 
Q 55.71875 13.875 49.015625 6.21875 
Q 42.328125 -1.421875 30.609375 -1.421875 
Q 18.84375 -1.421875 12.171875 6.21875 
Q 5.515625 13.875 5.515625 27.296875 
Q 5.515625 40.765625 12.171875 48.375 
Q 18.84375 56 30.609375 56 
z
" id="DejaVuSans-111"/>
      </defs>
      <use xlink:href="#DejaVuSans-115"/>
      <use x="52.099609" xlink:href="#DejaVuSans-111"/>
      <use x="113.28125" xlink:href="#DejaVuSans-117"/>
      <use x="176.660156" xlink:href="#DejaVuSans-114"/>
      <use x="215.523438" xlink:href="#DejaVuSans-99"/>
      <use x="270.503906" xlink:href="#DejaVuSans-101"/>
     </g>
    </g>
    <g id="line2d_112">
     <path d="M 219.77625 69.248563 
L 239.77625 69.248563 
" style="fill:none;stroke:#1f77b4;stroke-linecap:square;stroke-width:1.5;"/>
    </g>
    <g id="line2d_113"/>
    <g id="text_8">
     <!-- Mountain - elevationM (correct) -->
     <g transform="translate(247.77625 72.748563)scale(0.1 -0.1)">
      <defs>
       <path d="M 9.8125 72.90625 
L 24.515625 72.90625 
L 43.109375 23.296875 
L 61.8125 72.90625 
L 76.515625 72.90625 
L 76.515625 0 
L 66.890625 0 
L 66.890625 64.015625 
L 48.09375 14.015625 
L 38.1875 14.015625 
L 19.390625 64.015625 
L 19.390625 0 
L 9.8125 0 
z
" id="DejaVuSans-77"/>
       <path d="M 18.3125 70.21875 
L 18.3125 54.6875 
L 36.8125 54.6875 
L 36.8125 47.703125 
L 18.3125 47.703125 
L 18.3125 18.015625 
Q 18.3125 11.328125 20.140625 9.421875 
Q 21.96875 7.515625 27.59375 7.515625 
L 36.8125 7.515625 
L 36.8125 0 
L 27.59375 0 
Q 17.1875 0 13.234375 3.875 
Q 9.28125 7.765625 9.28125 18.015625 
L 9.28125 47.703125 
L 2.6875 47.703125 
L 2.6875 54.6875 
L 9.28125 54.6875 
L 9.28125 70.21875 
z
" id="DejaVuSans-116"/>
       <path d="M 34.28125 27.484375 
Q 23.390625 27.484375 19.1875 25 
Q 14.984375 22.515625 14.984375 16.5 
Q 14.984375 11.71875 18.140625 8.90625 
Q 21.296875 6.109375 26.703125 6.109375 
Q 34.1875 6.109375 38.703125 11.40625 
Q 43.21875 16.703125 43.21875 25.484375 
L 43.21875 27.484375 
z
M 52.203125 31.203125 
L 52.203125 0 
L 43.21875 0 
L 43.21875 8.296875 
Q 40.140625 3.328125 35.546875 0.953125 
Q 30.953125 -1.421875 24.3125 -1.421875 
Q 15.921875 -1.421875 10.953125 3.296875 
Q 6 8.015625 6 15.921875 
Q 6 25.140625 12.171875 29.828125 
Q 18.359375 34.515625 30.609375 34.515625 
L 43.21875 34.515625 
L 43.21875 35.40625 
Q 43.21875 41.609375 39.140625 45 
Q 35.0625 48.390625 27.6875 48.390625 
Q 23 48.390625 18.546875 47.265625 
Q 14.109375 46.140625 10.015625 43.890625 
L 10.015625 52.203125 
Q 14.9375 54.109375 19.578125 55.046875 
Q 24.21875 56 28.609375 56 
Q 40.484375 56 46.34375 49.84375 
Q 52.203125 43.703125 52.203125 31.203125 
z
" id="DejaVuSans-97"/>
       <path d="M 9.421875 54.6875 
L 18.40625 54.6875 
L 18.40625 0 
L 9.421875 0 
z
M 9.421875 75.984375 
L 18.40625 75.984375 
L 18.40625 64.59375 
L 9.421875 64.59375 
z
" id="DejaVuSans-105"/>
       <path id="DejaVuSans-32"/>
       <path d="M 4.890625 31.390625 
L 31.203125 31.390625 
L 31.203125 23.390625 
L 4.890625 23.390625 
z
" id="DejaVuSans-45"/>
       <path d="M 9.421875 75.984375 
L 18.40625 75.984375 
L 18.40625 0 
L 9.421875 0 
z
" id="DejaVuSans-108"/>
       <path d="M 2.984375 54.6875 
L 12.5 54.6875 
L 29.59375 8.796875 
L 46.6875 54.6875 
L 56.203125 54.6875 
L 35.6875 0 
L 23.484375 0 
z
" id="DejaVuSans-118"/>
       <path d="M 31 75.875 
Q 24.46875 64.65625 21.28125 53.65625 
Q 18.109375 42.671875 18.109375 31.390625 
Q 18.109375 20.125 21.3125 9.0625 
Q 24.515625 -2 31 -13.1875 
L 23.1875 -13.1875 
Q 15.875 -1.703125 12.234375 9.375 
Q 8.59375 20.453125 8.59375 31.390625 
Q 8.59375 42.28125 12.203125 53.3125 
Q 15.828125 64.359375 23.1875 75.875 
z
" id="DejaVuSans-40"/>
       <path d="M 8.015625 75.875 
L 15.828125 75.875 
Q 23.140625 64.359375 26.78125 53.3125 
Q 30.421875 42.28125 30.421875 31.390625 
Q 30.421875 20.453125 26.78125 9.375 
Q 23.140625 -1.703125 15.828125 -13.1875 
L 8.015625 -13.1875 
Q 14.5 -2 17.703125 9.0625 
Q 20.90625 20.125 20.90625 31.390625 
Q 20.90625 42.671875 17.703125 53.65625 
Q 14.5 64.65625 8.015625 75.875 
z
" id="DejaVuSans-41"/>
      </defs>
      <use xlink:href="#DejaVuSans-77"/>
      <use x="86.279297" xlink:href="#DejaVuSans-111"/>
      <use x="147.460938" xlink:href="#DejaVuSans-117"/>
      <use x="210.839844" xlink:href="#DejaVuSans-110"/>
      <use x="274.21875" xlink:href="#DejaVuSans-116"/>
      <use x="313.427734" xlink:href="#DejaVuSans-97"/>
      <use x="374.707031" xlink:href="#DejaVuSans-105"/>
      <use x="402.490234" xlink:href="#DejaVuSans-110"/>
      <use x="465.869141" xlink:href="#DejaVuSans-32"/>
      <use x="497.65625" xlink:href="#DejaVuSans-45"/>
      <use x="533.740234" xlink:href="#DejaVuSans-32"/>
      <use x="565.527344" xlink:href="#DejaVuSans-101"/>
      <use x="627.050781" xlink:href="#DejaVuSans-108"/>
      <use x="654.833984" xlink:href="#DejaVuSans-101"/>
      <use x="716.357422" xlink:href="#DejaVuSans-118"/>
      <use x="775.537109" xlink:href="#DejaVuSans-97"/>
      <use x="836.816406" xlink:href="#DejaVuSans-116"/>
      <use x="876.025391" xlink:href="#DejaVuSans-105"/>
      <use x="903.808594" xlink:href="#DejaVuSans-111"/>
      <use x="964.990234" xlink:href="#DejaVuSans-110"/>
      <use x="1028.369141" xlink:href="#DejaVuSans-77"/>
      <use x="1114.648438" xlink:href="#DejaVuSans-32"/>
      <use x="1146.435547" xlink:href="#DejaVuSans-40"/>
      <use x="1185.449219" xlink:href="#DejaVuSans-99"/>
      <use x="1240.429688" xlink:href="#DejaVuSans-111"/>
      <use x="1301.611328" xlink:href="#DejaVuSans-114"/>
      <use x="1340.974609" xlink:href="#DejaVuSans-114"/>
      <use x="1379.837891" xlink:href="#DejaVuSans-101"/>
      <use x="1441.361328" xlink:href="#DejaVuSans-99"/>
      <use x="1496.341797" xlink:href="#DejaVuSans-116"/>
      <use x="1535.550781" xlink:href="#DejaVuSans-41"/>
     </g>
    </g>
    <g id="line2d_114">
     <path d="M 219.77625 83.926688 
L 239.77625 83.926688 
" style="fill:none;stroke:#ff7f0e;stroke-linecap:square;stroke-width:1.5;"/>
    </g>
    <g id="line2d_115"/>
    <g id="text_9">
     <!-- Mountain - elevation (incorrect) -->
     <g transform="translate(247.77625 87.426688)scale(0.1 -0.1)">
      <use xlink:href="#DejaVuSans-77"/>
      <use x="86.279297" xlink:href="#DejaVuSans-111"/>
      <use x="147.460938" xlink:href="#DejaVuSans-117"/>
      <use x="210.839844" xlink:href="#DejaVuSans-110"/>
      <use x="274.21875" xlink:href="#DejaVuSans-116"/>
      <use x="313.427734" xlink:href="#DejaVuSans-97"/>
      <use x="374.707031" xlink:href="#DejaVuSans-105"/>
      <use x="402.490234" xlink:href="#DejaVuSans-110"/>
      <use x="465.869141" xlink:href="#DejaVuSans-32"/>
      <use x="497.65625" xlink:href="#DejaVuSans-45"/>
      <use x="533.740234" xlink:href="#DejaVuSans-32"/>
      <use x="565.527344" xlink:href="#DejaVuSans-101"/>
      <use x="627.050781" xlink:href="#DejaVuSans-108"/>
      <use x="654.833984" xlink:href="#DejaVuSans-101"/>
      <use x="716.357422" xlink:href="#DejaVuSans-118"/>
      <use x="775.537109" xlink:href="#DejaVuSans-97"/>
      <use x="836.816406" xlink:href="#DejaVuSans-116"/>
      <use x="876.025391" xlink:href="#DejaVuSans-105"/>
      <use x="903.808594" xlink:href="#DejaVuSans-111"/>
      <use x="964.990234" xlink:href="#DejaVuSans-110"/>
      <use x="1028.369141" xlink:href="#DejaVuSans-32"/>
      <use x="1060.15625" xlink:href="#DejaVuSans-40"/>
      <use x="1099.169922" xlink:href="#DejaVuSans-105"/>
      <use x="1126.953125" xlink:href="#DejaVuSans-110"/>
      <use x="1190.332031" xlink:href="#DejaVuSans-99"/>
      <use x="1245.3125" xlink:href="#DejaVuSans-111"/>
      <use x="1306.494141" xlink:href="#DejaVuSans-114"/>
      <use x="1345.857422" xlink:href="#DejaVuSans-114"/>
      <use x="1384.720703" xlink:href="#DejaVuSans-101"/>
      <use x="1446.244141" xlink:href="#DejaVuSans-99"/>
      <use x="1501.224609" xlink:href="#DejaVuSans-116"/>
      <use x="1540.433594" xlink:href="#DejaVuSans-41"/>
     </g>
    </g>
    <g id="line2d_116">
     <path d="M 219.77625 98.604813 
L 239.77625 98.604813 
" style="fill:none;stroke:#2ca02c;stroke-linecap:square;stroke-width:1.5;"/>
    </g>
    <g id="line2d_117"/>
    <g id="text_10">
     <!-- data -->
     <g transform="translate(247.77625 102.104813)scale(0.1 -0.1)">
      <defs>
       <path d="M 45.40625 46.390625 
L 45.40625 75.984375 
L 54.390625 75.984375 
L 54.390625 0 
L 45.40625 0 
L 45.40625 8.203125 
Q 42.578125 3.328125 38.25 0.953125 
Q 33.9375 -1.421875 27.875 -1.421875 
Q 17.96875 -1.421875 11.734375 6.484375 
Q 5.515625 14.40625 5.515625 27.296875 
Q 5.515625 40.1875 11.734375 48.09375 
Q 17.96875 56 27.875 56 
Q 33.9375 56 38.25 53.625 
Q 42.578125 51.265625 45.40625 46.390625 
z
M 14.796875 27.296875 
Q 14.796875 17.390625 18.875 11.75 
Q 22.953125 6.109375 30.078125 6.109375 
Q 37.203125 6.109375 41.296875 11.75 
Q 45.40625 17.390625 45.40625 27.296875 
Q 45.40625 37.203125 41.296875 42.84375 
Q 37.203125 48.484375 30.078125 48.484375 
Q 22.953125 48.484375 18.875 42.84375 
Q 14.796875 37.203125 14.796875 27.296875 
z
" id="DejaVuSans-100"/>
      </defs>
      <use xlink:href="#DejaVuSans-100"/>
      <use x="63.476562" xlink:href="#DejaVuSans-97"/>
      <use x="124.755859" xlink:href="#DejaVuSans-116"/>
      <use x="163.964844" xlink:href="#DejaVuSans-97"/>
     </g>
    </g>
   </g>
  </g>
 </g>
 <defs>
  <clipPath id="pa257ca74a6">
   <rect height="266.112" width="357.12" x="57.6" y="41.472"/>
  </clipPath>
 </defs>
</svg>
