<?xml version="1.0" encoding="utf-8" standalone="no"?>
<!DOCTYPE svg PUBLIC "-//W3C//DTD SVG 1.1//EN"
  "http://www.w3.org/Graphics/SVG/1.1/DTD/svg11.dtd">
<!-- Created with matplotlib (https://matplotlib.org/) -->
<svg height="310.86825pt" version="1.1" viewBox="0 0 408.10125 310.86825" width="408.10125pt" xmlns="http://www.w3.org/2000/svg" xmlns:xlink="http://www.w3.org/1999/xlink">
 <metadata>
  <rdf:RDF xmlns:cc="http://creativecommons.org/ns#" xmlns:dc="http://purl.org/dc/elements/1.1/" xmlns:rdf="http://www.w3.org/1999/02/22-rdf-syntax-ns#">
   <cc:Work>
    <dc:type rdf:resource="http://purl.org/dc/dcmitype/StillImage"/>
    <dc:date>2022-03-09T16:20:21.598864</dc:date>
    <dc:format>image/svg+xml</dc:format>
    <dc:creator>
     <cc:Agent>
      <dc:title>Matplotlib v3.3.4, https://matplotlib.org/</dc:title>
     </cc:Agent>
    </dc:creator>
   </cc:Work>
  </rdf:RDF>
 </metadata>
 <defs>
  <style type="text/css">*{stroke-linecap:butt;stroke-linejoin:round;}</style>
 </defs>
 <g id="figure_1">
  <g id="patch_1">
   <path d="M 0 310.86825 
L 408.10125 310.86825 
L 408.10125 0 
L 0 0 
z
" style="fill:#ffffff;"/>
  </g>
  <g id="axes_1">
   <g id="patch_2">
    <path d="M 43.78125 273.312 
L 400.90125 273.312 
L 400.90125 7.2 
L 43.78125 7.2 
z
" style="fill:#ffffff;"/>
   </g>
   <g id="PathCollection_1">
    <path clip-path="url(#pdb69c00d56)" d="M 384.668523 171.688924 
C 385.787809 171.688924 386.861402 171.244227 387.652857 170.452772 
C 388.444311 169.661318 388.889008 168.587724 388.889008 167.468438 
C 388.889008 166.349152 388.444311 165.275559 387.652857 164.484104 
C 386.861402 163.692649 385.787809 163.247952 384.668523 163.247952 
C 383.549237 163.247952 382.475643 163.692649 381.684189 164.484104 
C 380.892734 165.275559 380.448037 166.349152 380.448037 167.468438 
C 380.448037 168.587724 380.892734 169.661318 381.684189 170.452772 
C 382.475643 171.244227 383.549237 171.688924 384.668523 171.688924 
z
" style="fill:#2ca02c;stroke:#ffffff;stroke-width:0.525357;"/>
    <path clip-path="url(#pdb69c00d56)" d="M 384.668523 167.218204 
C 385.787809 167.218204 386.861402 166.773507 387.652857 165.982052 
C 388.444311 165.190597 388.889008 164.117004 388.889008 162.997718 
C 388.889008 161.878432 388.444311 160.804839 387.652857 160.013384 
C 386.861402 159.221929 385.787809 158.777232 384.668523 158.777232 
C 383.549237 158.777232 382.475643 159.221929 381.684189 160.013384 
C 380.892734 160.804839 380.448037 161.878432 380.448037 162.997718 
C 380.448037 164.117004 380.892734 165.190597 381.684189 165.982052 
C 382.475643 166.773507 383.549237 167.218204 384.668523 167.218204 
z
" style="fill:#1f77b4;stroke:#ffffff;stroke-width:0.525357;"/>
    <path clip-path="url(#pdb69c00d56)" d="M 384.668523 23.516486 
C 385.787809 23.516486 386.861402 23.071789 387.652857 22.280334 
C 388.444311 21.488879 388.889008 20.415286 388.889008 19.296 
C 388.889008 18.176714 388.444311 17.103121 387.652857 16.311666 
C 386.861402 15.520211 385.787809 15.075514 384.668523 15.075514 
C 383.549237 15.075514 382.475643 15.520211 381.684189 16.311666 
C 380.892734 17.103121 380.448037 18.176714 380.448037 19.296 
C 380.448037 20.415286 380.892734 21.488879 381.684189 22.280334 
C 382.475643 23.071789 383.549237 23.516486 384.668523 23.516486 
z
" style="fill:#ff7f0e;stroke:#ffffff;stroke-width:0.525357;"/>
    <path clip-path="url(#pdb69c00d56)" d="M 384.668523 120.431598 
C 385.787809 120.431598 386.861402 119.986901 387.652857 119.195446 
C 388.444311 118.403992 388.889008 117.330398 388.889008 116.211112 
C 388.889008 115.091826 388.444311 114.018233 387.652857 113.226778 
C 386.861402 112.435323 385.787809 111.990626 384.668523 111.990626 
C 383.549237 111.990626 382.475643 112.435323 381.684189 113.226778 
C 380.892734 114.018233 380.448037 115.091826 380.448037 116.211112 
C 380.448037 117.330398 380.892734 118.403992 381.684189 119.195446 
C 382.475643 119.986901 383.549237 120.431598 384.668523 120.431598 
z
" style="fill:#d62728;stroke:#ffffff;stroke-width:0.525357;"/>
    <path clip-path="url(#pdb69c00d56)" d="M 344.086705 206.151324 
C 345.41272 206.151324 346.684604 205.624492 347.622238 204.686858 
C 348.559873 203.749223 349.086705 202.477339 349.086705 201.151324 
C 349.086705 199.825308 348.559873 198.553424 347.622238 197.61579 
C 346.684604 196.678155 345.41272 196.151324 344.086705 196.151324 
C 342.760689 196.151324 341.488805 196.678155 340.551171 197.61579 
C 339.613536 198.553424 339.086705 199.825308 339.086705 201.151324 
C 339.086705 202.477339 339.613536 203.749223 340.551171 204.686858 
C 341.488805 205.624492 342.760689 206.151324 344.086705 206.151324 
z
" style="fill:#2ca02c;stroke:#ffffff;stroke-width:0.525357;"/>
    <path clip-path="url(#pdb69c00d56)" d="M 344.086705 193.90009 
C 345.41272 193.90009 346.684604 193.373258 347.622238 192.435624 
C 348.559873 191.497989 349.086705 190.226105 349.086705 188.90009 
C 349.086705 187.574074 348.559873 186.302191 347.622238 185.364556 
C 346.684604 184.426921 345.41272 183.90009 344.086705 183.90009 
C 342.760689 183.90009 341.488805 184.426921 340.551171 185.364556 
C 339.613536 186.302191 339.086705 187.574074 339.086705 188.90009 
C 339.086705 190.226105 339.613536 191.497989 340.551171 192.435624 
C 341.488805 193.373258 342.760689 193.90009 344.086705 193.90009 
z
" style="fill:#1f77b4;stroke:#ffffff;stroke-width:0.525357;"/>
    <path clip-path="url(#pdb69c00d56)" d="M 344.086705 80.975674 
C 345.41272 80.975674 346.684604 80.448843 347.622238 79.511208 
C 348.559873 78.573574 349.086705 77.30169 349.086705 75.975674 
C 349.086705 74.649659 348.559873 73.377775 347.622238 72.44014 
C 346.684604 71.502506 345.41272 70.975674 344.086705 70.975674 
C 342.760689 70.975674 341.488805 71.502506 340.551171 72.44014 
C 339.613536 73.377775 339.086705 74.649659 339.086705 75.975674 
C 339.086705 77.30169 339.613536 78.573574 340.551171 79.511208 
C 341.488805 80.448843 342.760689 80.975674 344.086705 80.975674 
z
" style="fill:#ff7f0e;stroke:#ffffff;stroke-width:0.525357;"/>
    <path clip-path="url(#pdb69c00d56)" d="M 344.086705 156.796353 
C 345.41272 156.796353 346.684604 156.269522 347.622238 155.331887 
C 348.559873 154.394253 349.086705 153.122369 349.086705 151.796353 
C 349.086705 150.470338 348.559873 149.198454 347.622238 148.260819 
C 346.684604 147.323185 345.41272 146.796353 344.086705 146.796353 
C 342.760689 146.796353 341.488805 147.323185 340.551171 148.260819 
C 339.613536 149.198454 339.086705 150.470338 339.086705 151.796353 
C 339.086705 153.122369 339.613536 154.394253 340.551171 155.331887 
C 341.488805 156.269522 342.760689 156.796353 344.086705 156.796353 
z
" style="fill:#d62728;stroke:#ffffff;stroke-width:0.525357;"/>
    <path clip-path="url(#pdb69c00d56)" d="M 60.013977 240.44273 
C 60.852623 240.44273 61.657033 240.109532 62.250045 239.51652 
C 62.843057 238.923508 63.176255 238.119098 63.176255 237.280452 
C 63.176255 236.441806 62.843057 235.637396 62.250045 235.044384 
C 61.657033 234.451372 60.852623 234.118175 60.013977 234.118175 
C 59.175331 234.118175 58.370921 234.451372 57.777909 235.044384 
C 57.184897 235.637396 56.8517 236.441806 56.8517 237.280452 
C 56.8517 238.119098 57.184897 238.923508 57.777909 239.51652 
C 58.370921 240.109532 59.175331 240.44273 60.013977 240.44273 
z
" style="fill:#2ca02c;stroke:#ffffff;stroke-width:0.525357;"/>
    <path clip-path="url(#pdb69c00d56)" d="M 60.013977 200.55015 
C 60.852623 200.55015 61.657033 200.216953 62.250045 199.623941 
C 62.843057 199.030929 63.176255 198.226519 63.176255 197.387873 
C 63.176255 196.549227 62.843057 195.744817 62.250045 195.151805 
C 61.657033 194.558793 60.852623 194.225595 60.013977 194.225595 
C 59.175331 194.225595 58.370921 194.558793 57.777909 195.151805 
C 57.184897 195.744817 56.8517 196.549227 56.8517 197.387873 
C 56.8517 198.226519 57.184897 199.030929 57.777909 199.623941 
C 58.370921 200.216953 59.175331 200.55015 60.013977 200.55015 
z
" style="fill:#1f77b4;stroke:#ffffff;stroke-width:0.525357;"/>
    <path clip-path="url(#pdb69c00d56)" d="M 60.013977 200.55015 
C 60.852623 200.55015 61.657033 200.216953 62.250045 199.623941 
C 62.843057 199.030929 63.176255 198.226519 63.176255 197.387873 
C 63.176255 196.549227 62.843057 195.744817 62.250045 195.151805 
C 61.657033 194.558793 60.852623 194.225595 60.013977 194.225595 
C 59.175331 194.225595 58.370921 194.558793 57.777909 195.151805 
C 57.184897 195.744817 56.8517 196.549227 56.8517 197.387873 
C 56.8517 198.226519 57.184897 199.030929 57.777909 199.623941 
C 58.370921 200.216953 59.175331 200.55015 60.013977 200.55015 
z
" style="fill:#ff7f0e;stroke:#ffffff;stroke-width:0.525357;"/>
    <path clip-path="url(#pdb69c00d56)" d="M 60.013977 200.55015 
C 60.852623 200.55015 61.657033 200.216953 62.250045 199.623941 
C 62.843057 199.030929 63.176255 198.226519 63.176255 197.387873 
C 63.176255 196.549227 62.843057 195.744817 62.250045 195.151805 
C 61.657033 194.558793 60.852623 194.225595 60.013977 194.225595 
C 59.175331 194.225595 58.370921 194.558793 57.777909 195.151805 
C 57.184897 195.744817 56.8517 196.549227 56.8517 197.387873 
C 56.8517 198.226519 57.184897 199.030929 57.777909 199.623941 
C 58.370921 200.216953 59.175331 200.55015 60.013977 200.55015 
z
" style="fill:#d62728;stroke:#ffffff;stroke-width:0.525357;"/>
    <path clip-path="url(#pdb69c00d56)" d="M 100.595795 210.761385 
C 101.497583 210.761385 102.362558 210.403101 103.000218 209.765441 
C 103.637879 209.12778 103.996163 208.262806 103.996163 207.361018 
C 103.996163 206.45923 103.637879 205.594255 103.000218 204.956595 
C 102.362558 204.318934 101.497583 203.96065 100.595795 203.96065 
C 99.694007 203.96065 98.829033 204.318934 98.191372 204.956595 
C 97.553712 205.594255 97.195428 206.45923 97.195428 207.361018 
C 97.195428 208.262806 97.553712 209.12778 98.191372 209.765441 
C 98.829033 210.403101 99.694007 210.761385 100.595795 210.761385 
z
" style="fill:#2ca02c;stroke:#ffffff;stroke-width:0.525357;"/>
    <path clip-path="url(#pdb69c00d56)" d="M 100.595795 150.922516 
C 101.497583 150.922516 102.362558 150.564232 103.000218 149.926571 
C 103.637879 149.288911 103.996163 148.423936 103.996163 147.522148 
C 103.996163 146.62036 103.637879 145.755386 103.000218 145.117725 
C 102.362558 144.480065 101.497583 144.121781 100.595795 144.121781 
C 99.694007 144.121781 98.829033 144.480065 98.191372 145.117725 
C 97.553712 145.755386 97.195428 146.62036 97.195428 147.522148 
C 97.195428 148.423936 97.553712 149.288911 98.191372 149.926571 
C 98.829033 150.564232 99.694007 150.922516 100.595795 150.922516 
z
" style="fill:#1f77b4;stroke:#ffffff;stroke-width:0.525357;"/>
    <path clip-path="url(#pdb69c00d56)" d="M 100.595795 172.293541 
C 101.497583 172.293541 102.362558 171.935257 103.000218 171.297596 
C 103.637879 170.659936 103.996163 169.794961 103.996163 168.893173 
C 103.996163 167.991385 103.637879 167.126411 103.000218 166.48875 
C 102.362558 165.85109 101.497583 165.492806 100.595795 165.492806 
C 99.694007 165.492806 98.829033 165.85109 98.191372 166.48875 
C 97.553712 167.126411 97.195428 167.991385 97.195428 168.893173 
C 97.195428 169.794961 97.553712 170.659936 98.191372 171.297596 
C 98.829033 171.935257 99.694007 172.293541 100.595795 172.293541 
z
" style="fill:#ff7f0e;stroke:#ffffff;stroke-width:0.525357;"/>
    <path clip-path="url(#pdb69c00d56)" d="M 100.595795 162.429991 
C 101.497583 162.429991 102.362558 162.071707 103.000218 161.434046 
C 103.637879 160.796386 103.996163 159.931411 103.996163 159.029623 
C 103.996163 158.127835 103.637879 157.262861 103.000218 156.6252 
C 102.362558 155.98754 101.497583 155.629256 100.595795 155.629256 
C 99.694007 155.629256 98.829033 155.98754 98.191372 156.6252 
C 97.553712 157.262861 97.195428 158.127835 97.195428 159.029623 
C 97.195428 159.931411 97.553712 160.796386 98.191372 161.434046 
C 98.829033 162.071707 99.694007 162.429991 100.595795 162.429991 
z
" style="fill:#d62728;stroke:#ffffff;stroke-width:0.525357;"/>
    <path clip-path="url(#pdb69c00d56)" d="M 141.177614 231.610006 
C 142.115248 231.610006 143.014606 231.23748 143.677614 230.574472 
C 144.340621 229.911465 144.713148 229.012107 144.713148 228.074472 
C 144.713148 227.136838 144.340621 226.23748 143.677614 225.574472 
C 143.014606 224.911465 142.115248 224.538939 141.177614 224.538939 
C 140.239979 224.538939 139.340621 224.911465 138.677614 225.574472 
C 138.014606 226.23748 137.64208 227.136838 137.64208 228.074472 
C 137.64208 229.012107 138.014606 229.911465 138.677614 230.574472 
C 139.340621 231.23748 140.239979 231.610006 141.177614 231.610006 
z
" style="fill:#2ca02c;stroke:#ffffff;stroke-width:0.525357;"/>
    <path clip-path="url(#pdb69c00d56)" d="M 141.177614 200.923407 
C 142.115248 200.923407 143.014606 200.550881 143.677614 199.887873 
C 144.340621 199.224865 144.713148 198.325507 144.713148 197.387873 
C 144.713148 196.450238 144.340621 195.550881 143.677614 194.887873 
C 143.014606 194.224865 142.115248 193.852339 141.177614 193.852339 
C 140.239979 193.852339 139.340621 194.224865 138.677614 194.887873 
C 138.014606 195.550881 137.64208 196.450238 137.64208 197.387873 
C 137.64208 198.325507 138.014606 199.224865 138.677614 199.887873 
C 139.340621 200.550881 140.239979 200.923407 141.177614 200.923407 
z
" style="fill:#1f77b4;stroke:#ffffff;stroke-width:0.525357;"/>
    <path clip-path="url(#pdb69c00d56)" d="M 141.177614 172.428707 
C 142.115248 172.428707 143.014606 172.056181 143.677614 171.393173 
C 144.340621 170.730165 144.713148 169.830808 144.713148 168.893173 
C 144.713148 167.955539 144.340621 167.056181 143.677614 166.393173 
C 143.014606 165.730165 142.115248 165.357639 141.177614 165.357639 
C 140.239979 165.357639 139.340621 165.730165 138.677614 166.393173 
C 138.014606 167.056181 137.64208 167.955539 137.64208 168.893173 
C 137.64208 169.830808 138.014606 170.730165 138.677614 171.393173 
C 139.340621 172.056181 140.239979 172.428707 141.177614 172.428707 
z
" style="fill:#ff7f0e;stroke:#ffffff;stroke-width:0.525357;"/>
    <path clip-path="url(#pdb69c00d56)" d="M 141.177614 188.456976 
C 142.115248 188.456976 143.014606 188.084449 143.677614 187.421442 
C 144.340621 186.758434 144.713148 185.859076 144.713148 184.921442 
C 144.713148 183.983807 144.340621 183.084449 143.677614 182.421442 
C 143.014606 181.758434 142.115248 181.385908 141.177614 181.385908 
C 140.239979 181.385908 139.340621 181.758434 138.677614 182.421442 
C 138.014606 183.084449 137.64208 183.983807 137.64208 184.921442 
C 137.64208 185.859076 138.014606 186.758434 138.677614 187.421442 
C 139.340621 188.084449 140.239979 188.456976 141.177614 188.456976 
z
" style="fill:#d62728;stroke:#ffffff;stroke-width:0.525357;"/>
    <path clip-path="url(#pdb69c00d56)" d="M 181.759432 251.003597 
C 182.753943 251.003597 183.707856 250.608474 184.411082 249.905248 
C 185.114308 249.202022 185.509432 248.248109 185.509432 247.253597 
C 185.509432 246.259086 185.114308 245.305173 184.411082 244.601947 
C 183.707856 243.898721 182.753943 243.503597 181.759432 243.503597 
C 180.76492 243.503597 179.811007 243.898721 179.107781 244.601947 
C 178.404555 245.305173 178.009432 246.259086 178.009432 247.253597 
C 178.009432 248.248109 178.404555 249.202022 179.107781 249.905248 
C 179.811007 250.608474 180.76492 251.003597 181.759432 251.003597 
z
" style="fill:#2ca02c;stroke:#ffffff;stroke-width:0.525357;"/>
    <path clip-path="url(#pdb69c00d56)" d="M 181.759432 231.824472 
C 182.753943 231.824472 183.707856 231.429349 184.411082 230.726123 
C 185.114308 230.022897 185.509432 229.068984 185.509432 228.074472 
C 185.509432 227.079961 185.114308 226.126048 184.411082 225.422822 
C 183.707856 224.719596 182.753943 224.324472 181.759432 224.324472 
C 180.76492 224.324472 179.811007 224.719596 179.107781 225.422822 
C 178.404555 226.126048 178.009432 227.079961 178.009432 228.074472 
C 178.009432 229.068984 178.404555 230.022897 179.107781 230.726123 
C 179.811007 231.429349 180.76492 231.824472 181.759432 231.824472 
z
" style="fill:#1f77b4;stroke:#ffffff;stroke-width:0.525357;"/>
    <path clip-path="url(#pdb69c00d56)" d="M 181.759432 188.671442 
C 182.753943 188.671442 183.707856 188.276318 184.411082 187.573092 
C 185.114308 186.869866 185.509432 185.915953 185.509432 184.921442 
C 185.509432 183.92693 185.114308 182.973017 184.411082 182.269791 
C 183.707856 181.566565 182.753943 181.171442 181.759432 181.171442 
C 180.76492 181.171442 179.811007 181.566565 179.107781 182.269791 
C 178.404555 182.973017 178.009432 183.92693 178.009432 184.921442 
C 178.009432 185.915953 178.404555 186.869866 179.107781 187.573092 
C 179.811007 188.276318 180.76492 188.671442 181.759432 188.671442 
z
" style="fill:#ff7f0e;stroke:#ffffff;stroke-width:0.525357;"/>
    <path clip-path="url(#pdb69c00d56)" d="M 181.759432 215.385223 
C 182.753943 215.385223 183.707856 214.990099 184.411082 214.286873 
C 185.114308 213.583647 185.509432 212.629734 185.509432 211.635223 
C 185.509432 210.640711 185.114308 209.686798 184.411082 208.983572 
C 183.707856 208.280346 182.753943 207.885223 181.759432 207.885223 
C 180.76492 207.885223 179.811007 208.280346 179.107781 208.983572 
C 178.404555 209.686798 178.009432 210.640711 178.009432 211.635223 
C 178.009432 212.629734 178.404555 213.583647 179.107781 214.286873 
C 179.811007 214.990099 180.76492 215.385223 181.759432 215.385223 
z
" style="fill:#d62728;stroke:#ffffff;stroke-width:0.525357;"/>
    <path clip-path="url(#pdb69c00d56)" d="M 222.34125 265.247129 
C 223.410318 265.247129 224.435743 264.822384 225.191689 264.066439 
C 225.947634 263.310493 226.372379 262.285068 226.372379 261.216 
C 226.372379 260.146932 225.947634 259.121507 225.191689 258.365561 
C 224.435743 257.609616 223.410318 257.184871 222.34125 257.184871 
C 221.272182 257.184871 220.246757 257.609616 219.490811 258.365561 
C 218.734866 259.121507 218.310121 260.146932 218.310121 261.216 
C 218.310121 262.285068 218.734866 263.310493 219.490811 264.066439 
C 220.246757 264.822384 221.272182 265.247129 222.34125 265.247129 
z
" style="fill:#2ca02c;stroke:#ffffff;stroke-width:0.525357;"/>
    <path clip-path="url(#pdb69c00d56)" d="M 222.34125 253.909238 
C 223.410318 253.909238 224.435743 253.484493 225.191689 252.728548 
C 225.947634 251.972602 226.372379 250.947177 226.372379 249.878109 
C 226.372379 248.809041 225.947634 247.783616 225.191689 247.02767 
C 224.435743 246.271725 223.410318 245.84698 222.34125 245.84698 
C 221.272182 245.84698 220.246757 246.271725 219.490811 247.02767 
C 218.734866 247.783616 218.310121 248.809041 218.310121 249.878109 
C 218.310121 250.947177 218.734866 251.972602 219.490811 252.728548 
C 220.246757 253.484493 221.272182 253.909238 222.34125 253.909238 
z
" style="fill:#1f77b4;stroke:#ffffff;stroke-width:0.525357;"/>
    <path clip-path="url(#pdb69c00d56)" d="M 222.34125 201.419002 
C 223.410318 201.419002 224.435743 200.994256 225.191689 200.238311 
C 225.947634 199.482366 226.372379 198.456941 226.372379 197.387873 
C 226.372379 196.318805 225.947634 195.293379 225.191689 194.537434 
C 224.435743 193.781489 223.410318 193.356744 222.34125 193.356744 
C 221.272182 193.356744 220.246757 193.781489 219.490811 194.537434 
C 218.734866 195.293379 218.310121 196.318805 218.310121 197.387873 
C 218.310121 198.456941 218.734866 199.482366 219.490811 200.238311 
C 220.246757 200.994256 221.272182 201.419002 222.34125 201.419002 
z
" style="fill:#ff7f0e;stroke:#ffffff;stroke-width:0.525357;"/>
    <path clip-path="url(#pdb69c00d56)" d="M 222.34125 237.037376 
C 223.410318 237.037376 224.435743 236.612631 225.191689 235.856686 
C 225.947634 235.100741 226.372379 234.075315 226.372379 233.006247 
C 226.372379 231.937179 225.947634 230.911754 225.191689 230.155809 
C 224.435743 229.399864 223.410318 228.975118 222.34125 228.975118 
C 221.272182 228.975118 220.246757 229.399864 219.490811 230.155809 
C 218.734866 230.911754 218.310121 231.937179 218.310121 233.006247 
C 218.310121 234.075315 218.734866 235.100741 219.490811 235.856686 
C 220.246757 236.612631 221.272182 237.037376 222.34125 237.037376 
z
" style="fill:#d62728;stroke:#ffffff;stroke-width:0.525357;"/>
    <path clip-path="url(#pdb69c00d56)" d="M 262.923068 256.116972 
C 264.071431 256.116972 265.172915 255.660722 265.98493 254.848707 
C 266.796946 254.036692 267.253195 252.935208 267.253195 251.786845 
C 267.253195 250.638482 266.796946 249.536998 265.98493 248.724983 
C 265.172915 247.912967 264.071431 247.456718 262.923068 247.456718 
C 261.774705 247.456718 260.673221 247.912967 259.861206 248.724983 
C 259.049191 249.536998 258.592941 250.638482 258.592941 251.786845 
C 258.592941 252.935208 259.049191 254.036692 259.861206 254.848707 
C 260.673221 255.660722 261.774705 256.116972 262.923068 256.116972 
z
" style="fill:#2ca02c;stroke:#ffffff;stroke-width:0.525357;"/>
    <path clip-path="url(#pdb69c00d56)" d="M 262.923068 246.043088 
C 264.071431 246.043088 265.172915 245.586839 265.98493 244.774823 
C 266.796946 243.962808 267.253195 242.861324 267.253195 241.712961 
C 267.253195 240.564598 266.796946 239.463114 265.98493 238.651099 
C 265.172915 237.839084 264.071431 237.382834 262.923068 237.382834 
C 261.774705 237.382834 260.673221 237.839084 259.861206 238.651099 
C 259.049191 239.463114 258.592941 240.564598 258.592941 241.712961 
C 258.592941 242.861324 259.049191 243.962808 259.861206 244.774823 
C 260.673221 245.586839 261.774705 246.043088 262.923068 246.043088 
z
" style="fill:#1f77b4;stroke:#ffffff;stroke-width:0.525357;"/>
    <path clip-path="url(#pdb69c00d56)" d="M 262.923068 165.452018 
C 264.071431 165.452018 265.172915 164.995769 265.98493 164.183754 
C 266.796946 163.371738 267.253195 162.270255 267.253195 161.121891 
C 267.253195 159.973528 266.796946 158.872045 265.98493 158.060029 
C 265.172915 157.248014 264.071431 156.791764 262.923068 156.791764 
C 261.774705 156.791764 260.673221 157.248014 259.861206 158.060029 
C 259.049191 158.872045 258.592941 159.973528 258.592941 161.121891 
C 258.592941 162.270255 259.049191 163.371738 259.861206 164.183754 
C 260.673221 164.995769 261.774705 165.452018 262.923068 165.452018 
z
" style="fill:#ff7f0e;stroke:#ffffff;stroke-width:0.525357;"/>
    <path clip-path="url(#pdb69c00d56)" d="M 262.923068 222.714094 
C 264.071431 222.714094 265.172915 222.257845 265.98493 221.445829 
C 266.796946 220.633814 267.253195 219.53233 267.253195 218.383967 
C 267.253195 217.235604 266.796946 216.13412 265.98493 215.322105 
C 265.172915 214.51009 264.071431 214.05384 262.923068 214.05384 
C 261.774705 214.05384 260.673221 214.51009 259.861206 215.322105 
C 259.049191 216.13412 258.592941 217.235604 258.592941 218.383967 
C 258.592941 219.53233 259.049191 220.633814 259.861206 221.445829 
C 260.673221 222.257845 261.774705 222.714094 262.923068 222.714094 
z
" style="fill:#d62728;stroke:#ffffff;stroke-width:0.525357;"/>
    <path clip-path="url(#pdb69c00d56)" d="M 303.504886 208.780053 
C 304.762855 208.780053 305.96947 208.280256 306.858988 207.390738 
C 307.748507 206.50122 308.248303 205.294605 308.248303 204.036636 
C 308.248303 202.778667 307.748507 201.572052 306.858988 200.682534 
C 305.96947 199.793016 304.762855 199.29322 303.504886 199.29322 
C 302.246918 199.29322 301.040303 199.793016 300.150784 200.682534 
C 299.261266 201.572052 298.76147 202.778667 298.76147 204.036636 
C 298.76147 205.294605 299.261266 206.50122 300.150784 207.390738 
C 301.040303 208.280256 302.246918 208.780053 303.504886 208.780053 
z
" style="fill:#2ca02c;stroke:#ffffff;stroke-width:0.525357;"/>
    <path clip-path="url(#pdb69c00d56)" d="M 303.504886 194.459639 
C 304.762855 194.459639 305.96947 193.959843 306.858988 193.070325 
C 307.748507 192.180807 308.248303 190.974192 308.248303 189.716223 
C 308.248303 188.458254 307.748507 187.251639 306.858988 186.362121 
C 305.96947 185.472603 304.762855 184.972806 303.504886 184.972806 
C 302.246918 184.972806 301.040303 185.472603 300.150784 186.362121 
C 299.261266 187.251639 298.76147 188.458254 298.76147 189.716223 
C 298.76147 190.974192 299.261266 192.180807 300.150784 193.070325 
C 301.040303 193.959843 302.246918 194.459639 303.504886 194.459639 
z
" style="fill:#1f77b4;stroke:#ffffff;stroke-width:0.525357;"/>
    <path clip-path="url(#pdb69c00d56)" d="M 303.504886 92.426696 
C 304.762855 92.426696 305.96947 91.926899 306.858988 91.037381 
C 307.748507 90.147863 308.248303 88.941248 308.248303 87.683279 
C 308.248303 86.42531 307.748507 85.218695 306.858988 84.329177 
C 305.96947 83.439659 304.762855 82.939863 303.504886 82.939863 
C 302.246918 82.939863 301.040303 83.439659 300.150784 84.329177 
C 299.261266 85.218695 298.76147 86.42531 298.76147 87.683279 
C 298.76147 88.941248 299.261266 90.147863 300.150784 91.037381 
C 301.040303 91.926899 302.246918 92.426696 303.504886 92.426696 
z
" style="fill:#ff7f0e;stroke:#ffffff;stroke-width:0.525357;"/>
    <path clip-path="url(#pdb69c00d56)" d="M 303.504886 159.872201 
C 304.762855 159.872201 305.96947 159.372405 306.858988 158.482886 
C 307.748507 157.593368 308.248303 156.386753 308.248303 155.128784 
C 308.248303 153.870816 307.748507 152.664201 306.858988 151.774682 
C 305.96947 150.885164 304.762855 150.385368 303.504886 150.385368 
C 302.246918 150.385368 301.040303 150.885164 300.150784 151.774682 
C 299.261266 152.664201 298.76147 153.870816 298.76147 155.128784 
C 298.76147 156.386753 299.261266 157.593368 300.150784 158.482886 
C 301.040303 159.372405 302.246918 159.872201 303.504886 159.872201 
z
" style="fill:#d62728;stroke:#ffffff;stroke-width:0.525357;"/>
   </g>
   <g id="PathCollection_2"/>
   <g id="PathCollection_3"/>
   <g id="PathCollection_4"/>
   <g id="PathCollection_5"/>
   <g id="PathCollection_6"/>
   <g id="PathCollection_7"/>
   <g id="PathCollection_8"/>
   <g id="PathCollection_9"/>
   <g id="PathCollection_10"/>
   <g id="PathCollection_11"/>
   <g id="matplotlib.axis_1">
    <g id="xtick_1">
     <g id="line2d_1">
      <defs>
       <path d="M 0 0 
L 0 3.5 
" id="m2c8e5219d3" style="stroke:#000000;stroke-width:0.8;"/>
      </defs>
      <g>
       <use style="stroke:#000000;stroke-width:0.8;" x="60.013977" xlink:href="#m2c8e5219d3" y="273.312"/>
      </g>
     </g>
     <g id="text_1">
      <!-- 20 -->
      <g transform="translate(53.651477 287.910437)scale(0.1 -0.1)">
       <defs>
        <path d="M 19.1875 8.296875 
L 53.609375 8.296875 
L 53.609375 0 
L 7.328125 0 
L 7.328125 8.296875 
Q 12.9375 14.109375 22.625 23.890625 
Q 32.328125 33.6875 34.8125 36.53125 
Q 39.546875 41.84375 41.421875 45.53125 
Q 43.3125 49.21875 43.3125 52.78125 
Q 43.3125 58.59375 39.234375 62.25 
Q 35.15625 65.921875 28.609375 65.921875 
Q 23.96875 65.921875 18.8125 64.3125 
Q 13.671875 62.703125 7.8125 59.421875 
L 7.8125 69.390625 
Q 13.765625 71.78125 18.9375 73 
Q 24.125 74.21875 28.421875 74.21875 
Q 39.75 74.21875 46.484375 68.546875 
Q 53.21875 62.890625 53.21875 53.421875 
Q 53.21875 48.921875 51.53125 44.890625 
Q 49.859375 40.875 45.40625 35.40625 
Q 44.1875 33.984375 37.640625 27.21875 
Q 31.109375 20.453125 19.1875 8.296875 
z
" id="DejaVuSans-50"/>
        <path d="M 31.78125 66.40625 
Q 24.171875 66.40625 20.328125 58.90625 
Q 16.5 51.421875 16.5 36.375 
Q 16.5 21.390625 20.328125 13.890625 
Q 24.171875 6.390625 31.78125 6.390625 
Q 39.453125 6.390625 43.28125 13.890625 
Q 47.125 21.390625 47.125 36.375 
Q 47.125 51.421875 43.28125 58.90625 
Q 39.453125 66.40625 31.78125 66.40625 
z
M 31.78125 74.21875 
Q 44.046875 74.21875 50.515625 64.515625 
Q 56.984375 54.828125 56.984375 36.375 
Q 56.984375 17.96875 50.515625 8.265625 
Q 44.046875 -1.421875 31.78125 -1.421875 
Q 19.53125 -1.421875 13.0625 8.265625 
Q 6.59375 17.96875 6.59375 36.375 
Q 6.59375 54.828125 13.0625 64.515625 
Q 19.53125 74.21875 31.78125 74.21875 
z
" id="DejaVuSans-48"/>
       </defs>
       <use xlink:href="#DejaVuSans-50"/>
       <use x="63.623047" xlink:href="#DejaVuSans-48"/>
      </g>
     </g>
    </g>
    <g id="xtick_2">
     <g id="line2d_2">
      <g>
       <use style="stroke:#000000;stroke-width:0.8;" x="100.595795" xlink:href="#m2c8e5219d3" y="273.312"/>
      </g>
     </g>
     <g id="text_2">
      <!-- 30 -->
      <g transform="translate(94.233295 287.910437)scale(0.1 -0.1)">
       <defs>
        <path d="M 40.578125 39.3125 
Q 47.65625 37.796875 51.625 33 
Q 55.609375 28.21875 55.609375 21.1875 
Q 55.609375 10.40625 48.1875 4.484375 
Q 40.765625 -1.421875 27.09375 -1.421875 
Q 22.515625 -1.421875 17.65625 -0.515625 
Q 12.796875 0.390625 7.625 2.203125 
L 7.625 11.71875 
Q 11.71875 9.328125 16.59375 8.109375 
Q 21.484375 6.890625 26.8125 6.890625 
Q 36.078125 6.890625 40.9375 10.546875 
Q 45.796875 14.203125 45.796875 21.1875 
Q 45.796875 27.640625 41.28125 31.265625 
Q 36.765625 34.90625 28.71875 34.90625 
L 20.21875 34.90625 
L 20.21875 43.015625 
L 29.109375 43.015625 
Q 36.375 43.015625 40.234375 45.921875 
Q 44.09375 48.828125 44.09375 54.296875 
Q 44.09375 59.90625 40.109375 62.90625 
Q 36.140625 65.921875 28.71875 65.921875 
Q 24.65625 65.921875 20.015625 65.03125 
Q 15.375 64.15625 9.8125 62.3125 
L 9.8125 71.09375 
Q 15.4375 72.65625 20.34375 73.4375 
Q 25.25 74.21875 29.59375 74.21875 
Q 40.828125 74.21875 47.359375 69.109375 
Q 53.90625 64.015625 53.90625 55.328125 
Q 53.90625 49.265625 50.4375 45.09375 
Q 46.96875 40.921875 40.578125 39.3125 
z
" id="DejaVuSans-51"/>
       </defs>
       <use xlink:href="#DejaVuSans-51"/>
       <use x="63.623047" xlink:href="#DejaVuSans-48"/>
      </g>
     </g>
    </g>
    <g id="xtick_3">
     <g id="line2d_3">
      <g>
       <use style="stroke:#000000;stroke-width:0.8;" x="141.177614" xlink:href="#m2c8e5219d3" y="273.312"/>
      </g>
     </g>
     <g id="text_3">
      <!-- 40 -->
      <g transform="translate(134.815114 287.910437)scale(0.1 -0.1)">
       <defs>
        <path d="M 37.796875 64.3125 
L 12.890625 25.390625 
L 37.796875 25.390625 
z
M 35.203125 72.90625 
L 47.609375 72.90625 
L 47.609375 25.390625 
L 58.015625 25.390625 
L 58.015625 17.1875 
L 47.609375 17.1875 
L 47.609375 0 
L 37.796875 0 
L 37.796875 17.1875 
L 4.890625 17.1875 
L 4.890625 26.703125 
z
" id="DejaVuSans-52"/>
       </defs>
       <use xlink:href="#DejaVuSans-52"/>
       <use x="63.623047" xlink:href="#DejaVuSans-48"/>
      </g>
     </g>
    </g>
    <g id="xtick_4">
     <g id="line2d_4">
      <g>
       <use style="stroke:#000000;stroke-width:0.8;" x="181.759432" xlink:href="#m2c8e5219d3" y="273.312"/>
      </g>
     </g>
     <g id="text_4">
      <!-- 50 -->
      <g transform="translate(175.396932 287.910437)scale(0.1 -0.1)">
       <defs>
        <path d="M 10.796875 72.90625 
L 49.515625 72.90625 
L 49.515625 64.59375 
L 19.828125 64.59375 
L 19.828125 46.734375 
Q 21.96875 47.46875 24.109375 47.828125 
Q 26.265625 48.1875 28.421875 48.1875 
Q 40.625 48.1875 47.75 41.5 
Q 54.890625 34.8125 54.890625 23.390625 
Q 54.890625 11.625 47.5625 5.09375 
Q 40.234375 -1.421875 26.90625 -1.421875 
Q 22.3125 -1.421875 17.546875 -0.640625 
Q 12.796875 0.140625 7.71875 1.703125 
L 7.71875 11.625 
Q 12.109375 9.234375 16.796875 8.0625 
Q 21.484375 6.890625 26.703125 6.890625 
Q 35.15625 6.890625 40.078125 11.328125 
Q 45.015625 15.765625 45.015625 23.390625 
Q 45.015625 31 40.078125 35.4375 
Q 35.15625 39.890625 26.703125 39.890625 
Q 22.75 39.890625 18.8125 39.015625 
Q 14.890625 38.140625 10.796875 36.28125 
z
" id="DejaVuSans-53"/>
       </defs>
       <use xlink:href="#DejaVuSans-53"/>
       <use x="63.623047" xlink:href="#DejaVuSans-48"/>
      </g>
     </g>
    </g>
    <g id="xtick_5">
     <g id="line2d_5">
      <g>
       <use style="stroke:#000000;stroke-width:0.8;" x="222.34125" xlink:href="#m2c8e5219d3" y="273.312"/>
      </g>
     </g>
     <g id="text_5">
      <!-- 70 -->
      <g transform="translate(215.97875 287.910437)scale(0.1 -0.1)">
       <defs>
        <path d="M 8.203125 72.90625 
L 55.078125 72.90625 
L 55.078125 68.703125 
L 28.609375 0 
L 18.3125 0 
L 43.21875 64.59375 
L 8.203125 64.59375 
z
" id="DejaVuSans-55"/>
       </defs>
       <use xlink:href="#DejaVuSans-55"/>
       <use x="63.623047" xlink:href="#DejaVuSans-48"/>
      </g>
     </g>
    </g>
    <g id="xtick_6">
     <g id="line2d_6">
      <g>
       <use style="stroke:#000000;stroke-width:0.8;" x="262.923068" xlink:href="#m2c8e5219d3" y="273.312"/>
      </g>
     </g>
     <g id="text_6">
      <!-- 100 -->
      <g transform="translate(253.379318 287.910437)scale(0.1 -0.1)">
       <defs>
        <path d="M 12.40625 8.296875 
L 28.515625 8.296875 
L 28.515625 63.921875 
L 10.984375 60.40625 
L 10.984375 69.390625 
L 28.421875 72.90625 
L 38.28125 72.90625 
L 38.28125 8.296875 
L 54.390625 8.296875 
L 54.390625 0 
L 12.40625 0 
z
" id="DejaVuSans-49"/>
       </defs>
       <use xlink:href="#DejaVuSans-49"/>
       <use x="63.623047" xlink:href="#DejaVuSans-48"/>
       <use x="127.246094" xlink:href="#DejaVuSans-48"/>
      </g>
     </g>
    </g>
    <g id="xtick_7">
     <g id="line2d_7">
      <g>
       <use style="stroke:#000000;stroke-width:0.8;" x="303.504886" xlink:href="#m2c8e5219d3" y="273.312"/>
      </g>
     </g>
     <g id="text_7">
      <!-- 150 -->
      <g transform="translate(293.961136 287.910437)scale(0.1 -0.1)">
       <use xlink:href="#DejaVuSans-49"/>
       <use x="63.623047" xlink:href="#DejaVuSans-53"/>
       <use x="127.246094" xlink:href="#DejaVuSans-48"/>
      </g>
     </g>
    </g>
    <g id="xtick_8">
     <g id="line2d_8">
      <g>
       <use style="stroke:#000000;stroke-width:0.8;" x="344.086705" xlink:href="#m2c8e5219d3" y="273.312"/>
      </g>
     </g>
     <g id="text_8">
      <!-- 200 -->
      <g transform="translate(334.542955 287.910437)scale(0.1 -0.1)">
       <use xlink:href="#DejaVuSans-50"/>
       <use x="63.623047" xlink:href="#DejaVuSans-48"/>
       <use x="127.246094" xlink:href="#DejaVuSans-48"/>
      </g>
     </g>
    </g>
    <g id="xtick_9">
     <g id="line2d_9">
      <g>
       <use style="stroke:#000000;stroke-width:0.8;" x="384.668523" xlink:href="#m2c8e5219d3" y="273.312"/>
      </g>
     </g>
     <g id="text_9">
      <!-- 200&lt; -->
      <g transform="translate(370.934929 287.910437)scale(0.1 -0.1)">
       <defs>
        <path d="M 73.1875 49.21875 
L 22.796875 31.296875 
L 73.1875 13.484375 
L 73.1875 4.59375 
L 10.59375 27.296875 
L 10.59375 35.40625 
L 73.1875 58.109375 
z
" id="DejaVuSans-60"/>
       </defs>
       <use xlink:href="#DejaVuSans-50"/>
       <use x="63.623047" xlink:href="#DejaVuSans-48"/>
       <use x="127.246094" xlink:href="#DejaVuSans-48"/>
       <use x="190.869141" xlink:href="#DejaVuSans-60"/>
      </g>
     </g>
    </g>
    <g id="text_10">
     <!-- nrows -->
     <g transform="translate(207.476406 301.588562)scale(0.1 -0.1)">
      <defs>
       <path d="M 54.890625 33.015625 
L 54.890625 0 
L 45.90625 0 
L 45.90625 32.71875 
Q 45.90625 40.484375 42.875 44.328125 
Q 39.84375 48.1875 33.796875 48.1875 
Q 26.515625 48.1875 22.3125 43.546875 
Q 18.109375 38.921875 18.109375 30.90625 
L 18.109375 0 
L 9.078125 0 
L 9.078125 54.6875 
L 18.109375 54.6875 
L 18.109375 46.1875 
Q 21.34375 51.125 25.703125 53.5625 
Q 30.078125 56 35.796875 56 
Q 45.21875 56 50.046875 50.171875 
Q 54.890625 44.34375 54.890625 33.015625 
z
" id="DejaVuSans-110"/>
       <path d="M 41.109375 46.296875 
Q 39.59375 47.171875 37.8125 47.578125 
Q 36.03125 48 33.890625 48 
Q 26.265625 48 22.1875 43.046875 
Q 18.109375 38.09375 18.109375 28.8125 
L 18.109375 0 
L 9.078125 0 
L 9.078125 54.6875 
L 18.109375 54.6875 
L 18.109375 46.1875 
Q 20.953125 51.171875 25.484375 53.578125 
Q 30.03125 56 36.53125 56 
Q 37.453125 56 38.578125 55.875 
Q 39.703125 55.765625 41.0625 55.515625 
z
" id="DejaVuSans-114"/>
       <path d="M 30.609375 48.390625 
Q 23.390625 48.390625 19.1875 42.75 
Q 14.984375 37.109375 14.984375 27.296875 
Q 14.984375 17.484375 19.15625 11.84375 
Q 23.34375 6.203125 30.609375 6.203125 
Q 37.796875 6.203125 41.984375 11.859375 
Q 46.1875 17.53125 46.1875 27.296875 
Q 46.1875 37.015625 41.984375 42.703125 
Q 37.796875 48.390625 30.609375 48.390625 
z
M 30.609375 56 
Q 42.328125 56 49.015625 48.375 
Q 55.71875 40.765625 55.71875 27.296875 
Q 55.71875 13.875 49.015625 6.21875 
Q 42.328125 -1.421875 30.609375 -1.421875 
Q 18.84375 -1.421875 12.171875 6.21875 
Q 5.515625 13.875 5.515625 27.296875 
Q 5.515625 40.765625 12.171875 48.375 
Q 18.84375 56 30.609375 56 
z
" id="DejaVuSans-111"/>
       <path d="M 4.203125 54.6875 
L 13.1875 54.6875 
L 24.421875 12.015625 
L 35.59375 54.6875 
L 46.1875 54.6875 
L 57.421875 12.015625 
L 68.609375 54.6875 
L 77.59375 54.6875 
L 63.28125 0 
L 52.6875 0 
L 40.921875 44.828125 
L 29.109375 0 
L 18.5 0 
z
" id="DejaVuSans-119"/>
       <path d="M 44.28125 53.078125 
L 44.28125 44.578125 
Q 40.484375 46.53125 36.375 47.5 
Q 32.28125 48.484375 27.875 48.484375 
Q 21.1875 48.484375 17.84375 46.4375 
Q 14.5 44.390625 14.5 40.28125 
Q 14.5 37.15625 16.890625 35.375 
Q 19.28125 33.59375 26.515625 31.984375 
L 29.59375 31.296875 
Q 39.15625 29.25 43.1875 25.515625 
Q 47.21875 21.78125 47.21875 15.09375 
Q 47.21875 7.46875 41.1875 3.015625 
Q 35.15625 -1.421875 24.609375 -1.421875 
Q 20.21875 -1.421875 15.453125 -0.5625 
Q 10.6875 0.296875 5.421875 2 
L 5.421875 11.28125 
Q 10.40625 8.6875 15.234375 7.390625 
Q 20.0625 6.109375 24.8125 6.109375 
Q 31.15625 6.109375 34.5625 8.28125 
Q 37.984375 10.453125 37.984375 14.40625 
Q 37.984375 18.0625 35.515625 20.015625 
Q 33.0625 21.96875 24.703125 23.78125 
L 21.578125 24.515625 
Q 13.234375 26.265625 9.515625 29.90625 
Q 5.8125 33.546875 5.8125 39.890625 
Q 5.8125 47.609375 11.28125 51.796875 
Q 16.75 56 26.8125 56 
Q 31.78125 56 36.171875 55.265625 
Q 40.578125 54.546875 44.28125 53.078125 
z
" id="DejaVuSans-115"/>
      </defs>
      <use xlink:href="#DejaVuSans-110"/>
      <use x="63.378906" xlink:href="#DejaVuSans-114"/>
      <use x="102.242188" xlink:href="#DejaVuSans-111"/>
      <use x="163.423828" xlink:href="#DejaVuSans-119"/>
      <use x="245.210938" xlink:href="#DejaVuSans-115"/>
     </g>
    </g>
   </g>
   <g id="matplotlib.axis_2">
    <g id="ytick_1">
     <g id="line2d_10">
      <defs>
       <path d="M 0 0 
L -3.5 0 
" id="mba6df1dcd4" style="stroke:#000000;stroke-width:0.8;"/>
      </defs>
      <g>
       <use style="stroke:#000000;stroke-width:0.8;" x="43.78125" xlink:href="#mba6df1dcd4" y="267.199887"/>
      </g>
     </g>
     <g id="text_11">
      <!-- 0.1 -->
      <g transform="translate(20.878125 270.999106)scale(0.1 -0.1)">
       <defs>
        <path d="M 10.6875 12.40625 
L 21 12.40625 
L 21 0 
L 10.6875 0 
z
" id="DejaVuSans-46"/>
       </defs>
       <use xlink:href="#DejaVuSans-48"/>
       <use x="63.623047" xlink:href="#DejaVuSans-46"/>
       <use x="95.410156" xlink:href="#DejaVuSans-49"/>
      </g>
     </g>
    </g>
    <g id="ytick_2">
     <g id="line2d_11">
      <g>
       <use style="stroke:#000000;stroke-width:0.8;" x="43.78125" xlink:href="#mba6df1dcd4" y="237.280452"/>
      </g>
     </g>
     <g id="text_12">
      <!-- 0.2 -->
      <g transform="translate(20.878125 241.079671)scale(0.1 -0.1)">
       <use xlink:href="#DejaVuSans-48"/>
       <use x="63.623047" xlink:href="#DejaVuSans-46"/>
       <use x="95.410156" xlink:href="#DejaVuSans-50"/>
      </g>
     </g>
    </g>
    <g id="ytick_3">
     <g id="line2d_12">
      <g>
       <use style="stroke:#000000;stroke-width:0.8;" x="43.78125" xlink:href="#mba6df1dcd4" y="207.361018"/>
      </g>
     </g>
     <g id="text_13">
      <!-- 0.3 -->
      <g transform="translate(20.878125 211.160236)scale(0.1 -0.1)">
       <use xlink:href="#DejaVuSans-48"/>
       <use x="63.623047" xlink:href="#DejaVuSans-46"/>
       <use x="95.410156" xlink:href="#DejaVuSans-51"/>
      </g>
     </g>
    </g>
    <g id="ytick_4">
     <g id="line2d_13">
      <g>
       <use style="stroke:#000000;stroke-width:0.8;" x="43.78125" xlink:href="#mba6df1dcd4" y="177.441583"/>
      </g>
     </g>
     <g id="text_14">
      <!-- 0.4 -->
      <g transform="translate(20.878125 181.240802)scale(0.1 -0.1)">
       <use xlink:href="#DejaVuSans-48"/>
       <use x="63.623047" xlink:href="#DejaVuSans-46"/>
       <use x="95.410156" xlink:href="#DejaVuSans-52"/>
      </g>
     </g>
    </g>
    <g id="ytick_5">
     <g id="line2d_14">
      <g>
       <use style="stroke:#000000;stroke-width:0.8;" x="43.78125" xlink:href="#mba6df1dcd4" y="147.522148"/>
      </g>
     </g>
     <g id="text_15">
      <!-- 0.5 -->
      <g transform="translate(20.878125 151.321367)scale(0.1 -0.1)">
       <use xlink:href="#DejaVuSans-48"/>
       <use x="63.623047" xlink:href="#DejaVuSans-46"/>
       <use x="95.410156" xlink:href="#DejaVuSans-53"/>
      </g>
     </g>
    </g>
    <g id="ytick_6">
     <g id="line2d_15">
      <g>
       <use style="stroke:#000000;stroke-width:0.8;" x="43.78125" xlink:href="#mba6df1dcd4" y="117.602714"/>
      </g>
     </g>
     <g id="text_16">
      <!-- 0.6 -->
      <g transform="translate(20.878125 121.401933)scale(0.1 -0.1)">
       <defs>
        <path d="M 33.015625 40.375 
Q 26.375 40.375 22.484375 35.828125 
Q 18.609375 31.296875 18.609375 23.390625 
Q 18.609375 15.53125 22.484375 10.953125 
Q 26.375 6.390625 33.015625 6.390625 
Q 39.65625 6.390625 43.53125 10.953125 
Q 47.40625 15.53125 47.40625 23.390625 
Q 47.40625 31.296875 43.53125 35.828125 
Q 39.65625 40.375 33.015625 40.375 
z
M 52.59375 71.296875 
L 52.59375 62.3125 
Q 48.875 64.0625 45.09375 64.984375 
Q 41.3125 65.921875 37.59375 65.921875 
Q 27.828125 65.921875 22.671875 59.328125 
Q 17.53125 52.734375 16.796875 39.40625 
Q 19.671875 43.65625 24.015625 45.921875 
Q 28.375 48.1875 33.59375 48.1875 
Q 44.578125 48.1875 50.953125 41.515625 
Q 57.328125 34.859375 57.328125 23.390625 
Q 57.328125 12.15625 50.6875 5.359375 
Q 44.046875 -1.421875 33.015625 -1.421875 
Q 20.359375 -1.421875 13.671875 8.265625 
Q 6.984375 17.96875 6.984375 36.375 
Q 6.984375 53.65625 15.1875 63.9375 
Q 23.390625 74.21875 37.203125 74.21875 
Q 40.921875 74.21875 44.703125 73.484375 
Q 48.484375 72.75 52.59375 71.296875 
z
" id="DejaVuSans-54"/>
       </defs>
       <use xlink:href="#DejaVuSans-48"/>
       <use x="63.623047" xlink:href="#DejaVuSans-46"/>
       <use x="95.410156" xlink:href="#DejaVuSans-54"/>
      </g>
     </g>
    </g>
    <g id="ytick_7">
     <g id="line2d_16">
      <g>
       <use style="stroke:#000000;stroke-width:0.8;" x="43.78125" xlink:href="#mba6df1dcd4" y="87.683279"/>
      </g>
     </g>
     <g id="text_17">
      <!-- 0.7 -->
      <g transform="translate(20.878125 91.482498)scale(0.1 -0.1)">
       <use xlink:href="#DejaVuSans-48"/>
       <use x="63.623047" xlink:href="#DejaVuSans-46"/>
       <use x="95.410156" xlink:href="#DejaVuSans-55"/>
      </g>
     </g>
    </g>
    <g id="ytick_8">
     <g id="line2d_17">
      <g>
       <use style="stroke:#000000;stroke-width:0.8;" x="43.78125" xlink:href="#mba6df1dcd4" y="57.763845"/>
      </g>
     </g>
     <g id="text_18">
      <!-- 0.8 -->
      <g transform="translate(20.878125 61.563063)scale(0.1 -0.1)">
       <defs>
        <path d="M 31.78125 34.625 
Q 24.75 34.625 20.71875 30.859375 
Q 16.703125 27.09375 16.703125 20.515625 
Q 16.703125 13.921875 20.71875 10.15625 
Q 24.75 6.390625 31.78125 6.390625 
Q 38.8125 6.390625 42.859375 10.171875 
Q 46.921875 13.96875 46.921875 20.515625 
Q 46.921875 27.09375 42.890625 30.859375 
Q 38.875 34.625 31.78125 34.625 
z
M 21.921875 38.8125 
Q 15.578125 40.375 12.03125 44.71875 
Q 8.5 49.078125 8.5 55.328125 
Q 8.5 64.0625 14.71875 69.140625 
Q 20.953125 74.21875 31.78125 74.21875 
Q 42.671875 74.21875 48.875 69.140625 
Q 55.078125 64.0625 55.078125 55.328125 
Q 55.078125 49.078125 51.53125 44.71875 
Q 48 40.375 41.703125 38.8125 
Q 48.828125 37.15625 52.796875 32.3125 
Q 56.78125 27.484375 56.78125 20.515625 
Q 56.78125 9.90625 50.3125 4.234375 
Q 43.84375 -1.421875 31.78125 -1.421875 
Q 19.734375 -1.421875 13.25 4.234375 
Q 6.78125 9.90625 6.78125 20.515625 
Q 6.78125 27.484375 10.78125 32.3125 
Q 14.796875 37.15625 21.921875 38.8125 
z
M 18.3125 54.390625 
Q 18.3125 48.734375 21.84375 45.5625 
Q 25.390625 42.390625 31.78125 42.390625 
Q 38.140625 42.390625 41.71875 45.5625 
Q 45.3125 48.734375 45.3125 54.390625 
Q 45.3125 60.0625 41.71875 63.234375 
Q 38.140625 66.40625 31.78125 66.40625 
Q 25.390625 66.40625 21.84375 63.234375 
Q 18.3125 60.0625 18.3125 54.390625 
z
" id="DejaVuSans-56"/>
       </defs>
       <use xlink:href="#DejaVuSans-48"/>
       <use x="63.623047" xlink:href="#DejaVuSans-46"/>
       <use x="95.410156" xlink:href="#DejaVuSans-56"/>
      </g>
     </g>
    </g>
    <g id="ytick_9">
     <g id="line2d_18">
      <g>
       <use style="stroke:#000000;stroke-width:0.8;" x="43.78125" xlink:href="#mba6df1dcd4" y="27.84441"/>
      </g>
     </g>
     <g id="text_19">
      <!-- 0.9 -->
      <g transform="translate(20.878125 31.643629)scale(0.1 -0.1)">
       <defs>
        <path d="M 10.984375 1.515625 
L 10.984375 10.5 
Q 14.703125 8.734375 18.5 7.8125 
Q 22.3125 6.890625 25.984375 6.890625 
Q 35.75 6.890625 40.890625 13.453125 
Q 46.046875 20.015625 46.78125 33.40625 
Q 43.953125 29.203125 39.59375 26.953125 
Q 35.25 24.703125 29.984375 24.703125 
Q 19.046875 24.703125 12.671875 31.3125 
Q 6.296875 37.9375 6.296875 49.421875 
Q 6.296875 60.640625 12.9375 67.421875 
Q 19.578125 74.21875 30.609375 74.21875 
Q 43.265625 74.21875 49.921875 64.515625 
Q 56.59375 54.828125 56.59375 36.375 
Q 56.59375 19.140625 48.40625 8.859375 
Q 40.234375 -1.421875 26.421875 -1.421875 
Q 22.703125 -1.421875 18.890625 -0.6875 
Q 15.09375 0.046875 10.984375 1.515625 
z
M 30.609375 32.421875 
Q 37.25 32.421875 41.125 36.953125 
Q 45.015625 41.5 45.015625 49.421875 
Q 45.015625 57.28125 41.125 61.84375 
Q 37.25 66.40625 30.609375 66.40625 
Q 23.96875 66.40625 20.09375 61.84375 
Q 16.21875 57.28125 16.21875 49.421875 
Q 16.21875 41.5 20.09375 36.953125 
Q 23.96875 32.421875 30.609375 32.421875 
z
" id="DejaVuSans-57"/>
       </defs>
       <use xlink:href="#DejaVuSans-48"/>
       <use x="63.623047" xlink:href="#DejaVuSans-46"/>
       <use x="95.410156" xlink:href="#DejaVuSans-57"/>
      </g>
     </g>
    </g>
    <g id="text_20">
     <!-- score -->
     <g transform="translate(14.798438 153.688812)rotate(-90)scale(0.1 -0.1)">
      <defs>
       <path d="M 48.78125 52.59375 
L 48.78125 44.1875 
Q 44.96875 46.296875 41.140625 47.34375 
Q 37.3125 48.390625 33.40625 48.390625 
Q 24.65625 48.390625 19.8125 42.84375 
Q 14.984375 37.3125 14.984375 27.296875 
Q 14.984375 17.28125 19.8125 11.734375 
Q 24.65625 6.203125 33.40625 6.203125 
Q 37.3125 6.203125 41.140625 7.25 
Q 44.96875 8.296875 48.78125 10.40625 
L 48.78125 2.09375 
Q 45.015625 0.34375 40.984375 -0.53125 
Q 36.96875 -1.421875 32.421875 -1.421875 
Q 20.0625 -1.421875 12.78125 6.34375 
Q 5.515625 14.109375 5.515625 27.296875 
Q 5.515625 40.671875 12.859375 48.328125 
Q 20.21875 56 33.015625 56 
Q 37.15625 56 41.109375 55.140625 
Q 45.0625 54.296875 48.78125 52.59375 
z
" id="DejaVuSans-99"/>
       <path d="M 56.203125 29.59375 
L 56.203125 25.203125 
L 14.890625 25.203125 
Q 15.484375 15.921875 20.484375 11.0625 
Q 25.484375 6.203125 34.421875 6.203125 
Q 39.59375 6.203125 44.453125 7.46875 
Q 49.3125 8.734375 54.109375 11.28125 
L 54.109375 2.78125 
Q 49.265625 0.734375 44.1875 -0.34375 
Q 39.109375 -1.421875 33.890625 -1.421875 
Q 20.796875 -1.421875 13.15625 6.1875 
Q 5.515625 13.8125 5.515625 26.8125 
Q 5.515625 40.234375 12.765625 48.109375 
Q 20.015625 56 32.328125 56 
Q 43.359375 56 49.78125 48.890625 
Q 56.203125 41.796875 56.203125 29.59375 
z
M 47.21875 32.234375 
Q 47.125 39.59375 43.09375 43.984375 
Q 39.0625 48.390625 32.421875 48.390625 
Q 24.90625 48.390625 20.390625 44.140625 
Q 15.875 39.890625 15.1875 32.171875 
z
" id="DejaVuSans-101"/>
      </defs>
      <use xlink:href="#DejaVuSans-115"/>
      <use x="52.099609" xlink:href="#DejaVuSans-99"/>
      <use x="107.080078" xlink:href="#DejaVuSans-111"/>
      <use x="168.261719" xlink:href="#DejaVuSans-114"/>
      <use x="207.125" xlink:href="#DejaVuSans-101"/>
     </g>
    </g>
   </g>
   <g id="line2d_19">
    <path clip-path="url(#pdb69c00d56)" d="M 60.013977 197.387873 
L 100.595795 147.522148 
L 141.177614 197.387873 
L 181.759432 228.074472 
L 222.34125 249.878109 
L 262.923068 241.712961 
L 303.504886 189.716223 
L 344.086705 188.90009 
L 384.668523 162.997718 
" style="fill:none;stroke:#1f77b4;stroke-dasharray:3.7,1.6;stroke-dashoffset:0;"/>
   </g>
   <g id="line2d_20">
    <path clip-path="url(#pdb69c00d56)" d="M 60.013977 197.387873 
L 100.595795 168.893173 
L 141.177614 168.893173 
L 181.759432 184.921442 
L 222.34125 197.387873 
L 262.923068 161.121891 
L 303.504886 87.683279 
L 344.086705 75.975674 
L 384.668523 19.296 
" style="fill:none;stroke:#ff7f0e;stroke-dasharray:1,1.65;stroke-dashoffset:0;"/>
   </g>
   <g id="line2d_21">
    <path clip-path="url(#pdb69c00d56)" d="M 60.013977 237.280452 
L 100.595795 207.361018 
L 141.177614 228.074472 
L 181.759432 247.253597 
L 222.34125 261.216 
L 262.923068 251.786845 
L 303.504886 204.036636 
L 344.086705 201.151324 
L 384.668523 167.468438 
" style="fill:none;stroke:#2ca02c;stroke-dasharray:6.4,1.6,1,1.6;stroke-dashoffset:0;"/>
   </g>
   <g id="line2d_22">
    <path clip-path="url(#pdb69c00d56)" d="M 60.013977 197.387873 
L 100.595795 159.029623 
L 141.177614 184.921442 
L 181.759432 211.635223 
L 222.34125 233.006247 
L 262.923068 218.383967 
L 303.504886 155.128784 
L 344.086705 151.796353 
L 384.668523 116.211112 
" style="fill:none;stroke:#d62728;stroke-linecap:square;"/>
   </g>
   <g id="patch_3">
    <path d="M 43.78125 273.312 
L 43.78125 7.2 
" style="fill:none;stroke:#000000;stroke-linecap:square;stroke-linejoin:miter;stroke-width:0.8;"/>
   </g>
   <g id="patch_4">
    <path d="M 400.90125 273.312 
L 400.90125 7.2 
" style="fill:none;stroke:#000000;stroke-linecap:square;stroke-linejoin:miter;stroke-width:0.8;"/>
   </g>
   <g id="patch_5">
    <path d="M 43.78125 273.312 
L 400.90125 273.312 
" style="fill:none;stroke:#000000;stroke-linecap:square;stroke-linejoin:miter;stroke-width:0.8;"/>
   </g>
   <g id="patch_6">
    <path d="M 43.78125 7.2 
L 400.90125 7.2 
" style="fill:none;stroke:#000000;stroke-linecap:square;stroke-linejoin:miter;stroke-width:0.8;"/>
   </g>
   <g id="legend_1">
    <g id="patch_7">
     <path d="M 48.63925 134.991425 
L 102.159662 134.991425 
Q 103.547663 134.991425 103.547663 133.603425 
L 103.547663 12.058 
Q 103.547663 10.67 102.159662 10.67 
L 48.63925 10.67 
Q 47.25125 10.67 47.25125 12.058 
L 47.25125 133.603425 
Q 47.25125 134.991425 48.63925 134.991425 
z
" style="fill:#ffffff;opacity:0.8;stroke:#cccccc;stroke-linejoin:miter;"/>
    </g>
    <g id="text_21">
     <!-- metric -->
     <g transform="translate(69.45925 18.719316)scale(0.0694 -0.0694)">
      <defs>
       <path d="M 52 44.1875 
Q 55.375 50.25 60.0625 53.125 
Q 64.75 56 71.09375 56 
Q 79.640625 56 84.28125 50.015625 
Q 88.921875 44.046875 88.921875 33.015625 
L 88.921875 0 
L 79.890625 0 
L 79.890625 32.71875 
Q 79.890625 40.578125 77.09375 44.375 
Q 74.3125 48.1875 68.609375 48.1875 
Q 61.625 48.1875 57.5625 43.546875 
Q 53.515625 38.921875 53.515625 30.90625 
L 53.515625 0 
L 44.484375 0 
L 44.484375 32.71875 
Q 44.484375 40.625 41.703125 44.40625 
Q 38.921875 48.1875 33.109375 48.1875 
Q 26.21875 48.1875 22.15625 43.53125 
Q 18.109375 38.875 18.109375 30.90625 
L 18.109375 0 
L 9.078125 0 
L 9.078125 54.6875 
L 18.109375 54.6875 
L 18.109375 46.1875 
Q 21.1875 51.21875 25.484375 53.609375 
Q 29.78125 56 35.6875 56 
Q 41.65625 56 45.828125 52.96875 
Q 50 49.953125 52 44.1875 
z
" id="DejaVuSans-109"/>
       <path d="M 18.3125 70.21875 
L 18.3125 54.6875 
L 36.8125 54.6875 
L 36.8125 47.703125 
L 18.3125 47.703125 
L 18.3125 18.015625 
Q 18.3125 11.328125 20.140625 9.421875 
Q 21.96875 7.515625 27.59375 7.515625 
L 36.8125 7.515625 
L 36.8125 0 
L 27.59375 0 
Q 17.1875 0 13.234375 3.875 
Q 9.28125 7.765625 9.28125 18.015625 
L 9.28125 47.703125 
L 2.6875 47.703125 
L 2.6875 54.6875 
L 9.28125 54.6875 
L 9.28125 70.21875 
z
" id="DejaVuSans-116"/>
       <path d="M 9.421875 54.6875 
L 18.40625 54.6875 
L 18.40625 0 
L 9.421875 0 
z
M 9.421875 75.984375 
L 18.40625 75.984375 
L 18.40625 64.59375 
L 9.421875 64.59375 
z
" id="DejaVuSans-105"/>
      </defs>
      <use xlink:href="#DejaVuSans-109"/>
      <use x="97.412109" xlink:href="#DejaVuSans-101"/>
      <use x="158.935547" xlink:href="#DejaVuSans-116"/>
      <use x="198.144531" xlink:href="#DejaVuSans-114"/>
      <use x="239.257812" xlink:href="#DejaVuSans-105"/>
      <use x="267.041016" xlink:href="#DejaVuSans-99"/>
     </g>
    </g>
    <g id="PathCollection_12">
     <defs>
      <path d="M 0 3 
C 0.795609 3 1.55874 2.683901 2.12132 2.12132 
C 2.683901 1.55874 3 0.795609 3 0 
C 3 -0.795609 2.683901 -1.55874 2.12132 -2.12132 
C 1.55874 -2.683901 0.795609 -3 0 -3 
C -0.795609 -3 -1.55874 -2.683901 -2.12132 -2.12132 
C -2.683901 -1.55874 -3 -0.795609 -3 0 
C -3 0.795609 -2.683901 1.55874 -2.12132 2.12132 
C -1.55874 2.683901 -0.795609 3 0 3 
z
" id="mbf94ae2fcc" style="stroke:#1f77b4;"/>
     </defs>
     <g>
      <use style="fill:#1f77b4;stroke:#1f77b4;" x="56.96725" xlink:href="#mbf94ae2fcc" y="27.084184"/>
     </g>
    </g>
    <g id="text_22">
     <!-- precision -->
     <g transform="translate(69.45925 28.905934)scale(0.0694 -0.0694)">
      <defs>
       <path d="M 18.109375 8.203125 
L 18.109375 -20.796875 
L 9.078125 -20.796875 
L 9.078125 54.6875 
L 18.109375 54.6875 
L 18.109375 46.390625 
Q 20.953125 51.265625 25.265625 53.625 
Q 29.59375 56 35.59375 56 
Q 45.5625 56 51.78125 48.09375 
Q 58.015625 40.1875 58.015625 27.296875 
Q 58.015625 14.40625 51.78125 6.484375 
Q 45.5625 -1.421875 35.59375 -1.421875 
Q 29.59375 -1.421875 25.265625 0.953125 
Q 20.953125 3.328125 18.109375 8.203125 
z
M 48.6875 27.296875 
Q 48.6875 37.203125 44.609375 42.84375 
Q 40.53125 48.484375 33.40625 48.484375 
Q 26.265625 48.484375 22.1875 42.84375 
Q 18.109375 37.203125 18.109375 27.296875 
Q 18.109375 17.390625 22.1875 11.75 
Q 26.265625 6.109375 33.40625 6.109375 
Q 40.53125 6.109375 44.609375 11.75 
Q 48.6875 17.390625 48.6875 27.296875 
z
" id="DejaVuSans-112"/>
      </defs>
      <use xlink:href="#DejaVuSans-112"/>
      <use x="63.476562" xlink:href="#DejaVuSans-114"/>
      <use x="102.339844" xlink:href="#DejaVuSans-101"/>
      <use x="163.863281" xlink:href="#DejaVuSans-99"/>
      <use x="218.84375" xlink:href="#DejaVuSans-105"/>
      <use x="246.626953" xlink:href="#DejaVuSans-115"/>
      <use x="298.726562" xlink:href="#DejaVuSans-105"/>
      <use x="326.509766" xlink:href="#DejaVuSans-111"/>
      <use x="387.691406" xlink:href="#DejaVuSans-110"/>
     </g>
    </g>
    <g id="PathCollection_13">
     <defs>
      <path d="M 0 3 
C 0.795609 3 1.55874 2.683901 2.12132 2.12132 
C 2.683901 1.55874 3 0.795609 3 0 
C 3 -0.795609 2.683901 -1.55874 2.12132 -2.12132 
C 1.55874 -2.683901 0.795609 -3 0 -3 
C -0.795609 -3 -1.55874 -2.683901 -2.12132 -2.12132 
C -2.683901 -1.55874 -3 -0.795609 -3 0 
C -3 0.795609 -2.683901 1.55874 -2.12132 2.12132 
C -1.55874 2.683901 -0.795609 3 0 3 
z
" id="m8c79996953" style="stroke:#ff7f0e;"/>
     </defs>
     <g>
      <use style="fill:#ff7f0e;stroke:#ff7f0e;" x="56.96725" xlink:href="#m8c79996953" y="37.270803"/>
     </g>
    </g>
    <g id="text_23">
     <!-- recall -->
     <g transform="translate(69.45925 39.092553)scale(0.0694 -0.0694)">
      <defs>
       <path d="M 34.28125 27.484375 
Q 23.390625 27.484375 19.1875 25 
Q 14.984375 22.515625 14.984375 16.5 
Q 14.984375 11.71875 18.140625 8.90625 
Q 21.296875 6.109375 26.703125 6.109375 
Q 34.1875 6.109375 38.703125 11.40625 
Q 43.21875 16.703125 43.21875 25.484375 
L 43.21875 27.484375 
z
M 52.203125 31.203125 
L 52.203125 0 
L 43.21875 0 
L 43.21875 8.296875 
Q 40.140625 3.328125 35.546875 0.953125 
Q 30.953125 -1.421875 24.3125 -1.421875 
Q 15.921875 -1.421875 10.953125 3.296875 
Q 6 8.015625 6 15.921875 
Q 6 25.140625 12.171875 29.828125 
Q 18.359375 34.515625 30.609375 34.515625 
L 43.21875 34.515625 
L 43.21875 35.40625 
Q 43.21875 41.609375 39.140625 45 
Q 35.0625 48.390625 27.6875 48.390625 
Q 23 48.390625 18.546875 47.265625 
Q 14.109375 46.140625 10.015625 43.890625 
L 10.015625 52.203125 
Q 14.9375 54.109375 19.578125 55.046875 
Q 24.21875 56 28.609375 56 
Q 40.484375 56 46.34375 49.84375 
Q 52.203125 43.703125 52.203125 31.203125 
z
" id="DejaVuSans-97"/>
       <path d="M 9.421875 75.984375 
L 18.40625 75.984375 
L 18.40625 0 
L 9.421875 0 
z
" id="DejaVuSans-108"/>
      </defs>
      <use xlink:href="#DejaVuSans-114"/>
      <use x="38.863281" xlink:href="#DejaVuSans-101"/>
      <use x="100.386719" xlink:href="#DejaVuSans-99"/>
      <use x="155.367188" xlink:href="#DejaVuSans-97"/>
      <use x="216.646484" xlink:href="#DejaVuSans-108"/>
      <use x="244.429688" xlink:href="#DejaVuSans-108"/>
     </g>
    </g>
    <g id="PathCollection_14">
     <defs>
      <path d="M 0 3 
C 0.795609 3 1.55874 2.683901 2.12132 2.12132 
C 2.683901 1.55874 3 0.795609 3 0 
C 3 -0.795609 2.683901 -1.55874 2.12132 -2.12132 
C 1.55874 -2.683901 0.795609 -3 0 -3 
C -0.795609 -3 -1.55874 -2.683901 -2.12132 -2.12132 
C -2.683901 -1.55874 -3 -0.795609 -3 0 
C -3 0.795609 -2.683901 1.55874 -2.12132 2.12132 
C -1.55874 2.683901 -0.795609 3 0 3 
z
" id="m6f35c21b80" style="stroke:#2ca02c;"/>
     </defs>
     <g>
      <use style="fill:#2ca02c;stroke:#2ca02c;" x="56.96725" xlink:href="#m6f35c21b80" y="47.457422"/>
     </g>
    </g>
    <g id="text_24">
     <!-- accuracy -->
     <g transform="translate(69.45925 49.279172)scale(0.0694 -0.0694)">
      <defs>
       <path d="M 8.5 21.578125 
L 8.5 54.6875 
L 17.484375 54.6875 
L 17.484375 21.921875 
Q 17.484375 14.15625 20.5 10.265625 
Q 23.53125 6.390625 29.59375 6.390625 
Q 36.859375 6.390625 41.078125 11.03125 
Q 45.3125 15.671875 45.3125 23.6875 
L 45.3125 54.6875 
L 54.296875 54.6875 
L 54.296875 0 
L 45.3125 0 
L 45.3125 8.40625 
Q 42.046875 3.421875 37.71875 1 
Q 33.40625 -1.421875 27.6875 -1.421875 
Q 18.265625 -1.421875 13.375 4.4375 
Q 8.5 10.296875 8.5 21.578125 
z
M 31.109375 56 
z
" id="DejaVuSans-117"/>
       <path d="M 32.171875 -5.078125 
Q 28.375 -14.84375 24.75 -17.8125 
Q 21.140625 -20.796875 15.09375 -20.796875 
L 7.90625 -20.796875 
L 7.90625 -13.28125 
L 13.1875 -13.28125 
Q 16.890625 -13.28125 18.9375 -11.515625 
Q 21 -9.765625 23.484375 -3.21875 
L 25.09375 0.875 
L 2.984375 54.6875 
L 12.5 54.6875 
L 29.59375 11.921875 
L 46.6875 54.6875 
L 56.203125 54.6875 
z
" id="DejaVuSans-121"/>
      </defs>
      <use xlink:href="#DejaVuSans-97"/>
      <use x="61.279297" xlink:href="#DejaVuSans-99"/>
      <use x="116.259766" xlink:href="#DejaVuSans-99"/>
      <use x="171.240234" xlink:href="#DejaVuSans-117"/>
      <use x="234.619141" xlink:href="#DejaVuSans-114"/>
      <use x="275.732422" xlink:href="#DejaVuSans-97"/>
      <use x="337.011719" xlink:href="#DejaVuSans-99"/>
      <use x="391.992188" xlink:href="#DejaVuSans-121"/>
     </g>
    </g>
    <g id="PathCollection_15">
     <defs>
      <path d="M 0 3 
C 0.795609 3 1.55874 2.683901 2.12132 2.12132 
C 2.683901 1.55874 3 0.795609 3 0 
C 3 -0.795609 2.683901 -1.55874 2.12132 -2.12132 
C 1.55874 -2.683901 0.795609 -3 0 -3 
C -0.795609 -3 -1.55874 -2.683901 -2.12132 -2.12132 
C -2.683901 -1.55874 -3 -0.795609 -3 0 
C -3 0.795609 -2.683901 1.55874 -2.12132 2.12132 
C -1.55874 2.683901 -0.795609 3 0 3 
z
" id="m501fe929f2" style="stroke:#d62728;"/>
     </defs>
     <g>
      <use style="fill:#d62728;stroke:#d62728;" x="56.96725" xlink:href="#m501fe929f2" y="57.644041"/>
     </g>
    </g>
    <g id="text_25">
     <!-- f1 -->
     <g transform="translate(69.45925 59.465791)scale(0.0694 -0.0694)">
      <defs>
       <path d="M 37.109375 75.984375 
L 37.109375 68.5 
L 28.515625 68.5 
Q 23.6875 68.5 21.796875 66.546875 
Q 19.921875 64.59375 19.921875 59.515625 
L 19.921875 54.6875 
L 34.71875 54.6875 
L 34.71875 47.703125 
L 19.921875 47.703125 
L 19.921875 0 
L 10.890625 0 
L 10.890625 47.703125 
L 2.296875 47.703125 
L 2.296875 54.6875 
L 10.890625 54.6875 
L 10.890625 58.5 
Q 10.890625 67.625 15.140625 71.796875 
Q 19.390625 75.984375 28.609375 75.984375 
z
" id="DejaVuSans-102"/>
      </defs>
      <use xlink:href="#DejaVuSans-102"/>
      <use x="35.205078" xlink:href="#DejaVuSans-49"/>
     </g>
    </g>
    <g id="text_26">
     <!-- ncols -->
     <g transform="translate(69.45925 69.652409)scale(0.0694 -0.0694)">
      <use xlink:href="#DejaVuSans-110"/>
      <use x="63.378906" xlink:href="#DejaVuSans-99"/>
      <use x="118.359375" xlink:href="#DejaVuSans-111"/>
      <use x="179.541016" xlink:href="#DejaVuSans-108"/>
      <use x="207.324219" xlink:href="#DejaVuSans-115"/>
     </g>
    </g>
    <g id="PathCollection_16">
     <defs>
      <path d="M 0 3.307189 
C 0.877077 3.307189 1.718349 2.958723 2.338536 2.338536 
C 2.958723 1.718349 3.307189 0.877077 3.307189 0 
C 3.307189 -0.877077 2.958723 -1.718349 2.338536 -2.338536 
C 1.718349 -2.958723 0.877077 -3.307189 0 -3.307189 
C -0.877077 -3.307189 -1.718349 -2.958723 -2.338536 -2.338536 
C -2.958723 -1.718349 -3.307189 -0.877077 -3.307189 0 
C -3.307189 0.877077 -2.958723 1.718349 -2.338536 2.338536 
C -1.718349 2.958723 -0.877077 3.307189 0 3.307189 
z
" id="m3e3c34d860" style="stroke:#333333;"/>
     </defs>
     <g>
      <use style="fill:#333333;stroke:#333333;" x="56.96725" xlink:href="#m3e3c34d860" y="78.017278"/>
     </g>
    </g>
    <g id="text_27">
     <!-- 8 -->
     <g transform="translate(69.45925 79.839028)scale(0.0694 -0.0694)">
      <use xlink:href="#DejaVuSans-56"/>
     </g>
    </g>
    <g id="PathCollection_17">
     <defs>
      <path d="M 0 3.66572 
C 0.97216 3.66572 1.904634 3.279476 2.592055 2.592055 
C 3.279476 1.904634 3.66572 0.97216 3.66572 0 
C 3.66572 -0.97216 3.279476 -1.904634 2.592055 -2.592055 
C 1.904634 -3.279476 0.97216 -3.66572 0 -3.66572 
C -0.97216 -3.66572 -1.904634 -3.279476 -2.592055 -2.592055 
C -3.279476 -1.904634 -3.66572 -0.97216 -3.66572 0 
C -3.66572 0.97216 -3.279476 1.904634 -2.592055 2.592055 
C -1.904634 3.279476 -0.97216 3.66572 0 3.66572 
z
" id="m292314909f" style="stroke:#333333;"/>
     </defs>
     <g>
      <use style="fill:#333333;stroke:#333333;" x="56.96725" xlink:href="#m292314909f" y="88.203897"/>
     </g>
    </g>
    <g id="text_28">
     <!-- 16 -->
     <g transform="translate(69.45925 90.025647)scale(0.0694 -0.0694)">
      <use xlink:href="#DejaVuSans-49"/>
      <use x="63.623047" xlink:href="#DejaVuSans-54"/>
     </g>
    </g>
    <g id="PathCollection_18">
     <defs>
      <path d="M 0 3.99218 
C 1.058738 3.99218 2.074256 3.571539 2.822897 2.822897 
C 3.571539 2.074256 3.99218 1.058738 3.99218 0 
C 3.99218 -1.058738 3.571539 -2.074256 2.822897 -2.822897 
C 2.074256 -3.571539 1.058738 -3.99218 0 -3.99218 
C -1.058738 -3.99218 -2.074256 -3.571539 -2.822897 -2.822897 
C -3.571539 -2.074256 -3.99218 -1.058738 -3.99218 0 
C -3.99218 1.058738 -3.571539 2.074256 -2.822897 2.822897 
C -2.074256 3.571539 -1.058738 3.99218 0 3.99218 
z
" id="m3cbd3063f5" style="stroke:#333333;"/>
     </defs>
     <g>
      <use style="fill:#333333;stroke:#333333;" x="56.96725" xlink:href="#m3cbd3063f5" y="98.390516"/>
     </g>
    </g>
    <g id="text_29">
     <!-- 24 -->
     <g transform="translate(69.45925 100.212266)scale(0.0694 -0.0694)">
      <use xlink:href="#DejaVuSans-50"/>
      <use x="63.623047" xlink:href="#DejaVuSans-52"/>
     </g>
    </g>
    <g id="PathCollection_19">
     <defs>
      <path d="M 0 4.293891 
C 1.138753 4.293891 2.231019 3.84146 3.036239 3.036239 
C 3.84146 2.231019 4.293891 1.138753 4.293891 0 
C 4.293891 -1.138753 3.84146 -2.231019 3.036239 -3.036239 
C 2.231019 -3.84146 1.138753 -4.293891 0 -4.293891 
C -1.138753 -4.293891 -2.231019 -3.84146 -3.036239 -3.036239 
C -3.84146 -2.231019 -4.293891 -1.138753 -4.293891 0 
C -4.293891 1.138753 -3.84146 2.231019 -3.036239 3.036239 
C -2.231019 3.84146 -1.138753 4.293891 0 4.293891 
z
" id="m436a6e8364" style="stroke:#333333;"/>
     </defs>
     <g>
      <use style="fill:#333333;stroke:#333333;" x="56.96725" xlink:href="#m436a6e8364" y="108.577134"/>
     </g>
    </g>
    <g id="text_30">
     <!-- 32 -->
     <g transform="translate(69.45925 110.398884)scale(0.0694 -0.0694)">
      <use xlink:href="#DejaVuSans-51"/>
      <use x="63.623047" xlink:href="#DejaVuSans-50"/>
     </g>
    </g>
    <g id="PathCollection_20">
     <defs>
      <path d="M 0 4.575751 
C 1.213503 4.575751 2.377468 4.093621 3.235545 3.235545 
C 4.093621 2.377468 4.575751 1.213503 4.575751 0 
C 4.575751 -1.213503 4.093621 -2.377468 3.235545 -3.235545 
C 2.377468 -4.093621 1.213503 -4.575751 0 -4.575751 
C -1.213503 -4.575751 -2.377468 -4.093621 -3.235545 -3.235545 
C -4.093621 -2.377468 -4.575751 -1.213503 -4.575751 0 
C -4.575751 1.213503 -4.093621 2.377468 -3.235545 3.235545 
C -2.377468 4.093621 -1.213503 4.575751 0 4.575751 
z
" id="m881648919d" style="stroke:#333333;"/>
     </defs>
     <g>
      <use style="fill:#333333;stroke:#333333;" x="56.96725" xlink:href="#m881648919d" y="118.763753"/>
     </g>
    </g>
    <g id="text_31">
     <!-- 40 -->
     <g transform="translate(69.45925 120.585503)scale(0.0694 -0.0694)">
      <use xlink:href="#DejaVuSans-52"/>
      <use x="63.623047" xlink:href="#DejaVuSans-48"/>
     </g>
    </g>
    <g id="PathCollection_21">
     <defs>
      <path d="M 0 4.841229 
C 1.283909 4.841229 2.515405 4.331127 3.423266 3.423266 
C 4.331127 2.515405 4.841229 1.283909 4.841229 0 
C 4.841229 -1.283909 4.331127 -2.515405 3.423266 -3.423266 
C 2.515405 -4.331127 1.283909 -4.841229 0 -4.841229 
C -1.283909 -4.841229 -2.515405 -4.331127 -3.423266 -3.423266 
C -4.331127 -2.515405 -4.841229 -1.283909 -4.841229 0 
C -4.841229 1.283909 -4.331127 2.515405 -3.423266 3.423266 
C -2.515405 4.331127 -1.283909 4.841229 0 4.841229 
z
" id="mfb0d9600c6" style="stroke:#333333;"/>
     </defs>
     <g>
      <use style="fill:#333333;stroke:#333333;" x="56.96725" xlink:href="#mfb0d9600c6" y="128.950372"/>
     </g>
    </g>
    <g id="text_32">
     <!-- 48 -->
     <g transform="translate(69.45925 130.772122)scale(0.0694 -0.0694)">
      <use xlink:href="#DejaVuSans-52"/>
      <use x="63.623047" xlink:href="#DejaVuSans-56"/>
     </g>
    </g>
   </g>
  </g>
 </g>
 <defs>
  <clipPath id="pdb69c00d56">
   <rect height="266.112" width="357.12" x="43.78125" y="7.2"/>
  </clipPath>
 </defs>
</svg>
