<?xml version="1.0" encoding="utf-8" standalone="no"?>
<!DOCTYPE svg PUBLIC "-//W3C//DTD SVG 1.1//EN"
  "http://www.w3.org/Graphics/SVG/1.1/DTD/svg11.dtd">
<!-- Created with matplotlib (https://matplotlib.org/) -->
<svg height="310.86825pt" version="1.1" viewBox="0 0 408.10125 310.86825" width="408.10125pt" xmlns="http://www.w3.org/2000/svg" xmlns:xlink="http://www.w3.org/1999/xlink">
 <metadata>
  <rdf:RDF xmlns:cc="http://creativecommons.org/ns#" xmlns:dc="http://purl.org/dc/elements/1.1/" xmlns:rdf="http://www.w3.org/1999/02/22-rdf-syntax-ns#">
   <cc:Work>
    <dc:type rdf:resource="http://purl.org/dc/dcmitype/StillImage"/>
    <dc:date>2022-03-09T16:19:51.878685</dc:date>
    <dc:format>image/svg+xml</dc:format>
    <dc:creator>
     <cc:Agent>
      <dc:title>Matplotlib v3.3.4, https://matplotlib.org/</dc:title>
     </cc:Agent>
    </dc:creator>
   </cc:Work>
  </rdf:RDF>
 </metadata>
 <defs>
  <style type="text/css">*{stroke-linecap:butt;stroke-linejoin:round;}</style>
 </defs>
 <g id="figure_1">
  <g id="patch_1">
   <path d="M 0 310.86825 
L 408.10125 310.86825 
L 408.10125 0 
L 0 0 
z
" style="fill:#ffffff;"/>
  </g>
  <g id="axes_1">
   <g id="patch_2">
    <path d="M 43.78125 273.312 
L 400.90125 273.312 
L 400.90125 7.2 
L 43.78125 7.2 
z
" style="fill:#ffffff;"/>
   </g>
   <g id="PathCollection_1">
    <path clip-path="url(#p21ac9c0de5)" d="M 384.668523 144.476486 
C 385.787809 144.476486 386.861402 144.031789 387.652857 143.240334 
C 388.444311 142.448879 388.889008 141.375286 388.889008 140.256 
C 388.889008 139.136714 388.444311 138.063121 387.652857 137.271666 
C 386.861402 136.480211 385.787809 136.035514 384.668523 136.035514 
C 383.549237 136.035514 382.475643 136.480211 381.684189 137.271666 
C 380.892734 138.063121 380.448037 139.136714 380.448037 140.256 
C 380.448037 141.375286 380.892734 142.448879 381.684189 143.240334 
C 382.475643 144.031789 383.549237 144.476486 384.668523 144.476486 
z
" style="fill:#2ca02c;stroke:#ffffff;stroke-width:0.525357;"/>
    <path clip-path="url(#p21ac9c0de5)" d="M 384.668523 140.305451 
C 385.787809 140.305451 386.861402 139.860754 387.652857 139.0693 
C 388.444311 138.277845 388.889008 137.204251 388.889008 136.084966 
C 388.889008 134.96568 388.444311 133.892086 387.652857 133.100631 
C 386.861402 132.309177 385.787809 131.86448 384.668523 131.86448 
C 383.549237 131.86448 382.475643 132.309177 381.684189 133.100631 
C 380.892734 133.892086 380.448037 134.96568 380.448037 136.084966 
C 380.448037 137.204251 380.892734 138.277845 381.684189 139.0693 
C 382.475643 139.860754 383.549237 140.305451 384.668523 140.305451 
z
" style="fill:#1f77b4;stroke:#ffffff;stroke-width:0.525357;"/>
    <path clip-path="url(#p21ac9c0de5)" d="M 384.668523 23.516486 
C 385.787809 23.516486 386.861402 23.071789 387.652857 22.280334 
C 388.444311 21.488879 388.889008 20.415286 388.889008 19.296 
C 388.889008 18.176714 388.444311 17.103121 387.652857 16.311666 
C 386.861402 15.520211 385.787809 15.075514 384.668523 15.075514 
C 383.549237 15.075514 382.475643 15.520211 381.684189 16.311666 
C 380.892734 17.103121 380.448037 18.176714 380.448037 19.296 
C 380.448037 20.415286 380.892734 21.488879 381.684189 22.280334 
C 382.475643 23.071789 383.549237 23.516486 384.668523 23.516486 
z
" style="fill:#ff7f0e;stroke:#ffffff;stroke-width:0.525357;"/>
    <path clip-path="url(#p21ac9c0de5)" d="M 384.668523 100.491031 
C 385.787809 100.491031 386.861402 100.046334 387.652857 99.25488 
C 388.444311 98.463425 388.889008 97.389831 388.889008 96.270545 
C 388.889008 95.15126 388.444311 94.077666 387.652857 93.286211 
C 386.861402 92.494757 385.787809 92.05006 384.668523 92.05006 
C 383.549237 92.05006 382.475643 92.494757 381.684189 93.286211 
C 380.892734 94.077666 380.448037 95.15126 380.448037 96.270545 
C 380.448037 97.389831 380.892734 98.463425 381.684189 99.25488 
C 382.475643 100.046334 383.549237 100.491031 384.668523 100.491031 
z
" style="fill:#d62728;stroke:#ffffff;stroke-width:0.525357;"/>
    <path clip-path="url(#p21ac9c0de5)" d="M 344.086705 168.404679 
C 345.41272 168.404679 346.684604 167.877848 347.622238 166.940213 
C 348.559873 166.002579 349.086705 164.730695 349.086705 163.404679 
C 349.086705 162.078664 348.559873 160.80678 347.622238 159.869145 
C 346.684604 158.931511 345.41272 158.404679 344.086705 158.404679 
C 342.760689 158.404679 341.488805 158.931511 340.551171 159.869145 
C 339.613536 160.80678 339.086705 162.078664 339.086705 163.404679 
C 339.086705 164.730695 339.613536 166.002579 340.551171 166.940213 
C 341.488805 167.877848 342.760689 168.404679 344.086705 168.404679 
z
" style="fill:#2ca02c;stroke:#ffffff;stroke-width:0.525357;"/>
    <path clip-path="url(#p21ac9c0de5)" d="M 344.086705 155.918128 
C 345.41272 155.918128 346.684604 155.391296 347.622238 154.453662 
C 348.559873 153.516027 349.086705 152.244143 349.086705 150.918128 
C 349.086705 149.592112 348.559873 148.320228 347.622238 147.382594 
C 346.684604 146.444959 345.41272 145.918128 344.086705 145.918128 
C 342.760689 145.918128 341.488805 146.444959 340.551171 147.382594 
C 339.613536 148.320228 339.086705 149.592112 339.086705 150.918128 
C 339.086705 152.244143 339.613536 153.516027 340.551171 154.453662 
C 341.488805 155.391296 342.760689 155.918128 344.086705 155.918128 
z
" style="fill:#1f77b4;stroke:#ffffff;stroke-width:0.525357;"/>
    <path clip-path="url(#p21ac9c0de5)" d="M 344.086705 66.831385 
C 345.41272 66.831385 346.684604 66.304553 347.622238 65.366919 
C 348.559873 64.429284 349.086705 63.1574 349.086705 61.831385 
C 349.086705 60.505369 348.559873 59.233485 347.622238 58.295851 
C 346.684604 57.358216 345.41272 56.831385 344.086705 56.831385 
C 342.760689 56.831385 341.488805 57.358216 340.551171 58.295851 
C 339.613536 59.233485 339.086705 60.505369 339.086705 61.831385 
C 339.086705 63.1574 339.613536 64.429284 340.551171 65.366919 
C 341.488805 66.304553 342.760689 66.831385 344.086705 66.831385 
z
" style="fill:#ff7f0e;stroke:#ffffff;stroke-width:0.525357;"/>
    <path clip-path="url(#p21ac9c0de5)" d="M 344.086705 124.188603 
C 345.41272 124.188603 346.684604 123.661771 347.622238 122.724137 
C 348.559873 121.786502 349.086705 120.514618 349.086705 119.188603 
C 349.086705 117.862587 348.559873 116.590703 347.622238 115.653069 
C 346.684604 114.715434 345.41272 114.188603 344.086705 114.188603 
C 342.760689 114.188603 341.488805 114.715434 340.551171 115.653069 
C 339.613536 116.590703 339.086705 117.862587 339.086705 119.188603 
C 339.086705 120.514618 339.613536 121.786502 340.551171 122.724137 
C 341.488805 123.661771 342.760689 124.188603 344.086705 124.188603 
z
" style="fill:#d62728;stroke:#ffffff;stroke-width:0.525357;"/>
    <path clip-path="url(#p21ac9c0de5)" d="M 60.013977 264.378278 
C 60.852623 264.378278 61.657033 264.04508 62.250045 263.452068 
C 62.843057 262.859056 63.176255 262.054646 63.176255 261.216 
C 63.176255 260.377354 62.843057 259.572944 62.250045 258.979932 
C 61.657033 258.38692 60.852623 258.053722 60.013977 258.053722 
C 59.175331 258.053722 58.370921 258.38692 57.777909 258.979932 
C 57.184897 259.572944 56.8517 260.377354 56.8517 261.216 
C 56.8517 262.054646 57.184897 262.859056 57.777909 263.452068 
C 58.370921 264.04508 59.175331 264.378278 60.013977 264.378278 
z
" style="fill:#2ca02c;stroke:#ffffff;stroke-width:0.525357;"/>
    <path clip-path="url(#p21ac9c0de5)" d="M 60.013977 264.378278 
C 60.852623 264.378278 61.657033 264.04508 62.250045 263.452068 
C 62.843057 262.859056 63.176255 262.054646 63.176255 261.216 
C 63.176255 260.377354 62.843057 259.572944 62.250045 258.979932 
C 61.657033 258.38692 60.852623 258.053722 60.013977 258.053722 
C 59.175331 258.053722 58.370921 258.38692 57.777909 258.979932 
C 57.184897 259.572944 56.8517 260.377354 56.8517 261.216 
C 56.8517 262.054646 57.184897 262.859056 57.777909 263.452068 
C 58.370921 264.04508 59.175331 264.378278 60.013977 264.378278 
z
" style="fill:#1f77b4;stroke:#ffffff;stroke-width:0.525357;"/>
    <path clip-path="url(#p21ac9c0de5)" d="M 60.013977 264.378278 
C 60.852623 264.378278 61.657033 264.04508 62.250045 263.452068 
C 62.843057 262.859056 63.176255 262.054646 63.176255 261.216 
C 63.176255 260.377354 62.843057 259.572944 62.250045 258.979932 
C 61.657033 258.38692 60.852623 258.053722 60.013977 258.053722 
C 59.175331 258.053722 58.370921 258.38692 57.777909 258.979932 
C 57.184897 259.572944 56.8517 260.377354 56.8517 261.216 
C 56.8517 262.054646 57.184897 262.859056 57.777909 263.452068 
C 58.370921 264.04508 59.175331 264.378278 60.013977 264.378278 
z
" style="fill:#ff7f0e;stroke:#ffffff;stroke-width:0.525357;"/>
    <path clip-path="url(#p21ac9c0de5)" d="M 60.013977 264.378278 
C 60.852623 264.378278 61.657033 264.04508 62.250045 263.452068 
C 62.843057 262.859056 63.176255 262.054646 63.176255 261.216 
C 63.176255 260.377354 62.843057 259.572944 62.250045 258.979932 
C 61.657033 258.38692 60.852623 258.053722 60.013977 258.053722 
C 59.175331 258.053722 58.370921 258.38692 57.777909 258.979932 
C 57.184897 259.572944 56.8517 260.377354 56.8517 261.216 
C 56.8517 262.054646 57.184897 262.859056 57.777909 263.452068 
C 58.370921 264.04508 59.175331 264.378278 60.013977 264.378278 
z
" style="fill:#d62728;stroke:#ffffff;stroke-width:0.525357;"/>
    <path clip-path="url(#p21ac9c0de5)" d="M 100.595795 212.776368 
C 101.497583 212.776368 102.362558 212.418083 103.000218 211.780423 
C 103.637879 211.142763 103.996163 210.277788 103.996163 209.376 
C 103.996163 208.474212 103.637879 207.609237 103.000218 206.971577 
C 102.362558 206.333917 101.497583 205.975632 100.595795 205.975632 
C 99.694007 205.975632 98.829033 206.333917 98.191372 206.971577 
C 97.553712 207.609237 97.195428 208.474212 97.195428 209.376 
C 97.195428 210.277788 97.553712 211.142763 98.191372 211.780423 
C 98.829033 212.418083 99.694007 212.776368 100.595795 212.776368 
z
" style="fill:#2ca02c;stroke:#ffffff;stroke-width:0.525357;"/>
    <path clip-path="url(#p21ac9c0de5)" d="M 100.595795 178.216368 
C 101.497583 178.216368 102.362558 177.858083 103.000218 177.220423 
C 103.637879 176.582763 103.996163 175.717788 103.996163 174.816 
C 103.996163 173.914212 103.637879 173.049237 103.000218 172.411577 
C 102.362558 171.773917 101.497583 171.415632 100.595795 171.415632 
C 99.694007 171.415632 98.829033 171.773917 98.191372 172.411577 
C 97.553712 173.049237 97.195428 173.914212 97.195428 174.816 
C 97.195428 175.717788 97.553712 176.582763 98.191372 177.220423 
C 98.829033 177.858083 99.694007 178.216368 100.595795 178.216368 
z
" style="fill:#1f77b4;stroke:#ffffff;stroke-width:0.525357;"/>
    <path clip-path="url(#p21ac9c0de5)" d="M 100.595795 178.216368 
C 101.497583 178.216368 102.362558 177.858083 103.000218 177.220423 
C 103.637879 176.582763 103.996163 175.717788 103.996163 174.816 
C 103.996163 173.914212 103.637879 173.049237 103.000218 172.411577 
C 102.362558 171.773917 101.497583 171.415632 100.595795 171.415632 
C 99.694007 171.415632 98.829033 171.773917 98.191372 172.411577 
C 97.553712 173.049237 97.195428 173.914212 97.195428 174.816 
C 97.195428 175.717788 97.553712 176.582763 98.191372 177.220423 
C 98.829033 177.858083 99.694007 178.216368 100.595795 178.216368 
z
" style="fill:#ff7f0e;stroke:#ffffff;stroke-width:0.525357;"/>
    <path clip-path="url(#p21ac9c0de5)" d="M 100.595795 178.216368 
C 101.497583 178.216368 102.362558 177.858083 103.000218 177.220423 
C 103.637879 176.582763 103.996163 175.717788 103.996163 174.816 
C 103.996163 173.914212 103.637879 173.049237 103.000218 172.411577 
C 102.362558 171.773917 101.497583 171.415632 100.595795 171.415632 
C 99.694007 171.415632 98.829033 171.773917 98.191372 172.411577 
C 97.553712 173.049237 97.195428 173.914212 97.195428 174.816 
C 97.195428 175.717788 97.553712 176.582763 98.191372 177.220423 
C 98.829033 177.858083 99.694007 178.216368 100.595795 178.216368 
z
" style="fill:#d62728;stroke:#ffffff;stroke-width:0.525357;"/>
    <path clip-path="url(#p21ac9c0de5)" d="M 141.177614 224.874611 
C 142.115248 224.874611 143.014606 224.502085 143.677614 223.839077 
C 144.340621 223.176069 144.713148 222.276711 144.713148 221.339077 
C 144.713148 220.401442 144.340621 219.502085 143.677614 218.839077 
C 143.014606 218.176069 142.115248 217.803543 141.177614 217.803543 
C 140.239979 217.803543 139.340621 218.176069 138.677614 218.839077 
C 138.014606 219.502085 137.64208 220.401442 137.64208 221.339077 
C 137.64208 222.276711 138.014606 223.176069 138.677614 223.839077 
C 139.340621 224.502085 140.239979 224.874611 141.177614 224.874611 
z
" style="fill:#2ca02c;stroke:#ffffff;stroke-width:0.525357;"/>
    <path clip-path="url(#p21ac9c0de5)" d="M 141.177614 207.151534 
C 142.115248 207.151534 143.014606 206.779008 143.677614 206.116 
C 144.340621 205.452992 144.713148 204.553635 144.713148 203.616 
C 144.713148 202.678365 144.340621 201.779008 143.677614 201.116 
C 143.014606 200.452992 142.115248 200.080466 141.177614 200.080466 
C 140.239979 200.080466 139.340621 200.452992 138.677614 201.116 
C 138.014606 201.779008 137.64208 202.678365 137.64208 203.616 
C 137.64208 204.553635 138.014606 205.452992 138.677614 206.116 
C 139.340621 206.779008 140.239979 207.151534 141.177614 207.151534 
z
" style="fill:#1f77b4;stroke:#ffffff;stroke-width:0.525357;"/>
    <path clip-path="url(#p21ac9c0de5)" d="M 141.177614 178.351534 
C 142.115248 178.351534 143.014606 177.979008 143.677614 177.316 
C 144.340621 176.652992 144.713148 175.753635 144.713148 174.816 
C 144.713148 173.878365 144.340621 172.979008 143.677614 172.316 
C 143.014606 171.652992 142.115248 171.280466 141.177614 171.280466 
C 140.239979 171.280466 139.340621 171.652992 138.677614 172.316 
C 138.014606 172.979008 137.64208 173.878365 137.64208 174.816 
C 137.64208 175.753635 138.014606 176.652992 138.677614 177.316 
C 139.340621 177.979008 140.239979 178.351534 141.177614 178.351534 
z
" style="fill:#ff7f0e;stroke:#ffffff;stroke-width:0.525357;"/>
    <path clip-path="url(#p21ac9c0de5)" d="M 141.177614 195.631534 
C 142.115248 195.631534 143.014606 195.259008 143.677614 194.596 
C 144.340621 193.932992 144.713148 193.033635 144.713148 192.096 
C 144.713148 191.158365 144.340621 190.259008 143.677614 189.596 
C 143.014606 188.932992 142.115248 188.560466 141.177614 188.560466 
C 140.239979 188.560466 139.340621 188.932992 138.677614 189.596 
C 138.014606 190.259008 137.64208 191.158365 137.64208 192.096 
C 137.64208 193.033635 138.014606 193.932992 138.677614 194.596 
C 139.340621 195.259008 140.239979 195.631534 141.177614 195.631534 
z
" style="fill:#d62728;stroke:#ffffff;stroke-width:0.525357;"/>
    <path clip-path="url(#p21ac9c0de5)" d="M 181.759432 221.766 
C 182.753943 221.766 183.707856 221.370876 184.411082 220.66765 
C 185.114308 219.964425 185.509432 219.010512 185.509432 218.016 
C 185.509432 217.021488 185.114308 216.067575 184.411082 215.36435 
C 183.707856 214.661124 182.753943 214.266 181.759432 214.266 
C 180.76492 214.266 179.811007 214.661124 179.107781 215.36435 
C 178.404555 216.067575 178.009432 217.021488 178.009432 218.016 
C 178.009432 219.010512 178.404555 219.964425 179.107781 220.66765 
C 179.811007 221.370876 180.76492 221.766 181.759432 221.766 
z
" style="fill:#2ca02c;stroke:#ffffff;stroke-width:0.525357;"/>
    <path clip-path="url(#p21ac9c0de5)" d="M 181.759432 205.150615 
C 182.753943 205.150615 183.707856 204.755492 184.411082 204.052266 
C 185.114308 203.34904 185.509432 202.395127 185.509432 201.400615 
C 185.509432 200.406104 185.114308 199.452191 184.411082 198.748965 
C 183.707856 198.045739 182.753943 197.650615 181.759432 197.650615 
C 180.76492 197.650615 179.811007 198.045739 179.107781 198.748965 
C 178.404555 199.452191 178.009432 200.406104 178.009432 201.400615 
C 178.009432 202.395127 178.404555 203.34904 179.107781 204.052266 
C 179.811007 204.755492 180.76492 205.150615 181.759432 205.150615 
z
" style="fill:#1f77b4;stroke:#ffffff;stroke-width:0.525357;"/>
    <path clip-path="url(#p21ac9c0de5)" d="M 181.759432 167.766 
C 182.753943 167.766 183.707856 167.370876 184.411082 166.66765 
C 185.114308 165.964425 185.509432 165.010512 185.509432 164.016 
C 185.509432 163.021488 185.114308 162.067575 184.411082 161.36435 
C 183.707856 160.661124 182.753943 160.266 181.759432 160.266 
C 180.76492 160.266 179.811007 160.661124 179.107781 161.36435 
C 178.404555 162.067575 178.009432 163.021488 178.009432 164.016 
C 178.009432 165.010512 178.404555 165.964425 179.107781 166.66765 
C 179.811007 167.370876 180.76492 167.766 181.759432 167.766 
z
" style="fill:#ff7f0e;stroke:#ffffff;stroke-width:0.525357;"/>
    <path clip-path="url(#p21ac9c0de5)" d="M 181.759432 190.908857 
C 182.753943 190.908857 183.707856 190.513733 184.411082 189.810508 
C 185.114308 189.107282 185.509432 188.153369 185.509432 187.158857 
C 185.509432 186.164346 185.114308 185.210433 184.411082 184.507207 
C 183.707856 183.803981 182.753943 183.408857 181.759432 183.408857 
C 180.76492 183.408857 179.811007 183.803981 179.107781 184.507207 
C 178.404555 185.210433 178.009432 186.164346 178.009432 187.158857 
C 178.009432 188.153369 178.404555 189.107282 179.107781 189.810508 
C 179.811007 190.513733 180.76492 190.908857 181.759432 190.908857 
z
" style="fill:#d62728;stroke:#ffffff;stroke-width:0.525357;"/>
    <path clip-path="url(#p21ac9c0de5)" d="M 222.34125 223.775129 
C 223.410318 223.775129 224.435743 223.350384 225.191689 222.594439 
C 225.947634 221.838493 226.372379 220.813068 226.372379 219.744 
C 226.372379 218.674932 225.947634 217.649507 225.191689 216.893561 
C 224.435743 216.137616 223.410318 215.712871 222.34125 215.712871 
C 221.272182 215.712871 220.246757 216.137616 219.490811 216.893561 
C 218.734866 217.649507 218.310121 218.674932 218.310121 219.744 
C 218.310121 220.813068 218.734866 221.838493 219.490811 222.594439 
C 220.246757 223.350384 221.272182 223.775129 222.34125 223.775129 
z
" style="fill:#2ca02c;stroke:#ffffff;stroke-width:0.525357;"/>
    <path clip-path="url(#p21ac9c0de5)" d="M 222.34125 210.678708 
C 223.410318 210.678708 224.435743 210.253963 225.191689 209.498018 
C 225.947634 208.742072 226.372379 207.716647 226.372379 206.647579 
C 226.372379 205.578511 225.947634 204.553086 225.191689 203.79714 
C 224.435743 203.041195 223.410318 202.61645 222.34125 202.61645 
C 221.272182 202.61645 220.246757 203.041195 219.490811 203.79714 
C 218.734866 204.553086 218.310121 205.578511 218.310121 206.647579 
C 218.310121 207.716647 218.734866 208.742072 219.490811 209.498018 
C 220.246757 210.253963 221.272182 210.678708 222.34125 210.678708 
z
" style="fill:#1f77b4;stroke:#ffffff;stroke-width:0.525357;"/>
    <path clip-path="url(#p21ac9c0de5)" d="M 222.34125 161.567129 
C 223.410318 161.567129 224.435743 161.142384 225.191689 160.386439 
C 225.947634 159.630493 226.372379 158.605068 226.372379 157.536 
C 226.372379 156.466932 225.947634 155.441507 225.191689 154.685561 
C 224.435743 153.929616 223.410318 153.504871 222.34125 153.504871 
C 221.272182 153.504871 220.246757 153.929616 219.490811 154.685561 
C 218.734866 155.441507 218.310121 156.466932 218.310121 157.536 
C 218.310121 158.605068 218.734866 159.630493 219.490811 160.386439 
C 220.246757 161.142384 221.272182 161.567129 222.34125 161.567129 
z
" style="fill:#ff7f0e;stroke:#ffffff;stroke-width:0.525357;"/>
    <path clip-path="url(#p21ac9c0de5)" d="M 222.34125 193.743681 
C 223.410318 193.743681 224.435743 193.318935 225.191689 192.56299 
C 225.947634 191.807045 226.372379 190.78162 226.372379 189.712552 
C 226.372379 188.643484 225.947634 187.618058 225.191689 186.862113 
C 224.435743 186.106168 223.410318 185.681423 222.34125 185.681423 
C 221.272182 185.681423 220.246757 186.106168 219.490811 186.862113 
C 218.734866 187.618058 218.310121 188.643484 218.310121 189.712552 
C 218.310121 190.78162 218.734866 191.807045 219.490811 192.56299 
C 220.246757 193.318935 221.272182 193.743681 222.34125 193.743681 
z
" style="fill:#d62728;stroke:#ffffff;stroke-width:0.525357;"/>
    <path clip-path="url(#p21ac9c0de5)" d="M 262.923068 202.709763 
C 264.071431 202.709763 265.172915 202.253514 265.98493 201.441499 
C 266.796946 200.629483 267.253195 199.527999 267.253195 198.379636 
C 267.253195 197.231273 266.796946 196.12979 265.98493 195.317774 
C 265.172915 194.505759 264.071431 194.049509 262.923068 194.049509 
C 261.774705 194.049509 260.673221 194.505759 259.861206 195.317774 
C 259.049191 196.12979 258.592941 197.231273 258.592941 198.379636 
C 258.592941 199.527999 259.049191 200.629483 259.861206 201.441499 
C 260.673221 202.253514 261.774705 202.709763 262.923068 202.709763 
z
" style="fill:#2ca02c;stroke:#ffffff;stroke-width:0.525357;"/>
    <path clip-path="url(#p21ac9c0de5)" d="M 262.923068 188.746127 
C 264.071431 188.746127 265.172915 188.289878 265.98493 187.477862 
C 266.796946 186.665847 267.253195 185.564363 267.253195 184.416 
C 267.253195 183.267637 266.796946 182.166153 265.98493 181.354138 
C 265.172915 180.542122 264.071431 180.085873 262.923068 180.085873 
C 261.774705 180.085873 260.673221 180.542122 259.861206 181.354138 
C 259.049191 182.166153 258.592941 183.267637 258.592941 184.416 
C 258.592941 185.564363 259.049191 186.665847 259.861206 187.477862 
C 260.673221 188.289878 261.774705 188.746127 262.923068 188.746127 
z
" style="fill:#1f77b4;stroke:#ffffff;stroke-width:0.525357;"/>
    <path clip-path="url(#p21ac9c0de5)" d="M 262.923068 117.431841 
C 264.071431 117.431841 265.172915 116.975592 265.98493 116.163576 
C 266.796946 115.351561 267.253195 114.250077 267.253195 113.101714 
C 267.253195 111.953351 266.796946 110.851867 265.98493 110.039852 
C 265.172915 109.227837 264.071431 108.771587 262.923068 108.771587 
C 261.774705 108.771587 260.673221 109.227837 259.861206 110.039852 
C 259.049191 110.851867 258.592941 111.953351 258.592941 113.101714 
C 258.592941 114.250077 259.049191 115.351561 259.861206 116.163576 
C 260.673221 116.975592 261.774705 117.431841 262.923068 117.431841 
z
" style="fill:#ff7f0e;stroke:#ffffff;stroke-width:0.525357;"/>
    <path clip-path="url(#p21ac9c0de5)" d="M 262.923068 164.394908 
C 264.071431 164.394908 265.172915 163.938658 265.98493 163.126643 
C 266.796946 162.314627 267.253195 161.213144 267.253195 160.06478 
C 267.253195 158.916417 266.796946 157.814934 265.98493 157.002918 
C 265.172915 156.190903 264.071431 155.734653 262.923068 155.734653 
C 261.774705 155.734653 260.673221 156.190903 259.861206 157.002918 
C 259.049191 157.814934 258.592941 158.916417 258.592941 160.06478 
C 258.592941 161.213144 259.049191 162.314627 259.861206 163.126643 
C 260.673221 163.938658 261.774705 164.394908 262.923068 164.394908 
z
" style="fill:#d62728;stroke:#ffffff;stroke-width:0.525357;"/>
    <path clip-path="url(#p21ac9c0de5)" d="M 303.504886 168.039416 
C 304.762855 168.039416 305.96947 167.53962 306.858988 166.650102 
C 307.748507 165.760584 308.248303 164.553969 308.248303 163.296 
C 308.248303 162.038031 307.748507 160.831416 306.858988 159.941898 
C 305.96947 159.05238 304.762855 158.552584 303.504886 158.552584 
C 302.246918 158.552584 301.040303 159.05238 300.150784 159.941898 
C 299.261266 160.831416 298.76147 162.038031 298.76147 163.296 
C 298.76147 164.553969 299.261266 165.760584 300.150784 166.650102 
C 301.040303 167.53962 302.246918 168.039416 303.504886 168.039416 
z
" style="fill:#2ca02c;stroke:#ffffff;stroke-width:0.525357;"/>
    <path clip-path="url(#p21ac9c0de5)" d="M 303.504886 152.974801 
C 304.762855 152.974801 305.96947 152.475005 306.858988 151.585487 
C 307.748507 150.695968 308.248303 149.489353 308.248303 148.231385 
C 308.248303 146.973416 307.748507 145.766801 306.858988 144.877283 
C 305.96947 143.987764 304.762855 143.487968 303.504886 143.487968 
C 302.246918 143.487968 301.040303 143.987764 300.150784 144.877283 
C 299.261266 145.766801 298.76147 146.973416 298.76147 148.231385 
C 298.76147 149.489353 299.261266 150.695968 300.150784 151.585487 
C 301.040303 152.475005 302.246918 152.974801 303.504886 152.974801 
z
" style="fill:#1f77b4;stroke:#ffffff;stroke-width:0.525357;"/>
    <path clip-path="url(#p21ac9c0de5)" d="M 303.504886 74.376808 
C 304.762855 74.376808 305.96947 73.877012 306.858988 72.987493 
C 307.748507 72.097975 308.248303 70.89136 308.248303 69.633391 
C 308.248303 68.375423 307.748507 67.168808 306.858988 66.279289 
C 305.96947 65.389771 304.762855 64.889975 303.504886 64.889975 
C 302.246918 64.889975 301.040303 65.389771 300.150784 66.279289 
C 299.261266 67.168808 298.76147 68.375423 298.76147 69.633391 
C 298.76147 70.89136 299.261266 72.097975 300.150784 72.987493 
C 301.040303 73.877012 302.246918 74.376808 303.504886 74.376808 
z
" style="fill:#ff7f0e;stroke:#ffffff;stroke-width:0.525357;"/>
    <path clip-path="url(#p21ac9c0de5)" d="M 303.504886 123.817481 
C 304.762855 123.817481 305.96947 123.317685 306.858988 122.428166 
C 307.748507 121.538648 308.248303 120.332033 308.248303 119.074065 
C 308.248303 117.816096 307.748507 116.609481 306.858988 115.719963 
C 305.96947 114.830444 304.762855 114.330648 303.504886 114.330648 
C 302.246918 114.330648 301.040303 114.830444 300.150784 115.719963 
C 299.261266 116.609481 298.76147 117.816096 298.76147 119.074065 
C 298.76147 120.332033 299.261266 121.538648 300.150784 122.428166 
C 301.040303 123.317685 302.246918 123.817481 303.504886 123.817481 
z
" style="fill:#d62728;stroke:#ffffff;stroke-width:0.525357;"/>
   </g>
   <g id="PathCollection_2"/>
   <g id="PathCollection_3"/>
   <g id="PathCollection_4"/>
   <g id="PathCollection_5"/>
   <g id="PathCollection_6"/>
   <g id="PathCollection_7"/>
   <g id="PathCollection_8"/>
   <g id="PathCollection_9"/>
   <g id="PathCollection_10"/>
   <g id="PathCollection_11"/>
   <g id="matplotlib.axis_1">
    <g id="xtick_1">
     <g id="line2d_1">
      <defs>
       <path d="M 0 0 
L 0 3.5 
" id="m8007dc42d2" style="stroke:#000000;stroke-width:0.8;"/>
      </defs>
      <g>
       <use style="stroke:#000000;stroke-width:0.8;" x="60.013977" xlink:href="#m8007dc42d2" y="273.312"/>
      </g>
     </g>
     <g id="text_1">
      <!-- 20 -->
      <g transform="translate(53.651477 287.910437)scale(0.1 -0.1)">
       <defs>
        <path d="M 19.1875 8.296875 
L 53.609375 8.296875 
L 53.609375 0 
L 7.328125 0 
L 7.328125 8.296875 
Q 12.9375 14.109375 22.625 23.890625 
Q 32.328125 33.6875 34.8125 36.53125 
Q 39.546875 41.84375 41.421875 45.53125 
Q 43.3125 49.21875 43.3125 52.78125 
Q 43.3125 58.59375 39.234375 62.25 
Q 35.15625 65.921875 28.609375 65.921875 
Q 23.96875 65.921875 18.8125 64.3125 
Q 13.671875 62.703125 7.8125 59.421875 
L 7.8125 69.390625 
Q 13.765625 71.78125 18.9375 73 
Q 24.125 74.21875 28.421875 74.21875 
Q 39.75 74.21875 46.484375 68.546875 
Q 53.21875 62.890625 53.21875 53.421875 
Q 53.21875 48.921875 51.53125 44.890625 
Q 49.859375 40.875 45.40625 35.40625 
Q 44.1875 33.984375 37.640625 27.21875 
Q 31.109375 20.453125 19.1875 8.296875 
z
" id="DejaVuSans-50"/>
        <path d="M 31.78125 66.40625 
Q 24.171875 66.40625 20.328125 58.90625 
Q 16.5 51.421875 16.5 36.375 
Q 16.5 21.390625 20.328125 13.890625 
Q 24.171875 6.390625 31.78125 6.390625 
Q 39.453125 6.390625 43.28125 13.890625 
Q 47.125 21.390625 47.125 36.375 
Q 47.125 51.421875 43.28125 58.90625 
Q 39.453125 66.40625 31.78125 66.40625 
z
M 31.78125 74.21875 
Q 44.046875 74.21875 50.515625 64.515625 
Q 56.984375 54.828125 56.984375 36.375 
Q 56.984375 17.96875 50.515625 8.265625 
Q 44.046875 -1.421875 31.78125 -1.421875 
Q 19.53125 -1.421875 13.0625 8.265625 
Q 6.59375 17.96875 6.59375 36.375 
Q 6.59375 54.828125 13.0625 64.515625 
Q 19.53125 74.21875 31.78125 74.21875 
z
" id="DejaVuSans-48"/>
       </defs>
       <use xlink:href="#DejaVuSans-50"/>
       <use x="63.623047" xlink:href="#DejaVuSans-48"/>
      </g>
     </g>
    </g>
    <g id="xtick_2">
     <g id="line2d_2">
      <g>
       <use style="stroke:#000000;stroke-width:0.8;" x="100.595795" xlink:href="#m8007dc42d2" y="273.312"/>
      </g>
     </g>
     <g id="text_2">
      <!-- 30 -->
      <g transform="translate(94.233295 287.910437)scale(0.1 -0.1)">
       <defs>
        <path d="M 40.578125 39.3125 
Q 47.65625 37.796875 51.625 33 
Q 55.609375 28.21875 55.609375 21.1875 
Q 55.609375 10.40625 48.1875 4.484375 
Q 40.765625 -1.421875 27.09375 -1.421875 
Q 22.515625 -1.421875 17.65625 -0.515625 
Q 12.796875 0.390625 7.625 2.203125 
L 7.625 11.71875 
Q 11.71875 9.328125 16.59375 8.109375 
Q 21.484375 6.890625 26.8125 6.890625 
Q 36.078125 6.890625 40.9375 10.546875 
Q 45.796875 14.203125 45.796875 21.1875 
Q 45.796875 27.640625 41.28125 31.265625 
Q 36.765625 34.90625 28.71875 34.90625 
L 20.21875 34.90625 
L 20.21875 43.015625 
L 29.109375 43.015625 
Q 36.375 43.015625 40.234375 45.921875 
Q 44.09375 48.828125 44.09375 54.296875 
Q 44.09375 59.90625 40.109375 62.90625 
Q 36.140625 65.921875 28.71875 65.921875 
Q 24.65625 65.921875 20.015625 65.03125 
Q 15.375 64.15625 9.8125 62.3125 
L 9.8125 71.09375 
Q 15.4375 72.65625 20.34375 73.4375 
Q 25.25 74.21875 29.59375 74.21875 
Q 40.828125 74.21875 47.359375 69.109375 
Q 53.90625 64.015625 53.90625 55.328125 
Q 53.90625 49.265625 50.4375 45.09375 
Q 46.96875 40.921875 40.578125 39.3125 
z
" id="DejaVuSans-51"/>
       </defs>
       <use xlink:href="#DejaVuSans-51"/>
       <use x="63.623047" xlink:href="#DejaVuSans-48"/>
      </g>
     </g>
    </g>
    <g id="xtick_3">
     <g id="line2d_3">
      <g>
       <use style="stroke:#000000;stroke-width:0.8;" x="141.177614" xlink:href="#m8007dc42d2" y="273.312"/>
      </g>
     </g>
     <g id="text_3">
      <!-- 40 -->
      <g transform="translate(134.815114 287.910437)scale(0.1 -0.1)">
       <defs>
        <path d="M 37.796875 64.3125 
L 12.890625 25.390625 
L 37.796875 25.390625 
z
M 35.203125 72.90625 
L 47.609375 72.90625 
L 47.609375 25.390625 
L 58.015625 25.390625 
L 58.015625 17.1875 
L 47.609375 17.1875 
L 47.609375 0 
L 37.796875 0 
L 37.796875 17.1875 
L 4.890625 17.1875 
L 4.890625 26.703125 
z
" id="DejaVuSans-52"/>
       </defs>
       <use xlink:href="#DejaVuSans-52"/>
       <use x="63.623047" xlink:href="#DejaVuSans-48"/>
      </g>
     </g>
    </g>
    <g id="xtick_4">
     <g id="line2d_4">
      <g>
       <use style="stroke:#000000;stroke-width:0.8;" x="181.759432" xlink:href="#m8007dc42d2" y="273.312"/>
      </g>
     </g>
     <g id="text_4">
      <!-- 50 -->
      <g transform="translate(175.396932 287.910437)scale(0.1 -0.1)">
       <defs>
        <path d="M 10.796875 72.90625 
L 49.515625 72.90625 
L 49.515625 64.59375 
L 19.828125 64.59375 
L 19.828125 46.734375 
Q 21.96875 47.46875 24.109375 47.828125 
Q 26.265625 48.1875 28.421875 48.1875 
Q 40.625 48.1875 47.75 41.5 
Q 54.890625 34.8125 54.890625 23.390625 
Q 54.890625 11.625 47.5625 5.09375 
Q 40.234375 -1.421875 26.90625 -1.421875 
Q 22.3125 -1.421875 17.546875 -0.640625 
Q 12.796875 0.140625 7.71875 1.703125 
L 7.71875 11.625 
Q 12.109375 9.234375 16.796875 8.0625 
Q 21.484375 6.890625 26.703125 6.890625 
Q 35.15625 6.890625 40.078125 11.328125 
Q 45.015625 15.765625 45.015625 23.390625 
Q 45.015625 31 40.078125 35.4375 
Q 35.15625 39.890625 26.703125 39.890625 
Q 22.75 39.890625 18.8125 39.015625 
Q 14.890625 38.140625 10.796875 36.28125 
z
" id="DejaVuSans-53"/>
       </defs>
       <use xlink:href="#DejaVuSans-53"/>
       <use x="63.623047" xlink:href="#DejaVuSans-48"/>
      </g>
     </g>
    </g>
    <g id="xtick_5">
     <g id="line2d_5">
      <g>
       <use style="stroke:#000000;stroke-width:0.8;" x="222.34125" xlink:href="#m8007dc42d2" y="273.312"/>
      </g>
     </g>
     <g id="text_5">
      <!-- 70 -->
      <g transform="translate(215.97875 287.910437)scale(0.1 -0.1)">
       <defs>
        <path d="M 8.203125 72.90625 
L 55.078125 72.90625 
L 55.078125 68.703125 
L 28.609375 0 
L 18.3125 0 
L 43.21875 64.59375 
L 8.203125 64.59375 
z
" id="DejaVuSans-55"/>
       </defs>
       <use xlink:href="#DejaVuSans-55"/>
       <use x="63.623047" xlink:href="#DejaVuSans-48"/>
      </g>
     </g>
    </g>
    <g id="xtick_6">
     <g id="line2d_6">
      <g>
       <use style="stroke:#000000;stroke-width:0.8;" x="262.923068" xlink:href="#m8007dc42d2" y="273.312"/>
      </g>
     </g>
     <g id="text_6">
      <!-- 100 -->
      <g transform="translate(253.379318 287.910437)scale(0.1 -0.1)">
       <defs>
        <path d="M 12.40625 8.296875 
L 28.515625 8.296875 
L 28.515625 63.921875 
L 10.984375 60.40625 
L 10.984375 69.390625 
L 28.421875 72.90625 
L 38.28125 72.90625 
L 38.28125 8.296875 
L 54.390625 8.296875 
L 54.390625 0 
L 12.40625 0 
z
" id="DejaVuSans-49"/>
       </defs>
       <use xlink:href="#DejaVuSans-49"/>
       <use x="63.623047" xlink:href="#DejaVuSans-48"/>
       <use x="127.246094" xlink:href="#DejaVuSans-48"/>
      </g>
     </g>
    </g>
    <g id="xtick_7">
     <g id="line2d_7">
      <g>
       <use style="stroke:#000000;stroke-width:0.8;" x="303.504886" xlink:href="#m8007dc42d2" y="273.312"/>
      </g>
     </g>
     <g id="text_7">
      <!-- 150 -->
      <g transform="translate(293.961136 287.910437)scale(0.1 -0.1)">
       <use xlink:href="#DejaVuSans-49"/>
       <use x="63.623047" xlink:href="#DejaVuSans-53"/>
       <use x="127.246094" xlink:href="#DejaVuSans-48"/>
      </g>
     </g>
    </g>
    <g id="xtick_8">
     <g id="line2d_8">
      <g>
       <use style="stroke:#000000;stroke-width:0.8;" x="344.086705" xlink:href="#m8007dc42d2" y="273.312"/>
      </g>
     </g>
     <g id="text_8">
      <!-- 200 -->
      <g transform="translate(334.542955 287.910437)scale(0.1 -0.1)">
       <use xlink:href="#DejaVuSans-50"/>
       <use x="63.623047" xlink:href="#DejaVuSans-48"/>
       <use x="127.246094" xlink:href="#DejaVuSans-48"/>
      </g>
     </g>
    </g>
    <g id="xtick_9">
     <g id="line2d_9">
      <g>
       <use style="stroke:#000000;stroke-width:0.8;" x="384.668523" xlink:href="#m8007dc42d2" y="273.312"/>
      </g>
     </g>
     <g id="text_9">
      <!-- 200&lt; -->
      <g transform="translate(370.934929 287.910437)scale(0.1 -0.1)">
       <defs>
        <path d="M 73.1875 49.21875 
L 22.796875 31.296875 
L 73.1875 13.484375 
L 73.1875 4.59375 
L 10.59375 27.296875 
L 10.59375 35.40625 
L 73.1875 58.109375 
z
" id="DejaVuSans-60"/>
       </defs>
       <use xlink:href="#DejaVuSans-50"/>
       <use x="63.623047" xlink:href="#DejaVuSans-48"/>
       <use x="127.246094" xlink:href="#DejaVuSans-48"/>
       <use x="190.869141" xlink:href="#DejaVuSans-60"/>
      </g>
     </g>
    </g>
    <g id="text_10">
     <!-- nrows -->
     <g transform="translate(207.476406 301.588562)scale(0.1 -0.1)">
      <defs>
       <path d="M 54.890625 33.015625 
L 54.890625 0 
L 45.90625 0 
L 45.90625 32.71875 
Q 45.90625 40.484375 42.875 44.328125 
Q 39.84375 48.1875 33.796875 48.1875 
Q 26.515625 48.1875 22.3125 43.546875 
Q 18.109375 38.921875 18.109375 30.90625 
L 18.109375 0 
L 9.078125 0 
L 9.078125 54.6875 
L 18.109375 54.6875 
L 18.109375 46.1875 
Q 21.34375 51.125 25.703125 53.5625 
Q 30.078125 56 35.796875 56 
Q 45.21875 56 50.046875 50.171875 
Q 54.890625 44.34375 54.890625 33.015625 
z
" id="DejaVuSans-110"/>
       <path d="M 41.109375 46.296875 
Q 39.59375 47.171875 37.8125 47.578125 
Q 36.03125 48 33.890625 48 
Q 26.265625 48 22.1875 43.046875 
Q 18.109375 38.09375 18.109375 28.8125 
L 18.109375 0 
L 9.078125 0 
L 9.078125 54.6875 
L 18.109375 54.6875 
L 18.109375 46.1875 
Q 20.953125 51.171875 25.484375 53.578125 
Q 30.03125 56 36.53125 56 
Q 37.453125 56 38.578125 55.875 
Q 39.703125 55.765625 41.0625 55.515625 
z
" id="DejaVuSans-114"/>
       <path d="M 30.609375 48.390625 
Q 23.390625 48.390625 19.1875 42.75 
Q 14.984375 37.109375 14.984375 27.296875 
Q 14.984375 17.484375 19.15625 11.84375 
Q 23.34375 6.203125 30.609375 6.203125 
Q 37.796875 6.203125 41.984375 11.859375 
Q 46.1875 17.53125 46.1875 27.296875 
Q 46.1875 37.015625 41.984375 42.703125 
Q 37.796875 48.390625 30.609375 48.390625 
z
M 30.609375 56 
Q 42.328125 56 49.015625 48.375 
Q 55.71875 40.765625 55.71875 27.296875 
Q 55.71875 13.875 49.015625 6.21875 
Q 42.328125 -1.421875 30.609375 -1.421875 
Q 18.84375 -1.421875 12.171875 6.21875 
Q 5.515625 13.875 5.515625 27.296875 
Q 5.515625 40.765625 12.171875 48.375 
Q 18.84375 56 30.609375 56 
z
" id="DejaVuSans-111"/>
       <path d="M 4.203125 54.6875 
L 13.1875 54.6875 
L 24.421875 12.015625 
L 35.59375 54.6875 
L 46.1875 54.6875 
L 57.421875 12.015625 
L 68.609375 54.6875 
L 77.59375 54.6875 
L 63.28125 0 
L 52.6875 0 
L 40.921875 44.828125 
L 29.109375 0 
L 18.5 0 
z
" id="DejaVuSans-119"/>
       <path d="M 44.28125 53.078125 
L 44.28125 44.578125 
Q 40.484375 46.53125 36.375 47.5 
Q 32.28125 48.484375 27.875 48.484375 
Q 21.1875 48.484375 17.84375 46.4375 
Q 14.5 44.390625 14.5 40.28125 
Q 14.5 37.15625 16.890625 35.375 
Q 19.28125 33.59375 26.515625 31.984375 
L 29.59375 31.296875 
Q 39.15625 29.25 43.1875 25.515625 
Q 47.21875 21.78125 47.21875 15.09375 
Q 47.21875 7.46875 41.1875 3.015625 
Q 35.15625 -1.421875 24.609375 -1.421875 
Q 20.21875 -1.421875 15.453125 -0.5625 
Q 10.6875 0.296875 5.421875 2 
L 5.421875 11.28125 
Q 10.40625 8.6875 15.234375 7.390625 
Q 20.0625 6.109375 24.8125 6.109375 
Q 31.15625 6.109375 34.5625 8.28125 
Q 37.984375 10.453125 37.984375 14.40625 
Q 37.984375 18.0625 35.515625 20.015625 
Q 33.0625 21.96875 24.703125 23.78125 
L 21.578125 24.515625 
Q 13.234375 26.265625 9.515625 29.90625 
Q 5.8125 33.546875 5.8125 39.890625 
Q 5.8125 47.609375 11.28125 51.796875 
Q 16.75 56 26.8125 56 
Q 31.78125 56 36.171875 55.265625 
Q 40.578125 54.546875 44.28125 53.078125 
z
" id="DejaVuSans-115"/>
      </defs>
      <use xlink:href="#DejaVuSans-110"/>
      <use x="63.378906" xlink:href="#DejaVuSans-114"/>
      <use x="102.242188" xlink:href="#DejaVuSans-111"/>
      <use x="163.423828" xlink:href="#DejaVuSans-119"/>
      <use x="245.210938" xlink:href="#DejaVuSans-115"/>
     </g>
    </g>
   </g>
   <g id="matplotlib.axis_2">
    <g id="ytick_1">
     <g id="line2d_10">
      <defs>
       <path d="M 0 0 
L -3.5 0 
" id="m89715c1354" style="stroke:#000000;stroke-width:0.8;"/>
      </defs>
      <g>
       <use style="stroke:#000000;stroke-width:0.8;" x="43.78125" xlink:href="#m89715c1354" y="261.216"/>
      </g>
     </g>
     <g id="text_11">
      <!-- 0.0 -->
      <g transform="translate(20.878125 265.015219)scale(0.1 -0.1)">
       <defs>
        <path d="M 10.6875 12.40625 
L 21 12.40625 
L 21 0 
L 10.6875 0 
z
" id="DejaVuSans-46"/>
       </defs>
       <use xlink:href="#DejaVuSans-48"/>
       <use x="63.623047" xlink:href="#DejaVuSans-46"/>
       <use x="95.410156" xlink:href="#DejaVuSans-48"/>
      </g>
     </g>
    </g>
    <g id="ytick_2">
     <g id="line2d_11">
      <g>
       <use style="stroke:#000000;stroke-width:0.8;" x="43.78125" xlink:href="#m89715c1354" y="209.376"/>
      </g>
     </g>
     <g id="text_12">
      <!-- 0.2 -->
      <g transform="translate(20.878125 213.175219)scale(0.1 -0.1)">
       <use xlink:href="#DejaVuSans-48"/>
       <use x="63.623047" xlink:href="#DejaVuSans-46"/>
       <use x="95.410156" xlink:href="#DejaVuSans-50"/>
      </g>
     </g>
    </g>
    <g id="ytick_3">
     <g id="line2d_12">
      <g>
       <use style="stroke:#000000;stroke-width:0.8;" x="43.78125" xlink:href="#m89715c1354" y="157.536"/>
      </g>
     </g>
     <g id="text_13">
      <!-- 0.4 -->
      <g transform="translate(20.878125 161.335219)scale(0.1 -0.1)">
       <use xlink:href="#DejaVuSans-48"/>
       <use x="63.623047" xlink:href="#DejaVuSans-46"/>
       <use x="95.410156" xlink:href="#DejaVuSans-52"/>
      </g>
     </g>
    </g>
    <g id="ytick_4">
     <g id="line2d_13">
      <g>
       <use style="stroke:#000000;stroke-width:0.8;" x="43.78125" xlink:href="#m89715c1354" y="105.696"/>
      </g>
     </g>
     <g id="text_14">
      <!-- 0.6 -->
      <g transform="translate(20.878125 109.495219)scale(0.1 -0.1)">
       <defs>
        <path d="M 33.015625 40.375 
Q 26.375 40.375 22.484375 35.828125 
Q 18.609375 31.296875 18.609375 23.390625 
Q 18.609375 15.53125 22.484375 10.953125 
Q 26.375 6.390625 33.015625 6.390625 
Q 39.65625 6.390625 43.53125 10.953125 
Q 47.40625 15.53125 47.40625 23.390625 
Q 47.40625 31.296875 43.53125 35.828125 
Q 39.65625 40.375 33.015625 40.375 
z
M 52.59375 71.296875 
L 52.59375 62.3125 
Q 48.875 64.0625 45.09375 64.984375 
Q 41.3125 65.921875 37.59375 65.921875 
Q 27.828125 65.921875 22.671875 59.328125 
Q 17.53125 52.734375 16.796875 39.40625 
Q 19.671875 43.65625 24.015625 45.921875 
Q 28.375 48.1875 33.59375 48.1875 
Q 44.578125 48.1875 50.953125 41.515625 
Q 57.328125 34.859375 57.328125 23.390625 
Q 57.328125 12.15625 50.6875 5.359375 
Q 44.046875 -1.421875 33.015625 -1.421875 
Q 20.359375 -1.421875 13.671875 8.265625 
Q 6.984375 17.96875 6.984375 36.375 
Q 6.984375 53.65625 15.1875 63.9375 
Q 23.390625 74.21875 37.203125 74.21875 
Q 40.921875 74.21875 44.703125 73.484375 
Q 48.484375 72.75 52.59375 71.296875 
z
" id="DejaVuSans-54"/>
       </defs>
       <use xlink:href="#DejaVuSans-48"/>
       <use x="63.623047" xlink:href="#DejaVuSans-46"/>
       <use x="95.410156" xlink:href="#DejaVuSans-54"/>
      </g>
     </g>
    </g>
    <g id="ytick_5">
     <g id="line2d_14">
      <g>
       <use style="stroke:#000000;stroke-width:0.8;" x="43.78125" xlink:href="#m89715c1354" y="53.856"/>
      </g>
     </g>
     <g id="text_15">
      <!-- 0.8 -->
      <g transform="translate(20.878125 57.655219)scale(0.1 -0.1)">
       <defs>
        <path d="M 31.78125 34.625 
Q 24.75 34.625 20.71875 30.859375 
Q 16.703125 27.09375 16.703125 20.515625 
Q 16.703125 13.921875 20.71875 10.15625 
Q 24.75 6.390625 31.78125 6.390625 
Q 38.8125 6.390625 42.859375 10.171875 
Q 46.921875 13.96875 46.921875 20.515625 
Q 46.921875 27.09375 42.890625 30.859375 
Q 38.875 34.625 31.78125 34.625 
z
M 21.921875 38.8125 
Q 15.578125 40.375 12.03125 44.71875 
Q 8.5 49.078125 8.5 55.328125 
Q 8.5 64.0625 14.71875 69.140625 
Q 20.953125 74.21875 31.78125 74.21875 
Q 42.671875 74.21875 48.875 69.140625 
Q 55.078125 64.0625 55.078125 55.328125 
Q 55.078125 49.078125 51.53125 44.71875 
Q 48 40.375 41.703125 38.8125 
Q 48.828125 37.15625 52.796875 32.3125 
Q 56.78125 27.484375 56.78125 20.515625 
Q 56.78125 9.90625 50.3125 4.234375 
Q 43.84375 -1.421875 31.78125 -1.421875 
Q 19.734375 -1.421875 13.25 4.234375 
Q 6.78125 9.90625 6.78125 20.515625 
Q 6.78125 27.484375 10.78125 32.3125 
Q 14.796875 37.15625 21.921875 38.8125 
z
M 18.3125 54.390625 
Q 18.3125 48.734375 21.84375 45.5625 
Q 25.390625 42.390625 31.78125 42.390625 
Q 38.140625 42.390625 41.71875 45.5625 
Q 45.3125 48.734375 45.3125 54.390625 
Q 45.3125 60.0625 41.71875 63.234375 
Q 38.140625 66.40625 31.78125 66.40625 
Q 25.390625 66.40625 21.84375 63.234375 
Q 18.3125 60.0625 18.3125 54.390625 
z
" id="DejaVuSans-56"/>
       </defs>
       <use xlink:href="#DejaVuSans-48"/>
       <use x="63.623047" xlink:href="#DejaVuSans-46"/>
       <use x="95.410156" xlink:href="#DejaVuSans-56"/>
      </g>
     </g>
    </g>
    <g id="text_16">
     <!-- score -->
     <g transform="translate(14.798438 153.688812)rotate(-90)scale(0.1 -0.1)">
      <defs>
       <path d="M 48.78125 52.59375 
L 48.78125 44.1875 
Q 44.96875 46.296875 41.140625 47.34375 
Q 37.3125 48.390625 33.40625 48.390625 
Q 24.65625 48.390625 19.8125 42.84375 
Q 14.984375 37.3125 14.984375 27.296875 
Q 14.984375 17.28125 19.8125 11.734375 
Q 24.65625 6.203125 33.40625 6.203125 
Q 37.3125 6.203125 41.140625 7.25 
Q 44.96875 8.296875 48.78125 10.40625 
L 48.78125 2.09375 
Q 45.015625 0.34375 40.984375 -0.53125 
Q 36.96875 -1.421875 32.421875 -1.421875 
Q 20.0625 -1.421875 12.78125 6.34375 
Q 5.515625 14.109375 5.515625 27.296875 
Q 5.515625 40.671875 12.859375 48.328125 
Q 20.21875 56 33.015625 56 
Q 37.15625 56 41.109375 55.140625 
Q 45.0625 54.296875 48.78125 52.59375 
z
" id="DejaVuSans-99"/>
       <path d="M 56.203125 29.59375 
L 56.203125 25.203125 
L 14.890625 25.203125 
Q 15.484375 15.921875 20.484375 11.0625 
Q 25.484375 6.203125 34.421875 6.203125 
Q 39.59375 6.203125 44.453125 7.46875 
Q 49.3125 8.734375 54.109375 11.28125 
L 54.109375 2.78125 
Q 49.265625 0.734375 44.1875 -0.34375 
Q 39.109375 -1.421875 33.890625 -1.421875 
Q 20.796875 -1.421875 13.15625 6.1875 
Q 5.515625 13.8125 5.515625 26.8125 
Q 5.515625 40.234375 12.765625 48.109375 
Q 20.015625 56 32.328125 56 
Q 43.359375 56 49.78125 48.890625 
Q 56.203125 41.796875 56.203125 29.59375 
z
M 47.21875 32.234375 
Q 47.125 39.59375 43.09375 43.984375 
Q 39.0625 48.390625 32.421875 48.390625 
Q 24.90625 48.390625 20.390625 44.140625 
Q 15.875 39.890625 15.1875 32.171875 
z
" id="DejaVuSans-101"/>
      </defs>
      <use xlink:href="#DejaVuSans-115"/>
      <use x="52.099609" xlink:href="#DejaVuSans-99"/>
      <use x="107.080078" xlink:href="#DejaVuSans-111"/>
      <use x="168.261719" xlink:href="#DejaVuSans-114"/>
      <use x="207.125" xlink:href="#DejaVuSans-101"/>
     </g>
    </g>
   </g>
   <g id="line2d_15">
    <path clip-path="url(#p21ac9c0de5)" d="M 60.013977 261.216 
L 100.595795 174.816 
L 141.177614 203.616 
L 181.759432 201.400615 
L 222.34125 206.647579 
L 262.923068 184.416 
L 303.504886 148.231385 
L 344.086705 150.918128 
L 384.668523 136.084966 
" style="fill:none;stroke:#1f77b4;stroke-dasharray:3.7,1.6;stroke-dashoffset:0;"/>
   </g>
   <g id="line2d_16">
    <path clip-path="url(#p21ac9c0de5)" d="M 60.013977 261.216 
L 100.595795 174.816 
L 141.177614 174.816 
L 181.759432 164.016 
L 222.34125 157.536 
L 262.923068 113.101714 
L 303.504886 69.633391 
L 344.086705 61.831385 
L 384.668523 19.296 
" style="fill:none;stroke:#ff7f0e;stroke-dasharray:1,1.65;stroke-dashoffset:0;"/>
   </g>
   <g id="line2d_17">
    <path clip-path="url(#p21ac9c0de5)" d="M 60.013977 261.216 
L 100.595795 209.376 
L 141.177614 221.339077 
L 181.759432 218.016 
L 222.34125 219.744 
L 262.923068 198.379636 
L 303.504886 163.296 
L 344.086705 163.404679 
L 384.668523 140.256 
" style="fill:none;stroke:#2ca02c;stroke-dasharray:6.4,1.6,1,1.6;stroke-dashoffset:0;"/>
   </g>
   <g id="line2d_18">
    <path clip-path="url(#p21ac9c0de5)" d="M 60.013977 261.216 
L 100.595795 174.816 
L 141.177614 192.096 
L 181.759432 187.158857 
L 222.34125 189.712552 
L 262.923068 160.06478 
L 303.504886 119.074065 
L 344.086705 119.188603 
L 384.668523 96.270545 
" style="fill:none;stroke:#d62728;stroke-linecap:square;"/>
   </g>
   <g id="patch_3">
    <path d="M 43.78125 273.312 
L 43.78125 7.2 
" style="fill:none;stroke:#000000;stroke-linecap:square;stroke-linejoin:miter;stroke-width:0.8;"/>
   </g>
   <g id="patch_4">
    <path d="M 400.90125 273.312 
L 400.90125 7.2 
" style="fill:none;stroke:#000000;stroke-linecap:square;stroke-linejoin:miter;stroke-width:0.8;"/>
   </g>
   <g id="patch_5">
    <path d="M 43.78125 273.312 
L 400.90125 273.312 
" style="fill:none;stroke:#000000;stroke-linecap:square;stroke-linejoin:miter;stroke-width:0.8;"/>
   </g>
   <g id="patch_6">
    <path d="M 43.78125 7.2 
L 400.90125 7.2 
" style="fill:none;stroke:#000000;stroke-linecap:square;stroke-linejoin:miter;stroke-width:0.8;"/>
   </g>
   <g id="legend_1">
    <g id="patch_7">
     <path d="M 48.63925 134.991425 
L 102.159662 134.991425 
Q 103.547663 134.991425 103.547663 133.603425 
L 103.547663 12.058 
Q 103.547663 10.67 102.159662 10.67 
L 48.63925 10.67 
Q 47.25125 10.67 47.25125 12.058 
L 47.25125 133.603425 
Q 47.25125 134.991425 48.63925 134.991425 
z
" style="fill:#ffffff;opacity:0.8;stroke:#cccccc;stroke-linejoin:miter;"/>
    </g>
    <g id="text_17">
     <!-- metric -->
     <g transform="translate(69.45925 18.719316)scale(0.0694 -0.0694)">
      <defs>
       <path d="M 52 44.1875 
Q 55.375 50.25 60.0625 53.125 
Q 64.75 56 71.09375 56 
Q 79.640625 56 84.28125 50.015625 
Q 88.921875 44.046875 88.921875 33.015625 
L 88.921875 0 
L 79.890625 0 
L 79.890625 32.71875 
Q 79.890625 40.578125 77.09375 44.375 
Q 74.3125 48.1875 68.609375 48.1875 
Q 61.625 48.1875 57.5625 43.546875 
Q 53.515625 38.921875 53.515625 30.90625 
L 53.515625 0 
L 44.484375 0 
L 44.484375 32.71875 
Q 44.484375 40.625 41.703125 44.40625 
Q 38.921875 48.1875 33.109375 48.1875 
Q 26.21875 48.1875 22.15625 43.53125 
Q 18.109375 38.875 18.109375 30.90625 
L 18.109375 0 
L 9.078125 0 
L 9.078125 54.6875 
L 18.109375 54.6875 
L 18.109375 46.1875 
Q 21.1875 51.21875 25.484375 53.609375 
Q 29.78125 56 35.6875 56 
Q 41.65625 56 45.828125 52.96875 
Q 50 49.953125 52 44.1875 
z
" id="DejaVuSans-109"/>
       <path d="M 18.3125 70.21875 
L 18.3125 54.6875 
L 36.8125 54.6875 
L 36.8125 47.703125 
L 18.3125 47.703125 
L 18.3125 18.015625 
Q 18.3125 11.328125 20.140625 9.421875 
Q 21.96875 7.515625 27.59375 7.515625 
L 36.8125 7.515625 
L 36.8125 0 
L 27.59375 0 
Q 17.1875 0 13.234375 3.875 
Q 9.28125 7.765625 9.28125 18.015625 
L 9.28125 47.703125 
L 2.6875 47.703125 
L 2.6875 54.6875 
L 9.28125 54.6875 
L 9.28125 70.21875 
z
" id="DejaVuSans-116"/>
       <path d="M 9.421875 54.6875 
L 18.40625 54.6875 
L 18.40625 0 
L 9.421875 0 
z
M 9.421875 75.984375 
L 18.40625 75.984375 
L 18.40625 64.59375 
L 9.421875 64.59375 
z
" id="DejaVuSans-105"/>
      </defs>
      <use xlink:href="#DejaVuSans-109"/>
      <use x="97.412109" xlink:href="#DejaVuSans-101"/>
      <use x="158.935547" xlink:href="#DejaVuSans-116"/>
      <use x="198.144531" xlink:href="#DejaVuSans-114"/>
      <use x="239.257812" xlink:href="#DejaVuSans-105"/>
      <use x="267.041016" xlink:href="#DejaVuSans-99"/>
     </g>
    </g>
    <g id="PathCollection_12">
     <defs>
      <path d="M 0 3 
C 0.795609 3 1.55874 2.683901 2.12132 2.12132 
C 2.683901 1.55874 3 0.795609 3 0 
C 3 -0.795609 2.683901 -1.55874 2.12132 -2.12132 
C 1.55874 -2.683901 0.795609 -3 0 -3 
C -0.795609 -3 -1.55874 -2.683901 -2.12132 -2.12132 
C -2.683901 -1.55874 -3 -0.795609 -3 0 
C -3 0.795609 -2.683901 1.55874 -2.12132 2.12132 
C -1.55874 2.683901 -0.795609 3 0 3 
z
" id="m2b6d1d62d3" style="stroke:#1f77b4;"/>
     </defs>
     <g>
      <use style="fill:#1f77b4;stroke:#1f77b4;" x="56.96725" xlink:href="#m2b6d1d62d3" y="27.084184"/>
     </g>
    </g>
    <g id="text_18">
     <!-- precision -->
     <g transform="translate(69.45925 28.905934)scale(0.0694 -0.0694)">
      <defs>
       <path d="M 18.109375 8.203125 
L 18.109375 -20.796875 
L 9.078125 -20.796875 
L 9.078125 54.6875 
L 18.109375 54.6875 
L 18.109375 46.390625 
Q 20.953125 51.265625 25.265625 53.625 
Q 29.59375 56 35.59375 56 
Q 45.5625 56 51.78125 48.09375 
Q 58.015625 40.1875 58.015625 27.296875 
Q 58.015625 14.40625 51.78125 6.484375 
Q 45.5625 -1.421875 35.59375 -1.421875 
Q 29.59375 -1.421875 25.265625 0.953125 
Q 20.953125 3.328125 18.109375 8.203125 
z
M 48.6875 27.296875 
Q 48.6875 37.203125 44.609375 42.84375 
Q 40.53125 48.484375 33.40625 48.484375 
Q 26.265625 48.484375 22.1875 42.84375 
Q 18.109375 37.203125 18.109375 27.296875 
Q 18.109375 17.390625 22.1875 11.75 
Q 26.265625 6.109375 33.40625 6.109375 
Q 40.53125 6.109375 44.609375 11.75 
Q 48.6875 17.390625 48.6875 27.296875 
z
" id="DejaVuSans-112"/>
      </defs>
      <use xlink:href="#DejaVuSans-112"/>
      <use x="63.476562" xlink:href="#DejaVuSans-114"/>
      <use x="102.339844" xlink:href="#DejaVuSans-101"/>
      <use x="163.863281" xlink:href="#DejaVuSans-99"/>
      <use x="218.84375" xlink:href="#DejaVuSans-105"/>
      <use x="246.626953" xlink:href="#DejaVuSans-115"/>
      <use x="298.726562" xlink:href="#DejaVuSans-105"/>
      <use x="326.509766" xlink:href="#DejaVuSans-111"/>
      <use x="387.691406" xlink:href="#DejaVuSans-110"/>
     </g>
    </g>
    <g id="PathCollection_13">
     <defs>
      <path d="M 0 3 
C 0.795609 3 1.55874 2.683901 2.12132 2.12132 
C 2.683901 1.55874 3 0.795609 3 0 
C 3 -0.795609 2.683901 -1.55874 2.12132 -2.12132 
C 1.55874 -2.683901 0.795609 -3 0 -3 
C -0.795609 -3 -1.55874 -2.683901 -2.12132 -2.12132 
C -2.683901 -1.55874 -3 -0.795609 -3 0 
C -3 0.795609 -2.683901 1.55874 -2.12132 2.12132 
C -1.55874 2.683901 -0.795609 3 0 3 
z
" id="me036ac8e5b" style="stroke:#ff7f0e;"/>
     </defs>
     <g>
      <use style="fill:#ff7f0e;stroke:#ff7f0e;" x="56.96725" xlink:href="#me036ac8e5b" y="37.270803"/>
     </g>
    </g>
    <g id="text_19">
     <!-- recall -->
     <g transform="translate(69.45925 39.092553)scale(0.0694 -0.0694)">
      <defs>
       <path d="M 34.28125 27.484375 
Q 23.390625 27.484375 19.1875 25 
Q 14.984375 22.515625 14.984375 16.5 
Q 14.984375 11.71875 18.140625 8.90625 
Q 21.296875 6.109375 26.703125 6.109375 
Q 34.1875 6.109375 38.703125 11.40625 
Q 43.21875 16.703125 43.21875 25.484375 
L 43.21875 27.484375 
z
M 52.203125 31.203125 
L 52.203125 0 
L 43.21875 0 
L 43.21875 8.296875 
Q 40.140625 3.328125 35.546875 0.953125 
Q 30.953125 -1.421875 24.3125 -1.421875 
Q 15.921875 -1.421875 10.953125 3.296875 
Q 6 8.015625 6 15.921875 
Q 6 25.140625 12.171875 29.828125 
Q 18.359375 34.515625 30.609375 34.515625 
L 43.21875 34.515625 
L 43.21875 35.40625 
Q 43.21875 41.609375 39.140625 45 
Q 35.0625 48.390625 27.6875 48.390625 
Q 23 48.390625 18.546875 47.265625 
Q 14.109375 46.140625 10.015625 43.890625 
L 10.015625 52.203125 
Q 14.9375 54.109375 19.578125 55.046875 
Q 24.21875 56 28.609375 56 
Q 40.484375 56 46.34375 49.84375 
Q 52.203125 43.703125 52.203125 31.203125 
z
" id="DejaVuSans-97"/>
       <path d="M 9.421875 75.984375 
L 18.40625 75.984375 
L 18.40625 0 
L 9.421875 0 
z
" id="DejaVuSans-108"/>
      </defs>
      <use xlink:href="#DejaVuSans-114"/>
      <use x="38.863281" xlink:href="#DejaVuSans-101"/>
      <use x="100.386719" xlink:href="#DejaVuSans-99"/>
      <use x="155.367188" xlink:href="#DejaVuSans-97"/>
      <use x="216.646484" xlink:href="#DejaVuSans-108"/>
      <use x="244.429688" xlink:href="#DejaVuSans-108"/>
     </g>
    </g>
    <g id="PathCollection_14">
     <defs>
      <path d="M 0 3 
C 0.795609 3 1.55874 2.683901 2.12132 2.12132 
C 2.683901 1.55874 3 0.795609 3 0 
C 3 -0.795609 2.683901 -1.55874 2.12132 -2.12132 
C 1.55874 -2.683901 0.795609 -3 0 -3 
C -0.795609 -3 -1.55874 -2.683901 -2.12132 -2.12132 
C -2.683901 -1.55874 -3 -0.795609 -3 0 
C -3 0.795609 -2.683901 1.55874 -2.12132 2.12132 
C -1.55874 2.683901 -0.795609 3 0 3 
z
" id="ma8e789f68e" style="stroke:#2ca02c;"/>
     </defs>
     <g>
      <use style="fill:#2ca02c;stroke:#2ca02c;" x="56.96725" xlink:href="#ma8e789f68e" y="47.457422"/>
     </g>
    </g>
    <g id="text_20">
     <!-- accuracy -->
     <g transform="translate(69.45925 49.279172)scale(0.0694 -0.0694)">
      <defs>
       <path d="M 8.5 21.578125 
L 8.5 54.6875 
L 17.484375 54.6875 
L 17.484375 21.921875 
Q 17.484375 14.15625 20.5 10.265625 
Q 23.53125 6.390625 29.59375 6.390625 
Q 36.859375 6.390625 41.078125 11.03125 
Q 45.3125 15.671875 45.3125 23.6875 
L 45.3125 54.6875 
L 54.296875 54.6875 
L 54.296875 0 
L 45.3125 0 
L 45.3125 8.40625 
Q 42.046875 3.421875 37.71875 1 
Q 33.40625 -1.421875 27.6875 -1.421875 
Q 18.265625 -1.421875 13.375 4.4375 
Q 8.5 10.296875 8.5 21.578125 
z
M 31.109375 56 
z
" id="DejaVuSans-117"/>
       <path d="M 32.171875 -5.078125 
Q 28.375 -14.84375 24.75 -17.8125 
Q 21.140625 -20.796875 15.09375 -20.796875 
L 7.90625 -20.796875 
L 7.90625 -13.28125 
L 13.1875 -13.28125 
Q 16.890625 -13.28125 18.9375 -11.515625 
Q 21 -9.765625 23.484375 -3.21875 
L 25.09375 0.875 
L 2.984375 54.6875 
L 12.5 54.6875 
L 29.59375 11.921875 
L 46.6875 54.6875 
L 56.203125 54.6875 
z
" id="DejaVuSans-121"/>
      </defs>
      <use xlink:href="#DejaVuSans-97"/>
      <use x="61.279297" xlink:href="#DejaVuSans-99"/>
      <use x="116.259766" xlink:href="#DejaVuSans-99"/>
      <use x="171.240234" xlink:href="#DejaVuSans-117"/>
      <use x="234.619141" xlink:href="#DejaVuSans-114"/>
      <use x="275.732422" xlink:href="#DejaVuSans-97"/>
      <use x="337.011719" xlink:href="#DejaVuSans-99"/>
      <use x="391.992188" xlink:href="#DejaVuSans-121"/>
     </g>
    </g>
    <g id="PathCollection_15">
     <defs>
      <path d="M 0 3 
C 0.795609 3 1.55874 2.683901 2.12132 2.12132 
C 2.683901 1.55874 3 0.795609 3 0 
C 3 -0.795609 2.683901 -1.55874 2.12132 -2.12132 
C 1.55874 -2.683901 0.795609 -3 0 -3 
C -0.795609 -3 -1.55874 -2.683901 -2.12132 -2.12132 
C -2.683901 -1.55874 -3 -0.795609 -3 0 
C -3 0.795609 -2.683901 1.55874 -2.12132 2.12132 
C -1.55874 2.683901 -0.795609 3 0 3 
z
" id="m0a8036304d" style="stroke:#d62728;"/>
     </defs>
     <g>
      <use style="fill:#d62728;stroke:#d62728;" x="56.96725" xlink:href="#m0a8036304d" y="57.644041"/>
     </g>
    </g>
    <g id="text_21">
     <!-- f1 -->
     <g transform="translate(69.45925 59.465791)scale(0.0694 -0.0694)">
      <defs>
       <path d="M 37.109375 75.984375 
L 37.109375 68.5 
L 28.515625 68.5 
Q 23.6875 68.5 21.796875 66.546875 
Q 19.921875 64.59375 19.921875 59.515625 
L 19.921875 54.6875 
L 34.71875 54.6875 
L 34.71875 47.703125 
L 19.921875 47.703125 
L 19.921875 0 
L 10.890625 0 
L 10.890625 47.703125 
L 2.296875 47.703125 
L 2.296875 54.6875 
L 10.890625 54.6875 
L 10.890625 58.5 
Q 10.890625 67.625 15.140625 71.796875 
Q 19.390625 75.984375 28.609375 75.984375 
z
" id="DejaVuSans-102"/>
      </defs>
      <use xlink:href="#DejaVuSans-102"/>
      <use x="35.205078" xlink:href="#DejaVuSans-49"/>
     </g>
    </g>
    <g id="text_22">
     <!-- ncols -->
     <g transform="translate(69.45925 69.652409)scale(0.0694 -0.0694)">
      <use xlink:href="#DejaVuSans-110"/>
      <use x="63.378906" xlink:href="#DejaVuSans-99"/>
      <use x="118.359375" xlink:href="#DejaVuSans-111"/>
      <use x="179.541016" xlink:href="#DejaVuSans-108"/>
      <use x="207.324219" xlink:href="#DejaVuSans-115"/>
     </g>
    </g>
    <g id="PathCollection_16">
     <defs>
      <path d="M 0 3.307189 
C 0.877077 3.307189 1.718349 2.958723 2.338536 2.338536 
C 2.958723 1.718349 3.307189 0.877077 3.307189 0 
C 3.307189 -0.877077 2.958723 -1.718349 2.338536 -2.338536 
C 1.718349 -2.958723 0.877077 -3.307189 0 -3.307189 
C -0.877077 -3.307189 -1.718349 -2.958723 -2.338536 -2.338536 
C -2.958723 -1.718349 -3.307189 -0.877077 -3.307189 0 
C -3.307189 0.877077 -2.958723 1.718349 -2.338536 2.338536 
C -1.718349 2.958723 -0.877077 3.307189 0 3.307189 
z
" id="m656d5bf031" style="stroke:#333333;"/>
     </defs>
     <g>
      <use style="fill:#333333;stroke:#333333;" x="56.96725" xlink:href="#m656d5bf031" y="78.017278"/>
     </g>
    </g>
    <g id="text_23">
     <!-- 8 -->
     <g transform="translate(69.45925 79.839028)scale(0.0694 -0.0694)">
      <use xlink:href="#DejaVuSans-56"/>
     </g>
    </g>
    <g id="PathCollection_17">
     <defs>
      <path d="M 0 3.66572 
C 0.97216 3.66572 1.904634 3.279476 2.592055 2.592055 
C 3.279476 1.904634 3.66572 0.97216 3.66572 0 
C 3.66572 -0.97216 3.279476 -1.904634 2.592055 -2.592055 
C 1.904634 -3.279476 0.97216 -3.66572 0 -3.66572 
C -0.97216 -3.66572 -1.904634 -3.279476 -2.592055 -2.592055 
C -3.279476 -1.904634 -3.66572 -0.97216 -3.66572 0 
C -3.66572 0.97216 -3.279476 1.904634 -2.592055 2.592055 
C -1.904634 3.279476 -0.97216 3.66572 0 3.66572 
z
" id="m3b0010b4f8" style="stroke:#333333;"/>
     </defs>
     <g>
      <use style="fill:#333333;stroke:#333333;" x="56.96725" xlink:href="#m3b0010b4f8" y="88.203897"/>
     </g>
    </g>
    <g id="text_24">
     <!-- 16 -->
     <g transform="translate(69.45925 90.025647)scale(0.0694 -0.0694)">
      <use xlink:href="#DejaVuSans-49"/>
      <use x="63.623047" xlink:href="#DejaVuSans-54"/>
     </g>
    </g>
    <g id="PathCollection_18">
     <defs>
      <path d="M 0 3.99218 
C 1.058738 3.99218 2.074256 3.571539 2.822897 2.822897 
C 3.571539 2.074256 3.99218 1.058738 3.99218 0 
C 3.99218 -1.058738 3.571539 -2.074256 2.822897 -2.822897 
C 2.074256 -3.571539 1.058738 -3.99218 0 -3.99218 
C -1.058738 -3.99218 -2.074256 -3.571539 -2.822897 -2.822897 
C -3.571539 -2.074256 -3.99218 -1.058738 -3.99218 0 
C -3.99218 1.058738 -3.571539 2.074256 -2.822897 2.822897 
C -2.074256 3.571539 -1.058738 3.99218 0 3.99218 
z
" id="m24c083ffc6" style="stroke:#333333;"/>
     </defs>
     <g>
      <use style="fill:#333333;stroke:#333333;" x="56.96725" xlink:href="#m24c083ffc6" y="98.390516"/>
     </g>
    </g>
    <g id="text_25">
     <!-- 24 -->
     <g transform="translate(69.45925 100.212266)scale(0.0694 -0.0694)">
      <use xlink:href="#DejaVuSans-50"/>
      <use x="63.623047" xlink:href="#DejaVuSans-52"/>
     </g>
    </g>
    <g id="PathCollection_19">
     <defs>
      <path d="M 0 4.293891 
C 1.138753 4.293891 2.231019 3.84146 3.036239 3.036239 
C 3.84146 2.231019 4.293891 1.138753 4.293891 0 
C 4.293891 -1.138753 3.84146 -2.231019 3.036239 -3.036239 
C 2.231019 -3.84146 1.138753 -4.293891 0 -4.293891 
C -1.138753 -4.293891 -2.231019 -3.84146 -3.036239 -3.036239 
C -3.84146 -2.231019 -4.293891 -1.138753 -4.293891 0 
C -4.293891 1.138753 -3.84146 2.231019 -3.036239 3.036239 
C -2.231019 3.84146 -1.138753 4.293891 0 4.293891 
z
" id="mf2446a104d" style="stroke:#333333;"/>
     </defs>
     <g>
      <use style="fill:#333333;stroke:#333333;" x="56.96725" xlink:href="#mf2446a104d" y="108.577134"/>
     </g>
    </g>
    <g id="text_26">
     <!-- 32 -->
     <g transform="translate(69.45925 110.398884)scale(0.0694 -0.0694)">
      <use xlink:href="#DejaVuSans-51"/>
      <use x="63.623047" xlink:href="#DejaVuSans-50"/>
     </g>
    </g>
    <g id="PathCollection_20">
     <defs>
      <path d="M 0 4.575751 
C 1.213503 4.575751 2.377468 4.093621 3.235545 3.235545 
C 4.093621 2.377468 4.575751 1.213503 4.575751 0 
C 4.575751 -1.213503 4.093621 -2.377468 3.235545 -3.235545 
C 2.377468 -4.093621 1.213503 -4.575751 0 -4.575751 
C -1.213503 -4.575751 -2.377468 -4.093621 -3.235545 -3.235545 
C -4.093621 -2.377468 -4.575751 -1.213503 -4.575751 0 
C -4.575751 1.213503 -4.093621 2.377468 -3.235545 3.235545 
C -2.377468 4.093621 -1.213503 4.575751 0 4.575751 
z
" id="m18c3d1154d" style="stroke:#333333;"/>
     </defs>
     <g>
      <use style="fill:#333333;stroke:#333333;" x="56.96725" xlink:href="#m18c3d1154d" y="118.763753"/>
     </g>
    </g>
    <g id="text_27">
     <!-- 40 -->
     <g transform="translate(69.45925 120.585503)scale(0.0694 -0.0694)">
      <use xlink:href="#DejaVuSans-52"/>
      <use x="63.623047" xlink:href="#DejaVuSans-48"/>
     </g>
    </g>
    <g id="PathCollection_21">
     <defs>
      <path d="M 0 4.841229 
C 1.283909 4.841229 2.515405 4.331127 3.423266 3.423266 
C 4.331127 2.515405 4.841229 1.283909 4.841229 0 
C 4.841229 -1.283909 4.331127 -2.515405 3.423266 -3.423266 
C 2.515405 -4.331127 1.283909 -4.841229 0 -4.841229 
C -1.283909 -4.841229 -2.515405 -4.331127 -3.423266 -3.423266 
C -4.331127 -2.515405 -4.841229 -1.283909 -4.841229 0 
C -4.841229 1.283909 -4.331127 2.515405 -3.423266 3.423266 
C -2.515405 4.331127 -1.283909 4.841229 0 4.841229 
z
" id="ma580009e04" style="stroke:#333333;"/>
     </defs>
     <g>
      <use style="fill:#333333;stroke:#333333;" x="56.96725" xlink:href="#ma580009e04" y="128.950372"/>
     </g>
    </g>
    <g id="text_28">
     <!-- 48 -->
     <g transform="translate(69.45925 130.772122)scale(0.0694 -0.0694)">
      <use xlink:href="#DejaVuSans-52"/>
      <use x="63.623047" xlink:href="#DejaVuSans-56"/>
     </g>
    </g>
   </g>
  </g>
 </g>
 <defs>
  <clipPath id="p21ac9c0de5">
   <rect height="266.112" width="357.12" x="43.78125" y="7.2"/>
  </clipPath>
 </defs>
</svg>
