<?xml version="1.0" encoding="utf-8" standalone="no"?>
<!DOCTYPE svg PUBLIC "-//W3C//DTD SVG 1.1//EN"
  "http://www.w3.org/Graphics/SVG/1.1/DTD/svg11.dtd">
<!-- Created with matplotlib (https://matplotlib.org/) -->
<svg height="310.86825pt" version="1.1" viewBox="0 0 408.10125 310.86825" width="408.10125pt" xmlns="http://www.w3.org/2000/svg" xmlns:xlink="http://www.w3.org/1999/xlink">
 <metadata>
  <rdf:RDF xmlns:cc="http://creativecommons.org/ns#" xmlns:dc="http://purl.org/dc/elements/1.1/" xmlns:rdf="http://www.w3.org/1999/02/22-rdf-syntax-ns#">
   <cc:Work>
    <dc:type rdf:resource="http://purl.org/dc/dcmitype/StillImage"/>
    <dc:date>2022-03-09T16:20:05.779746</dc:date>
    <dc:format>image/svg+xml</dc:format>
    <dc:creator>
     <cc:Agent>
      <dc:title>Matplotlib v3.3.4, https://matplotlib.org/</dc:title>
     </cc:Agent>
    </dc:creator>
   </cc:Work>
  </rdf:RDF>
 </metadata>
 <defs>
  <style type="text/css">*{stroke-linecap:butt;stroke-linejoin:round;}</style>
 </defs>
 <g id="figure_1">
  <g id="patch_1">
   <path d="M 0 310.86825 
L 408.10125 310.86825 
L 408.10125 0 
L 0 0 
z
" style="fill:#ffffff;"/>
  </g>
  <g id="axes_1">
   <g id="patch_2">
    <path d="M 43.78125 273.312 
L 400.90125 273.312 
L 400.90125 7.2 
L 43.78125 7.2 
z
" style="fill:#ffffff;"/>
   </g>
   <g id="PathCollection_1">
    <path clip-path="url(#p639ae68808)" d="M 384.668523 144.476486 
C 385.787809 144.476486 386.861402 144.031789 387.652857 143.240334 
C 388.444311 142.448879 388.889008 141.375286 388.889008 140.256 
C 388.889008 139.136714 388.444311 138.063121 387.652857 137.271666 
C 386.861402 136.480211 385.787809 136.035514 384.668523 136.035514 
C 383.549237 136.035514 382.475643 136.480211 381.684189 137.271666 
C 380.892734 138.063121 380.448037 139.136714 380.448037 140.256 
C 380.448037 141.375286 380.892734 142.448879 381.684189 143.240334 
C 382.475643 144.031789 383.549237 144.476486 384.668523 144.476486 
z
" style="fill:#2ca02c;stroke:#ffffff;stroke-width:0.525357;"/>
    <path clip-path="url(#p639ae68808)" d="M 384.668523 140.305451 
C 385.787809 140.305451 386.861402 139.860754 387.652857 139.0693 
C 388.444311 138.277845 388.889008 137.204251 388.889008 136.084966 
C 388.889008 134.96568 388.444311 133.892086 387.652857 133.100631 
C 386.861402 132.309177 385.787809 131.86448 384.668523 131.86448 
C 383.549237 131.86448 382.475643 132.309177 381.684189 133.100631 
C 380.892734 133.892086 380.448037 134.96568 380.448037 136.084966 
C 380.448037 137.204251 380.892734 138.277845 381.684189 139.0693 
C 382.475643 139.860754 383.549237 140.305451 384.668523 140.305451 
z
" style="fill:#1f77b4;stroke:#ffffff;stroke-width:0.525357;"/>
    <path clip-path="url(#p639ae68808)" d="M 384.668523 23.516486 
C 385.787809 23.516486 386.861402 23.071789 387.652857 22.280334 
C 388.444311 21.488879 388.889008 20.415286 388.889008 19.296 
C 388.889008 18.176714 388.444311 17.103121 387.652857 16.311666 
C 386.861402 15.520211 385.787809 15.075514 384.668523 15.075514 
C 383.549237 15.075514 382.475643 15.520211 381.684189 16.311666 
C 380.892734 17.103121 380.448037 18.176714 380.448037 19.296 
C 380.448037 20.415286 380.892734 21.488879 381.684189 22.280334 
C 382.475643 23.071789 383.549237 23.516486 384.668523 23.516486 
z
" style="fill:#ff7f0e;stroke:#ffffff;stroke-width:0.525357;"/>
    <path clip-path="url(#p639ae68808)" d="M 384.668523 100.491031 
C 385.787809 100.491031 386.861402 100.046334 387.652857 99.25488 
C 388.444311 98.463425 388.889008 97.389831 388.889008 96.270545 
C 388.889008 95.15126 388.444311 94.077666 387.652857 93.286211 
C 386.861402 92.494757 385.787809 92.05006 384.668523 92.05006 
C 383.549237 92.05006 382.475643 92.494757 381.684189 93.286211 
C 380.892734 94.077666 380.448037 95.15126 380.448037 96.270545 
C 380.448037 97.389831 380.892734 98.463425 381.684189 99.25488 
C 382.475643 100.046334 383.549237 100.491031 384.668523 100.491031 
z
" style="fill:#d62728;stroke:#ffffff;stroke-width:0.525357;"/>
    <path clip-path="url(#p639ae68808)" d="M 344.086705 153.732981 
C 345.41272 153.732981 346.684604 153.20615 347.622238 152.268515 
C 348.559873 151.33088 349.086705 150.058997 349.086705 148.732981 
C 349.086705 147.406966 348.559873 146.135082 347.622238 145.197447 
C 346.684604 144.259813 345.41272 143.732981 344.086705 143.732981 
C 342.760689 143.732981 341.488805 144.259813 340.551171 145.197447 
C 339.613536 146.135082 339.086705 147.406966 339.086705 148.732981 
C 339.086705 150.058997 339.613536 151.33088 340.551171 152.268515 
C 341.488805 153.20615 342.760689 153.732981 344.086705 153.732981 
z
" style="fill:#2ca02c;stroke:#ffffff;stroke-width:0.525357;"/>
    <path clip-path="url(#p639ae68808)" d="M 344.086705 139.373447 
C 345.41272 139.373447 346.684604 138.846615 347.622238 137.908981 
C 348.559873 136.971346 349.086705 135.699462 349.086705 134.373447 
C 349.086705 133.047431 348.559873 131.775547 347.622238 130.837913 
C 346.684604 129.900278 345.41272 129.373447 344.086705 129.373447 
C 342.760689 129.373447 341.488805 129.900278 340.551171 130.837913 
C 339.613536 131.775547 339.086705 133.047431 339.086705 134.373447 
C 339.086705 135.699462 339.613536 136.971346 340.551171 137.908981 
C 341.488805 138.846615 342.760689 139.373447 344.086705 139.373447 
z
" style="fill:#1f77b4;stroke:#ffffff;stroke-width:0.525357;"/>
    <path clip-path="url(#p639ae68808)" d="M 344.086705 60.643586 
C 345.41272 60.643586 346.684604 60.116755 347.622238 59.17912 
C 348.559873 58.241486 349.086705 56.969602 349.086705 55.643586 
C 349.086705 54.317571 348.559873 53.045687 347.622238 52.108052 
C 346.684604 51.170418 345.41272 50.643586 344.086705 50.643586 
C 342.760689 50.643586 341.488805 51.170418 340.551171 52.108052 
C 339.613536 53.045687 339.086705 54.317571 339.086705 55.643586 
C 339.086705 56.969602 339.613536 58.241486 340.551171 59.17912 
C 341.488805 60.116755 342.760689 60.643586 344.086705 60.643586 
z
" style="fill:#ff7f0e;stroke:#ffffff;stroke-width:0.525357;"/>
    <path clip-path="url(#p639ae68808)" d="M 344.086705 109.331789 
C 345.41272 109.331789 346.684604 108.804958 347.622238 107.867323 
C 348.559873 106.929689 349.086705 105.657805 349.086705 104.331789 
C 349.086705 103.005774 348.559873 101.73389 347.622238 100.796256 
C 346.684604 99.858621 345.41272 99.331789 344.086705 99.331789 
C 342.760689 99.331789 341.488805 99.858621 340.551171 100.796256 
C 339.613536 101.73389 339.086705 103.005774 339.086705 104.331789 
C 339.086705 105.657805 339.613536 106.929689 340.551171 107.867323 
C 341.488805 108.804958 342.760689 109.331789 344.086705 109.331789 
z
" style="fill:#d62728;stroke:#ffffff;stroke-width:0.525357;"/>
    <path clip-path="url(#p639ae68808)" d="M 60.013977 264.378278 
C 60.852623 264.378278 61.657033 264.04508 62.250045 263.452068 
C 62.843057 262.859056 63.176255 262.054646 63.176255 261.216 
C 63.176255 260.377354 62.843057 259.572944 62.250045 258.979932 
C 61.657033 258.38692 60.852623 258.053722 60.013977 258.053722 
C 59.175331 258.053722 58.370921 258.38692 57.777909 258.979932 
C 57.184897 259.572944 56.8517 260.377354 56.8517 261.216 
C 56.8517 262.054646 57.184897 262.859056 57.777909 263.452068 
C 58.370921 264.04508 59.175331 264.378278 60.013977 264.378278 
z
" style="fill:#2ca02c;stroke:#ffffff;stroke-width:0.525357;"/>
    <path clip-path="url(#p639ae68808)" d="M 60.013977 264.378278 
C 60.852623 264.378278 61.657033 264.04508 62.250045 263.452068 
C 62.843057 262.859056 63.176255 262.054646 63.176255 261.216 
C 63.176255 260.377354 62.843057 259.572944 62.250045 258.979932 
C 61.657033 258.38692 60.852623 258.053722 60.013977 258.053722 
C 59.175331 258.053722 58.370921 258.38692 57.777909 258.979932 
C 57.184897 259.572944 56.8517 260.377354 56.8517 261.216 
C 56.8517 262.054646 57.184897 262.859056 57.777909 263.452068 
C 58.370921 264.04508 59.175331 264.378278 60.013977 264.378278 
z
" style="fill:#1f77b4;stroke:#ffffff;stroke-width:0.525357;"/>
    <path clip-path="url(#p639ae68808)" d="M 60.013977 264.378278 
C 60.852623 264.378278 61.657033 264.04508 62.250045 263.452068 
C 62.843057 262.859056 63.176255 262.054646 63.176255 261.216 
C 63.176255 260.377354 62.843057 259.572944 62.250045 258.979932 
C 61.657033 258.38692 60.852623 258.053722 60.013977 258.053722 
C 59.175331 258.053722 58.370921 258.38692 57.777909 258.979932 
C 57.184897 259.572944 56.8517 260.377354 56.8517 261.216 
C 56.8517 262.054646 57.184897 262.859056 57.777909 263.452068 
C 58.370921 264.04508 59.175331 264.378278 60.013977 264.378278 
z
" style="fill:#ff7f0e;stroke:#ffffff;stroke-width:0.525357;"/>
    <path clip-path="url(#p639ae68808)" d="M 60.013977 264.378278 
C 60.852623 264.378278 61.657033 264.04508 62.250045 263.452068 
C 62.843057 262.859056 63.176255 262.054646 63.176255 261.216 
C 63.176255 260.377354 62.843057 259.572944 62.250045 258.979932 
C 61.657033 258.38692 60.852623 258.053722 60.013977 258.053722 
C 59.175331 258.053722 58.370921 258.38692 57.777909 258.979932 
C 57.184897 259.572944 56.8517 260.377354 56.8517 261.216 
C 56.8517 262.054646 57.184897 262.859056 57.777909 263.452068 
C 58.370921 264.04508 59.175331 264.378278 60.013977 264.378278 
z
" style="fill:#d62728;stroke:#ffffff;stroke-width:0.525357;"/>
    <path clip-path="url(#p639ae68808)" d="M 100.595795 212.776368 
C 101.497583 212.776368 102.362558 212.418083 103.000218 211.780423 
C 103.637879 211.142763 103.996163 210.277788 103.996163 209.376 
C 103.996163 208.474212 103.637879 207.609237 103.000218 206.971577 
C 102.362558 206.333917 101.497583 205.975632 100.595795 205.975632 
C 99.694007 205.975632 98.829033 206.333917 98.191372 206.971577 
C 97.553712 207.609237 97.195428 208.474212 97.195428 209.376 
C 97.195428 210.277788 97.553712 211.142763 98.191372 211.780423 
C 98.829033 212.418083 99.694007 212.776368 100.595795 212.776368 
z
" style="fill:#2ca02c;stroke:#ffffff;stroke-width:0.525357;"/>
    <path clip-path="url(#p639ae68808)" d="M 100.595795 178.216368 
C 101.497583 178.216368 102.362558 177.858083 103.000218 177.220423 
C 103.637879 176.582763 103.996163 175.717788 103.996163 174.816 
C 103.996163 173.914212 103.637879 173.049237 103.000218 172.411577 
C 102.362558 171.773917 101.497583 171.415632 100.595795 171.415632 
C 99.694007 171.415632 98.829033 171.773917 98.191372 172.411577 
C 97.553712 173.049237 97.195428 173.914212 97.195428 174.816 
C 97.195428 175.717788 97.553712 176.582763 98.191372 177.220423 
C 98.829033 177.858083 99.694007 178.216368 100.595795 178.216368 
z
" style="fill:#1f77b4;stroke:#ffffff;stroke-width:0.525357;"/>
    <path clip-path="url(#p639ae68808)" d="M 100.595795 178.216368 
C 101.497583 178.216368 102.362558 177.858083 103.000218 177.220423 
C 103.637879 176.582763 103.996163 175.717788 103.996163 174.816 
C 103.996163 173.914212 103.637879 173.049237 103.000218 172.411577 
C 102.362558 171.773917 101.497583 171.415632 100.595795 171.415632 
C 99.694007 171.415632 98.829033 171.773917 98.191372 172.411577 
C 97.553712 173.049237 97.195428 173.914212 97.195428 174.816 
C 97.195428 175.717788 97.553712 176.582763 98.191372 177.220423 
C 98.829033 177.858083 99.694007 178.216368 100.595795 178.216368 
z
" style="fill:#ff7f0e;stroke:#ffffff;stroke-width:0.525357;"/>
    <path clip-path="url(#p639ae68808)" d="M 100.595795 178.216368 
C 101.497583 178.216368 102.362558 177.858083 103.000218 177.220423 
C 103.637879 176.582763 103.996163 175.717788 103.996163 174.816 
C 103.996163 173.914212 103.637879 173.049237 103.000218 172.411577 
C 102.362558 171.773917 101.497583 171.415632 100.595795 171.415632 
C 99.694007 171.415632 98.829033 171.773917 98.191372 172.411577 
C 97.553712 173.049237 97.195428 173.914212 97.195428 174.816 
C 97.195428 175.717788 97.553712 176.582763 98.191372 177.220423 
C 98.829033 177.858083 99.694007 178.216368 100.595795 178.216368 
z
" style="fill:#d62728;stroke:#ffffff;stroke-width:0.525357;"/>
    <path clip-path="url(#p639ae68808)" d="M 141.177614 204.936149 
C 142.115248 204.936149 143.014606 204.563623 143.677614 203.900615 
C 144.340621 203.237608 144.713148 202.33825 144.713148 201.400615 
C 144.713148 200.462981 144.340621 199.563623 143.677614 198.900615 
C 143.014606 198.237608 142.115248 197.865081 141.177614 197.865081 
C 140.239979 197.865081 139.340621 198.237608 138.677614 198.900615 
C 138.014606 199.563623 137.64208 200.462981 137.64208 201.400615 
C 137.64208 202.33825 138.014606 203.237608 138.677614 203.900615 
C 139.340621 204.563623 140.239979 204.936149 141.177614 204.936149 
z
" style="fill:#2ca02c;stroke:#ffffff;stroke-width:0.525357;"/>
    <path clip-path="url(#p639ae68808)" d="M 141.177614 178.351534 
C 142.115248 178.351534 143.014606 177.979008 143.677614 177.316 
C 144.340621 176.652992 144.713148 175.753635 144.713148 174.816 
C 144.713148 173.878365 144.340621 172.979008 143.677614 172.316 
C 143.014606 171.652992 142.115248 171.280466 141.177614 171.280466 
C 140.239979 171.280466 139.340621 171.652992 138.677614 172.316 
C 138.014606 172.979008 137.64208 173.878365 137.64208 174.816 
C 137.64208 175.753635 138.014606 176.652992 138.677614 177.316 
C 139.340621 177.979008 140.239979 178.351534 141.177614 178.351534 
z
" style="fill:#1f77b4;stroke:#ffffff;stroke-width:0.525357;"/>
    <path clip-path="url(#p639ae68808)" d="M 141.177614 153.66582 
C 142.115248 153.66582 143.014606 153.293293 143.677614 152.630286 
C 144.340621 151.967278 144.713148 151.06792 144.713148 150.130286 
C 144.713148 149.192651 144.340621 148.293293 143.677614 147.630286 
C 143.014606 146.967278 142.115248 146.594752 141.177614 146.594752 
C 140.239979 146.594752 139.340621 146.967278 138.677614 147.630286 
C 138.014606 148.293293 137.64208 149.192651 137.64208 150.130286 
C 137.64208 151.06792 138.014606 151.967278 138.677614 152.630286 
C 139.340621 153.293293 140.239979 153.66582 141.177614 153.66582 
z
" style="fill:#ff7f0e;stroke:#ffffff;stroke-width:0.525357;"/>
    <path clip-path="url(#p639ae68808)" d="M 141.177614 167.551534 
C 142.115248 167.551534 143.014606 167.179008 143.677614 166.516 
C 144.340621 165.852992 144.713148 164.953635 144.713148 164.016 
C 144.713148 163.078365 144.340621 162.179008 143.677614 161.516 
C 143.014606 160.852992 142.115248 160.480466 141.177614 160.480466 
C 140.239979 160.480466 139.340621 160.852992 138.677614 161.516 
C 138.014606 162.179008 137.64208 163.078365 137.64208 164.016 
C 137.64208 164.953635 138.014606 165.852992 138.677614 166.516 
C 139.340621 167.179008 140.239979 167.551534 141.177614 167.551534 
z
" style="fill:#d62728;stroke:#ffffff;stroke-width:0.525357;"/>
    <path clip-path="url(#p639ae68808)" d="M 181.759432 207.366 
C 182.753943 207.366 183.707856 206.970876 184.411082 206.26765 
C 185.114308 205.564425 185.509432 204.610512 185.509432 203.616 
C 185.509432 202.621488 185.114308 201.667575 184.411082 200.96435 
C 183.707856 200.261124 182.753943 199.866 181.759432 199.866 
C 180.76492 199.866 179.811007 200.261124 179.107781 200.96435 
C 178.404555 201.667575 178.009432 202.621488 178.009432 203.616 
C 178.009432 204.610512 178.404555 205.564425 179.107781 206.26765 
C 179.811007 206.970876 180.76492 207.366 181.759432 207.366 
z
" style="fill:#2ca02c;stroke:#ffffff;stroke-width:0.525357;"/>
    <path clip-path="url(#p639ae68808)" d="M 181.759432 185.212154 
C 182.753943 185.212154 183.707856 184.81703 184.411082 184.113804 
C 185.114308 183.410578 185.509432 182.456665 185.509432 181.462154 
C 185.509432 180.467642 185.114308 179.513729 184.411082 178.810503 
C 183.707856 178.107278 182.753943 177.712154 181.759432 177.712154 
C 180.76492 177.712154 179.811007 178.107278 179.107781 178.810503 
C 178.404555 179.513729 178.009432 180.467642 178.009432 181.462154 
C 178.009432 182.456665 178.404555 183.410578 179.107781 184.113804 
C 179.811007 184.81703 180.76492 185.212154 181.759432 185.212154 
z
" style="fill:#1f77b4;stroke:#ffffff;stroke-width:0.525357;"/>
    <path clip-path="url(#p639ae68808)" d="M 181.759432 149.766 
C 182.753943 149.766 183.707856 149.370876 184.411082 148.66765 
C 185.114308 147.964425 185.509432 147.010512 185.509432 146.016 
C 185.509432 145.021488 185.114308 144.067575 184.411082 143.36435 
C 183.707856 142.661124 182.753943 142.266 181.759432 142.266 
C 180.76492 142.266 179.811007 142.661124 179.107781 143.36435 
C 178.404555 144.067575 178.009432 145.021488 178.009432 146.016 
C 178.009432 147.010512 178.404555 147.964425 179.107781 148.66765 
C 179.811007 149.370876 180.76492 149.766 181.759432 149.766 
z
" style="fill:#ff7f0e;stroke:#ffffff;stroke-width:0.525357;"/>
    <path clip-path="url(#p639ae68808)" d="M 181.759432 170.711455 
C 182.753943 170.711455 183.707856 170.316331 184.411082 169.613105 
C 185.114308 168.909879 185.509432 167.955966 185.509432 166.961455 
C 185.509432 165.966943 185.114308 165.01303 184.411082 164.309804 
C 183.707856 163.606578 182.753943 163.211455 181.759432 163.211455 
C 180.76492 163.211455 179.811007 163.606578 179.107781 164.309804 
C 178.404555 165.01303 178.009432 165.966943 178.009432 166.961455 
C 178.009432 167.955966 178.404555 168.909879 179.107781 169.613105 
C 179.811007 170.316331 180.76492 170.711455 181.759432 170.711455 
z
" style="fill:#d62728;stroke:#ffffff;stroke-width:0.525357;"/>
    <path clip-path="url(#p639ae68808)" d="M 222.34125 213.407129 
C 223.410318 213.407129 224.435743 212.982384 225.191689 212.226439 
C 225.947634 211.470493 226.372379 210.445068 226.372379 209.376 
C 226.372379 208.306932 225.947634 207.281507 225.191689 206.525561 
C 224.435743 205.769616 223.410318 205.344871 222.34125 205.344871 
C 221.272182 205.344871 220.246757 205.769616 219.490811 206.525561 
C 218.734866 207.281507 218.310121 208.306932 218.310121 209.376 
C 218.310121 210.445068 218.734866 211.470493 219.490811 212.226439 
C 220.246757 212.982384 221.272182 213.407129 222.34125 213.407129 
z
" style="fill:#2ca02c;stroke:#ffffff;stroke-width:0.525357;"/>
    <path clip-path="url(#p639ae68808)" d="M 222.34125 197.036603 
C 223.410318 197.036603 224.435743 196.611857 225.191689 195.855912 
C 225.947634 195.099967 226.372379 194.074542 226.372379 193.005474 
C 226.372379 191.936406 225.947634 190.91098 225.191689 190.155035 
C 224.435743 189.39909 223.410318 188.974345 222.34125 188.974345 
C 221.272182 188.974345 220.246757 189.39909 219.490811 190.155035 
C 218.734866 190.91098 218.310121 191.936406 218.310121 193.005474 
C 218.310121 194.074542 218.734866 195.099967 219.490811 195.855912 
C 220.246757 196.611857 221.272182 197.036603 222.34125 197.036603 
z
" style="fill:#1f77b4;stroke:#ffffff;stroke-width:0.525357;"/>
    <path clip-path="url(#p639ae68808)" d="M 222.34125 147.428947 
C 223.410318 147.428947 224.435743 147.004202 225.191689 146.248257 
C 225.947634 145.492312 226.372379 144.466886 226.372379 143.397818 
C 226.372379 142.32875 225.947634 141.303325 225.191689 140.54738 
C 224.435743 139.791434 223.410318 139.366689 222.34125 139.366689 
C 221.272182 139.366689 220.246757 139.791434 219.490811 140.54738 
C 218.734866 141.303325 218.310121 142.32875 218.310121 143.397818 
C 218.310121 144.466886 218.734866 145.492312 219.490811 146.248257 
C 220.246757 147.004202 221.272182 147.428947 222.34125 147.428947 
z
" style="fill:#ff7f0e;stroke:#ffffff;stroke-width:0.525357;"/>
    <path clip-path="url(#p639ae68808)" d="M 222.34125 178.847129 
C 223.410318 178.847129 224.435743 178.422384 225.191689 177.666439 
C 225.947634 176.910493 226.372379 175.885068 226.372379 174.816 
C 226.372379 173.746932 225.947634 172.721507 225.191689 171.965561 
C 224.435743 171.209616 223.410318 170.784871 222.34125 170.784871 
C 221.272182 170.784871 220.246757 171.209616 219.490811 171.965561 
C 218.734866 172.721507 218.310121 173.746932 218.310121 174.816 
C 218.310121 175.885068 218.734866 176.910493 219.490811 177.666439 
C 220.246757 178.422384 221.272182 178.847129 222.34125 178.847129 
z
" style="fill:#d62728;stroke:#ffffff;stroke-width:0.525357;"/>
    <path clip-path="url(#p639ae68808)" d="M 262.923068 194.855218 
C 264.071431 194.855218 265.172915 194.398968 265.98493 193.586953 
C 266.796946 192.774938 267.253195 191.673454 267.253195 190.525091 
C 267.253195 189.376728 266.796946 188.275244 265.98493 187.463229 
C 265.172915 186.651213 264.071431 186.194964 262.923068 186.194964 
C 261.774705 186.194964 260.673221 186.651213 259.861206 187.463229 
C 259.049191 188.275244 258.592941 189.376728 258.592941 190.525091 
C 258.592941 191.673454 259.049191 192.774938 259.861206 193.586953 
C 260.673221 194.398968 261.774705 194.855218 262.923068 194.855218 
z
" style="fill:#2ca02c;stroke:#ffffff;stroke-width:0.525357;"/>
    <path clip-path="url(#p639ae68808)" d="M 262.923068 179.146127 
C 264.071431 179.146127 265.172915 178.689878 265.98493 177.877862 
C 266.796946 177.065847 267.253195 175.964363 267.253195 174.816 
C 267.253195 173.667637 266.796946 172.566153 265.98493 171.754138 
C 265.172915 170.942122 264.071431 170.485873 262.923068 170.485873 
C 261.774705 170.485873 260.673221 170.942122 259.861206 171.754138 
C 259.049191 172.566153 258.592941 173.667637 258.592941 174.816 
C 258.592941 175.964363 259.049191 177.065847 259.861206 177.877862 
C 260.673221 178.689878 261.774705 179.146127 262.923068 179.146127 
z
" style="fill:#1f77b4;stroke:#ffffff;stroke-width:0.525357;"/>
    <path clip-path="url(#p639ae68808)" d="M 262.923068 110.026127 
C 264.071431 110.026127 265.172915 109.569878 265.98493 108.757862 
C 266.796946 107.945847 267.253195 106.844363 267.253195 105.696 
C 267.253195 104.547637 266.796946 103.446153 265.98493 102.634138 
C 265.172915 101.822122 264.071431 101.365873 262.923068 101.365873 
C 261.774705 101.365873 260.673221 101.822122 259.861206 102.634138 
C 259.049191 103.446153 258.592941 104.547637 258.592941 105.696 
C 258.592941 106.844363 259.049191 107.945847 259.861206 108.757862 
C 260.673221 109.569878 261.774705 110.026127 262.923068 110.026127 
z
" style="fill:#ff7f0e;stroke:#ffffff;stroke-width:0.525357;"/>
    <path clip-path="url(#p639ae68808)" d="M 262.923068 154.460413 
C 264.071431 154.460413 265.172915 154.004163 265.98493 153.192148 
C 266.796946 152.380133 267.253195 151.278649 267.253195 150.130286 
C 267.253195 148.981923 266.796946 147.880439 265.98493 147.068424 
C 265.172915 146.256408 264.071431 145.800159 262.923068 145.800159 
C 261.774705 145.800159 260.673221 146.256408 259.861206 147.068424 
C 259.049191 147.880439 258.592941 148.981923 258.592941 150.130286 
C 258.592941 151.278649 259.049191 152.380133 259.861206 153.192148 
C 260.673221 154.004163 261.774705 154.460413 262.923068 154.460413 
z
" style="fill:#d62728;stroke:#ffffff;stroke-width:0.525357;"/>
    <path clip-path="url(#p639ae68808)" d="M 303.504886 162.279416 
C 304.762855 162.279416 305.96947 161.77962 306.858988 160.890102 
C 307.748507 160.000584 308.248303 158.793969 308.248303 157.536 
C 308.248303 156.278031 307.748507 155.071416 306.858988 154.181898 
C 305.96947 153.29238 304.762855 152.792584 303.504886 152.792584 
C 302.246918 152.792584 301.040303 153.29238 300.150784 154.181898 
C 299.261266 155.071416 298.76147 156.278031 298.76147 157.536 
C 298.76147 158.793969 299.261266 160.000584 300.150784 160.890102 
C 301.040303 161.77962 302.246918 162.279416 303.504886 162.279416 
z
" style="fill:#2ca02c;stroke:#ffffff;stroke-width:0.525357;"/>
    <path clip-path="url(#p639ae68808)" d="M 303.504886 146.328647 
C 304.762855 146.328647 305.96947 145.828851 306.858988 144.939333 
C 307.748507 144.049814 308.248303 142.8432 308.248303 141.585231 
C 308.248303 140.327262 307.748507 139.120647 306.858988 138.231129 
C 305.96947 137.341611 304.762855 136.841814 303.504886 136.841814 
C 302.246918 136.841814 301.040303 137.341611 300.150784 138.231129 
C 299.261266 139.120647 298.76147 140.327262 298.76147 141.585231 
C 298.76147 142.8432 299.261266 144.049814 300.150784 144.939333 
C 301.040303 145.828851 302.246918 146.328647 303.504886 146.328647 
z
" style="fill:#1f77b4;stroke:#ffffff;stroke-width:0.525357;"/>
    <path clip-path="url(#p639ae68808)" d="M 303.504886 71.559416 
C 304.762855 71.559416 305.96947 71.05962 306.858988 70.170102 
C 307.748507 69.280584 308.248303 68.073969 308.248303 66.816 
C 308.248303 65.558031 307.748507 64.351416 306.858988 63.461898 
C 305.96947 62.57238 304.762855 62.072584 303.504886 62.072584 
C 302.246918 62.072584 301.040303 62.57238 300.150784 63.461898 
C 299.261266 64.351416 298.76147 65.558031 298.76147 66.816 
C 298.76147 68.073969 299.261266 69.280584 300.150784 70.170102 
C 301.040303 71.05962 302.246918 71.559416 303.504886 71.559416 
z
" style="fill:#ff7f0e;stroke:#ffffff;stroke-width:0.525357;"/>
    <path clip-path="url(#p639ae68808)" d="M 303.504886 117.845131 
C 304.762855 117.845131 305.96947 117.345334 306.858988 116.455816 
C 307.748507 115.566298 308.248303 114.359683 308.248303 113.101714 
C 308.248303 111.843746 307.748507 110.637131 306.858988 109.747612 
C 305.96947 108.858094 304.762855 108.358298 303.504886 108.358298 
C 302.246918 108.358298 301.040303 108.858094 300.150784 109.747612 
C 299.261266 110.637131 298.76147 111.843746 298.76147 113.101714 
C 298.76147 114.359683 299.261266 115.566298 300.150784 116.455816 
C 301.040303 117.345334 302.246918 117.845131 303.504886 117.845131 
z
" style="fill:#d62728;stroke:#ffffff;stroke-width:0.525357;"/>
   </g>
   <g id="PathCollection_2"/>
   <g id="PathCollection_3"/>
   <g id="PathCollection_4"/>
   <g id="PathCollection_5"/>
   <g id="PathCollection_6"/>
   <g id="PathCollection_7"/>
   <g id="PathCollection_8"/>
   <g id="PathCollection_9"/>
   <g id="PathCollection_10"/>
   <g id="PathCollection_11"/>
   <g id="matplotlib.axis_1">
    <g id="xtick_1">
     <g id="line2d_1">
      <defs>
       <path d="M 0 0 
L 0 3.5 
" id="m1ec5e24129" style="stroke:#000000;stroke-width:0.8;"/>
      </defs>
      <g>
       <use style="stroke:#000000;stroke-width:0.8;" x="60.013977" xlink:href="#m1ec5e24129" y="273.312"/>
      </g>
     </g>
     <g id="text_1">
      <!-- 20 -->
      <g transform="translate(53.651477 287.910437)scale(0.1 -0.1)">
       <defs>
        <path d="M 19.1875 8.296875 
L 53.609375 8.296875 
L 53.609375 0 
L 7.328125 0 
L 7.328125 8.296875 
Q 12.9375 14.109375 22.625 23.890625 
Q 32.328125 33.6875 34.8125 36.53125 
Q 39.546875 41.84375 41.421875 45.53125 
Q 43.3125 49.21875 43.3125 52.78125 
Q 43.3125 58.59375 39.234375 62.25 
Q 35.15625 65.921875 28.609375 65.921875 
Q 23.96875 65.921875 18.8125 64.3125 
Q 13.671875 62.703125 7.8125 59.421875 
L 7.8125 69.390625 
Q 13.765625 71.78125 18.9375 73 
Q 24.125 74.21875 28.421875 74.21875 
Q 39.75 74.21875 46.484375 68.546875 
Q 53.21875 62.890625 53.21875 53.421875 
Q 53.21875 48.921875 51.53125 44.890625 
Q 49.859375 40.875 45.40625 35.40625 
Q 44.1875 33.984375 37.640625 27.21875 
Q 31.109375 20.453125 19.1875 8.296875 
z
" id="DejaVuSans-50"/>
        <path d="M 31.78125 66.40625 
Q 24.171875 66.40625 20.328125 58.90625 
Q 16.5 51.421875 16.5 36.375 
Q 16.5 21.390625 20.328125 13.890625 
Q 24.171875 6.390625 31.78125 6.390625 
Q 39.453125 6.390625 43.28125 13.890625 
Q 47.125 21.390625 47.125 36.375 
Q 47.125 51.421875 43.28125 58.90625 
Q 39.453125 66.40625 31.78125 66.40625 
z
M 31.78125 74.21875 
Q 44.046875 74.21875 50.515625 64.515625 
Q 56.984375 54.828125 56.984375 36.375 
Q 56.984375 17.96875 50.515625 8.265625 
Q 44.046875 -1.421875 31.78125 -1.421875 
Q 19.53125 -1.421875 13.0625 8.265625 
Q 6.59375 17.96875 6.59375 36.375 
Q 6.59375 54.828125 13.0625 64.515625 
Q 19.53125 74.21875 31.78125 74.21875 
z
" id="DejaVuSans-48"/>
       </defs>
       <use xlink:href="#DejaVuSans-50"/>
       <use x="63.623047" xlink:href="#DejaVuSans-48"/>
      </g>
     </g>
    </g>
    <g id="xtick_2">
     <g id="line2d_2">
      <g>
       <use style="stroke:#000000;stroke-width:0.8;" x="100.595795" xlink:href="#m1ec5e24129" y="273.312"/>
      </g>
     </g>
     <g id="text_2">
      <!-- 30 -->
      <g transform="translate(94.233295 287.910437)scale(0.1 -0.1)">
       <defs>
        <path d="M 40.578125 39.3125 
Q 47.65625 37.796875 51.625 33 
Q 55.609375 28.21875 55.609375 21.1875 
Q 55.609375 10.40625 48.1875 4.484375 
Q 40.765625 -1.421875 27.09375 -1.421875 
Q 22.515625 -1.421875 17.65625 -0.515625 
Q 12.796875 0.390625 7.625 2.203125 
L 7.625 11.71875 
Q 11.71875 9.328125 16.59375 8.109375 
Q 21.484375 6.890625 26.8125 6.890625 
Q 36.078125 6.890625 40.9375 10.546875 
Q 45.796875 14.203125 45.796875 21.1875 
Q 45.796875 27.640625 41.28125 31.265625 
Q 36.765625 34.90625 28.71875 34.90625 
L 20.21875 34.90625 
L 20.21875 43.015625 
L 29.109375 43.015625 
Q 36.375 43.015625 40.234375 45.921875 
Q 44.09375 48.828125 44.09375 54.296875 
Q 44.09375 59.90625 40.109375 62.90625 
Q 36.140625 65.921875 28.71875 65.921875 
Q 24.65625 65.921875 20.015625 65.03125 
Q 15.375 64.15625 9.8125 62.3125 
L 9.8125 71.09375 
Q 15.4375 72.65625 20.34375 73.4375 
Q 25.25 74.21875 29.59375 74.21875 
Q 40.828125 74.21875 47.359375 69.109375 
Q 53.90625 64.015625 53.90625 55.328125 
Q 53.90625 49.265625 50.4375 45.09375 
Q 46.96875 40.921875 40.578125 39.3125 
z
" id="DejaVuSans-51"/>
       </defs>
       <use xlink:href="#DejaVuSans-51"/>
       <use x="63.623047" xlink:href="#DejaVuSans-48"/>
      </g>
     </g>
    </g>
    <g id="xtick_3">
     <g id="line2d_3">
      <g>
       <use style="stroke:#000000;stroke-width:0.8;" x="141.177614" xlink:href="#m1ec5e24129" y="273.312"/>
      </g>
     </g>
     <g id="text_3">
      <!-- 40 -->
      <g transform="translate(134.815114 287.910437)scale(0.1 -0.1)">
       <defs>
        <path d="M 37.796875 64.3125 
L 12.890625 25.390625 
L 37.796875 25.390625 
z
M 35.203125 72.90625 
L 47.609375 72.90625 
L 47.609375 25.390625 
L 58.015625 25.390625 
L 58.015625 17.1875 
L 47.609375 17.1875 
L 47.609375 0 
L 37.796875 0 
L 37.796875 17.1875 
L 4.890625 17.1875 
L 4.890625 26.703125 
z
" id="DejaVuSans-52"/>
       </defs>
       <use xlink:href="#DejaVuSans-52"/>
       <use x="63.623047" xlink:href="#DejaVuSans-48"/>
      </g>
     </g>
    </g>
    <g id="xtick_4">
     <g id="line2d_4">
      <g>
       <use style="stroke:#000000;stroke-width:0.8;" x="181.759432" xlink:href="#m1ec5e24129" y="273.312"/>
      </g>
     </g>
     <g id="text_4">
      <!-- 50 -->
      <g transform="translate(175.396932 287.910437)scale(0.1 -0.1)">
       <defs>
        <path d="M 10.796875 72.90625 
L 49.515625 72.90625 
L 49.515625 64.59375 
L 19.828125 64.59375 
L 19.828125 46.734375 
Q 21.96875 47.46875 24.109375 47.828125 
Q 26.265625 48.1875 28.421875 48.1875 
Q 40.625 48.1875 47.75 41.5 
Q 54.890625 34.8125 54.890625 23.390625 
Q 54.890625 11.625 47.5625 5.09375 
Q 40.234375 -1.421875 26.90625 -1.421875 
Q 22.3125 -1.421875 17.546875 -0.640625 
Q 12.796875 0.140625 7.71875 1.703125 
L 7.71875 11.625 
Q 12.109375 9.234375 16.796875 8.0625 
Q 21.484375 6.890625 26.703125 6.890625 
Q 35.15625 6.890625 40.078125 11.328125 
Q 45.015625 15.765625 45.015625 23.390625 
Q 45.015625 31 40.078125 35.4375 
Q 35.15625 39.890625 26.703125 39.890625 
Q 22.75 39.890625 18.8125 39.015625 
Q 14.890625 38.140625 10.796875 36.28125 
z
" id="DejaVuSans-53"/>
       </defs>
       <use xlink:href="#DejaVuSans-53"/>
       <use x="63.623047" xlink:href="#DejaVuSans-48"/>
      </g>
     </g>
    </g>
    <g id="xtick_5">
     <g id="line2d_5">
      <g>
       <use style="stroke:#000000;stroke-width:0.8;" x="222.34125" xlink:href="#m1ec5e24129" y="273.312"/>
      </g>
     </g>
     <g id="text_5">
      <!-- 70 -->
      <g transform="translate(215.97875 287.910437)scale(0.1 -0.1)">
       <defs>
        <path d="M 8.203125 72.90625 
L 55.078125 72.90625 
L 55.078125 68.703125 
L 28.609375 0 
L 18.3125 0 
L 43.21875 64.59375 
L 8.203125 64.59375 
z
" id="DejaVuSans-55"/>
       </defs>
       <use xlink:href="#DejaVuSans-55"/>
       <use x="63.623047" xlink:href="#DejaVuSans-48"/>
      </g>
     </g>
    </g>
    <g id="xtick_6">
     <g id="line2d_6">
      <g>
       <use style="stroke:#000000;stroke-width:0.8;" x="262.923068" xlink:href="#m1ec5e24129" y="273.312"/>
      </g>
     </g>
     <g id="text_6">
      <!-- 100 -->
      <g transform="translate(253.379318 287.910437)scale(0.1 -0.1)">
       <defs>
        <path d="M 12.40625 8.296875 
L 28.515625 8.296875 
L 28.515625 63.921875 
L 10.984375 60.40625 
L 10.984375 69.390625 
L 28.421875 72.90625 
L 38.28125 72.90625 
L 38.28125 8.296875 
L 54.390625 8.296875 
L 54.390625 0 
L 12.40625 0 
z
" id="DejaVuSans-49"/>
       </defs>
       <use xlink:href="#DejaVuSans-49"/>
       <use x="63.623047" xlink:href="#DejaVuSans-48"/>
       <use x="127.246094" xlink:href="#DejaVuSans-48"/>
      </g>
     </g>
    </g>
    <g id="xtick_7">
     <g id="line2d_7">
      <g>
       <use style="stroke:#000000;stroke-width:0.8;" x="303.504886" xlink:href="#m1ec5e24129" y="273.312"/>
      </g>
     </g>
     <g id="text_7">
      <!-- 150 -->
      <g transform="translate(293.961136 287.910437)scale(0.1 -0.1)">
       <use xlink:href="#DejaVuSans-49"/>
       <use x="63.623047" xlink:href="#DejaVuSans-53"/>
       <use x="127.246094" xlink:href="#DejaVuSans-48"/>
      </g>
     </g>
    </g>
    <g id="xtick_8">
     <g id="line2d_8">
      <g>
       <use style="stroke:#000000;stroke-width:0.8;" x="344.086705" xlink:href="#m1ec5e24129" y="273.312"/>
      </g>
     </g>
     <g id="text_8">
      <!-- 200 -->
      <g transform="translate(334.542955 287.910437)scale(0.1 -0.1)">
       <use xlink:href="#DejaVuSans-50"/>
       <use x="63.623047" xlink:href="#DejaVuSans-48"/>
       <use x="127.246094" xlink:href="#DejaVuSans-48"/>
      </g>
     </g>
    </g>
    <g id="xtick_9">
     <g id="line2d_9">
      <g>
       <use style="stroke:#000000;stroke-width:0.8;" x="384.668523" xlink:href="#m1ec5e24129" y="273.312"/>
      </g>
     </g>
     <g id="text_9">
      <!-- 200&lt; -->
      <g transform="translate(370.934929 287.910437)scale(0.1 -0.1)">
       <defs>
        <path d="M 73.1875 49.21875 
L 22.796875 31.296875 
L 73.1875 13.484375 
L 73.1875 4.59375 
L 10.59375 27.296875 
L 10.59375 35.40625 
L 73.1875 58.109375 
z
" id="DejaVuSans-60"/>
       </defs>
       <use xlink:href="#DejaVuSans-50"/>
       <use x="63.623047" xlink:href="#DejaVuSans-48"/>
       <use x="127.246094" xlink:href="#DejaVuSans-48"/>
       <use x="190.869141" xlink:href="#DejaVuSans-60"/>
      </g>
     </g>
    </g>
    <g id="text_10">
     <!-- nrows -->
     <g transform="translate(207.476406 301.588562)scale(0.1 -0.1)">
      <defs>
       <path d="M 54.890625 33.015625 
L 54.890625 0 
L 45.90625 0 
L 45.90625 32.71875 
Q 45.90625 40.484375 42.875 44.328125 
Q 39.84375 48.1875 33.796875 48.1875 
Q 26.515625 48.1875 22.3125 43.546875 
Q 18.109375 38.921875 18.109375 30.90625 
L 18.109375 0 
L 9.078125 0 
L 9.078125 54.6875 
L 18.109375 54.6875 
L 18.109375 46.1875 
Q 21.34375 51.125 25.703125 53.5625 
Q 30.078125 56 35.796875 56 
Q 45.21875 56 50.046875 50.171875 
Q 54.890625 44.34375 54.890625 33.015625 
z
" id="DejaVuSans-110"/>
       <path d="M 41.109375 46.296875 
Q 39.59375 47.171875 37.8125 47.578125 
Q 36.03125 48 33.890625 48 
Q 26.265625 48 22.1875 43.046875 
Q 18.109375 38.09375 18.109375 28.8125 
L 18.109375 0 
L 9.078125 0 
L 9.078125 54.6875 
L 18.109375 54.6875 
L 18.109375 46.1875 
Q 20.953125 51.171875 25.484375 53.578125 
Q 30.03125 56 36.53125 56 
Q 37.453125 56 38.578125 55.875 
Q 39.703125 55.765625 41.0625 55.515625 
z
" id="DejaVuSans-114"/>
       <path d="M 30.609375 48.390625 
Q 23.390625 48.390625 19.1875 42.75 
Q 14.984375 37.109375 14.984375 27.296875 
Q 14.984375 17.484375 19.15625 11.84375 
Q 23.34375 6.203125 30.609375 6.203125 
Q 37.796875 6.203125 41.984375 11.859375 
Q 46.1875 17.53125 46.1875 27.296875 
Q 46.1875 37.015625 41.984375 42.703125 
Q 37.796875 48.390625 30.609375 48.390625 
z
M 30.609375 56 
Q 42.328125 56 49.015625 48.375 
Q 55.71875 40.765625 55.71875 27.296875 
Q 55.71875 13.875 49.015625 6.21875 
Q 42.328125 -1.421875 30.609375 -1.421875 
Q 18.84375 -1.421875 12.171875 6.21875 
Q 5.515625 13.875 5.515625 27.296875 
Q 5.515625 40.765625 12.171875 48.375 
Q 18.84375 56 30.609375 56 
z
" id="DejaVuSans-111"/>
       <path d="M 4.203125 54.6875 
L 13.1875 54.6875 
L 24.421875 12.015625 
L 35.59375 54.6875 
L 46.1875 54.6875 
L 57.421875 12.015625 
L 68.609375 54.6875 
L 77.59375 54.6875 
L 63.28125 0 
L 52.6875 0 
L 40.921875 44.828125 
L 29.109375 0 
L 18.5 0 
z
" id="DejaVuSans-119"/>
       <path d="M 44.28125 53.078125 
L 44.28125 44.578125 
Q 40.484375 46.53125 36.375 47.5 
Q 32.28125 48.484375 27.875 48.484375 
Q 21.1875 48.484375 17.84375 46.4375 
Q 14.5 44.390625 14.5 40.28125 
Q 14.5 37.15625 16.890625 35.375 
Q 19.28125 33.59375 26.515625 31.984375 
L 29.59375 31.296875 
Q 39.15625 29.25 43.1875 25.515625 
Q 47.21875 21.78125 47.21875 15.09375 
Q 47.21875 7.46875 41.1875 3.015625 
Q 35.15625 -1.421875 24.609375 -1.421875 
Q 20.21875 -1.421875 15.453125 -0.5625 
Q 10.6875 0.296875 5.421875 2 
L 5.421875 11.28125 
Q 10.40625 8.6875 15.234375 7.390625 
Q 20.0625 6.109375 24.8125 6.109375 
Q 31.15625 6.109375 34.5625 8.28125 
Q 37.984375 10.453125 37.984375 14.40625 
Q 37.984375 18.0625 35.515625 20.015625 
Q 33.0625 21.96875 24.703125 23.78125 
L 21.578125 24.515625 
Q 13.234375 26.265625 9.515625 29.90625 
Q 5.8125 33.546875 5.8125 39.890625 
Q 5.8125 47.609375 11.28125 51.796875 
Q 16.75 56 26.8125 56 
Q 31.78125 56 36.171875 55.265625 
Q 40.578125 54.546875 44.28125 53.078125 
z
" id="DejaVuSans-115"/>
      </defs>
      <use xlink:href="#DejaVuSans-110"/>
      <use x="63.378906" xlink:href="#DejaVuSans-114"/>
      <use x="102.242188" xlink:href="#DejaVuSans-111"/>
      <use x="163.423828" xlink:href="#DejaVuSans-119"/>
      <use x="245.210938" xlink:href="#DejaVuSans-115"/>
     </g>
    </g>
   </g>
   <g id="matplotlib.axis_2">
    <g id="ytick_1">
     <g id="line2d_10">
      <defs>
       <path d="M 0 0 
L -3.5 0 
" id="m95d4578ea4" style="stroke:#000000;stroke-width:0.8;"/>
      </defs>
      <g>
       <use style="stroke:#000000;stroke-width:0.8;" x="43.78125" xlink:href="#m95d4578ea4" y="261.216"/>
      </g>
     </g>
     <g id="text_11">
      <!-- 0.0 -->
      <g transform="translate(20.878125 265.015219)scale(0.1 -0.1)">
       <defs>
        <path d="M 10.6875 12.40625 
L 21 12.40625 
L 21 0 
L 10.6875 0 
z
" id="DejaVuSans-46"/>
       </defs>
       <use xlink:href="#DejaVuSans-48"/>
       <use x="63.623047" xlink:href="#DejaVuSans-46"/>
       <use x="95.410156" xlink:href="#DejaVuSans-48"/>
      </g>
     </g>
    </g>
    <g id="ytick_2">
     <g id="line2d_11">
      <g>
       <use style="stroke:#000000;stroke-width:0.8;" x="43.78125" xlink:href="#m95d4578ea4" y="209.376"/>
      </g>
     </g>
     <g id="text_12">
      <!-- 0.2 -->
      <g transform="translate(20.878125 213.175219)scale(0.1 -0.1)">
       <use xlink:href="#DejaVuSans-48"/>
       <use x="63.623047" xlink:href="#DejaVuSans-46"/>
       <use x="95.410156" xlink:href="#DejaVuSans-50"/>
      </g>
     </g>
    </g>
    <g id="ytick_3">
     <g id="line2d_12">
      <g>
       <use style="stroke:#000000;stroke-width:0.8;" x="43.78125" xlink:href="#m95d4578ea4" y="157.536"/>
      </g>
     </g>
     <g id="text_13">
      <!-- 0.4 -->
      <g transform="translate(20.878125 161.335219)scale(0.1 -0.1)">
       <use xlink:href="#DejaVuSans-48"/>
       <use x="63.623047" xlink:href="#DejaVuSans-46"/>
       <use x="95.410156" xlink:href="#DejaVuSans-52"/>
      </g>
     </g>
    </g>
    <g id="ytick_4">
     <g id="line2d_13">
      <g>
       <use style="stroke:#000000;stroke-width:0.8;" x="43.78125" xlink:href="#m95d4578ea4" y="105.696"/>
      </g>
     </g>
     <g id="text_14">
      <!-- 0.6 -->
      <g transform="translate(20.878125 109.495219)scale(0.1 -0.1)">
       <defs>
        <path d="M 33.015625 40.375 
Q 26.375 40.375 22.484375 35.828125 
Q 18.609375 31.296875 18.609375 23.390625 
Q 18.609375 15.53125 22.484375 10.953125 
Q 26.375 6.390625 33.015625 6.390625 
Q 39.65625 6.390625 43.53125 10.953125 
Q 47.40625 15.53125 47.40625 23.390625 
Q 47.40625 31.296875 43.53125 35.828125 
Q 39.65625 40.375 33.015625 40.375 
z
M 52.59375 71.296875 
L 52.59375 62.3125 
Q 48.875 64.0625 45.09375 64.984375 
Q 41.3125 65.921875 37.59375 65.921875 
Q 27.828125 65.921875 22.671875 59.328125 
Q 17.53125 52.734375 16.796875 39.40625 
Q 19.671875 43.65625 24.015625 45.921875 
Q 28.375 48.1875 33.59375 48.1875 
Q 44.578125 48.1875 50.953125 41.515625 
Q 57.328125 34.859375 57.328125 23.390625 
Q 57.328125 12.15625 50.6875 5.359375 
Q 44.046875 -1.421875 33.015625 -1.421875 
Q 20.359375 -1.421875 13.671875 8.265625 
Q 6.984375 17.96875 6.984375 36.375 
Q 6.984375 53.65625 15.1875 63.9375 
Q 23.390625 74.21875 37.203125 74.21875 
Q 40.921875 74.21875 44.703125 73.484375 
Q 48.484375 72.75 52.59375 71.296875 
z
" id="DejaVuSans-54"/>
       </defs>
       <use xlink:href="#DejaVuSans-48"/>
       <use x="63.623047" xlink:href="#DejaVuSans-46"/>
       <use x="95.410156" xlink:href="#DejaVuSans-54"/>
      </g>
     </g>
    </g>
    <g id="ytick_5">
     <g id="line2d_14">
      <g>
       <use style="stroke:#000000;stroke-width:0.8;" x="43.78125" xlink:href="#m95d4578ea4" y="53.856"/>
      </g>
     </g>
     <g id="text_15">
      <!-- 0.8 -->
      <g transform="translate(20.878125 57.655219)scale(0.1 -0.1)">
       <defs>
        <path d="M 31.78125 34.625 
Q 24.75 34.625 20.71875 30.859375 
Q 16.703125 27.09375 16.703125 20.515625 
Q 16.703125 13.921875 20.71875 10.15625 
Q 24.75 6.390625 31.78125 6.390625 
Q 38.8125 6.390625 42.859375 10.171875 
Q 46.921875 13.96875 46.921875 20.515625 
Q 46.921875 27.09375 42.890625 30.859375 
Q 38.875 34.625 31.78125 34.625 
z
M 21.921875 38.8125 
Q 15.578125 40.375 12.03125 44.71875 
Q 8.5 49.078125 8.5 55.328125 
Q 8.5 64.0625 14.71875 69.140625 
Q 20.953125 74.21875 31.78125 74.21875 
Q 42.671875 74.21875 48.875 69.140625 
Q 55.078125 64.0625 55.078125 55.328125 
Q 55.078125 49.078125 51.53125 44.71875 
Q 48 40.375 41.703125 38.8125 
Q 48.828125 37.15625 52.796875 32.3125 
Q 56.78125 27.484375 56.78125 20.515625 
Q 56.78125 9.90625 50.3125 4.234375 
Q 43.84375 -1.421875 31.78125 -1.421875 
Q 19.734375 -1.421875 13.25 4.234375 
Q 6.78125 9.90625 6.78125 20.515625 
Q 6.78125 27.484375 10.78125 32.3125 
Q 14.796875 37.15625 21.921875 38.8125 
z
M 18.3125 54.390625 
Q 18.3125 48.734375 21.84375 45.5625 
Q 25.390625 42.390625 31.78125 42.390625 
Q 38.140625 42.390625 41.71875 45.5625 
Q 45.3125 48.734375 45.3125 54.390625 
Q 45.3125 60.0625 41.71875 63.234375 
Q 38.140625 66.40625 31.78125 66.40625 
Q 25.390625 66.40625 21.84375 63.234375 
Q 18.3125 60.0625 18.3125 54.390625 
z
" id="DejaVuSans-56"/>
       </defs>
       <use xlink:href="#DejaVuSans-48"/>
       <use x="63.623047" xlink:href="#DejaVuSans-46"/>
       <use x="95.410156" xlink:href="#DejaVuSans-56"/>
      </g>
     </g>
    </g>
    <g id="text_16">
     <!-- score -->
     <g transform="translate(14.798438 153.688812)rotate(-90)scale(0.1 -0.1)">
      <defs>
       <path d="M 48.78125 52.59375 
L 48.78125 44.1875 
Q 44.96875 46.296875 41.140625 47.34375 
Q 37.3125 48.390625 33.40625 48.390625 
Q 24.65625 48.390625 19.8125 42.84375 
Q 14.984375 37.3125 14.984375 27.296875 
Q 14.984375 17.28125 19.8125 11.734375 
Q 24.65625 6.203125 33.40625 6.203125 
Q 37.3125 6.203125 41.140625 7.25 
Q 44.96875 8.296875 48.78125 10.40625 
L 48.78125 2.09375 
Q 45.015625 0.34375 40.984375 -0.53125 
Q 36.96875 -1.421875 32.421875 -1.421875 
Q 20.0625 -1.421875 12.78125 6.34375 
Q 5.515625 14.109375 5.515625 27.296875 
Q 5.515625 40.671875 12.859375 48.328125 
Q 20.21875 56 33.015625 56 
Q 37.15625 56 41.109375 55.140625 
Q 45.0625 54.296875 48.78125 52.59375 
z
" id="DejaVuSans-99"/>
       <path d="M 56.203125 29.59375 
L 56.203125 25.203125 
L 14.890625 25.203125 
Q 15.484375 15.921875 20.484375 11.0625 
Q 25.484375 6.203125 34.421875 6.203125 
Q 39.59375 6.203125 44.453125 7.46875 
Q 49.3125 8.734375 54.109375 11.28125 
L 54.109375 2.78125 
Q 49.265625 0.734375 44.1875 -0.34375 
Q 39.109375 -1.421875 33.890625 -1.421875 
Q 20.796875 -1.421875 13.15625 6.1875 
Q 5.515625 13.8125 5.515625 26.8125 
Q 5.515625 40.234375 12.765625 48.109375 
Q 20.015625 56 32.328125 56 
Q 43.359375 56 49.78125 48.890625 
Q 56.203125 41.796875 56.203125 29.59375 
z
M 47.21875 32.234375 
Q 47.125 39.59375 43.09375 43.984375 
Q 39.0625 48.390625 32.421875 48.390625 
Q 24.90625 48.390625 20.390625 44.140625 
Q 15.875 39.890625 15.1875 32.171875 
z
" id="DejaVuSans-101"/>
      </defs>
      <use xlink:href="#DejaVuSans-115"/>
      <use x="52.099609" xlink:href="#DejaVuSans-99"/>
      <use x="107.080078" xlink:href="#DejaVuSans-111"/>
      <use x="168.261719" xlink:href="#DejaVuSans-114"/>
      <use x="207.125" xlink:href="#DejaVuSans-101"/>
     </g>
    </g>
   </g>
   <g id="line2d_15">
    <path clip-path="url(#p639ae68808)" d="M 60.013977 261.216 
L 100.595795 174.816 
L 141.177614 174.816 
L 181.759432 181.462154 
L 222.34125 193.005474 
L 262.923068 174.816 
L 303.504886 141.585231 
L 344.086705 134.373447 
L 384.668523 136.084966 
" style="fill:none;stroke:#1f77b4;stroke-dasharray:3.7,1.6;stroke-dashoffset:0;"/>
   </g>
   <g id="line2d_16">
    <path clip-path="url(#p639ae68808)" d="M 60.013977 261.216 
L 100.595795 174.816 
L 141.177614 150.130286 
L 181.759432 146.016 
L 222.34125 143.397818 
L 262.923068 105.696 
L 303.504886 66.816 
L 344.086705 55.643586 
L 384.668523 19.296 
" style="fill:none;stroke:#ff7f0e;stroke-dasharray:1,1.65;stroke-dashoffset:0;"/>
   </g>
   <g id="line2d_17">
    <path clip-path="url(#p639ae68808)" d="M 60.013977 261.216 
L 100.595795 209.376 
L 141.177614 201.400615 
L 181.759432 203.616 
L 222.34125 209.376 
L 262.923068 190.525091 
L 303.504886 157.536 
L 344.086705 148.732981 
L 384.668523 140.256 
" style="fill:none;stroke:#2ca02c;stroke-dasharray:6.4,1.6,1,1.6;stroke-dashoffset:0;"/>
   </g>
   <g id="line2d_18">
    <path clip-path="url(#p639ae68808)" d="M 60.013977 261.216 
L 100.595795 174.816 
L 141.177614 164.016 
L 181.759432 166.961455 
L 222.34125 174.816 
L 262.923068 150.130286 
L 303.504886 113.101714 
L 344.086705 104.331789 
L 384.668523 96.270545 
" style="fill:none;stroke:#d62728;stroke-linecap:square;"/>
   </g>
   <g id="patch_3">
    <path d="M 43.78125 273.312 
L 43.78125 7.2 
" style="fill:none;stroke:#000000;stroke-linecap:square;stroke-linejoin:miter;stroke-width:0.8;"/>
   </g>
   <g id="patch_4">
    <path d="M 400.90125 273.312 
L 400.90125 7.2 
" style="fill:none;stroke:#000000;stroke-linecap:square;stroke-linejoin:miter;stroke-width:0.8;"/>
   </g>
   <g id="patch_5">
    <path d="M 43.78125 273.312 
L 400.90125 273.312 
" style="fill:none;stroke:#000000;stroke-linecap:square;stroke-linejoin:miter;stroke-width:0.8;"/>
   </g>
   <g id="patch_6">
    <path d="M 43.78125 7.2 
L 400.90125 7.2 
" style="fill:none;stroke:#000000;stroke-linecap:square;stroke-linejoin:miter;stroke-width:0.8;"/>
   </g>
   <g id="legend_1">
    <g id="patch_7">
     <path d="M 48.63925 134.991425 
L 102.159662 134.991425 
Q 103.547663 134.991425 103.547663 133.603425 
L 103.547663 12.058 
Q 103.547663 10.67 102.159662 10.67 
L 48.63925 10.67 
Q 47.25125 10.67 47.25125 12.058 
L 47.25125 133.603425 
Q 47.25125 134.991425 48.63925 134.991425 
z
" style="fill:#ffffff;opacity:0.8;stroke:#cccccc;stroke-linejoin:miter;"/>
    </g>
    <g id="text_17">
     <!-- metric -->
     <g transform="translate(69.45925 18.719316)scale(0.0694 -0.0694)">
      <defs>
       <path d="M 52 44.1875 
Q 55.375 50.25 60.0625 53.125 
Q 64.75 56 71.09375 56 
Q 79.640625 56 84.28125 50.015625 
Q 88.921875 44.046875 88.921875 33.015625 
L 88.921875 0 
L 79.890625 0 
L 79.890625 32.71875 
Q 79.890625 40.578125 77.09375 44.375 
Q 74.3125 48.1875 68.609375 48.1875 
Q 61.625 48.1875 57.5625 43.546875 
Q 53.515625 38.921875 53.515625 30.90625 
L 53.515625 0 
L 44.484375 0 
L 44.484375 32.71875 
Q 44.484375 40.625 41.703125 44.40625 
Q 38.921875 48.1875 33.109375 48.1875 
Q 26.21875 48.1875 22.15625 43.53125 
Q 18.109375 38.875 18.109375 30.90625 
L 18.109375 0 
L 9.078125 0 
L 9.078125 54.6875 
L 18.109375 54.6875 
L 18.109375 46.1875 
Q 21.1875 51.21875 25.484375 53.609375 
Q 29.78125 56 35.6875 56 
Q 41.65625 56 45.828125 52.96875 
Q 50 49.953125 52 44.1875 
z
" id="DejaVuSans-109"/>
       <path d="M 18.3125 70.21875 
L 18.3125 54.6875 
L 36.8125 54.6875 
L 36.8125 47.703125 
L 18.3125 47.703125 
L 18.3125 18.015625 
Q 18.3125 11.328125 20.140625 9.421875 
Q 21.96875 7.515625 27.59375 7.515625 
L 36.8125 7.515625 
L 36.8125 0 
L 27.59375 0 
Q 17.1875 0 13.234375 3.875 
Q 9.28125 7.765625 9.28125 18.015625 
L 9.28125 47.703125 
L 2.6875 47.703125 
L 2.6875 54.6875 
L 9.28125 54.6875 
L 9.28125 70.21875 
z
" id="DejaVuSans-116"/>
       <path d="M 9.421875 54.6875 
L 18.40625 54.6875 
L 18.40625 0 
L 9.421875 0 
z
M 9.421875 75.984375 
L 18.40625 75.984375 
L 18.40625 64.59375 
L 9.421875 64.59375 
z
" id="DejaVuSans-105"/>
      </defs>
      <use xlink:href="#DejaVuSans-109"/>
      <use x="97.412109" xlink:href="#DejaVuSans-101"/>
      <use x="158.935547" xlink:href="#DejaVuSans-116"/>
      <use x="198.144531" xlink:href="#DejaVuSans-114"/>
      <use x="239.257812" xlink:href="#DejaVuSans-105"/>
      <use x="267.041016" xlink:href="#DejaVuSans-99"/>
     </g>
    </g>
    <g id="PathCollection_12">
     <defs>
      <path d="M 0 3 
C 0.795609 3 1.55874 2.683901 2.12132 2.12132 
C 2.683901 1.55874 3 0.795609 3 0 
C 3 -0.795609 2.683901 -1.55874 2.12132 -2.12132 
C 1.55874 -2.683901 0.795609 -3 0 -3 
C -0.795609 -3 -1.55874 -2.683901 -2.12132 -2.12132 
C -2.683901 -1.55874 -3 -0.795609 -3 0 
C -3 0.795609 -2.683901 1.55874 -2.12132 2.12132 
C -1.55874 2.683901 -0.795609 3 0 3 
z
" id="mf5f0b67059" style="stroke:#1f77b4;"/>
     </defs>
     <g>
      <use style="fill:#1f77b4;stroke:#1f77b4;" x="56.96725" xlink:href="#mf5f0b67059" y="27.084184"/>
     </g>
    </g>
    <g id="text_18">
     <!-- precision -->
     <g transform="translate(69.45925 28.905934)scale(0.0694 -0.0694)">
      <defs>
       <path d="M 18.109375 8.203125 
L 18.109375 -20.796875 
L 9.078125 -20.796875 
L 9.078125 54.6875 
L 18.109375 54.6875 
L 18.109375 46.390625 
Q 20.953125 51.265625 25.265625 53.625 
Q 29.59375 56 35.59375 56 
Q 45.5625 56 51.78125 48.09375 
Q 58.015625 40.1875 58.015625 27.296875 
Q 58.015625 14.40625 51.78125 6.484375 
Q 45.5625 -1.421875 35.59375 -1.421875 
Q 29.59375 -1.421875 25.265625 0.953125 
Q 20.953125 3.328125 18.109375 8.203125 
z
M 48.6875 27.296875 
Q 48.6875 37.203125 44.609375 42.84375 
Q 40.53125 48.484375 33.40625 48.484375 
Q 26.265625 48.484375 22.1875 42.84375 
Q 18.109375 37.203125 18.109375 27.296875 
Q 18.109375 17.390625 22.1875 11.75 
Q 26.265625 6.109375 33.40625 6.109375 
Q 40.53125 6.109375 44.609375 11.75 
Q 48.6875 17.390625 48.6875 27.296875 
z
" id="DejaVuSans-112"/>
      </defs>
      <use xlink:href="#DejaVuSans-112"/>
      <use x="63.476562" xlink:href="#DejaVuSans-114"/>
      <use x="102.339844" xlink:href="#DejaVuSans-101"/>
      <use x="163.863281" xlink:href="#DejaVuSans-99"/>
      <use x="218.84375" xlink:href="#DejaVuSans-105"/>
      <use x="246.626953" xlink:href="#DejaVuSans-115"/>
      <use x="298.726562" xlink:href="#DejaVuSans-105"/>
      <use x="326.509766" xlink:href="#DejaVuSans-111"/>
      <use x="387.691406" xlink:href="#DejaVuSans-110"/>
     </g>
    </g>
    <g id="PathCollection_13">
     <defs>
      <path d="M 0 3 
C 0.795609 3 1.55874 2.683901 2.12132 2.12132 
C 2.683901 1.55874 3 0.795609 3 0 
C 3 -0.795609 2.683901 -1.55874 2.12132 -2.12132 
C 1.55874 -2.683901 0.795609 -3 0 -3 
C -0.795609 -3 -1.55874 -2.683901 -2.12132 -2.12132 
C -2.683901 -1.55874 -3 -0.795609 -3 0 
C -3 0.795609 -2.683901 1.55874 -2.12132 2.12132 
C -1.55874 2.683901 -0.795609 3 0 3 
z
" id="mba61a5f796" style="stroke:#ff7f0e;"/>
     </defs>
     <g>
      <use style="fill:#ff7f0e;stroke:#ff7f0e;" x="56.96725" xlink:href="#mba61a5f796" y="37.270803"/>
     </g>
    </g>
    <g id="text_19">
     <!-- recall -->
     <g transform="translate(69.45925 39.092553)scale(0.0694 -0.0694)">
      <defs>
       <path d="M 34.28125 27.484375 
Q 23.390625 27.484375 19.1875 25 
Q 14.984375 22.515625 14.984375 16.5 
Q 14.984375 11.71875 18.140625 8.90625 
Q 21.296875 6.109375 26.703125 6.109375 
Q 34.1875 6.109375 38.703125 11.40625 
Q 43.21875 16.703125 43.21875 25.484375 
L 43.21875 27.484375 
z
M 52.203125 31.203125 
L 52.203125 0 
L 43.21875 0 
L 43.21875 8.296875 
Q 40.140625 3.328125 35.546875 0.953125 
Q 30.953125 -1.421875 24.3125 -1.421875 
Q 15.921875 -1.421875 10.953125 3.296875 
Q 6 8.015625 6 15.921875 
Q 6 25.140625 12.171875 29.828125 
Q 18.359375 34.515625 30.609375 34.515625 
L 43.21875 34.515625 
L 43.21875 35.40625 
Q 43.21875 41.609375 39.140625 45 
Q 35.0625 48.390625 27.6875 48.390625 
Q 23 48.390625 18.546875 47.265625 
Q 14.109375 46.140625 10.015625 43.890625 
L 10.015625 52.203125 
Q 14.9375 54.109375 19.578125 55.046875 
Q 24.21875 56 28.609375 56 
Q 40.484375 56 46.34375 49.84375 
Q 52.203125 43.703125 52.203125 31.203125 
z
" id="DejaVuSans-97"/>
       <path d="M 9.421875 75.984375 
L 18.40625 75.984375 
L 18.40625 0 
L 9.421875 0 
z
" id="DejaVuSans-108"/>
      </defs>
      <use xlink:href="#DejaVuSans-114"/>
      <use x="38.863281" xlink:href="#DejaVuSans-101"/>
      <use x="100.386719" xlink:href="#DejaVuSans-99"/>
      <use x="155.367188" xlink:href="#DejaVuSans-97"/>
      <use x="216.646484" xlink:href="#DejaVuSans-108"/>
      <use x="244.429688" xlink:href="#DejaVuSans-108"/>
     </g>
    </g>
    <g id="PathCollection_14">
     <defs>
      <path d="M 0 3 
C 0.795609 3 1.55874 2.683901 2.12132 2.12132 
C 2.683901 1.55874 3 0.795609 3 0 
C 3 -0.795609 2.683901 -1.55874 2.12132 -2.12132 
C 1.55874 -2.683901 0.795609 -3 0 -3 
C -0.795609 -3 -1.55874 -2.683901 -2.12132 -2.12132 
C -2.683901 -1.55874 -3 -0.795609 -3 0 
C -3 0.795609 -2.683901 1.55874 -2.12132 2.12132 
C -1.55874 2.683901 -0.795609 3 0 3 
z
" id="m55e548e2aa" style="stroke:#2ca02c;"/>
     </defs>
     <g>
      <use style="fill:#2ca02c;stroke:#2ca02c;" x="56.96725" xlink:href="#m55e548e2aa" y="47.457422"/>
     </g>
    </g>
    <g id="text_20">
     <!-- accuracy -->
     <g transform="translate(69.45925 49.279172)scale(0.0694 -0.0694)">
      <defs>
       <path d="M 8.5 21.578125 
L 8.5 54.6875 
L 17.484375 54.6875 
L 17.484375 21.921875 
Q 17.484375 14.15625 20.5 10.265625 
Q 23.53125 6.390625 29.59375 6.390625 
Q 36.859375 6.390625 41.078125 11.03125 
Q 45.3125 15.671875 45.3125 23.6875 
L 45.3125 54.6875 
L 54.296875 54.6875 
L 54.296875 0 
L 45.3125 0 
L 45.3125 8.40625 
Q 42.046875 3.421875 37.71875 1 
Q 33.40625 -1.421875 27.6875 -1.421875 
Q 18.265625 -1.421875 13.375 4.4375 
Q 8.5 10.296875 8.5 21.578125 
z
M 31.109375 56 
z
" id="DejaVuSans-117"/>
       <path d="M 32.171875 -5.078125 
Q 28.375 -14.84375 24.75 -17.8125 
Q 21.140625 -20.796875 15.09375 -20.796875 
L 7.90625 -20.796875 
L 7.90625 -13.28125 
L 13.1875 -13.28125 
Q 16.890625 -13.28125 18.9375 -11.515625 
Q 21 -9.765625 23.484375 -3.21875 
L 25.09375 0.875 
L 2.984375 54.6875 
L 12.5 54.6875 
L 29.59375 11.921875 
L 46.6875 54.6875 
L 56.203125 54.6875 
z
" id="DejaVuSans-121"/>
      </defs>
      <use xlink:href="#DejaVuSans-97"/>
      <use x="61.279297" xlink:href="#DejaVuSans-99"/>
      <use x="116.259766" xlink:href="#DejaVuSans-99"/>
      <use x="171.240234" xlink:href="#DejaVuSans-117"/>
      <use x="234.619141" xlink:href="#DejaVuSans-114"/>
      <use x="275.732422" xlink:href="#DejaVuSans-97"/>
      <use x="337.011719" xlink:href="#DejaVuSans-99"/>
      <use x="391.992188" xlink:href="#DejaVuSans-121"/>
     </g>
    </g>
    <g id="PathCollection_15">
     <defs>
      <path d="M 0 3 
C 0.795609 3 1.55874 2.683901 2.12132 2.12132 
C 2.683901 1.55874 3 0.795609 3 0 
C 3 -0.795609 2.683901 -1.55874 2.12132 -2.12132 
C 1.55874 -2.683901 0.795609 -3 0 -3 
C -0.795609 -3 -1.55874 -2.683901 -2.12132 -2.12132 
C -2.683901 -1.55874 -3 -0.795609 -3 0 
C -3 0.795609 -2.683901 1.55874 -2.12132 2.12132 
C -1.55874 2.683901 -0.795609 3 0 3 
z
" id="m0a0c45be83" style="stroke:#d62728;"/>
     </defs>
     <g>
      <use style="fill:#d62728;stroke:#d62728;" x="56.96725" xlink:href="#m0a0c45be83" y="57.644041"/>
     </g>
    </g>
    <g id="text_21">
     <!-- f1 -->
     <g transform="translate(69.45925 59.465791)scale(0.0694 -0.0694)">
      <defs>
       <path d="M 37.109375 75.984375 
L 37.109375 68.5 
L 28.515625 68.5 
Q 23.6875 68.5 21.796875 66.546875 
Q 19.921875 64.59375 19.921875 59.515625 
L 19.921875 54.6875 
L 34.71875 54.6875 
L 34.71875 47.703125 
L 19.921875 47.703125 
L 19.921875 0 
L 10.890625 0 
L 10.890625 47.703125 
L 2.296875 47.703125 
L 2.296875 54.6875 
L 10.890625 54.6875 
L 10.890625 58.5 
Q 10.890625 67.625 15.140625 71.796875 
Q 19.390625 75.984375 28.609375 75.984375 
z
" id="DejaVuSans-102"/>
      </defs>
      <use xlink:href="#DejaVuSans-102"/>
      <use x="35.205078" xlink:href="#DejaVuSans-49"/>
     </g>
    </g>
    <g id="text_22">
     <!-- ncols -->
     <g transform="translate(69.45925 69.652409)scale(0.0694 -0.0694)">
      <use xlink:href="#DejaVuSans-110"/>
      <use x="63.378906" xlink:href="#DejaVuSans-99"/>
      <use x="118.359375" xlink:href="#DejaVuSans-111"/>
      <use x="179.541016" xlink:href="#DejaVuSans-108"/>
      <use x="207.324219" xlink:href="#DejaVuSans-115"/>
     </g>
    </g>
    <g id="PathCollection_16">
     <defs>
      <path d="M 0 3.307189 
C 0.877077 3.307189 1.718349 2.958723 2.338536 2.338536 
C 2.958723 1.718349 3.307189 0.877077 3.307189 0 
C 3.307189 -0.877077 2.958723 -1.718349 2.338536 -2.338536 
C 1.718349 -2.958723 0.877077 -3.307189 0 -3.307189 
C -0.877077 -3.307189 -1.718349 -2.958723 -2.338536 -2.338536 
C -2.958723 -1.718349 -3.307189 -0.877077 -3.307189 0 
C -3.307189 0.877077 -2.958723 1.718349 -2.338536 2.338536 
C -1.718349 2.958723 -0.877077 3.307189 0 3.307189 
z
" id="m155cd95e7d" style="stroke:#333333;"/>
     </defs>
     <g>
      <use style="fill:#333333;stroke:#333333;" x="56.96725" xlink:href="#m155cd95e7d" y="78.017278"/>
     </g>
    </g>
    <g id="text_23">
     <!-- 8 -->
     <g transform="translate(69.45925 79.839028)scale(0.0694 -0.0694)">
      <use xlink:href="#DejaVuSans-56"/>
     </g>
    </g>
    <g id="PathCollection_17">
     <defs>
      <path d="M 0 3.66572 
C 0.97216 3.66572 1.904634 3.279476 2.592055 2.592055 
C 3.279476 1.904634 3.66572 0.97216 3.66572 0 
C 3.66572 -0.97216 3.279476 -1.904634 2.592055 -2.592055 
C 1.904634 -3.279476 0.97216 -3.66572 0 -3.66572 
C -0.97216 -3.66572 -1.904634 -3.279476 -2.592055 -2.592055 
C -3.279476 -1.904634 -3.66572 -0.97216 -3.66572 0 
C -3.66572 0.97216 -3.279476 1.904634 -2.592055 2.592055 
C -1.904634 3.279476 -0.97216 3.66572 0 3.66572 
z
" id="m94ad40dca9" style="stroke:#333333;"/>
     </defs>
     <g>
      <use style="fill:#333333;stroke:#333333;" x="56.96725" xlink:href="#m94ad40dca9" y="88.203897"/>
     </g>
    </g>
    <g id="text_24">
     <!-- 16 -->
     <g transform="translate(69.45925 90.025647)scale(0.0694 -0.0694)">
      <use xlink:href="#DejaVuSans-49"/>
      <use x="63.623047" xlink:href="#DejaVuSans-54"/>
     </g>
    </g>
    <g id="PathCollection_18">
     <defs>
      <path d="M 0 3.99218 
C 1.058738 3.99218 2.074256 3.571539 2.822897 2.822897 
C 3.571539 2.074256 3.99218 1.058738 3.99218 0 
C 3.99218 -1.058738 3.571539 -2.074256 2.822897 -2.822897 
C 2.074256 -3.571539 1.058738 -3.99218 0 -3.99218 
C -1.058738 -3.99218 -2.074256 -3.571539 -2.822897 -2.822897 
C -3.571539 -2.074256 -3.99218 -1.058738 -3.99218 0 
C -3.99218 1.058738 -3.571539 2.074256 -2.822897 2.822897 
C -2.074256 3.571539 -1.058738 3.99218 0 3.99218 
z
" id="mb6d77e12fd" style="stroke:#333333;"/>
     </defs>
     <g>
      <use style="fill:#333333;stroke:#333333;" x="56.96725" xlink:href="#mb6d77e12fd" y="98.390516"/>
     </g>
    </g>
    <g id="text_25">
     <!-- 24 -->
     <g transform="translate(69.45925 100.212266)scale(0.0694 -0.0694)">
      <use xlink:href="#DejaVuSans-50"/>
      <use x="63.623047" xlink:href="#DejaVuSans-52"/>
     </g>
    </g>
    <g id="PathCollection_19">
     <defs>
      <path d="M 0 4.293891 
C 1.138753 4.293891 2.231019 3.84146 3.036239 3.036239 
C 3.84146 2.231019 4.293891 1.138753 4.293891 0 
C 4.293891 -1.138753 3.84146 -2.231019 3.036239 -3.036239 
C 2.231019 -3.84146 1.138753 -4.293891 0 -4.293891 
C -1.138753 -4.293891 -2.231019 -3.84146 -3.036239 -3.036239 
C -3.84146 -2.231019 -4.293891 -1.138753 -4.293891 0 
C -4.293891 1.138753 -3.84146 2.231019 -3.036239 3.036239 
C -2.231019 3.84146 -1.138753 4.293891 0 4.293891 
z
" id="m46e2f09d9b" style="stroke:#333333;"/>
     </defs>
     <g>
      <use style="fill:#333333;stroke:#333333;" x="56.96725" xlink:href="#m46e2f09d9b" y="108.577134"/>
     </g>
    </g>
    <g id="text_26">
     <!-- 32 -->
     <g transform="translate(69.45925 110.398884)scale(0.0694 -0.0694)">
      <use xlink:href="#DejaVuSans-51"/>
      <use x="63.623047" xlink:href="#DejaVuSans-50"/>
     </g>
    </g>
    <g id="PathCollection_20">
     <defs>
      <path d="M 0 4.575751 
C 1.213503 4.575751 2.377468 4.093621 3.235545 3.235545 
C 4.093621 2.377468 4.575751 1.213503 4.575751 0 
C 4.575751 -1.213503 4.093621 -2.377468 3.235545 -3.235545 
C 2.377468 -4.093621 1.213503 -4.575751 0 -4.575751 
C -1.213503 -4.575751 -2.377468 -4.093621 -3.235545 -3.235545 
C -4.093621 -2.377468 -4.575751 -1.213503 -4.575751 0 
C -4.575751 1.213503 -4.093621 2.377468 -3.235545 3.235545 
C -2.377468 4.093621 -1.213503 4.575751 0 4.575751 
z
" id="me9bcdb240b" style="stroke:#333333;"/>
     </defs>
     <g>
      <use style="fill:#333333;stroke:#333333;" x="56.96725" xlink:href="#me9bcdb240b" y="118.763753"/>
     </g>
    </g>
    <g id="text_27">
     <!-- 40 -->
     <g transform="translate(69.45925 120.585503)scale(0.0694 -0.0694)">
      <use xlink:href="#DejaVuSans-52"/>
      <use x="63.623047" xlink:href="#DejaVuSans-48"/>
     </g>
    </g>
    <g id="PathCollection_21">
     <defs>
      <path d="M 0 4.841229 
C 1.283909 4.841229 2.515405 4.331127 3.423266 3.423266 
C 4.331127 2.515405 4.841229 1.283909 4.841229 0 
C 4.841229 -1.283909 4.331127 -2.515405 3.423266 -3.423266 
C 2.515405 -4.331127 1.283909 -4.841229 0 -4.841229 
C -1.283909 -4.841229 -2.515405 -4.331127 -3.423266 -3.423266 
C -4.331127 -2.515405 -4.841229 -1.283909 -4.841229 0 
C -4.841229 1.283909 -4.331127 2.515405 -3.423266 3.423266 
C -2.515405 4.331127 -1.283909 4.841229 0 4.841229 
z
" id="m8c2efe3540" style="stroke:#333333;"/>
     </defs>
     <g>
      <use style="fill:#333333;stroke:#333333;" x="56.96725" xlink:href="#m8c2efe3540" y="128.950372"/>
     </g>
    </g>
    <g id="text_28">
     <!-- 48 -->
     <g transform="translate(69.45925 130.772122)scale(0.0694 -0.0694)">
      <use xlink:href="#DejaVuSans-52"/>
      <use x="63.623047" xlink:href="#DejaVuSans-56"/>
     </g>
    </g>
   </g>
  </g>
 </g>
 <defs>
  <clipPath id="p639ae68808">
   <rect height="266.112" width="357.12" x="43.78125" y="7.2"/>
  </clipPath>
 </defs>
</svg>
