<?xml version="1.0" encoding="utf-8" standalone="no"?>
<!DOCTYPE svg PUBLIC "-//W3C//DTD SVG 1.1//EN"
  "http://www.w3.org/Graphics/SVG/1.1/DTD/svg11.dtd">
<!-- Created with matplotlib (https://matplotlib.org/) -->
<svg height="310.86825pt" version="1.1" viewBox="0 0 408.10125 310.86825" width="408.10125pt" xmlns="http://www.w3.org/2000/svg" xmlns:xlink="http://www.w3.org/1999/xlink">
 <metadata>
  <rdf:RDF xmlns:cc="http://creativecommons.org/ns#" xmlns:dc="http://purl.org/dc/elements/1.1/" xmlns:rdf="http://www.w3.org/1999/02/22-rdf-syntax-ns#">
   <cc:Work>
    <dc:type rdf:resource="http://purl.org/dc/dcmitype/StillImage"/>
    <dc:date>2022-03-09T16:19:38.558902</dc:date>
    <dc:format>image/svg+xml</dc:format>
    <dc:creator>
     <cc:Agent>
      <dc:title>Matplotlib v3.3.4, https://matplotlib.org/</dc:title>
     </cc:Agent>
    </dc:creator>
   </cc:Work>
  </rdf:RDF>
 </metadata>
 <defs>
  <style type="text/css">*{stroke-linecap:butt;stroke-linejoin:round;}</style>
 </defs>
 <g id="figure_1">
  <g id="patch_1">
   <path d="M 0 310.86825 
L 408.10125 310.86825 
L 408.10125 0 
L 0 0 
z
" style="fill:#ffffff;"/>
  </g>
  <g id="axes_1">
   <g id="patch_2">
    <path d="M 43.78125 273.312 
L 400.90125 273.312 
L 400.90125 7.2 
L 43.78125 7.2 
z
" style="fill:#ffffff;"/>
   </g>
   <g id="PathCollection_1">
    <path clip-path="url(#pb309ecac2a)" d="M 384.668523 177.465577 
C 385.787809 177.465577 386.861402 177.02088 387.652857 176.229425 
C 388.444311 175.43797 388.889008 174.364377 388.889008 173.245091 
C 388.889008 172.125805 388.444311 171.052211 387.652857 170.260757 
C 386.861402 169.469302 385.787809 169.024605 384.668523 169.024605 
C 383.549237 169.024605 382.475643 169.469302 381.684189 170.260757 
C 380.892734 171.052211 380.448037 172.125805 380.448037 173.245091 
C 380.448037 174.364377 380.892734 175.43797 381.684189 176.229425 
C 382.475643 177.02088 383.549237 177.465577 384.668523 177.465577 
z
" style="fill:#2ca02c;stroke:#ffffff;stroke-width:0.525357;"/>
    <path clip-path="url(#pb309ecac2a)" d="M 384.668523 172.156987 
C 385.787809 172.156987 386.861402 171.71229 387.652857 170.920836 
C 388.444311 170.129381 388.889008 169.055787 388.889008 167.936502 
C 388.889008 166.817216 388.444311 165.743622 387.652857 164.952167 
C 386.861402 164.160713 385.787809 163.716016 384.668523 163.716016 
C 383.549237 163.716016 382.475643 164.160713 381.684189 164.952167 
C 380.892734 165.743622 380.448037 166.817216 380.448037 167.936502 
C 380.448037 169.055787 380.892734 170.129381 381.684189 170.920836 
C 382.475643 171.71229 383.549237 172.156987 384.668523 172.156987 
z
" style="fill:#1f77b4;stroke:#ffffff;stroke-width:0.525357;"/>
    <path clip-path="url(#pb309ecac2a)" d="M 384.668523 23.516486 
C 385.787809 23.516486 386.861402 23.071789 387.652857 22.280334 
C 388.444311 21.488879 388.889008 20.415286 388.889008 19.296 
C 388.889008 18.176714 388.444311 17.103121 387.652857 16.311666 
C 386.861402 15.520211 385.787809 15.075514 384.668523 15.075514 
C 383.549237 15.075514 382.475643 15.520211 381.684189 16.311666 
C 380.892734 17.103121 380.448037 18.176714 380.448037 19.296 
C 380.448037 20.415286 380.892734 21.488879 381.684189 22.280334 
C 382.475643 23.071789 383.549237 23.516486 384.668523 23.516486 
z
" style="fill:#ff7f0e;stroke:#ffffff;stroke-width:0.525357;"/>
    <path clip-path="url(#pb309ecac2a)" d="M 384.668523 121.484089 
C 385.787809 121.484089 386.861402 121.039392 387.652857 120.247937 
C 388.444311 119.456483 388.889008 118.382889 388.889008 117.263603 
C 388.889008 116.144317 388.444311 115.070724 387.652857 114.279269 
C 386.861402 113.487815 385.787809 113.043118 384.668523 113.043118 
C 383.549237 113.043118 382.475643 113.487815 381.684189 114.279269 
C 380.892734 115.070724 380.448037 116.144317 380.448037 117.263603 
C 380.448037 118.382889 380.892734 119.456483 381.684189 120.247937 
C 382.475643 121.039392 383.549237 121.484089 384.668523 121.484089 
z
" style="fill:#d62728;stroke:#ffffff;stroke-width:0.525357;"/>
    <path clip-path="url(#pb309ecac2a)" d="M 344.086705 176.585262 
C 345.41272 176.585262 346.684604 176.058431 347.622238 175.120796 
C 348.559873 174.183162 349.086705 172.911278 349.086705 171.585262 
C 349.086705 170.259247 348.559873 168.987363 347.622238 168.049729 
C 346.684604 167.112094 345.41272 166.585262 344.086705 166.585262 
C 342.760689 166.585262 341.488805 167.112094 340.551171 168.049729 
C 339.613536 168.987363 339.086705 170.259247 339.086705 171.585262 
C 339.086705 172.911278 339.613536 174.183162 340.551171 175.120796 
C 341.488805 176.058431 342.760689 176.585262 344.086705 176.585262 
z
" style="fill:#2ca02c;stroke:#ffffff;stroke-width:0.525357;"/>
    <path clip-path="url(#pb309ecac2a)" d="M 344.086705 156.720294 
C 345.41272 156.720294 346.684604 156.193462 347.622238 155.255828 
C 348.559873 154.318193 349.086705 153.04631 349.086705 151.720294 
C 349.086705 150.394279 348.559873 149.122395 347.622238 148.18476 
C 346.684604 147.247126 345.41272 146.720294 344.086705 146.720294 
C 342.760689 146.720294 341.488805 147.247126 340.551171 148.18476 
C 339.613536 149.122395 339.086705 150.394279 339.086705 151.720294 
C 339.086705 153.04631 339.613536 154.318193 340.551171 155.255828 
C 341.488805 156.193462 342.760689 156.720294 344.086705 156.720294 
z
" style="fill:#1f77b4;stroke:#ffffff;stroke-width:0.525357;"/>
    <path clip-path="url(#pb309ecac2a)" d="M 344.086705 66.153126 
C 345.41272 66.153126 346.684604 65.626295 347.622238 64.68866 
C 348.559873 63.751025 349.086705 62.479142 349.086705 61.153126 
C 349.086705 59.827111 348.559873 58.555227 347.622238 57.617592 
C 346.684604 56.679958 345.41272 56.153126 344.086705 56.153126 
C 342.760689 56.153126 341.488805 56.679958 340.551171 57.617592 
C 339.613536 58.555227 339.086705 59.827111 339.086705 61.153126 
C 339.086705 62.479142 339.613536 63.751025 340.551171 64.68866 
C 341.488805 65.626295 342.760689 66.153126 344.086705 66.153126 
z
" style="fill:#ff7f0e;stroke:#ffffff;stroke-width:0.525357;"/>
    <path clip-path="url(#pb309ecac2a)" d="M 344.086705 120.72565 
C 345.41272 120.72565 346.684604 120.198819 347.622238 119.261184 
C 348.559873 118.32355 349.086705 117.051666 349.086705 115.72565 
C 349.086705 114.399635 348.559873 113.127751 347.622238 112.190116 
C 346.684604 111.252482 345.41272 110.72565 344.086705 110.72565 
C 342.760689 110.72565 341.488805 111.252482 340.551171 112.190116 
C 339.613536 113.127751 339.086705 114.399635 339.086705 115.72565 
C 339.086705 117.051666 339.613536 118.32355 340.551171 119.261184 
C 341.488805 120.198819 342.760689 120.72565 344.086705 120.72565 
z
" style="fill:#d62728;stroke:#ffffff;stroke-width:0.525357;"/>
    <path clip-path="url(#pb309ecac2a)" d="M 60.013977 264.378278 
C 60.852623 264.378278 61.657033 264.04508 62.250045 263.452068 
C 62.843057 262.859056 63.176255 262.054646 63.176255 261.216 
C 63.176255 260.377354 62.843057 259.572944 62.250045 258.979932 
C 61.657033 258.38692 60.852623 258.053722 60.013977 258.053722 
C 59.175331 258.053722 58.370921 258.38692 57.777909 258.979932 
C 57.184897 259.572944 56.8517 260.377354 56.8517 261.216 
C 56.8517 262.054646 57.184897 262.859056 57.777909 263.452068 
C 58.370921 264.04508 59.175331 264.378278 60.013977 264.378278 
z
" style="fill:#2ca02c;stroke:#ffffff;stroke-width:0.525357;"/>
    <path clip-path="url(#pb309ecac2a)" d="M 60.013977 220.392823 
C 60.852623 220.392823 61.657033 220.059626 62.250045 219.466613 
C 62.843057 218.873601 63.176255 218.069191 63.176255 217.230545 
C 63.176255 216.3919 62.843057 215.58749 62.250045 214.994477 
C 61.657033 214.401465 60.852623 214.068268 60.013977 214.068268 
C 59.175331 214.068268 58.370921 214.401465 57.777909 214.994477 
C 57.184897 215.58749 56.8517 216.3919 56.8517 217.230545 
C 56.8517 218.069191 57.184897 218.873601 57.777909 219.466613 
C 58.370921 220.059626 59.175331 220.392823 60.013977 220.392823 
z
" style="fill:#1f77b4;stroke:#ffffff;stroke-width:0.525357;"/>
    <path clip-path="url(#pb309ecac2a)" d="M 60.013977 220.392823 
C 60.852623 220.392823 61.657033 220.059626 62.250045 219.466613 
C 62.843057 218.873601 63.176255 218.069191 63.176255 217.230545 
C 63.176255 216.3919 62.843057 215.58749 62.250045 214.994477 
C 61.657033 214.401465 60.852623 214.068268 60.013977 214.068268 
C 59.175331 214.068268 58.370921 214.401465 57.777909 214.994477 
C 57.184897 215.58749 56.8517 216.3919 56.8517 217.230545 
C 56.8517 218.069191 57.184897 218.873601 57.777909 219.466613 
C 58.370921 220.059626 59.175331 220.392823 60.013977 220.392823 
z
" style="fill:#ff7f0e;stroke:#ffffff;stroke-width:0.525357;"/>
    <path clip-path="url(#pb309ecac2a)" d="M 60.013977 220.392823 
C 60.852623 220.392823 61.657033 220.059626 62.250045 219.466613 
C 62.843057 218.873601 63.176255 218.069191 63.176255 217.230545 
C 63.176255 216.3919 62.843057 215.58749 62.250045 214.994477 
C 61.657033 214.401465 60.852623 214.068268 60.013977 214.068268 
C 59.175331 214.068268 58.370921 214.401465 57.777909 214.994477 
C 57.184897 215.58749 56.8517 216.3919 56.8517 217.230545 
C 56.8517 218.069191 57.184897 218.873601 57.777909 219.466613 
C 58.370921 220.059626 59.175331 220.392823 60.013977 220.392823 
z
" style="fill:#d62728;stroke:#ffffff;stroke-width:0.525357;"/>
    <path clip-path="url(#pb309ecac2a)" d="M 100.595795 231.627277 
C 101.497583 231.627277 102.362558 231.268993 103.000218 230.631332 
C 103.637879 229.993672 103.996163 229.128697 103.996163 228.226909 
C 103.996163 227.325121 103.637879 226.460147 103.000218 225.822486 
C 102.362558 225.184826 101.497583 224.826541 100.595795 224.826541 
C 99.694007 224.826541 98.829033 225.184826 98.191372 225.822486 
C 97.553712 226.460147 97.195428 227.325121 97.195428 228.226909 
C 97.195428 229.128697 97.553712 229.993672 98.191372 230.631332 
C 98.829033 231.268993 99.694007 231.627277 100.595795 231.627277 
z
" style="fill:#2ca02c;stroke:#ffffff;stroke-width:0.525357;"/>
    <path clip-path="url(#pb309ecac2a)" d="M 100.595795 165.649095 
C 101.497583 165.649095 102.362558 165.290811 103.000218 164.65315 
C 103.637879 164.01549 103.996163 163.150515 103.996163 162.248727 
C 103.996163 161.346939 103.637879 160.481965 103.000218 159.844304 
C 102.362558 159.206644 101.497583 158.84836 100.595795 158.84836 
C 99.694007 158.84836 98.829033 159.206644 98.191372 159.844304 
C 97.553712 160.481965 97.195428 161.346939 97.195428 162.248727 
C 97.195428 163.150515 97.553712 164.01549 98.191372 164.65315 
C 98.829033 165.290811 99.694007 165.649095 100.595795 165.649095 
z
" style="fill:#1f77b4;stroke:#ffffff;stroke-width:0.525357;"/>
    <path clip-path="url(#pb309ecac2a)" d="M 100.595795 189.212731 
C 101.497583 189.212731 102.362558 188.854447 103.000218 188.216787 
C 103.637879 187.579126 103.996163 186.714152 103.996163 185.812364 
C 103.996163 184.910576 103.637879 184.045601 103.000218 183.407941 
C 102.362558 182.77028 101.497583 182.411996 100.595795 182.411996 
C 99.694007 182.411996 98.829033 182.77028 98.191372 183.407941 
C 97.553712 184.045601 97.195428 184.910576 97.195428 185.812364 
C 97.195428 186.714152 97.553712 187.579126 98.191372 188.216787 
C 98.829033 188.854447 99.694007 189.212731 100.595795 189.212731 
z
" style="fill:#ff7f0e;stroke:#ffffff;stroke-width:0.525357;"/>
    <path clip-path="url(#pb309ecac2a)" d="M 100.595795 178.337207 
C 101.497583 178.337207 102.362558 177.978923 103.000218 177.341262 
C 103.637879 176.703602 103.996163 175.838627 103.996163 174.936839 
C 103.996163 174.035051 103.637879 173.170077 103.000218 172.532416 
C 102.362558 171.894756 101.497583 171.536472 100.595795 171.536472 
C 99.694007 171.536472 98.829033 171.894756 98.191372 172.532416 
C 97.553712 173.170077 97.195428 174.035051 97.195428 174.936839 
C 97.195428 175.838627 97.553712 176.703602 98.191372 177.341262 
C 98.829033 177.978923 99.694007 178.337207 100.595795 178.337207 
z
" style="fill:#d62728;stroke:#ffffff;stroke-width:0.525357;"/>
    <path clip-path="url(#pb309ecac2a)" d="M 141.177614 203.848597 
C 142.115248 203.848597 143.014606 203.476071 143.677614 202.813063 
C 144.340621 202.150055 144.713148 201.250697 144.713148 200.313063 
C 144.713148 199.375428 144.340621 198.476071 143.677614 197.813063 
C 143.014606 197.150055 142.115248 196.777529 141.177614 196.777529 
C 140.239979 196.777529 139.340621 197.150055 138.677614 197.813063 
C 138.014606 198.476071 137.64208 199.375428 137.64208 200.313063 
C 137.64208 201.250697 138.014606 202.150055 138.677614 202.813063 
C 139.340621 203.476071 140.239979 203.848597 141.177614 203.848597 
z
" style="fill:#2ca02c;stroke:#ffffff;stroke-width:0.525357;"/>
    <path clip-path="url(#pb309ecac2a)" d="M 141.177614 147.456988 
C 142.115248 147.456988 143.014606 147.084462 143.677614 146.421455 
C 144.340621 145.758447 144.713148 144.859089 144.713148 143.921455 
C 144.713148 142.98382 144.340621 142.084462 143.677614 141.421455 
C 143.014606 140.758447 142.115248 140.385921 141.177614 140.385921 
C 140.239979 140.385921 139.340621 140.758447 138.677614 141.421455 
C 138.014606 142.084462 137.64208 142.98382 137.64208 143.921455 
C 137.64208 144.859089 138.014606 145.758447 138.677614 146.421455 
C 139.340621 147.084462 140.239979 147.456988 141.177614 147.456988 
z
" style="fill:#1f77b4;stroke:#ffffff;stroke-width:0.525357;"/>
    <path clip-path="url(#pb309ecac2a)" d="M 141.177614 147.456988 
C 142.115248 147.456988 143.014606 147.084462 143.677614 146.421455 
C 144.340621 145.758447 144.713148 144.859089 144.713148 143.921455 
C 144.713148 142.98382 144.340621 142.084462 143.677614 141.421455 
C 143.014606 140.758447 142.115248 140.385921 141.177614 140.385921 
C 140.239979 140.385921 139.340621 140.758447 138.677614 141.421455 
C 138.014606 142.084462 137.64208 142.98382 137.64208 143.921455 
C 137.64208 144.859089 138.014606 145.758447 138.677614 146.421455 
C 139.340621 147.084462 140.239979 147.456988 141.177614 147.456988 
z
" style="fill:#ff7f0e;stroke:#ffffff;stroke-width:0.525357;"/>
    <path clip-path="url(#pb309ecac2a)" d="M 141.177614 147.456988 
C 142.115248 147.456988 143.014606 147.084462 143.677614 146.421455 
C 144.340621 145.758447 144.713148 144.859089 144.713148 143.921455 
C 144.713148 142.98382 144.340621 142.084462 143.677614 141.421455 
C 143.014606 140.758447 142.115248 140.385921 141.177614 140.385921 
C 140.239979 140.385921 139.340621 140.758447 138.677614 141.421455 
C 138.014606 142.084462 137.64208 142.98382 137.64208 143.921455 
C 137.64208 144.859089 138.014606 145.758447 138.677614 146.421455 
C 139.340621 147.084462 140.239979 147.456988 141.177614 147.456988 
z
" style="fill:#d62728;stroke:#ffffff;stroke-width:0.525357;"/>
    <path clip-path="url(#pb309ecac2a)" d="M 181.759432 220.980545 
C 182.753943 220.980545 183.707856 220.585422 184.411082 219.882196 
C 185.114308 219.17897 185.509432 218.225057 185.509432 217.230545 
C 185.509432 216.236034 185.114308 215.282121 184.411082 214.578895 
C 183.707856 213.875669 182.753943 213.480545 181.759432 213.480545 
C 180.76492 213.480545 179.811007 213.875669 179.107781 214.578895 
C 178.404555 215.282121 178.009432 216.236034 178.009432 217.230545 
C 178.009432 218.225057 178.404555 219.17897 179.107781 219.882196 
C 179.811007 220.585422 180.76492 220.980545 181.759432 220.980545 
z
" style="fill:#2ca02c;stroke:#ffffff;stroke-width:0.525357;"/>
    <path clip-path="url(#pb309ecac2a)" d="M 181.759432 178.686839 
C 182.753943 178.686839 183.707856 178.291716 184.411082 177.58849 
C 185.114308 176.885264 185.509432 175.931351 185.509432 174.936839 
C 185.509432 173.942328 185.114308 172.988415 184.411082 172.285189 
C 183.707856 171.581963 182.753943 171.186839 181.759432 171.186839 
C 180.76492 171.186839 179.811007 171.581963 179.107781 172.285189 
C 178.404555 172.988415 178.009432 173.942328 178.009432 174.936839 
C 178.009432 175.931351 178.404555 176.885264 179.107781 177.58849 
C 179.811007 178.291716 180.76492 178.686839 181.759432 178.686839 
z
" style="fill:#1f77b4;stroke:#ffffff;stroke-width:0.525357;"/>
    <path clip-path="url(#pb309ecac2a)" d="M 181.759432 151.003686 
C 182.753943 151.003686 183.707856 150.608562 184.411082 149.905336 
C 185.114308 149.20211 185.509432 148.248198 185.509432 147.253686 
C 185.509432 146.259174 185.114308 145.305261 184.411082 144.602036 
C 183.707856 143.89881 182.753943 143.503686 181.759432 143.503686 
C 180.76492 143.503686 179.811007 143.89881 179.107781 144.602036 
C 178.404555 145.305261 178.009432 146.259174 178.009432 147.253686 
C 178.009432 148.248198 178.404555 149.20211 179.107781 149.905336 
C 179.811007 150.608562 180.76492 151.003686 181.759432 151.003686 
z
" style="fill:#ff7f0e;stroke:#ffffff;stroke-width:0.525357;"/>
    <path clip-path="url(#pb309ecac2a)" d="M 181.759432 165.998727 
C 182.753943 165.998727 183.707856 165.603604 184.411082 164.900378 
C 185.114308 164.197152 185.509432 163.243239 185.509432 162.248727 
C 185.509432 161.254216 185.114308 160.300303 184.411082 159.597077 
C 183.707856 158.893851 182.753943 158.498727 181.759432 158.498727 
C 180.76492 158.498727 179.811007 158.893851 179.107781 159.597077 
C 178.404555 160.300303 178.009432 161.254216 178.009432 162.248727 
C 178.009432 163.243239 178.404555 164.197152 179.107781 164.900378 
C 179.811007 165.603604 180.76492 165.998727 181.759432 165.998727 
z
" style="fill:#d62728;stroke:#ffffff;stroke-width:0.525357;"/>
    <path clip-path="url(#pb309ecac2a)" d="M 222.34125 238.855856 
C 223.410318 238.855856 224.435743 238.431111 225.191689 237.675166 
C 225.947634 236.919221 226.372379 235.893795 226.372379 234.824727 
C 226.372379 233.755659 225.947634 232.730234 225.191689 231.974289 
C 224.435743 231.218344 223.410318 230.793598 222.34125 230.793598 
C 221.272182 230.793598 220.246757 231.218344 219.490811 231.974289 
C 218.734866 232.730234 218.310121 233.755659 218.310121 234.824727 
C 218.310121 235.893795 218.734866 236.919221 219.490811 237.675166 
C 220.246757 238.431111 221.272182 238.855856 222.34125 238.855856 
z
" style="fill:#2ca02c;stroke:#ffffff;stroke-width:0.525357;"/>
    <path clip-path="url(#pb309ecac2a)" d="M 222.34125 209.686555 
C 223.410318 209.686555 224.435743 209.26181 225.191689 208.505864 
C 225.947634 207.749919 226.372379 206.724494 226.372379 205.655426 
C 226.372379 204.586358 225.947634 203.560932 225.191689 202.804987 
C 224.435743 202.049042 223.410318 201.624297 222.34125 201.624297 
C 221.272182 201.624297 220.246757 202.049042 219.490811 202.804987 
C 218.734866 203.560932 218.310121 204.586358 218.310121 205.655426 
C 218.310121 206.724494 218.734866 207.749919 219.490811 208.505864 
C 220.246757 209.26181 221.272182 209.686555 222.34125 209.686555 
z
" style="fill:#1f77b4;stroke:#ffffff;stroke-width:0.525357;"/>
    <path clip-path="url(#pb309ecac2a)" d="M 222.34125 153.591744 
C 223.410318 153.591744 224.435743 153.166999 225.191689 152.411054 
C 225.947634 151.655109 226.372379 150.629683 226.372379 149.560615 
C 226.372379 148.491548 225.947634 147.466122 225.191689 146.710177 
C 224.435743 145.954232 223.410318 145.529487 222.34125 145.529487 
C 221.272182 145.529487 220.246757 145.954232 219.490811 146.710177 
C 218.734866 147.466122 218.310121 148.491548 218.310121 149.560615 
C 218.310121 150.629683 218.734866 151.655109 219.490811 152.411054 
C 220.246757 153.166999 221.272182 153.591744 222.34125 153.591744 
z
" style="fill:#ff7f0e;stroke:#ffffff;stroke-width:0.525357;"/>
    <path clip-path="url(#pb309ecac2a)" d="M 222.34125 186.898038 
C 223.410318 186.898038 224.435743 186.473293 225.191689 185.717348 
C 225.947634 184.961403 226.372379 183.935977 226.372379 182.866909 
C 226.372379 181.797841 225.947634 180.772416 225.191689 180.016471 
C 224.435743 179.260525 223.410318 178.83578 222.34125 178.83578 
C 221.272182 178.83578 220.246757 179.260525 219.490811 180.016471 
C 218.734866 180.772416 218.310121 181.797841 218.310121 182.866909 
C 218.310121 183.935977 218.734866 184.961403 219.490811 185.717348 
C 220.246757 186.473293 221.272182 186.898038 222.34125 186.898038 
z
" style="fill:#d62728;stroke:#ffffff;stroke-width:0.525357;"/>
    <path clip-path="url(#pb309ecac2a)" d="M 262.923068 221.560672 
C 264.071431 221.560672 265.172915 221.104423 265.98493 220.292408 
C 266.796946 219.480392 267.253195 218.378909 267.253195 217.230545 
C 267.253195 216.082182 266.796946 214.980699 265.98493 214.168683 
C 265.172915 213.356668 264.071431 212.900418 262.923068 212.900418 
C 261.774705 212.900418 260.673221 213.356668 259.861206 214.168683 
C 259.049191 214.980699 258.592941 216.082182 258.592941 217.230545 
C 258.592941 218.378909 259.049191 219.480392 259.861206 220.292408 
C 260.673221 221.104423 261.774705 221.560672 262.923068 221.560672 
z
" style="fill:#2ca02c;stroke:#ffffff;stroke-width:0.525357;"/>
    <path clip-path="url(#pb309ecac2a)" d="M 262.923068 197.124309 
C 264.071431 197.124309 265.172915 196.668059 265.98493 195.856044 
C 266.796946 195.044029 267.253195 193.942545 267.253195 192.794182 
C 267.253195 191.645819 266.796946 190.544335 265.98493 189.73232 
C 265.172915 188.920304 264.071431 188.464055 262.923068 188.464055 
C 261.774705 188.464055 260.673221 188.920304 259.861206 189.73232 
C 259.049191 190.544335 258.592941 191.645819 258.592941 192.794182 
C 258.592941 193.942545 259.049191 195.044029 259.861206 195.856044 
C 260.673221 196.668059 261.774705 197.124309 262.923068 197.124309 
z
" style="fill:#1f77b4;stroke:#ffffff;stroke-width:0.525357;"/>
    <path clip-path="url(#pb309ecac2a)" d="M 262.923068 118.065485 
C 264.071431 118.065485 265.172915 117.609236 265.98493 116.79722 
C 266.796946 115.985205 267.253195 114.883721 267.253195 113.735358 
C 267.253195 112.586995 266.796946 111.485511 265.98493 110.673496 
C 265.172915 109.861481 264.071431 109.405231 262.923068 109.405231 
C 261.774705 109.405231 260.673221 109.861481 259.861206 110.673496 
C 259.049191 111.485511 258.592941 112.586995 258.592941 113.735358 
C 258.592941 114.883721 259.049191 115.985205 259.861206 116.79722 
C 260.673221 117.609236 261.774705 118.065485 262.923068 118.065485 
z
" style="fill:#ff7f0e;stroke:#ffffff;stroke-width:0.525357;"/>
    <path clip-path="url(#pb309ecac2a)" d="M 262.923068 166.578854 
C 264.071431 166.578854 265.172915 166.122605 265.98493 165.310589 
C 266.796946 164.498574 267.253195 163.39709 267.253195 162.248727 
C 267.253195 161.100364 266.796946 159.99888 265.98493 159.186865 
C 265.172915 158.37485 264.071431 157.9186 262.923068 157.9186 
C 261.774705 157.9186 260.673221 158.37485 259.861206 159.186865 
C 259.049191 159.99888 258.592941 161.100364 258.592941 162.248727 
C 258.592941 163.39709 259.049191 164.498574 259.861206 165.310589 
C 260.673221 166.122605 261.774705 166.578854 262.923068 166.578854 
z
" style="fill:#d62728;stroke:#ffffff;stroke-width:0.525357;"/>
    <path clip-path="url(#pb309ecac2a)" d="M 303.504886 185.319416 
C 304.762855 185.319416 305.96947 184.81962 306.858988 183.930102 
C 307.748507 183.040584 308.248303 181.833969 308.248303 180.576 
C 308.248303 179.318031 307.748507 178.111416 306.858988 177.221898 
C 305.96947 176.33238 304.762855 175.832584 303.504886 175.832584 
C 302.246918 175.832584 301.040303 176.33238 300.150784 177.221898 
C 299.261266 178.111416 298.76147 179.318031 298.76147 180.576 
C 298.76147 181.833969 299.261266 183.040584 300.150784 183.930102 
C 301.040303 184.81962 302.246918 185.319416 303.504886 185.319416 
z
" style="fill:#2ca02c;stroke:#ffffff;stroke-width:0.525357;"/>
    <path clip-path="url(#pb309ecac2a)" d="M 303.504886 162.762773 
C 304.762855 162.762773 305.96947 162.262977 306.858988 161.373459 
C 307.748507 160.48394 308.248303 159.277325 308.248303 158.019357 
C 308.248303 156.761388 307.748507 155.554773 306.858988 154.665255 
C 305.96947 153.775736 304.762855 153.27594 303.504886 153.27594 
C 302.246918 153.27594 301.040303 153.775736 300.150784 154.665255 
C 299.261266 155.554773 298.76147 156.761388 298.76147 158.019357 
C 298.76147 159.277325 299.261266 160.48394 300.150784 161.373459 
C 301.040303 162.262977 302.246918 162.762773 303.504886 162.762773 
z
" style="fill:#1f77b4;stroke:#ffffff;stroke-width:0.525357;"/>
    <path clip-path="url(#pb309ecac2a)" d="M 303.504886 78.175361 
C 304.762855 78.175361 305.96947 77.675564 306.858988 76.786046 
C 307.748507 75.896528 308.248303 74.689913 308.248303 73.431944 
C 308.248303 72.173975 307.748507 70.96736 306.858988 70.077842 
C 305.96947 69.188324 304.762855 68.688528 303.504886 68.688528 
C 302.246918 68.688528 301.040303 69.188324 300.150784 70.077842 
C 299.261266 70.96736 298.76147 72.173975 298.76147 73.431944 
C 298.76147 74.689913 299.261266 75.896528 300.150784 76.786046 
C 301.040303 77.675564 302.246918 78.175361 303.504886 78.175361 
z
" style="fill:#ff7f0e;stroke:#ffffff;stroke-width:0.525357;"/>
    <path clip-path="url(#pb309ecac2a)" d="M 303.504886 128.927808 
C 304.762855 128.927808 305.96947 128.428012 306.858988 127.538494 
C 307.748507 126.648975 308.248303 125.44236 308.248303 124.184392 
C 308.248303 122.926423 307.748507 121.719808 306.858988 120.83029 
C 305.96947 119.940771 304.762855 119.440975 303.504886 119.440975 
C 302.246918 119.440975 301.040303 119.940771 300.150784 120.83029 
C 299.261266 121.719808 298.76147 122.926423 298.76147 124.184392 
C 298.76147 125.44236 299.261266 126.648975 300.150784 127.538494 
C 301.040303 128.428012 302.246918 128.927808 303.504886 128.927808 
z
" style="fill:#d62728;stroke:#ffffff;stroke-width:0.525357;"/>
   </g>
   <g id="PathCollection_2"/>
   <g id="PathCollection_3"/>
   <g id="PathCollection_4"/>
   <g id="PathCollection_5"/>
   <g id="PathCollection_6"/>
   <g id="PathCollection_7"/>
   <g id="PathCollection_8"/>
   <g id="PathCollection_9"/>
   <g id="PathCollection_10"/>
   <g id="PathCollection_11"/>
   <g id="matplotlib.axis_1">
    <g id="xtick_1">
     <g id="line2d_1">
      <defs>
       <path d="M 0 0 
L 0 3.5 
" id="m0e9f81830b" style="stroke:#000000;stroke-width:0.8;"/>
      </defs>
      <g>
       <use style="stroke:#000000;stroke-width:0.8;" x="60.013977" xlink:href="#m0e9f81830b" y="273.312"/>
      </g>
     </g>
     <g id="text_1">
      <!-- 20 -->
      <g transform="translate(53.651477 287.910437)scale(0.1 -0.1)">
       <defs>
        <path d="M 19.1875 8.296875 
L 53.609375 8.296875 
L 53.609375 0 
L 7.328125 0 
L 7.328125 8.296875 
Q 12.9375 14.109375 22.625 23.890625 
Q 32.328125 33.6875 34.8125 36.53125 
Q 39.546875 41.84375 41.421875 45.53125 
Q 43.3125 49.21875 43.3125 52.78125 
Q 43.3125 58.59375 39.234375 62.25 
Q 35.15625 65.921875 28.609375 65.921875 
Q 23.96875 65.921875 18.8125 64.3125 
Q 13.671875 62.703125 7.8125 59.421875 
L 7.8125 69.390625 
Q 13.765625 71.78125 18.9375 73 
Q 24.125 74.21875 28.421875 74.21875 
Q 39.75 74.21875 46.484375 68.546875 
Q 53.21875 62.890625 53.21875 53.421875 
Q 53.21875 48.921875 51.53125 44.890625 
Q 49.859375 40.875 45.40625 35.40625 
Q 44.1875 33.984375 37.640625 27.21875 
Q 31.109375 20.453125 19.1875 8.296875 
z
" id="DejaVuSans-50"/>
        <path d="M 31.78125 66.40625 
Q 24.171875 66.40625 20.328125 58.90625 
Q 16.5 51.421875 16.5 36.375 
Q 16.5 21.390625 20.328125 13.890625 
Q 24.171875 6.390625 31.78125 6.390625 
Q 39.453125 6.390625 43.28125 13.890625 
Q 47.125 21.390625 47.125 36.375 
Q 47.125 51.421875 43.28125 58.90625 
Q 39.453125 66.40625 31.78125 66.40625 
z
M 31.78125 74.21875 
Q 44.046875 74.21875 50.515625 64.515625 
Q 56.984375 54.828125 56.984375 36.375 
Q 56.984375 17.96875 50.515625 8.265625 
Q 44.046875 -1.421875 31.78125 -1.421875 
Q 19.53125 -1.421875 13.0625 8.265625 
Q 6.59375 17.96875 6.59375 36.375 
Q 6.59375 54.828125 13.0625 64.515625 
Q 19.53125 74.21875 31.78125 74.21875 
z
" id="DejaVuSans-48"/>
       </defs>
       <use xlink:href="#DejaVuSans-50"/>
       <use x="63.623047" xlink:href="#DejaVuSans-48"/>
      </g>
     </g>
    </g>
    <g id="xtick_2">
     <g id="line2d_2">
      <g>
       <use style="stroke:#000000;stroke-width:0.8;" x="100.595795" xlink:href="#m0e9f81830b" y="273.312"/>
      </g>
     </g>
     <g id="text_2">
      <!-- 30 -->
      <g transform="translate(94.233295 287.910437)scale(0.1 -0.1)">
       <defs>
        <path d="M 40.578125 39.3125 
Q 47.65625 37.796875 51.625 33 
Q 55.609375 28.21875 55.609375 21.1875 
Q 55.609375 10.40625 48.1875 4.484375 
Q 40.765625 -1.421875 27.09375 -1.421875 
Q 22.515625 -1.421875 17.65625 -0.515625 
Q 12.796875 0.390625 7.625 2.203125 
L 7.625 11.71875 
Q 11.71875 9.328125 16.59375 8.109375 
Q 21.484375 6.890625 26.8125 6.890625 
Q 36.078125 6.890625 40.9375 10.546875 
Q 45.796875 14.203125 45.796875 21.1875 
Q 45.796875 27.640625 41.28125 31.265625 
Q 36.765625 34.90625 28.71875 34.90625 
L 20.21875 34.90625 
L 20.21875 43.015625 
L 29.109375 43.015625 
Q 36.375 43.015625 40.234375 45.921875 
Q 44.09375 48.828125 44.09375 54.296875 
Q 44.09375 59.90625 40.109375 62.90625 
Q 36.140625 65.921875 28.71875 65.921875 
Q 24.65625 65.921875 20.015625 65.03125 
Q 15.375 64.15625 9.8125 62.3125 
L 9.8125 71.09375 
Q 15.4375 72.65625 20.34375 73.4375 
Q 25.25 74.21875 29.59375 74.21875 
Q 40.828125 74.21875 47.359375 69.109375 
Q 53.90625 64.015625 53.90625 55.328125 
Q 53.90625 49.265625 50.4375 45.09375 
Q 46.96875 40.921875 40.578125 39.3125 
z
" id="DejaVuSans-51"/>
       </defs>
       <use xlink:href="#DejaVuSans-51"/>
       <use x="63.623047" xlink:href="#DejaVuSans-48"/>
      </g>
     </g>
    </g>
    <g id="xtick_3">
     <g id="line2d_3">
      <g>
       <use style="stroke:#000000;stroke-width:0.8;" x="141.177614" xlink:href="#m0e9f81830b" y="273.312"/>
      </g>
     </g>
     <g id="text_3">
      <!-- 40 -->
      <g transform="translate(134.815114 287.910437)scale(0.1 -0.1)">
       <defs>
        <path d="M 37.796875 64.3125 
L 12.890625 25.390625 
L 37.796875 25.390625 
z
M 35.203125 72.90625 
L 47.609375 72.90625 
L 47.609375 25.390625 
L 58.015625 25.390625 
L 58.015625 17.1875 
L 47.609375 17.1875 
L 47.609375 0 
L 37.796875 0 
L 37.796875 17.1875 
L 4.890625 17.1875 
L 4.890625 26.703125 
z
" id="DejaVuSans-52"/>
       </defs>
       <use xlink:href="#DejaVuSans-52"/>
       <use x="63.623047" xlink:href="#DejaVuSans-48"/>
      </g>
     </g>
    </g>
    <g id="xtick_4">
     <g id="line2d_4">
      <g>
       <use style="stroke:#000000;stroke-width:0.8;" x="181.759432" xlink:href="#m0e9f81830b" y="273.312"/>
      </g>
     </g>
     <g id="text_4">
      <!-- 50 -->
      <g transform="translate(175.396932 287.910437)scale(0.1 -0.1)">
       <defs>
        <path d="M 10.796875 72.90625 
L 49.515625 72.90625 
L 49.515625 64.59375 
L 19.828125 64.59375 
L 19.828125 46.734375 
Q 21.96875 47.46875 24.109375 47.828125 
Q 26.265625 48.1875 28.421875 48.1875 
Q 40.625 48.1875 47.75 41.5 
Q 54.890625 34.8125 54.890625 23.390625 
Q 54.890625 11.625 47.5625 5.09375 
Q 40.234375 -1.421875 26.90625 -1.421875 
Q 22.3125 -1.421875 17.546875 -0.640625 
Q 12.796875 0.140625 7.71875 1.703125 
L 7.71875 11.625 
Q 12.109375 9.234375 16.796875 8.0625 
Q 21.484375 6.890625 26.703125 6.890625 
Q 35.15625 6.890625 40.078125 11.328125 
Q 45.015625 15.765625 45.015625 23.390625 
Q 45.015625 31 40.078125 35.4375 
Q 35.15625 39.890625 26.703125 39.890625 
Q 22.75 39.890625 18.8125 39.015625 
Q 14.890625 38.140625 10.796875 36.28125 
z
" id="DejaVuSans-53"/>
       </defs>
       <use xlink:href="#DejaVuSans-53"/>
       <use x="63.623047" xlink:href="#DejaVuSans-48"/>
      </g>
     </g>
    </g>
    <g id="xtick_5">
     <g id="line2d_5">
      <g>
       <use style="stroke:#000000;stroke-width:0.8;" x="222.34125" xlink:href="#m0e9f81830b" y="273.312"/>
      </g>
     </g>
     <g id="text_5">
      <!-- 70 -->
      <g transform="translate(215.97875 287.910437)scale(0.1 -0.1)">
       <defs>
        <path d="M 8.203125 72.90625 
L 55.078125 72.90625 
L 55.078125 68.703125 
L 28.609375 0 
L 18.3125 0 
L 43.21875 64.59375 
L 8.203125 64.59375 
z
" id="DejaVuSans-55"/>
       </defs>
       <use xlink:href="#DejaVuSans-55"/>
       <use x="63.623047" xlink:href="#DejaVuSans-48"/>
      </g>
     </g>
    </g>
    <g id="xtick_6">
     <g id="line2d_6">
      <g>
       <use style="stroke:#000000;stroke-width:0.8;" x="262.923068" xlink:href="#m0e9f81830b" y="273.312"/>
      </g>
     </g>
     <g id="text_6">
      <!-- 100 -->
      <g transform="translate(253.379318 287.910437)scale(0.1 -0.1)">
       <defs>
        <path d="M 12.40625 8.296875 
L 28.515625 8.296875 
L 28.515625 63.921875 
L 10.984375 60.40625 
L 10.984375 69.390625 
L 28.421875 72.90625 
L 38.28125 72.90625 
L 38.28125 8.296875 
L 54.390625 8.296875 
L 54.390625 0 
L 12.40625 0 
z
" id="DejaVuSans-49"/>
       </defs>
       <use xlink:href="#DejaVuSans-49"/>
       <use x="63.623047" xlink:href="#DejaVuSans-48"/>
       <use x="127.246094" xlink:href="#DejaVuSans-48"/>
      </g>
     </g>
    </g>
    <g id="xtick_7">
     <g id="line2d_7">
      <g>
       <use style="stroke:#000000;stroke-width:0.8;" x="303.504886" xlink:href="#m0e9f81830b" y="273.312"/>
      </g>
     </g>
     <g id="text_7">
      <!-- 150 -->
      <g transform="translate(293.961136 287.910437)scale(0.1 -0.1)">
       <use xlink:href="#DejaVuSans-49"/>
       <use x="63.623047" xlink:href="#DejaVuSans-53"/>
       <use x="127.246094" xlink:href="#DejaVuSans-48"/>
      </g>
     </g>
    </g>
    <g id="xtick_8">
     <g id="line2d_8">
      <g>
       <use style="stroke:#000000;stroke-width:0.8;" x="344.086705" xlink:href="#m0e9f81830b" y="273.312"/>
      </g>
     </g>
     <g id="text_8">
      <!-- 200 -->
      <g transform="translate(334.542955 287.910437)scale(0.1 -0.1)">
       <use xlink:href="#DejaVuSans-50"/>
       <use x="63.623047" xlink:href="#DejaVuSans-48"/>
       <use x="127.246094" xlink:href="#DejaVuSans-48"/>
      </g>
     </g>
    </g>
    <g id="xtick_9">
     <g id="line2d_9">
      <g>
       <use style="stroke:#000000;stroke-width:0.8;" x="384.668523" xlink:href="#m0e9f81830b" y="273.312"/>
      </g>
     </g>
     <g id="text_9">
      <!-- 200&lt; -->
      <g transform="translate(370.934929 287.910437)scale(0.1 -0.1)">
       <defs>
        <path d="M 73.1875 49.21875 
L 22.796875 31.296875 
L 73.1875 13.484375 
L 73.1875 4.59375 
L 10.59375 27.296875 
L 10.59375 35.40625 
L 73.1875 58.109375 
z
" id="DejaVuSans-60"/>
       </defs>
       <use xlink:href="#DejaVuSans-50"/>
       <use x="63.623047" xlink:href="#DejaVuSans-48"/>
       <use x="127.246094" xlink:href="#DejaVuSans-48"/>
       <use x="190.869141" xlink:href="#DejaVuSans-60"/>
      </g>
     </g>
    </g>
    <g id="text_10">
     <!-- nrows -->
     <g transform="translate(207.476406 301.588562)scale(0.1 -0.1)">
      <defs>
       <path d="M 54.890625 33.015625 
L 54.890625 0 
L 45.90625 0 
L 45.90625 32.71875 
Q 45.90625 40.484375 42.875 44.328125 
Q 39.84375 48.1875 33.796875 48.1875 
Q 26.515625 48.1875 22.3125 43.546875 
Q 18.109375 38.921875 18.109375 30.90625 
L 18.109375 0 
L 9.078125 0 
L 9.078125 54.6875 
L 18.109375 54.6875 
L 18.109375 46.1875 
Q 21.34375 51.125 25.703125 53.5625 
Q 30.078125 56 35.796875 56 
Q 45.21875 56 50.046875 50.171875 
Q 54.890625 44.34375 54.890625 33.015625 
z
" id="DejaVuSans-110"/>
       <path d="M 41.109375 46.296875 
Q 39.59375 47.171875 37.8125 47.578125 
Q 36.03125 48 33.890625 48 
Q 26.265625 48 22.1875 43.046875 
Q 18.109375 38.09375 18.109375 28.8125 
L 18.109375 0 
L 9.078125 0 
L 9.078125 54.6875 
L 18.109375 54.6875 
L 18.109375 46.1875 
Q 20.953125 51.171875 25.484375 53.578125 
Q 30.03125 56 36.53125 56 
Q 37.453125 56 38.578125 55.875 
Q 39.703125 55.765625 41.0625 55.515625 
z
" id="DejaVuSans-114"/>
       <path d="M 30.609375 48.390625 
Q 23.390625 48.390625 19.1875 42.75 
Q 14.984375 37.109375 14.984375 27.296875 
Q 14.984375 17.484375 19.15625 11.84375 
Q 23.34375 6.203125 30.609375 6.203125 
Q 37.796875 6.203125 41.984375 11.859375 
Q 46.1875 17.53125 46.1875 27.296875 
Q 46.1875 37.015625 41.984375 42.703125 
Q 37.796875 48.390625 30.609375 48.390625 
z
M 30.609375 56 
Q 42.328125 56 49.015625 48.375 
Q 55.71875 40.765625 55.71875 27.296875 
Q 55.71875 13.875 49.015625 6.21875 
Q 42.328125 -1.421875 30.609375 -1.421875 
Q 18.84375 -1.421875 12.171875 6.21875 
Q 5.515625 13.875 5.515625 27.296875 
Q 5.515625 40.765625 12.171875 48.375 
Q 18.84375 56 30.609375 56 
z
" id="DejaVuSans-111"/>
       <path d="M 4.203125 54.6875 
L 13.1875 54.6875 
L 24.421875 12.015625 
L 35.59375 54.6875 
L 46.1875 54.6875 
L 57.421875 12.015625 
L 68.609375 54.6875 
L 77.59375 54.6875 
L 63.28125 0 
L 52.6875 0 
L 40.921875 44.828125 
L 29.109375 0 
L 18.5 0 
z
" id="DejaVuSans-119"/>
       <path d="M 44.28125 53.078125 
L 44.28125 44.578125 
Q 40.484375 46.53125 36.375 47.5 
Q 32.28125 48.484375 27.875 48.484375 
Q 21.1875 48.484375 17.84375 46.4375 
Q 14.5 44.390625 14.5 40.28125 
Q 14.5 37.15625 16.890625 35.375 
Q 19.28125 33.59375 26.515625 31.984375 
L 29.59375 31.296875 
Q 39.15625 29.25 43.1875 25.515625 
Q 47.21875 21.78125 47.21875 15.09375 
Q 47.21875 7.46875 41.1875 3.015625 
Q 35.15625 -1.421875 24.609375 -1.421875 
Q 20.21875 -1.421875 15.453125 -0.5625 
Q 10.6875 0.296875 5.421875 2 
L 5.421875 11.28125 
Q 10.40625 8.6875 15.234375 7.390625 
Q 20.0625 6.109375 24.8125 6.109375 
Q 31.15625 6.109375 34.5625 8.28125 
Q 37.984375 10.453125 37.984375 14.40625 
Q 37.984375 18.0625 35.515625 20.015625 
Q 33.0625 21.96875 24.703125 23.78125 
L 21.578125 24.515625 
Q 13.234375 26.265625 9.515625 29.90625 
Q 5.8125 33.546875 5.8125 39.890625 
Q 5.8125 47.609375 11.28125 51.796875 
Q 16.75 56 26.8125 56 
Q 31.78125 56 36.171875 55.265625 
Q 40.578125 54.546875 44.28125 53.078125 
z
" id="DejaVuSans-115"/>
      </defs>
      <use xlink:href="#DejaVuSans-110"/>
      <use x="63.378906" xlink:href="#DejaVuSans-114"/>
      <use x="102.242188" xlink:href="#DejaVuSans-111"/>
      <use x="163.423828" xlink:href="#DejaVuSans-119"/>
      <use x="245.210938" xlink:href="#DejaVuSans-115"/>
     </g>
    </g>
   </g>
   <g id="matplotlib.axis_2">
    <g id="ytick_1">
     <g id="line2d_10">
      <defs>
       <path d="M 0 0 
L -3.5 0 
" id="m67437547f6" style="stroke:#000000;stroke-width:0.8;"/>
      </defs>
      <g>
       <use style="stroke:#000000;stroke-width:0.8;" x="43.78125" xlink:href="#m67437547f6" y="261.216"/>
      </g>
     </g>
     <g id="text_11">
      <!-- 0.2 -->
      <g transform="translate(20.878125 265.015219)scale(0.1 -0.1)">
       <defs>
        <path d="M 10.6875 12.40625 
L 21 12.40625 
L 21 0 
L 10.6875 0 
z
" id="DejaVuSans-46"/>
       </defs>
       <use xlink:href="#DejaVuSans-48"/>
       <use x="63.623047" xlink:href="#DejaVuSans-46"/>
       <use x="95.410156" xlink:href="#DejaVuSans-50"/>
      </g>
     </g>
    </g>
    <g id="ytick_2">
     <g id="line2d_11">
      <g>
       <use style="stroke:#000000;stroke-width:0.8;" x="43.78125" xlink:href="#m67437547f6" y="228.226909"/>
      </g>
     </g>
     <g id="text_12">
      <!-- 0.3 -->
      <g transform="translate(20.878125 232.026128)scale(0.1 -0.1)">
       <use xlink:href="#DejaVuSans-48"/>
       <use x="63.623047" xlink:href="#DejaVuSans-46"/>
       <use x="95.410156" xlink:href="#DejaVuSans-51"/>
      </g>
     </g>
    </g>
    <g id="ytick_3">
     <g id="line2d_12">
      <g>
       <use style="stroke:#000000;stroke-width:0.8;" x="43.78125" xlink:href="#m67437547f6" y="195.237818"/>
      </g>
     </g>
     <g id="text_13">
      <!-- 0.4 -->
      <g transform="translate(20.878125 199.037037)scale(0.1 -0.1)">
       <use xlink:href="#DejaVuSans-48"/>
       <use x="63.623047" xlink:href="#DejaVuSans-46"/>
       <use x="95.410156" xlink:href="#DejaVuSans-52"/>
      </g>
     </g>
    </g>
    <g id="ytick_4">
     <g id="line2d_13">
      <g>
       <use style="stroke:#000000;stroke-width:0.8;" x="43.78125" xlink:href="#m67437547f6" y="162.248727"/>
      </g>
     </g>
     <g id="text_14">
      <!-- 0.5 -->
      <g transform="translate(20.878125 166.047946)scale(0.1 -0.1)">
       <use xlink:href="#DejaVuSans-48"/>
       <use x="63.623047" xlink:href="#DejaVuSans-46"/>
       <use x="95.410156" xlink:href="#DejaVuSans-53"/>
      </g>
     </g>
    </g>
    <g id="ytick_5">
     <g id="line2d_14">
      <g>
       <use style="stroke:#000000;stroke-width:0.8;" x="43.78125" xlink:href="#m67437547f6" y="129.259636"/>
      </g>
     </g>
     <g id="text_15">
      <!-- 0.6 -->
      <g transform="translate(20.878125 133.058855)scale(0.1 -0.1)">
       <defs>
        <path d="M 33.015625 40.375 
Q 26.375 40.375 22.484375 35.828125 
Q 18.609375 31.296875 18.609375 23.390625 
Q 18.609375 15.53125 22.484375 10.953125 
Q 26.375 6.390625 33.015625 6.390625 
Q 39.65625 6.390625 43.53125 10.953125 
Q 47.40625 15.53125 47.40625 23.390625 
Q 47.40625 31.296875 43.53125 35.828125 
Q 39.65625 40.375 33.015625 40.375 
z
M 52.59375 71.296875 
L 52.59375 62.3125 
Q 48.875 64.0625 45.09375 64.984375 
Q 41.3125 65.921875 37.59375 65.921875 
Q 27.828125 65.921875 22.671875 59.328125 
Q 17.53125 52.734375 16.796875 39.40625 
Q 19.671875 43.65625 24.015625 45.921875 
Q 28.375 48.1875 33.59375 48.1875 
Q 44.578125 48.1875 50.953125 41.515625 
Q 57.328125 34.859375 57.328125 23.390625 
Q 57.328125 12.15625 50.6875 5.359375 
Q 44.046875 -1.421875 33.015625 -1.421875 
Q 20.359375 -1.421875 13.671875 8.265625 
Q 6.984375 17.96875 6.984375 36.375 
Q 6.984375 53.65625 15.1875 63.9375 
Q 23.390625 74.21875 37.203125 74.21875 
Q 40.921875 74.21875 44.703125 73.484375 
Q 48.484375 72.75 52.59375 71.296875 
z
" id="DejaVuSans-54"/>
       </defs>
       <use xlink:href="#DejaVuSans-48"/>
       <use x="63.623047" xlink:href="#DejaVuSans-46"/>
       <use x="95.410156" xlink:href="#DejaVuSans-54"/>
      </g>
     </g>
    </g>
    <g id="ytick_6">
     <g id="line2d_15">
      <g>
       <use style="stroke:#000000;stroke-width:0.8;" x="43.78125" xlink:href="#m67437547f6" y="96.270545"/>
      </g>
     </g>
     <g id="text_16">
      <!-- 0.7 -->
      <g transform="translate(20.878125 100.069764)scale(0.1 -0.1)">
       <use xlink:href="#DejaVuSans-48"/>
       <use x="63.623047" xlink:href="#DejaVuSans-46"/>
       <use x="95.410156" xlink:href="#DejaVuSans-55"/>
      </g>
     </g>
    </g>
    <g id="ytick_7">
     <g id="line2d_16">
      <g>
       <use style="stroke:#000000;stroke-width:0.8;" x="43.78125" xlink:href="#m67437547f6" y="63.281455"/>
      </g>
     </g>
     <g id="text_17">
      <!-- 0.8 -->
      <g transform="translate(20.878125 67.080673)scale(0.1 -0.1)">
       <defs>
        <path d="M 31.78125 34.625 
Q 24.75 34.625 20.71875 30.859375 
Q 16.703125 27.09375 16.703125 20.515625 
Q 16.703125 13.921875 20.71875 10.15625 
Q 24.75 6.390625 31.78125 6.390625 
Q 38.8125 6.390625 42.859375 10.171875 
Q 46.921875 13.96875 46.921875 20.515625 
Q 46.921875 27.09375 42.890625 30.859375 
Q 38.875 34.625 31.78125 34.625 
z
M 21.921875 38.8125 
Q 15.578125 40.375 12.03125 44.71875 
Q 8.5 49.078125 8.5 55.328125 
Q 8.5 64.0625 14.71875 69.140625 
Q 20.953125 74.21875 31.78125 74.21875 
Q 42.671875 74.21875 48.875 69.140625 
Q 55.078125 64.0625 55.078125 55.328125 
Q 55.078125 49.078125 51.53125 44.71875 
Q 48 40.375 41.703125 38.8125 
Q 48.828125 37.15625 52.796875 32.3125 
Q 56.78125 27.484375 56.78125 20.515625 
Q 56.78125 9.90625 50.3125 4.234375 
Q 43.84375 -1.421875 31.78125 -1.421875 
Q 19.734375 -1.421875 13.25 4.234375 
Q 6.78125 9.90625 6.78125 20.515625 
Q 6.78125 27.484375 10.78125 32.3125 
Q 14.796875 37.15625 21.921875 38.8125 
z
M 18.3125 54.390625 
Q 18.3125 48.734375 21.84375 45.5625 
Q 25.390625 42.390625 31.78125 42.390625 
Q 38.140625 42.390625 41.71875 45.5625 
Q 45.3125 48.734375 45.3125 54.390625 
Q 45.3125 60.0625 41.71875 63.234375 
Q 38.140625 66.40625 31.78125 66.40625 
Q 25.390625 66.40625 21.84375 63.234375 
Q 18.3125 60.0625 18.3125 54.390625 
z
" id="DejaVuSans-56"/>
       </defs>
       <use xlink:href="#DejaVuSans-48"/>
       <use x="63.623047" xlink:href="#DejaVuSans-46"/>
       <use x="95.410156" xlink:href="#DejaVuSans-56"/>
      </g>
     </g>
    </g>
    <g id="ytick_8">
     <g id="line2d_17">
      <g>
       <use style="stroke:#000000;stroke-width:0.8;" x="43.78125" xlink:href="#m67437547f6" y="30.292364"/>
      </g>
     </g>
     <g id="text_18">
      <!-- 0.9 -->
      <g transform="translate(20.878125 34.091582)scale(0.1 -0.1)">
       <defs>
        <path d="M 10.984375 1.515625 
L 10.984375 10.5 
Q 14.703125 8.734375 18.5 7.8125 
Q 22.3125 6.890625 25.984375 6.890625 
Q 35.75 6.890625 40.890625 13.453125 
Q 46.046875 20.015625 46.78125 33.40625 
Q 43.953125 29.203125 39.59375 26.953125 
Q 35.25 24.703125 29.984375 24.703125 
Q 19.046875 24.703125 12.671875 31.3125 
Q 6.296875 37.9375 6.296875 49.421875 
Q 6.296875 60.640625 12.9375 67.421875 
Q 19.578125 74.21875 30.609375 74.21875 
Q 43.265625 74.21875 49.921875 64.515625 
Q 56.59375 54.828125 56.59375 36.375 
Q 56.59375 19.140625 48.40625 8.859375 
Q 40.234375 -1.421875 26.421875 -1.421875 
Q 22.703125 -1.421875 18.890625 -0.6875 
Q 15.09375 0.046875 10.984375 1.515625 
z
M 30.609375 32.421875 
Q 37.25 32.421875 41.125 36.953125 
Q 45.015625 41.5 45.015625 49.421875 
Q 45.015625 57.28125 41.125 61.84375 
Q 37.25 66.40625 30.609375 66.40625 
Q 23.96875 66.40625 20.09375 61.84375 
Q 16.21875 57.28125 16.21875 49.421875 
Q 16.21875 41.5 20.09375 36.953125 
Q 23.96875 32.421875 30.609375 32.421875 
z
" id="DejaVuSans-57"/>
       </defs>
       <use xlink:href="#DejaVuSans-48"/>
       <use x="63.623047" xlink:href="#DejaVuSans-46"/>
       <use x="95.410156" xlink:href="#DejaVuSans-57"/>
      </g>
     </g>
    </g>
    <g id="text_19">
     <!-- score -->
     <g transform="translate(14.798438 153.688812)rotate(-90)scale(0.1 -0.1)">
      <defs>
       <path d="M 48.78125 52.59375 
L 48.78125 44.1875 
Q 44.96875 46.296875 41.140625 47.34375 
Q 37.3125 48.390625 33.40625 48.390625 
Q 24.65625 48.390625 19.8125 42.84375 
Q 14.984375 37.3125 14.984375 27.296875 
Q 14.984375 17.28125 19.8125 11.734375 
Q 24.65625 6.203125 33.40625 6.203125 
Q 37.3125 6.203125 41.140625 7.25 
Q 44.96875 8.296875 48.78125 10.40625 
L 48.78125 2.09375 
Q 45.015625 0.34375 40.984375 -0.53125 
Q 36.96875 -1.421875 32.421875 -1.421875 
Q 20.0625 -1.421875 12.78125 6.34375 
Q 5.515625 14.109375 5.515625 27.296875 
Q 5.515625 40.671875 12.859375 48.328125 
Q 20.21875 56 33.015625 56 
Q 37.15625 56 41.109375 55.140625 
Q 45.0625 54.296875 48.78125 52.59375 
z
" id="DejaVuSans-99"/>
       <path d="M 56.203125 29.59375 
L 56.203125 25.203125 
L 14.890625 25.203125 
Q 15.484375 15.921875 20.484375 11.0625 
Q 25.484375 6.203125 34.421875 6.203125 
Q 39.59375 6.203125 44.453125 7.46875 
Q 49.3125 8.734375 54.109375 11.28125 
L 54.109375 2.78125 
Q 49.265625 0.734375 44.1875 -0.34375 
Q 39.109375 -1.421875 33.890625 -1.421875 
Q 20.796875 -1.421875 13.15625 6.1875 
Q 5.515625 13.8125 5.515625 26.8125 
Q 5.515625 40.234375 12.765625 48.109375 
Q 20.015625 56 32.328125 56 
Q 43.359375 56 49.78125 48.890625 
Q 56.203125 41.796875 56.203125 29.59375 
z
M 47.21875 32.234375 
Q 47.125 39.59375 43.09375 43.984375 
Q 39.0625 48.390625 32.421875 48.390625 
Q 24.90625 48.390625 20.390625 44.140625 
Q 15.875 39.890625 15.1875 32.171875 
z
" id="DejaVuSans-101"/>
      </defs>
      <use xlink:href="#DejaVuSans-115"/>
      <use x="52.099609" xlink:href="#DejaVuSans-99"/>
      <use x="107.080078" xlink:href="#DejaVuSans-111"/>
      <use x="168.261719" xlink:href="#DejaVuSans-114"/>
      <use x="207.125" xlink:href="#DejaVuSans-101"/>
     </g>
    </g>
   </g>
   <g id="line2d_18">
    <path clip-path="url(#pb309ecac2a)" d="M 60.013977 217.230545 
L 100.595795 162.248727 
L 141.177614 143.921455 
L 181.759432 174.936839 
L 222.34125 205.655426 
L 262.923068 192.794182 
L 303.504886 158.019357 
L 344.086705 151.720294 
L 384.668523 167.936502 
" style="fill:none;stroke:#1f77b4;stroke-dasharray:3.7,1.6;stroke-dashoffset:0;"/>
   </g>
   <g id="line2d_19">
    <path clip-path="url(#pb309ecac2a)" d="M 60.013977 217.230545 
L 100.595795 185.812364 
L 141.177614 143.921455 
L 181.759432 147.253686 
L 222.34125 149.560615 
L 262.923068 113.735358 
L 303.504886 73.431944 
L 344.086705 61.153126 
L 384.668523 19.296 
" style="fill:none;stroke:#ff7f0e;stroke-dasharray:1,1.65;stroke-dashoffset:0;"/>
   </g>
   <g id="line2d_20">
    <path clip-path="url(#pb309ecac2a)" d="M 60.013977 261.216 
L 100.595795 228.226909 
L 141.177614 200.313063 
L 181.759432 217.230545 
L 222.34125 234.824727 
L 262.923068 217.230545 
L 303.504886 180.576 
L 344.086705 171.585262 
L 384.668523 173.245091 
" style="fill:none;stroke:#2ca02c;stroke-dasharray:6.4,1.6,1,1.6;stroke-dashoffset:0;"/>
   </g>
   <g id="line2d_21">
    <path clip-path="url(#pb309ecac2a)" d="M 60.013977 217.230545 
L 100.595795 174.936839 
L 141.177614 143.921455 
L 181.759432 162.248727 
L 222.34125 182.866909 
L 262.923068 162.248727 
L 303.504886 124.184392 
L 344.086705 115.72565 
L 384.668523 117.263603 
" style="fill:none;stroke:#d62728;stroke-linecap:square;"/>
   </g>
   <g id="patch_3">
    <path d="M 43.78125 273.312 
L 43.78125 7.2 
" style="fill:none;stroke:#000000;stroke-linecap:square;stroke-linejoin:miter;stroke-width:0.8;"/>
   </g>
   <g id="patch_4">
    <path d="M 400.90125 273.312 
L 400.90125 7.2 
" style="fill:none;stroke:#000000;stroke-linecap:square;stroke-linejoin:miter;stroke-width:0.8;"/>
   </g>
   <g id="patch_5">
    <path d="M 43.78125 273.312 
L 400.90125 273.312 
" style="fill:none;stroke:#000000;stroke-linecap:square;stroke-linejoin:miter;stroke-width:0.8;"/>
   </g>
   <g id="patch_6">
    <path d="M 43.78125 7.2 
L 400.90125 7.2 
" style="fill:none;stroke:#000000;stroke-linecap:square;stroke-linejoin:miter;stroke-width:0.8;"/>
   </g>
   <g id="legend_1">
    <g id="patch_7">
     <path d="M 48.63925 134.991425 
L 102.159662 134.991425 
Q 103.547663 134.991425 103.547663 133.603425 
L 103.547663 12.058 
Q 103.547663 10.67 102.159662 10.67 
L 48.63925 10.67 
Q 47.25125 10.67 47.25125 12.058 
L 47.25125 133.603425 
Q 47.25125 134.991425 48.63925 134.991425 
z
" style="fill:#ffffff;opacity:0.8;stroke:#cccccc;stroke-linejoin:miter;"/>
    </g>
    <g id="text_20">
     <!-- metric -->
     <g transform="translate(69.45925 18.719316)scale(0.0694 -0.0694)">
      <defs>
       <path d="M 52 44.1875 
Q 55.375 50.25 60.0625 53.125 
Q 64.75 56 71.09375 56 
Q 79.640625 56 84.28125 50.015625 
Q 88.921875 44.046875 88.921875 33.015625 
L 88.921875 0 
L 79.890625 0 
L 79.890625 32.71875 
Q 79.890625 40.578125 77.09375 44.375 
Q 74.3125 48.1875 68.609375 48.1875 
Q 61.625 48.1875 57.5625 43.546875 
Q 53.515625 38.921875 53.515625 30.90625 
L 53.515625 0 
L 44.484375 0 
L 44.484375 32.71875 
Q 44.484375 40.625 41.703125 44.40625 
Q 38.921875 48.1875 33.109375 48.1875 
Q 26.21875 48.1875 22.15625 43.53125 
Q 18.109375 38.875 18.109375 30.90625 
L 18.109375 0 
L 9.078125 0 
L 9.078125 54.6875 
L 18.109375 54.6875 
L 18.109375 46.1875 
Q 21.1875 51.21875 25.484375 53.609375 
Q 29.78125 56 35.6875 56 
Q 41.65625 56 45.828125 52.96875 
Q 50 49.953125 52 44.1875 
z
" id="DejaVuSans-109"/>
       <path d="M 18.3125 70.21875 
L 18.3125 54.6875 
L 36.8125 54.6875 
L 36.8125 47.703125 
L 18.3125 47.703125 
L 18.3125 18.015625 
Q 18.3125 11.328125 20.140625 9.421875 
Q 21.96875 7.515625 27.59375 7.515625 
L 36.8125 7.515625 
L 36.8125 0 
L 27.59375 0 
Q 17.1875 0 13.234375 3.875 
Q 9.28125 7.765625 9.28125 18.015625 
L 9.28125 47.703125 
L 2.6875 47.703125 
L 2.6875 54.6875 
L 9.28125 54.6875 
L 9.28125 70.21875 
z
" id="DejaVuSans-116"/>
       <path d="M 9.421875 54.6875 
L 18.40625 54.6875 
L 18.40625 0 
L 9.421875 0 
z
M 9.421875 75.984375 
L 18.40625 75.984375 
L 18.40625 64.59375 
L 9.421875 64.59375 
z
" id="DejaVuSans-105"/>
      </defs>
      <use xlink:href="#DejaVuSans-109"/>
      <use x="97.412109" xlink:href="#DejaVuSans-101"/>
      <use x="158.935547" xlink:href="#DejaVuSans-116"/>
      <use x="198.144531" xlink:href="#DejaVuSans-114"/>
      <use x="239.257812" xlink:href="#DejaVuSans-105"/>
      <use x="267.041016" xlink:href="#DejaVuSans-99"/>
     </g>
    </g>
    <g id="PathCollection_12">
     <defs>
      <path d="M 0 3 
C 0.795609 3 1.55874 2.683901 2.12132 2.12132 
C 2.683901 1.55874 3 0.795609 3 0 
C 3 -0.795609 2.683901 -1.55874 2.12132 -2.12132 
C 1.55874 -2.683901 0.795609 -3 0 -3 
C -0.795609 -3 -1.55874 -2.683901 -2.12132 -2.12132 
C -2.683901 -1.55874 -3 -0.795609 -3 0 
C -3 0.795609 -2.683901 1.55874 -2.12132 2.12132 
C -1.55874 2.683901 -0.795609 3 0 3 
z
" id="mdfe1853569" style="stroke:#1f77b4;"/>
     </defs>
     <g>
      <use style="fill:#1f77b4;stroke:#1f77b4;" x="56.96725" xlink:href="#mdfe1853569" y="27.084184"/>
     </g>
    </g>
    <g id="text_21">
     <!-- precision -->
     <g transform="translate(69.45925 28.905934)scale(0.0694 -0.0694)">
      <defs>
       <path d="M 18.109375 8.203125 
L 18.109375 -20.796875 
L 9.078125 -20.796875 
L 9.078125 54.6875 
L 18.109375 54.6875 
L 18.109375 46.390625 
Q 20.953125 51.265625 25.265625 53.625 
Q 29.59375 56 35.59375 56 
Q 45.5625 56 51.78125 48.09375 
Q 58.015625 40.1875 58.015625 27.296875 
Q 58.015625 14.40625 51.78125 6.484375 
Q 45.5625 -1.421875 35.59375 -1.421875 
Q 29.59375 -1.421875 25.265625 0.953125 
Q 20.953125 3.328125 18.109375 8.203125 
z
M 48.6875 27.296875 
Q 48.6875 37.203125 44.609375 42.84375 
Q 40.53125 48.484375 33.40625 48.484375 
Q 26.265625 48.484375 22.1875 42.84375 
Q 18.109375 37.203125 18.109375 27.296875 
Q 18.109375 17.390625 22.1875 11.75 
Q 26.265625 6.109375 33.40625 6.109375 
Q 40.53125 6.109375 44.609375 11.75 
Q 48.6875 17.390625 48.6875 27.296875 
z
" id="DejaVuSans-112"/>
      </defs>
      <use xlink:href="#DejaVuSans-112"/>
      <use x="63.476562" xlink:href="#DejaVuSans-114"/>
      <use x="102.339844" xlink:href="#DejaVuSans-101"/>
      <use x="163.863281" xlink:href="#DejaVuSans-99"/>
      <use x="218.84375" xlink:href="#DejaVuSans-105"/>
      <use x="246.626953" xlink:href="#DejaVuSans-115"/>
      <use x="298.726562" xlink:href="#DejaVuSans-105"/>
      <use x="326.509766" xlink:href="#DejaVuSans-111"/>
      <use x="387.691406" xlink:href="#DejaVuSans-110"/>
     </g>
    </g>
    <g id="PathCollection_13">
     <defs>
      <path d="M 0 3 
C 0.795609 3 1.55874 2.683901 2.12132 2.12132 
C 2.683901 1.55874 3 0.795609 3 0 
C 3 -0.795609 2.683901 -1.55874 2.12132 -2.12132 
C 1.55874 -2.683901 0.795609 -3 0 -3 
C -0.795609 -3 -1.55874 -2.683901 -2.12132 -2.12132 
C -2.683901 -1.55874 -3 -0.795609 -3 0 
C -3 0.795609 -2.683901 1.55874 -2.12132 2.12132 
C -1.55874 2.683901 -0.795609 3 0 3 
z
" id="m0fa263399a" style="stroke:#ff7f0e;"/>
     </defs>
     <g>
      <use style="fill:#ff7f0e;stroke:#ff7f0e;" x="56.96725" xlink:href="#m0fa263399a" y="37.270803"/>
     </g>
    </g>
    <g id="text_22">
     <!-- recall -->
     <g transform="translate(69.45925 39.092553)scale(0.0694 -0.0694)">
      <defs>
       <path d="M 34.28125 27.484375 
Q 23.390625 27.484375 19.1875 25 
Q 14.984375 22.515625 14.984375 16.5 
Q 14.984375 11.71875 18.140625 8.90625 
Q 21.296875 6.109375 26.703125 6.109375 
Q 34.1875 6.109375 38.703125 11.40625 
Q 43.21875 16.703125 43.21875 25.484375 
L 43.21875 27.484375 
z
M 52.203125 31.203125 
L 52.203125 0 
L 43.21875 0 
L 43.21875 8.296875 
Q 40.140625 3.328125 35.546875 0.953125 
Q 30.953125 -1.421875 24.3125 -1.421875 
Q 15.921875 -1.421875 10.953125 3.296875 
Q 6 8.015625 6 15.921875 
Q 6 25.140625 12.171875 29.828125 
Q 18.359375 34.515625 30.609375 34.515625 
L 43.21875 34.515625 
L 43.21875 35.40625 
Q 43.21875 41.609375 39.140625 45 
Q 35.0625 48.390625 27.6875 48.390625 
Q 23 48.390625 18.546875 47.265625 
Q 14.109375 46.140625 10.015625 43.890625 
L 10.015625 52.203125 
Q 14.9375 54.109375 19.578125 55.046875 
Q 24.21875 56 28.609375 56 
Q 40.484375 56 46.34375 49.84375 
Q 52.203125 43.703125 52.203125 31.203125 
z
" id="DejaVuSans-97"/>
       <path d="M 9.421875 75.984375 
L 18.40625 75.984375 
L 18.40625 0 
L 9.421875 0 
z
" id="DejaVuSans-108"/>
      </defs>
      <use xlink:href="#DejaVuSans-114"/>
      <use x="38.863281" xlink:href="#DejaVuSans-101"/>
      <use x="100.386719" xlink:href="#DejaVuSans-99"/>
      <use x="155.367188" xlink:href="#DejaVuSans-97"/>
      <use x="216.646484" xlink:href="#DejaVuSans-108"/>
      <use x="244.429688" xlink:href="#DejaVuSans-108"/>
     </g>
    </g>
    <g id="PathCollection_14">
     <defs>
      <path d="M 0 3 
C 0.795609 3 1.55874 2.683901 2.12132 2.12132 
C 2.683901 1.55874 3 0.795609 3 0 
C 3 -0.795609 2.683901 -1.55874 2.12132 -2.12132 
C 1.55874 -2.683901 0.795609 -3 0 -3 
C -0.795609 -3 -1.55874 -2.683901 -2.12132 -2.12132 
C -2.683901 -1.55874 -3 -0.795609 -3 0 
C -3 0.795609 -2.683901 1.55874 -2.12132 2.12132 
C -1.55874 2.683901 -0.795609 3 0 3 
z
" id="m5fb57d371f" style="stroke:#2ca02c;"/>
     </defs>
     <g>
      <use style="fill:#2ca02c;stroke:#2ca02c;" x="56.96725" xlink:href="#m5fb57d371f" y="47.457422"/>
     </g>
    </g>
    <g id="text_23">
     <!-- accuracy -->
     <g transform="translate(69.45925 49.279172)scale(0.0694 -0.0694)">
      <defs>
       <path d="M 8.5 21.578125 
L 8.5 54.6875 
L 17.484375 54.6875 
L 17.484375 21.921875 
Q 17.484375 14.15625 20.5 10.265625 
Q 23.53125 6.390625 29.59375 6.390625 
Q 36.859375 6.390625 41.078125 11.03125 
Q 45.3125 15.671875 45.3125 23.6875 
L 45.3125 54.6875 
L 54.296875 54.6875 
L 54.296875 0 
L 45.3125 0 
L 45.3125 8.40625 
Q 42.046875 3.421875 37.71875 1 
Q 33.40625 -1.421875 27.6875 -1.421875 
Q 18.265625 -1.421875 13.375 4.4375 
Q 8.5 10.296875 8.5 21.578125 
z
M 31.109375 56 
z
" id="DejaVuSans-117"/>
       <path d="M 32.171875 -5.078125 
Q 28.375 -14.84375 24.75 -17.8125 
Q 21.140625 -20.796875 15.09375 -20.796875 
L 7.90625 -20.796875 
L 7.90625 -13.28125 
L 13.1875 -13.28125 
Q 16.890625 -13.28125 18.9375 -11.515625 
Q 21 -9.765625 23.484375 -3.21875 
L 25.09375 0.875 
L 2.984375 54.6875 
L 12.5 54.6875 
L 29.59375 11.921875 
L 46.6875 54.6875 
L 56.203125 54.6875 
z
" id="DejaVuSans-121"/>
      </defs>
      <use xlink:href="#DejaVuSans-97"/>
      <use x="61.279297" xlink:href="#DejaVuSans-99"/>
      <use x="116.259766" xlink:href="#DejaVuSans-99"/>
      <use x="171.240234" xlink:href="#DejaVuSans-117"/>
      <use x="234.619141" xlink:href="#DejaVuSans-114"/>
      <use x="275.732422" xlink:href="#DejaVuSans-97"/>
      <use x="337.011719" xlink:href="#DejaVuSans-99"/>
      <use x="391.992188" xlink:href="#DejaVuSans-121"/>
     </g>
    </g>
    <g id="PathCollection_15">
     <defs>
      <path d="M 0 3 
C 0.795609 3 1.55874 2.683901 2.12132 2.12132 
C 2.683901 1.55874 3 0.795609 3 0 
C 3 -0.795609 2.683901 -1.55874 2.12132 -2.12132 
C 1.55874 -2.683901 0.795609 -3 0 -3 
C -0.795609 -3 -1.55874 -2.683901 -2.12132 -2.12132 
C -2.683901 -1.55874 -3 -0.795609 -3 0 
C -3 0.795609 -2.683901 1.55874 -2.12132 2.12132 
C -1.55874 2.683901 -0.795609 3 0 3 
z
" id="m6e41a08170" style="stroke:#d62728;"/>
     </defs>
     <g>
      <use style="fill:#d62728;stroke:#d62728;" x="56.96725" xlink:href="#m6e41a08170" y="57.644041"/>
     </g>
    </g>
    <g id="text_24">
     <!-- f1 -->
     <g transform="translate(69.45925 59.465791)scale(0.0694 -0.0694)">
      <defs>
       <path d="M 37.109375 75.984375 
L 37.109375 68.5 
L 28.515625 68.5 
Q 23.6875 68.5 21.796875 66.546875 
Q 19.921875 64.59375 19.921875 59.515625 
L 19.921875 54.6875 
L 34.71875 54.6875 
L 34.71875 47.703125 
L 19.921875 47.703125 
L 19.921875 0 
L 10.890625 0 
L 10.890625 47.703125 
L 2.296875 47.703125 
L 2.296875 54.6875 
L 10.890625 54.6875 
L 10.890625 58.5 
Q 10.890625 67.625 15.140625 71.796875 
Q 19.390625 75.984375 28.609375 75.984375 
z
" id="DejaVuSans-102"/>
      </defs>
      <use xlink:href="#DejaVuSans-102"/>
      <use x="35.205078" xlink:href="#DejaVuSans-49"/>
     </g>
    </g>
    <g id="text_25">
     <!-- ncols -->
     <g transform="translate(69.45925 69.652409)scale(0.0694 -0.0694)">
      <use xlink:href="#DejaVuSans-110"/>
      <use x="63.378906" xlink:href="#DejaVuSans-99"/>
      <use x="118.359375" xlink:href="#DejaVuSans-111"/>
      <use x="179.541016" xlink:href="#DejaVuSans-108"/>
      <use x="207.324219" xlink:href="#DejaVuSans-115"/>
     </g>
    </g>
    <g id="PathCollection_16">
     <defs>
      <path d="M 0 3.307189 
C 0.877077 3.307189 1.718349 2.958723 2.338536 2.338536 
C 2.958723 1.718349 3.307189 0.877077 3.307189 0 
C 3.307189 -0.877077 2.958723 -1.718349 2.338536 -2.338536 
C 1.718349 -2.958723 0.877077 -3.307189 0 -3.307189 
C -0.877077 -3.307189 -1.718349 -2.958723 -2.338536 -2.338536 
C -2.958723 -1.718349 -3.307189 -0.877077 -3.307189 0 
C -3.307189 0.877077 -2.958723 1.718349 -2.338536 2.338536 
C -1.718349 2.958723 -0.877077 3.307189 0 3.307189 
z
" id="m57d49f2f14" style="stroke:#333333;"/>
     </defs>
     <g>
      <use style="fill:#333333;stroke:#333333;" x="56.96725" xlink:href="#m57d49f2f14" y="78.017278"/>
     </g>
    </g>
    <g id="text_26">
     <!-- 8 -->
     <g transform="translate(69.45925 79.839028)scale(0.0694 -0.0694)">
      <use xlink:href="#DejaVuSans-56"/>
     </g>
    </g>
    <g id="PathCollection_17">
     <defs>
      <path d="M 0 3.66572 
C 0.97216 3.66572 1.904634 3.279476 2.592055 2.592055 
C 3.279476 1.904634 3.66572 0.97216 3.66572 0 
C 3.66572 -0.97216 3.279476 -1.904634 2.592055 -2.592055 
C 1.904634 -3.279476 0.97216 -3.66572 0 -3.66572 
C -0.97216 -3.66572 -1.904634 -3.279476 -2.592055 -2.592055 
C -3.279476 -1.904634 -3.66572 -0.97216 -3.66572 0 
C -3.66572 0.97216 -3.279476 1.904634 -2.592055 2.592055 
C -1.904634 3.279476 -0.97216 3.66572 0 3.66572 
z
" id="m574471a661" style="stroke:#333333;"/>
     </defs>
     <g>
      <use style="fill:#333333;stroke:#333333;" x="56.96725" xlink:href="#m574471a661" y="88.203897"/>
     </g>
    </g>
    <g id="text_27">
     <!-- 16 -->
     <g transform="translate(69.45925 90.025647)scale(0.0694 -0.0694)">
      <use xlink:href="#DejaVuSans-49"/>
      <use x="63.623047" xlink:href="#DejaVuSans-54"/>
     </g>
    </g>
    <g id="PathCollection_18">
     <defs>
      <path d="M 0 3.99218 
C 1.058738 3.99218 2.074256 3.571539 2.822897 2.822897 
C 3.571539 2.074256 3.99218 1.058738 3.99218 0 
C 3.99218 -1.058738 3.571539 -2.074256 2.822897 -2.822897 
C 2.074256 -3.571539 1.058738 -3.99218 0 -3.99218 
C -1.058738 -3.99218 -2.074256 -3.571539 -2.822897 -2.822897 
C -3.571539 -2.074256 -3.99218 -1.058738 -3.99218 0 
C -3.99218 1.058738 -3.571539 2.074256 -2.822897 2.822897 
C -2.074256 3.571539 -1.058738 3.99218 0 3.99218 
z
" id="m9df411f6c8" style="stroke:#333333;"/>
     </defs>
     <g>
      <use style="fill:#333333;stroke:#333333;" x="56.96725" xlink:href="#m9df411f6c8" y="98.390516"/>
     </g>
    </g>
    <g id="text_28">
     <!-- 24 -->
     <g transform="translate(69.45925 100.212266)scale(0.0694 -0.0694)">
      <use xlink:href="#DejaVuSans-50"/>
      <use x="63.623047" xlink:href="#DejaVuSans-52"/>
     </g>
    </g>
    <g id="PathCollection_19">
     <defs>
      <path d="M 0 4.293891 
C 1.138753 4.293891 2.231019 3.84146 3.036239 3.036239 
C 3.84146 2.231019 4.293891 1.138753 4.293891 0 
C 4.293891 -1.138753 3.84146 -2.231019 3.036239 -3.036239 
C 2.231019 -3.84146 1.138753 -4.293891 0 -4.293891 
C -1.138753 -4.293891 -2.231019 -3.84146 -3.036239 -3.036239 
C -3.84146 -2.231019 -4.293891 -1.138753 -4.293891 0 
C -4.293891 1.138753 -3.84146 2.231019 -3.036239 3.036239 
C -2.231019 3.84146 -1.138753 4.293891 0 4.293891 
z
" id="m165b94dadd" style="stroke:#333333;"/>
     </defs>
     <g>
      <use style="fill:#333333;stroke:#333333;" x="56.96725" xlink:href="#m165b94dadd" y="108.577134"/>
     </g>
    </g>
    <g id="text_29">
     <!-- 32 -->
     <g transform="translate(69.45925 110.398884)scale(0.0694 -0.0694)">
      <use xlink:href="#DejaVuSans-51"/>
      <use x="63.623047" xlink:href="#DejaVuSans-50"/>
     </g>
    </g>
    <g id="PathCollection_20">
     <defs>
      <path d="M 0 4.575751 
C 1.213503 4.575751 2.377468 4.093621 3.235545 3.235545 
C 4.093621 2.377468 4.575751 1.213503 4.575751 0 
C 4.575751 -1.213503 4.093621 -2.377468 3.235545 -3.235545 
C 2.377468 -4.093621 1.213503 -4.575751 0 -4.575751 
C -1.213503 -4.575751 -2.377468 -4.093621 -3.235545 -3.235545 
C -4.093621 -2.377468 -4.575751 -1.213503 -4.575751 0 
C -4.575751 1.213503 -4.093621 2.377468 -3.235545 3.235545 
C -2.377468 4.093621 -1.213503 4.575751 0 4.575751 
z
" id="m183c9a301e" style="stroke:#333333;"/>
     </defs>
     <g>
      <use style="fill:#333333;stroke:#333333;" x="56.96725" xlink:href="#m183c9a301e" y="118.763753"/>
     </g>
    </g>
    <g id="text_30">
     <!-- 40 -->
     <g transform="translate(69.45925 120.585503)scale(0.0694 -0.0694)">
      <use xlink:href="#DejaVuSans-52"/>
      <use x="63.623047" xlink:href="#DejaVuSans-48"/>
     </g>
    </g>
    <g id="PathCollection_21">
     <defs>
      <path d="M 0 4.841229 
C 1.283909 4.841229 2.515405 4.331127 3.423266 3.423266 
C 4.331127 2.515405 4.841229 1.283909 4.841229 0 
C 4.841229 -1.283909 4.331127 -2.515405 3.423266 -3.423266 
C 2.515405 -4.331127 1.283909 -4.841229 0 -4.841229 
C -1.283909 -4.841229 -2.515405 -4.331127 -3.423266 -3.423266 
C -4.331127 -2.515405 -4.841229 -1.283909 -4.841229 0 
C -4.841229 1.283909 -4.331127 2.515405 -3.423266 3.423266 
C -2.515405 4.331127 -1.283909 4.841229 0 4.841229 
z
" id="m52f05b0a3d" style="stroke:#333333;"/>
     </defs>
     <g>
      <use style="fill:#333333;stroke:#333333;" x="56.96725" xlink:href="#m52f05b0a3d" y="128.950372"/>
     </g>
    </g>
    <g id="text_31">
     <!-- 48 -->
     <g transform="translate(69.45925 130.772122)scale(0.0694 -0.0694)">
      <use xlink:href="#DejaVuSans-52"/>
      <use x="63.623047" xlink:href="#DejaVuSans-56"/>
     </g>
    </g>
   </g>
  </g>
 </g>
 <defs>
  <clipPath id="pb309ecac2a">
   <rect height="266.112" width="357.12" x="43.78125" y="7.2"/>
  </clipPath>
 </defs>
</svg>
