<?xml version="1.0" encoding="utf-8" standalone="no"?>
<!DOCTYPE svg PUBLIC "-//W3C//DTD SVG 1.1//EN"
  "http://www.w3.org/Graphics/SVG/1.1/DTD/svg11.dtd">
<!-- Created with matplotlib (https://matplotlib.org/) -->
<svg height="310.86825pt" version="1.1" viewBox="0 0 408.10125 310.86825" width="408.10125pt" xmlns="http://www.w3.org/2000/svg" xmlns:xlink="http://www.w3.org/1999/xlink">
 <metadata>
  <rdf:RDF xmlns:cc="http://creativecommons.org/ns#" xmlns:dc="http://purl.org/dc/elements/1.1/" xmlns:rdf="http://www.w3.org/1999/02/22-rdf-syntax-ns#">
   <cc:Work>
    <dc:type rdf:resource="http://purl.org/dc/dcmitype/StillImage"/>
    <dc:date>2022-03-09T16:20:22.501522</dc:date>
    <dc:format>image/svg+xml</dc:format>
    <dc:creator>
     <cc:Agent>
      <dc:title>Matplotlib v3.3.4, https://matplotlib.org/</dc:title>
     </cc:Agent>
    </dc:creator>
   </cc:Work>
  </rdf:RDF>
 </metadata>
 <defs>
  <style type="text/css">*{stroke-linecap:butt;stroke-linejoin:round;}</style>
 </defs>
 <g id="figure_1">
  <g id="patch_1">
   <path d="M 0 310.86825 
L 408.10125 310.86825 
L 408.10125 0 
L 0 0 
z
" style="fill:#ffffff;"/>
  </g>
  <g id="axes_1">
   <g id="patch_2">
    <path d="M 43.78125 273.312 
L 400.90125 273.312 
L 400.90125 7.2 
L 43.78125 7.2 
z
" style="fill:#ffffff;"/>
   </g>
   <g id="PathCollection_1">
    <path clip-path="url(#p9753271d50)" d="M 384.668523 24.055418 
C 385.464132 24.055418 386.227262 23.739319 386.789843 23.176739 
C 387.352424 22.614158 387.668523 21.851027 387.668523 21.055418 
C 387.668523 20.259809 387.352424 19.496679 386.789843 18.934098 
C 386.227262 18.371517 385.464132 18.055418 384.668523 18.055418 
C 383.872913 18.055418 383.109783 18.371517 382.547202 18.934098 
C 381.984622 19.496679 381.668523 20.259809 381.668523 21.055418 
C 381.668523 21.851027 381.984622 22.614158 382.547202 23.176739 
C 383.109783 23.739319 383.872913 24.055418 384.668523 24.055418 
z
" style="fill:#f26b38;stroke:#ffffff;stroke-width:0.48;"/>
    <path clip-path="url(#p9753271d50)" d="M 344.086705 35.792589 
C 344.882314 35.792589 345.645444 35.476491 346.208025 34.91391 
C 346.770606 34.351329 347.086705 33.588199 347.086705 32.792589 
C 347.086705 31.99698 346.770606 31.23385 346.208025 30.671269 
C 345.645444 30.108688 344.882314 29.792589 344.086705 29.792589 
C 343.291095 29.792589 342.527965 30.108688 341.965384 30.671269 
C 341.402803 31.23385 341.086705 31.99698 341.086705 32.792589 
C 341.086705 33.588199 341.402803 34.351329 341.965384 34.91391 
C 342.527965 35.476491 343.291095 35.792589 344.086705 35.792589 
z
" style="fill:#f26b38;stroke:#ffffff;stroke-width:0.48;"/>
    <path clip-path="url(#p9753271d50)" d="M 60.013977 264.216 
C 60.809587 264.216 61.572717 263.899901 62.135298 263.33732 
C 62.697878 262.77474 63.013977 262.011609 63.013977 261.216 
C 63.013977 260.420391 62.697878 259.65726 62.135298 259.09468 
C 61.572717 258.532099 60.809587 258.216 60.013977 258.216 
C 59.218368 258.216 58.455238 258.532099 57.892657 259.09468 
C 57.330076 259.65726 57.013977 260.420391 57.013977 261.216 
C 57.013977 262.011609 57.330076 262.77474 57.892657 263.33732 
C 58.455238 263.899901 59.218368 264.216 60.013977 264.216 
z
" style="fill:#f26b38;stroke:#ffffff;stroke-width:0.48;"/>
    <path clip-path="url(#p9753271d50)" d="M 100.595795 138.4176 
C 101.391405 138.4176 102.154535 138.101501 102.717116 137.53892 
C 103.279697 136.97634 103.595795 136.213209 103.595795 135.4176 
C 103.595795 134.621991 103.279697 133.85886 102.717116 133.29628 
C 102.154535 132.733699 101.391405 132.4176 100.595795 132.4176 
C 99.800186 132.4176 99.037056 132.733699 98.474475 133.29628 
C 97.911894 133.85886 97.595795 134.621991 97.595795 135.4176 
C 97.595795 136.213209 97.911894 136.97634 98.474475 137.53892 
C 99.037056 138.101501 99.800186 138.4176 100.595795 138.4176 
z
" style="fill:#f26b38;stroke:#ffffff;stroke-width:0.48;"/>
    <path clip-path="url(#p9753271d50)" d="M 141.177614 86.618259 
C 141.973223 86.618259 142.736353 86.30216 143.298934 85.739579 
C 143.861515 85.176998 144.177614 84.413868 144.177614 83.618259 
C 144.177614 82.82265 143.861515 82.059519 143.298934 81.496938 
C 142.736353 80.934358 141.973223 80.618259 141.177614 80.618259 
C 140.382004 80.618259 139.618874 80.934358 139.056293 81.496938 
C 138.493713 82.059519 138.177614 82.82265 138.177614 83.618259 
C 138.177614 84.413868 138.493713 85.176998 139.056293 85.739579 
C 139.618874 86.30216 140.382004 86.618259 141.177614 86.618259 
z
" style="fill:#f26b38;stroke:#ffffff;stroke-width:0.48;"/>
    <path clip-path="url(#p9753271d50)" d="M 181.759432 100.13113 
C 182.555041 100.13113 183.318171 99.815032 183.880752 99.252451 
C 184.443333 98.68987 184.759432 97.92674 184.759432 97.13113 
C 184.759432 96.335521 184.443333 95.572391 183.880752 95.00981 
C 183.318171 94.447229 182.555041 94.13113 181.759432 94.13113 
C 180.963823 94.13113 180.200692 94.447229 179.638111 95.00981 
C 179.075531 95.572391 178.759432 96.335521 178.759432 97.13113 
C 178.759432 97.92674 179.075531 98.68987 179.638111 99.252451 
C 180.200692 99.815032 180.963823 100.13113 181.759432 100.13113 
z
" style="fill:#f26b38;stroke:#ffffff;stroke-width:0.48;"/>
    <path clip-path="url(#p9753271d50)" d="M 222.34125 118.127535 
C 223.136859 118.127535 223.89999 117.811437 224.46257 117.248856 
C 225.025151 116.686275 225.34125 115.923145 225.34125 115.127535 
C 225.34125 114.331926 225.025151 113.568796 224.46257 113.006215 
C 223.89999 112.443634 223.136859 112.127535 222.34125 112.127535 
C 221.545641 112.127535 220.78251 112.443634 220.21993 113.006215 
C 219.657349 113.568796 219.34125 114.331926 219.34125 115.127535 
C 219.34125 115.923145 219.657349 116.686275 220.21993 117.248856 
C 220.78251 117.811437 221.545641 118.127535 222.34125 118.127535 
z
" style="fill:#f26b38;stroke:#ffffff;stroke-width:0.48;"/>
    <path clip-path="url(#p9753271d50)" d="M 262.923068 88.683349 
C 263.718677 88.683349 264.481808 88.36725 265.044389 87.804669 
C 265.606969 87.242088 265.923068 86.478958 265.923068 85.683349 
C 265.923068 84.88774 265.606969 84.124609 265.044389 83.562028 
C 264.481808 82.999448 263.718677 82.683349 262.923068 82.683349 
C 262.127459 82.683349 261.364329 82.999448 260.801748 83.562028 
C 260.239167 84.124609 259.923068 84.88774 259.923068 85.683349 
C 259.923068 86.478958 260.239167 87.242088 260.801748 87.804669 
C 261.364329 88.36725 262.127459 88.683349 262.923068 88.683349 
z
" style="fill:#f26b38;stroke:#ffffff;stroke-width:0.48;"/>
    <path clip-path="url(#p9753271d50)" d="M 303.504886 48.5616 
C 304.300496 48.5616 305.063626 48.245501 305.626207 47.68292 
C 306.188787 47.12034 306.504886 46.357209 306.504886 45.5616 
C 306.504886 44.765991 306.188787 44.00286 305.626207 43.44028 
C 305.063626 42.877699 304.300496 42.5616 303.504886 42.5616 
C 302.709277 42.5616 301.946147 42.877699 301.383566 43.44028 
C 300.820985 44.00286 300.504886 44.765991 300.504886 45.5616 
C 300.504886 46.357209 300.820985 47.12034 301.383566 47.68292 
C 301.946147 48.245501 302.709277 48.5616 303.504886 48.5616 
z
" style="fill:#f26b38;stroke:#ffffff;stroke-width:0.48;"/>
    <path clip-path="url(#p9753271d50)" d="M 383.168523 24.055418 
L 384.668523 22.555418 
L 386.168523 24.055418 
L 387.668523 22.555418 
L 386.168523 21.055418 
L 387.668523 19.555418 
L 386.168523 18.055418 
L 384.668523 19.555418 
L 383.168523 18.055418 
L 381.668523 19.555418 
L 383.168523 21.055418 
L 381.668523 22.555418 
z
" style="fill:#f26b38;stroke:#ffffff;stroke-width:0.48;"/>
    <path clip-path="url(#p9753271d50)" d="M 342.586705 28.956655 
L 344.086705 27.456655 
L 345.586705 28.956655 
L 347.086705 27.456655 
L 345.586705 25.956655 
L 347.086705 24.456655 
L 345.586705 22.956655 
L 344.086705 24.456655 
L 342.586705 22.956655 
L 341.086705 24.456655 
L 342.586705 25.956655 
L 341.086705 27.456655 
z
" style="fill:#f26b38;stroke:#ffffff;stroke-width:0.48;"/>
    <path clip-path="url(#p9753271d50)" d="M 58.513977 264.216 
L 60.013977 262.716 
L 61.513977 264.216 
L 63.013977 262.716 
L 61.513977 261.216 
L 63.013977 259.716 
L 61.513977 258.216 
L 60.013977 259.716 
L 58.513977 258.216 
L 57.013977 259.716 
L 58.513977 261.216 
L 57.013977 262.716 
z
" style="fill:#f26b38;stroke:#ffffff;stroke-width:0.48;"/>
    <path clip-path="url(#p9753271d50)" d="M 99.095795 138.4176 
L 100.595795 136.9176 
L 102.095795 138.4176 
L 103.595795 136.9176 
L 102.095795 135.4176 
L 103.595795 133.9176 
L 102.095795 132.4176 
L 100.595795 133.9176 
L 99.095795 132.4176 
L 97.595795 133.9176 
L 99.095795 135.4176 
L 97.595795 136.9176 
z
" style="fill:#f26b38;stroke:#ffffff;stroke-width:0.48;"/>
    <path clip-path="url(#p9753271d50)" d="M 139.677614 122.6928 
L 141.177614 121.1928 
L 142.677614 122.6928 
L 144.177614 121.1928 
L 142.677614 119.6928 
L 144.177614 118.1928 
L 142.677614 116.6928 
L 141.177614 118.1928 
L 139.677614 116.6928 
L 138.177614 118.1928 
L 139.677614 119.6928 
L 138.177614 121.1928 
z
" style="fill:#f26b38;stroke:#ffffff;stroke-width:0.48;"/>
    <path clip-path="url(#p9753271d50)" d="M 180.259432 126.981382 
L 181.759432 125.481382 
L 183.259432 126.981382 
L 184.759432 125.481382 
L 183.259432 123.981382 
L 184.759432 122.481382 
L 183.259432 120.981382 
L 181.759432 122.481382 
L 180.259432 120.981382 
L 178.759432 122.481382 
L 180.259432 123.981382 
L 178.759432 125.481382 
z
" style="fill:#f26b38;stroke:#ffffff;stroke-width:0.48;"/>
    <path clip-path="url(#p9753271d50)" d="M 220.84125 118.127535 
L 222.34125 116.627535 
L 223.84125 118.127535 
L 225.34125 116.627535 
L 223.84125 115.127535 
L 225.34125 113.627535 
L 223.84125 112.127535 
L 222.34125 113.627535 
L 220.84125 112.127535 
L 219.34125 113.627535 
L 220.84125 115.127535 
L 219.34125 116.627535 
z
" style="fill:#f26b38;stroke:#ffffff;stroke-width:0.48;"/>
    <path clip-path="url(#p9753271d50)" d="M 261.423068 88.683349 
L 262.923068 87.183349 
L 264.423068 88.683349 
L 265.923068 87.183349 
L 264.423068 85.683349 
L 265.923068 84.183349 
L 264.423068 82.683349 
L 262.923068 84.183349 
L 261.423068 82.683349 
L 259.923068 84.183349 
L 261.423068 85.683349 
L 259.923068 87.183349 
z
" style="fill:#f26b38;stroke:#ffffff;stroke-width:0.48;"/>
    <path clip-path="url(#p9753271d50)" d="M 302.004886 48.5616 
L 303.504886 47.0616 
L 305.004886 48.5616 
L 306.504886 47.0616 
L 305.004886 45.5616 
L 306.504886 44.0616 
L 305.004886 42.5616 
L 303.504886 44.0616 
L 302.004886 42.5616 
L 300.504886 44.0616 
L 302.004886 45.5616 
L 300.504886 47.0616 
z
" style="fill:#f26b38;stroke:#ffffff;stroke-width:0.48;"/>
    <path clip-path="url(#p9753271d50)" d="M 382.547202 18.934098 
L 382.547202 23.176739 
L 386.789843 23.176739 
L 386.789843 18.934098 
z
" style="fill:#f26b38;stroke:#ffffff;stroke-width:0.48;"/>
    <path clip-path="url(#p9753271d50)" d="M 341.965384 17.17468 
L 341.965384 21.41732 
L 346.208025 21.41732 
L 346.208025 17.17468 
z
" style="fill:#f26b38;stroke:#ffffff;stroke-width:0.48;"/>
    <path clip-path="url(#p9753271d50)" d="M 57.892657 133.29628 
L 57.892657 137.53892 
L 62.135298 137.53892 
L 62.135298 133.29628 
z
" style="fill:#f26b38;stroke:#ffffff;stroke-width:0.48;"/>
    <path clip-path="url(#p9753271d50)" d="M 98.474475 84.91228 
L 98.474475 89.15492 
L 102.717116 89.15492 
L 102.717116 84.91228 
z
" style="fill:#f26b38;stroke:#ffffff;stroke-width:0.48;"/>
    <path clip-path="url(#p9753271d50)" d="M 139.056293 49.43068 
L 139.056293 53.67332 
L 143.298934 53.67332 
L 143.298934 49.43068 
z
" style="fill:#f26b38;stroke:#ffffff;stroke-width:0.48;"/>
    <path clip-path="url(#p9753271d50)" d="M 179.638111 70.39708 
L 179.638111 74.63972 
L 183.880752 74.63972 
L 183.880752 70.39708 
z
" style="fill:#f26b38;stroke:#ffffff;stroke-width:0.48;"/>
    <path clip-path="url(#p9753271d50)" d="M 220.21993 93.98428 
L 220.21993 98.22692 
L 224.46257 98.22692 
L 224.46257 93.98428 
z
" style="fill:#f26b38;stroke:#ffffff;stroke-width:0.48;"/>
    <path clip-path="url(#p9753271d50)" d="M 260.801748 70.39708 
L 260.801748 74.63972 
L 265.044389 74.63972 
L 265.044389 70.39708 
z
" style="fill:#f26b38;stroke:#ffffff;stroke-width:0.48;"/>
    <path clip-path="url(#p9753271d50)" d="M 301.383566 26.85148 
L 301.383566 31.09412 
L 305.626207 31.09412 
L 305.626207 26.85148 
z
" style="fill:#f26b38;stroke:#ffffff;stroke-width:0.48;"/>
    <path clip-path="url(#p9753271d50)" d="M 384.668523 24.055418 
C 385.464132 24.055418 386.227262 23.739319 386.789843 23.176739 
C 387.352424 22.614158 387.668523 21.851027 387.668523 21.055418 
C 387.668523 20.259809 387.352424 19.496679 386.789843 18.934098 
C 386.227262 18.371517 385.464132 18.055418 384.668523 18.055418 
C 383.872913 18.055418 383.109783 18.371517 382.547202 18.934098 
C 381.984622 19.496679 381.668523 20.259809 381.668523 21.055418 
C 381.668523 21.851027 381.984622 22.614158 382.547202 23.176739 
C 383.109783 23.739319 383.872913 24.055418 384.668523 24.055418 
z
" style="fill:#2f9599;stroke:#ffffff;stroke-width:0.48;"/>
    <path clip-path="url(#p9753271d50)" d="M 344.086705 57.42411 
C 344.882314 57.42411 345.645444 57.108011 346.208025 56.54543 
C 346.770606 55.982849 347.086705 55.219719 347.086705 54.42411 
C 347.086705 53.6285 346.770606 52.86537 346.208025 52.302789 
C 345.645444 51.740209 344.882314 51.42411 344.086705 51.42411 
C 343.291095 51.42411 342.527965 51.740209 341.965384 52.302789 
C 341.402803 52.86537 341.086705 53.6285 341.086705 54.42411 
C 341.086705 55.219719 341.402803 55.982849 341.965384 56.54543 
C 342.527965 57.108011 343.291095 57.42411 344.086705 57.42411 
z
" style="fill:#2f9599;stroke:#ffffff;stroke-width:0.48;"/>
    <path clip-path="url(#p9753271d50)" d="M 60.013977 264.216 
C 60.809587 264.216 61.572717 263.899901 62.135298 263.33732 
C 62.697878 262.77474 63.013977 262.011609 63.013977 261.216 
C 63.013977 260.420391 62.697878 259.65726 62.135298 259.09468 
C 61.572717 258.532099 60.809587 258.216 60.013977 258.216 
C 59.218368 258.216 58.455238 258.532099 57.892657 259.09468 
C 57.330076 259.65726 57.013977 260.420391 57.013977 261.216 
C 57.013977 262.011609 57.330076 262.77474 57.892657 263.33732 
C 58.455238 263.899901 59.218368 264.216 60.013977 264.216 
z
" style="fill:#2f9599;stroke:#ffffff;stroke-width:0.48;"/>
    <path clip-path="url(#p9753271d50)" d="M 100.595795 138.4176 
C 101.391405 138.4176 102.154535 138.101501 102.717116 137.53892 
C 103.279697 136.97634 103.595795 136.213209 103.595795 135.4176 
C 103.595795 134.621991 103.279697 133.85886 102.717116 133.29628 
C 102.154535 132.733699 101.391405 132.4176 100.595795 132.4176 
C 99.800186 132.4176 99.037056 132.733699 98.474475 133.29628 
C 97.911894 133.85886 97.595795 134.621991 97.595795 135.4176 
C 97.595795 136.213209 97.911894 136.97634 98.474475 137.53892 
C 99.037056 138.101501 99.800186 138.4176 100.595795 138.4176 
z
" style="fill:#2f9599;stroke:#ffffff;stroke-width:0.48;"/>
    <path clip-path="url(#p9753271d50)" d="M 141.177614 163.57728 
C 141.973223 163.57728 142.736353 163.261181 143.298934 162.6986 
C 143.861515 162.13602 144.177614 161.372889 144.177614 160.57728 
C 144.177614 159.781671 143.861515 159.01854 143.298934 158.45596 
C 142.736353 157.893379 141.973223 157.57728 141.177614 157.57728 
C 140.382004 157.57728 139.618874 157.893379 139.056293 158.45596 
C 138.493713 159.01854 138.177614 159.781671 138.177614 160.57728 
C 138.177614 161.372889 138.493713 162.13602 139.056293 162.6986 
C 139.618874 163.261181 140.382004 163.57728 141.177614 163.57728 
z
" style="fill:#2f9599;stroke:#ffffff;stroke-width:0.48;"/>
    <path clip-path="url(#p9753271d50)" d="M 181.759432 156.3888 
C 182.555041 156.3888 183.318171 156.072701 183.880752 155.51012 
C 184.443333 154.94754 184.759432 154.184409 184.759432 153.3888 
C 184.759432 152.593191 184.443333 151.83006 183.880752 151.26748 
C 183.318171 150.704899 182.555041 150.3888 181.759432 150.3888 
C 180.963823 150.3888 180.200692 150.704899 179.638111 151.26748 
C 179.075531 151.83006 178.759432 152.593191 178.759432 153.3888 
C 178.759432 154.184409 179.075531 154.94754 179.638111 155.51012 
C 180.200692 156.072701 180.963823 156.3888 181.759432 156.3888 
z
" style="fill:#2f9599;stroke:#ffffff;stroke-width:0.48;"/>
    <path clip-path="url(#p9753271d50)" d="M 222.34125 160.106979 
C 223.136859 160.106979 223.89999 159.79088 224.46257 159.2283 
C 225.025151 158.665719 225.34125 157.902589 225.34125 157.106979 
C 225.34125 156.31137 225.025151 155.54824 224.46257 154.985659 
C 223.89999 154.423078 223.136859 154.106979 222.34125 154.106979 
C 221.545641 154.106979 220.78251 154.423078 220.21993 154.985659 
C 219.657349 155.54824 219.34125 156.31137 219.34125 157.106979 
C 219.34125 157.902589 219.657349 158.665719 220.21993 159.2283 
C 220.78251 159.79088 221.545641 160.106979 222.34125 160.106979 
z
" style="fill:#2f9599;stroke:#ffffff;stroke-width:0.48;"/>
    <path clip-path="url(#p9753271d50)" d="M 262.923068 116.939824 
C 263.718677 116.939824 264.481808 116.623725 265.044389 116.061145 
C 265.606969 115.498564 265.923068 114.735434 265.923068 113.939824 
C 265.923068 113.144215 265.606969 112.381085 265.044389 111.818504 
C 264.481808 111.255923 263.718677 110.939824 262.923068 110.939824 
C 262.127459 110.939824 261.364329 111.255923 260.801748 111.818504 
C 260.239167 112.381085 259.923068 113.144215 259.923068 113.939824 
C 259.923068 114.735434 260.239167 115.498564 260.801748 116.061145 
C 261.364329 116.623725 262.127459 116.939824 262.923068 116.939824 
z
" style="fill:#2f9599;stroke:#ffffff;stroke-width:0.48;"/>
    <path clip-path="url(#p9753271d50)" d="M 303.504886 57.257342 
C 304.300496 57.257342 305.063626 56.941243 305.626207 56.378662 
C 306.188787 55.816082 306.504886 55.052951 306.504886 54.257342 
C 306.504886 53.461733 306.188787 52.698602 305.626207 52.136022 
C 305.063626 51.573441 304.300496 51.257342 303.504886 51.257342 
C 302.709277 51.257342 301.946147 51.573441 301.383566 52.136022 
C 300.820985 52.698602 300.504886 53.461733 300.504886 54.257342 
C 300.504886 55.052951 300.820985 55.816082 301.383566 56.378662 
C 301.946147 56.941243 302.709277 57.257342 303.504886 57.257342 
z
" style="fill:#2f9599;stroke:#ffffff;stroke-width:0.48;"/>
    <path clip-path="url(#p9753271d50)" d="M 383.168523 24.055418 
L 384.668523 22.555418 
L 386.168523 24.055418 
L 387.668523 22.555418 
L 386.168523 21.055418 
L 387.668523 19.555418 
L 386.168523 18.055418 
L 384.668523 19.555418 
L 383.168523 18.055418 
L 381.668523 19.555418 
L 383.168523 21.055418 
L 381.668523 22.555418 
z
" style="fill:#2f9599;stroke:#ffffff;stroke-width:0.48;"/>
    <path clip-path="url(#p9753271d50)" d="M 342.586705 35.792589 
L 344.086705 34.292589 
L 345.586705 35.792589 
L 347.086705 34.292589 
L 345.586705 32.792589 
L 347.086705 31.292589 
L 345.586705 29.792589 
L 344.086705 31.292589 
L 342.586705 29.792589 
L 341.086705 31.292589 
L 342.586705 32.792589 
L 341.086705 34.292589 
z
" style="fill:#2f9599;stroke:#ffffff;stroke-width:0.48;"/>
    <path clip-path="url(#p9753271d50)" d="M 58.513977 264.216 
L 60.013977 262.716 
L 61.513977 264.216 
L 63.013977 262.716 
L 61.513977 261.216 
L 63.013977 259.716 
L 61.513977 258.216 
L 60.013977 259.716 
L 58.513977 258.216 
L 57.013977 259.716 
L 58.513977 261.216 
L 57.013977 262.716 
z
" style="fill:#2f9599;stroke:#ffffff;stroke-width:0.48;"/>
    <path clip-path="url(#p9753271d50)" d="M 99.095795 138.4176 
L 100.595795 136.9176 
L 102.095795 138.4176 
L 103.595795 136.9176 
L 102.095795 135.4176 
L 103.595795 133.9176 
L 102.095795 132.4176 
L 100.595795 133.9176 
L 99.095795 132.4176 
L 97.595795 133.9176 
L 99.095795 135.4176 
L 97.595795 136.9176 
z
" style="fill:#2f9599;stroke:#ffffff;stroke-width:0.48;"/>
    <path clip-path="url(#p9753271d50)" d="M 139.677614 122.6928 
L 141.177614 121.1928 
L 142.677614 122.6928 
L 144.177614 121.1928 
L 142.677614 119.6928 
L 144.177614 118.1928 
L 142.677614 116.6928 
L 141.177614 118.1928 
L 139.677614 116.6928 
L 138.177614 118.1928 
L 139.677614 119.6928 
L 138.177614 121.1928 
z
" style="fill:#2f9599;stroke:#ffffff;stroke-width:0.48;"/>
    <path clip-path="url(#p9753271d50)" d="M 180.259432 126.981382 
L 181.759432 125.481382 
L 183.259432 126.981382 
L 184.759432 125.481382 
L 183.259432 123.981382 
L 184.759432 122.481382 
L 183.259432 120.981382 
L 181.759432 122.481382 
L 180.259432 120.981382 
L 178.759432 122.481382 
L 180.259432 123.981382 
L 178.759432 125.481382 
z
" style="fill:#2f9599;stroke:#ffffff;stroke-width:0.48;"/>
    <path clip-path="url(#p9753271d50)" d="M 220.84125 138.4176 
L 222.34125 136.9176 
L 223.84125 138.4176 
L 225.34125 136.9176 
L 223.84125 135.4176 
L 225.34125 133.9176 
L 223.84125 132.4176 
L 222.34125 133.9176 
L 220.84125 132.4176 
L 219.34125 133.9176 
L 220.84125 135.4176 
L 219.34125 136.9176 
z
" style="fill:#2f9599;stroke:#ffffff;stroke-width:0.48;"/>
    <path clip-path="url(#p9753271d50)" d="M 261.423068 102.4752 
L 262.923068 100.9752 
L 264.423068 102.4752 
L 265.923068 100.9752 
L 264.423068 99.4752 
L 265.923068 97.9752 
L 264.423068 96.4752 
L 262.923068 97.9752 
L 261.423068 96.4752 
L 259.923068 97.9752 
L 261.423068 99.4752 
L 259.923068 100.9752 
z
" style="fill:#2f9599;stroke:#ffffff;stroke-width:0.48;"/>
    <path clip-path="url(#p9753271d50)" d="M 302.004886 48.5616 
L 303.504886 47.0616 
L 305.004886 48.5616 
L 306.504886 47.0616 
L 305.004886 45.5616 
L 306.504886 44.0616 
L 305.004886 42.5616 
L 303.504886 44.0616 
L 302.004886 42.5616 
L 300.504886 44.0616 
L 302.004886 45.5616 
L 300.504886 47.0616 
z
" style="fill:#2f9599;stroke:#ffffff;stroke-width:0.48;"/>
    <path clip-path="url(#p9753271d50)" d="M 382.547202 30.902233 
L 382.547202 35.144874 
L 386.789843 35.144874 
L 386.789843 30.902233 
z
" style="fill:#2f9599;stroke:#ffffff;stroke-width:0.48;"/>
    <path clip-path="url(#p9753271d50)" d="M 341.965384 75.78844 
L 341.965384 80.03108 
L 346.208025 80.03108 
L 346.208025 75.78844 
z
" style="fill:#2f9599;stroke:#ffffff;stroke-width:0.48;"/>
    <path clip-path="url(#p9753271d50)" d="M 57.892657 133.29628 
L 57.892657 137.53892 
L 62.135298 137.53892 
L 62.135298 133.29628 
z
" style="fill:#2f9599;stroke:#ffffff;stroke-width:0.48;"/>
    <path clip-path="url(#p9753271d50)" d="M 98.474475 84.91228 
L 98.474475 89.15492 
L 102.717116 89.15492 
L 102.717116 84.91228 
z
" style="fill:#2f9599;stroke:#ffffff;stroke-width:0.48;"/>
    <path clip-path="url(#p9753271d50)" d="M 139.056293 117.57148 
L 139.056293 121.81412 
L 143.298934 121.81412 
L 143.298934 117.57148 
z
" style="fill:#2f9599;stroke:#ffffff;stroke-width:0.48;"/>
    <path clip-path="url(#p9753271d50)" d="M 179.638111 151.26748 
L 179.638111 155.51012 
L 183.880752 155.51012 
L 183.880752 151.26748 
z
" style="fill:#2f9599;stroke:#ffffff;stroke-width:0.48;"/>
    <path clip-path="url(#p9753271d50)" d="M 220.21993 178.22428 
L 220.21993 182.46692 
L 224.46257 182.46692 
L 224.46257 178.22428 
z
" style="fill:#2f9599;stroke:#ffffff;stroke-width:0.48;"/>
    <path clip-path="url(#p9753271d50)" d="M 260.801748 159.780153 
L 260.801748 164.022794 
L 265.044389 164.022794 
L 265.044389 159.780153 
z
" style="fill:#2f9599;stroke:#ffffff;stroke-width:0.48;"/>
    <path clip-path="url(#p9753271d50)" d="M 301.383566 79.991873 
L 301.383566 84.234514 
L 305.626207 84.234514 
L 305.626207 79.991873 
z
" style="fill:#2f9599;stroke:#ffffff;stroke-width:0.48;"/>
   </g>
   <g id="PathCollection_2"/>
   <g id="PathCollection_3"/>
   <g id="PathCollection_4"/>
   <g id="PathCollection_5"/>
   <g id="PathCollection_6"/>
   <g id="matplotlib.axis_1">
    <g id="xtick_1">
     <g id="line2d_1">
      <defs>
       <path d="M 0 0 
L 0 3.5 
" id="m3b70181a60" style="stroke:#000000;stroke-width:0.8;"/>
      </defs>
      <g>
       <use style="stroke:#000000;stroke-width:0.8;" x="60.013977" xlink:href="#m3b70181a60" y="273.312"/>
      </g>
     </g>
     <g id="text_1">
      <!-- 20 -->
      <g transform="translate(53.651477 287.910437)scale(0.1 -0.1)">
       <defs>
        <path d="M 19.1875 8.296875 
L 53.609375 8.296875 
L 53.609375 0 
L 7.328125 0 
L 7.328125 8.296875 
Q 12.9375 14.109375 22.625 23.890625 
Q 32.328125 33.6875 34.8125 36.53125 
Q 39.546875 41.84375 41.421875 45.53125 
Q 43.3125 49.21875 43.3125 52.78125 
Q 43.3125 58.59375 39.234375 62.25 
Q 35.15625 65.921875 28.609375 65.921875 
Q 23.96875 65.921875 18.8125 64.3125 
Q 13.671875 62.703125 7.8125 59.421875 
L 7.8125 69.390625 
Q 13.765625 71.78125 18.9375 73 
Q 24.125 74.21875 28.421875 74.21875 
Q 39.75 74.21875 46.484375 68.546875 
Q 53.21875 62.890625 53.21875 53.421875 
Q 53.21875 48.921875 51.53125 44.890625 
Q 49.859375 40.875 45.40625 35.40625 
Q 44.1875 33.984375 37.640625 27.21875 
Q 31.109375 20.453125 19.1875 8.296875 
z
" id="DejaVuSans-50"/>
        <path d="M 31.78125 66.40625 
Q 24.171875 66.40625 20.328125 58.90625 
Q 16.5 51.421875 16.5 36.375 
Q 16.5 21.390625 20.328125 13.890625 
Q 24.171875 6.390625 31.78125 6.390625 
Q 39.453125 6.390625 43.28125 13.890625 
Q 47.125 21.390625 47.125 36.375 
Q 47.125 51.421875 43.28125 58.90625 
Q 39.453125 66.40625 31.78125 66.40625 
z
M 31.78125 74.21875 
Q 44.046875 74.21875 50.515625 64.515625 
Q 56.984375 54.828125 56.984375 36.375 
Q 56.984375 17.96875 50.515625 8.265625 
Q 44.046875 -1.421875 31.78125 -1.421875 
Q 19.53125 -1.421875 13.0625 8.265625 
Q 6.59375 17.96875 6.59375 36.375 
Q 6.59375 54.828125 13.0625 64.515625 
Q 19.53125 74.21875 31.78125 74.21875 
z
" id="DejaVuSans-48"/>
       </defs>
       <use xlink:href="#DejaVuSans-50"/>
       <use x="63.623047" xlink:href="#DejaVuSans-48"/>
      </g>
     </g>
    </g>
    <g id="xtick_2">
     <g id="line2d_2">
      <g>
       <use style="stroke:#000000;stroke-width:0.8;" x="100.595795" xlink:href="#m3b70181a60" y="273.312"/>
      </g>
     </g>
     <g id="text_2">
      <!-- 30 -->
      <g transform="translate(94.233295 287.910437)scale(0.1 -0.1)">
       <defs>
        <path d="M 40.578125 39.3125 
Q 47.65625 37.796875 51.625 33 
Q 55.609375 28.21875 55.609375 21.1875 
Q 55.609375 10.40625 48.1875 4.484375 
Q 40.765625 -1.421875 27.09375 -1.421875 
Q 22.515625 -1.421875 17.65625 -0.515625 
Q 12.796875 0.390625 7.625 2.203125 
L 7.625 11.71875 
Q 11.71875 9.328125 16.59375 8.109375 
Q 21.484375 6.890625 26.8125 6.890625 
Q 36.078125 6.890625 40.9375 10.546875 
Q 45.796875 14.203125 45.796875 21.1875 
Q 45.796875 27.640625 41.28125 31.265625 
Q 36.765625 34.90625 28.71875 34.90625 
L 20.21875 34.90625 
L 20.21875 43.015625 
L 29.109375 43.015625 
Q 36.375 43.015625 40.234375 45.921875 
Q 44.09375 48.828125 44.09375 54.296875 
Q 44.09375 59.90625 40.109375 62.90625 
Q 36.140625 65.921875 28.71875 65.921875 
Q 24.65625 65.921875 20.015625 65.03125 
Q 15.375 64.15625 9.8125 62.3125 
L 9.8125 71.09375 
Q 15.4375 72.65625 20.34375 73.4375 
Q 25.25 74.21875 29.59375 74.21875 
Q 40.828125 74.21875 47.359375 69.109375 
Q 53.90625 64.015625 53.90625 55.328125 
Q 53.90625 49.265625 50.4375 45.09375 
Q 46.96875 40.921875 40.578125 39.3125 
z
" id="DejaVuSans-51"/>
       </defs>
       <use xlink:href="#DejaVuSans-51"/>
       <use x="63.623047" xlink:href="#DejaVuSans-48"/>
      </g>
     </g>
    </g>
    <g id="xtick_3">
     <g id="line2d_3">
      <g>
       <use style="stroke:#000000;stroke-width:0.8;" x="141.177614" xlink:href="#m3b70181a60" y="273.312"/>
      </g>
     </g>
     <g id="text_3">
      <!-- 40 -->
      <g transform="translate(134.815114 287.910437)scale(0.1 -0.1)">
       <defs>
        <path d="M 37.796875 64.3125 
L 12.890625 25.390625 
L 37.796875 25.390625 
z
M 35.203125 72.90625 
L 47.609375 72.90625 
L 47.609375 25.390625 
L 58.015625 25.390625 
L 58.015625 17.1875 
L 47.609375 17.1875 
L 47.609375 0 
L 37.796875 0 
L 37.796875 17.1875 
L 4.890625 17.1875 
L 4.890625 26.703125 
z
" id="DejaVuSans-52"/>
       </defs>
       <use xlink:href="#DejaVuSans-52"/>
       <use x="63.623047" xlink:href="#DejaVuSans-48"/>
      </g>
     </g>
    </g>
    <g id="xtick_4">
     <g id="line2d_4">
      <g>
       <use style="stroke:#000000;stroke-width:0.8;" x="181.759432" xlink:href="#m3b70181a60" y="273.312"/>
      </g>
     </g>
     <g id="text_4">
      <!-- 50 -->
      <g transform="translate(175.396932 287.910437)scale(0.1 -0.1)">
       <defs>
        <path d="M 10.796875 72.90625 
L 49.515625 72.90625 
L 49.515625 64.59375 
L 19.828125 64.59375 
L 19.828125 46.734375 
Q 21.96875 47.46875 24.109375 47.828125 
Q 26.265625 48.1875 28.421875 48.1875 
Q 40.625 48.1875 47.75 41.5 
Q 54.890625 34.8125 54.890625 23.390625 
Q 54.890625 11.625 47.5625 5.09375 
Q 40.234375 -1.421875 26.90625 -1.421875 
Q 22.3125 -1.421875 17.546875 -0.640625 
Q 12.796875 0.140625 7.71875 1.703125 
L 7.71875 11.625 
Q 12.109375 9.234375 16.796875 8.0625 
Q 21.484375 6.890625 26.703125 6.890625 
Q 35.15625 6.890625 40.078125 11.328125 
Q 45.015625 15.765625 45.015625 23.390625 
Q 45.015625 31 40.078125 35.4375 
Q 35.15625 39.890625 26.703125 39.890625 
Q 22.75 39.890625 18.8125 39.015625 
Q 14.890625 38.140625 10.796875 36.28125 
z
" id="DejaVuSans-53"/>
       </defs>
       <use xlink:href="#DejaVuSans-53"/>
       <use x="63.623047" xlink:href="#DejaVuSans-48"/>
      </g>
     </g>
    </g>
    <g id="xtick_5">
     <g id="line2d_5">
      <g>
       <use style="stroke:#000000;stroke-width:0.8;" x="222.34125" xlink:href="#m3b70181a60" y="273.312"/>
      </g>
     </g>
     <g id="text_5">
      <!-- 70 -->
      <g transform="translate(215.97875 287.910437)scale(0.1 -0.1)">
       <defs>
        <path d="M 8.203125 72.90625 
L 55.078125 72.90625 
L 55.078125 68.703125 
L 28.609375 0 
L 18.3125 0 
L 43.21875 64.59375 
L 8.203125 64.59375 
z
" id="DejaVuSans-55"/>
       </defs>
       <use xlink:href="#DejaVuSans-55"/>
       <use x="63.623047" xlink:href="#DejaVuSans-48"/>
      </g>
     </g>
    </g>
    <g id="xtick_6">
     <g id="line2d_6">
      <g>
       <use style="stroke:#000000;stroke-width:0.8;" x="262.923068" xlink:href="#m3b70181a60" y="273.312"/>
      </g>
     </g>
     <g id="text_6">
      <!-- 100 -->
      <g transform="translate(253.379318 287.910437)scale(0.1 -0.1)">
       <defs>
        <path d="M 12.40625 8.296875 
L 28.515625 8.296875 
L 28.515625 63.921875 
L 10.984375 60.40625 
L 10.984375 69.390625 
L 28.421875 72.90625 
L 38.28125 72.90625 
L 38.28125 8.296875 
L 54.390625 8.296875 
L 54.390625 0 
L 12.40625 0 
z
" id="DejaVuSans-49"/>
       </defs>
       <use xlink:href="#DejaVuSans-49"/>
       <use x="63.623047" xlink:href="#DejaVuSans-48"/>
       <use x="127.246094" xlink:href="#DejaVuSans-48"/>
      </g>
     </g>
    </g>
    <g id="xtick_7">
     <g id="line2d_7">
      <g>
       <use style="stroke:#000000;stroke-width:0.8;" x="303.504886" xlink:href="#m3b70181a60" y="273.312"/>
      </g>
     </g>
     <g id="text_7">
      <!-- 150 -->
      <g transform="translate(293.961136 287.910437)scale(0.1 -0.1)">
       <use xlink:href="#DejaVuSans-49"/>
       <use x="63.623047" xlink:href="#DejaVuSans-53"/>
       <use x="127.246094" xlink:href="#DejaVuSans-48"/>
      </g>
     </g>
    </g>
    <g id="xtick_8">
     <g id="line2d_8">
      <g>
       <use style="stroke:#000000;stroke-width:0.8;" x="344.086705" xlink:href="#m3b70181a60" y="273.312"/>
      </g>
     </g>
     <g id="text_8">
      <!-- 200 -->
      <g transform="translate(334.542955 287.910437)scale(0.1 -0.1)">
       <use xlink:href="#DejaVuSans-50"/>
       <use x="63.623047" xlink:href="#DejaVuSans-48"/>
       <use x="127.246094" xlink:href="#DejaVuSans-48"/>
      </g>
     </g>
    </g>
    <g id="xtick_9">
     <g id="line2d_9">
      <g>
       <use style="stroke:#000000;stroke-width:0.8;" x="384.668523" xlink:href="#m3b70181a60" y="273.312"/>
      </g>
     </g>
     <g id="text_9">
      <!-- 200&lt; -->
      <g transform="translate(370.934929 287.910437)scale(0.1 -0.1)">
       <defs>
        <path d="M 73.1875 49.21875 
L 22.796875 31.296875 
L 73.1875 13.484375 
L 73.1875 4.59375 
L 10.59375 27.296875 
L 10.59375 35.40625 
L 73.1875 58.109375 
z
" id="DejaVuSans-60"/>
       </defs>
       <use xlink:href="#DejaVuSans-50"/>
       <use x="63.623047" xlink:href="#DejaVuSans-48"/>
       <use x="127.246094" xlink:href="#DejaVuSans-48"/>
       <use x="190.869141" xlink:href="#DejaVuSans-60"/>
      </g>
     </g>
    </g>
    <g id="text_10">
     <!-- nrows -->
     <g transform="translate(207.476406 301.588562)scale(0.1 -0.1)">
      <defs>
       <path d="M 54.890625 33.015625 
L 54.890625 0 
L 45.90625 0 
L 45.90625 32.71875 
Q 45.90625 40.484375 42.875 44.328125 
Q 39.84375 48.1875 33.796875 48.1875 
Q 26.515625 48.1875 22.3125 43.546875 
Q 18.109375 38.921875 18.109375 30.90625 
L 18.109375 0 
L 9.078125 0 
L 9.078125 54.6875 
L 18.109375 54.6875 
L 18.109375 46.1875 
Q 21.34375 51.125 25.703125 53.5625 
Q 30.078125 56 35.796875 56 
Q 45.21875 56 50.046875 50.171875 
Q 54.890625 44.34375 54.890625 33.015625 
z
" id="DejaVuSans-110"/>
       <path d="M 41.109375 46.296875 
Q 39.59375 47.171875 37.8125 47.578125 
Q 36.03125 48 33.890625 48 
Q 26.265625 48 22.1875 43.046875 
Q 18.109375 38.09375 18.109375 28.8125 
L 18.109375 0 
L 9.078125 0 
L 9.078125 54.6875 
L 18.109375 54.6875 
L 18.109375 46.1875 
Q 20.953125 51.171875 25.484375 53.578125 
Q 30.03125 56 36.53125 56 
Q 37.453125 56 38.578125 55.875 
Q 39.703125 55.765625 41.0625 55.515625 
z
" id="DejaVuSans-114"/>
       <path d="M 30.609375 48.390625 
Q 23.390625 48.390625 19.1875 42.75 
Q 14.984375 37.109375 14.984375 27.296875 
Q 14.984375 17.484375 19.15625 11.84375 
Q 23.34375 6.203125 30.609375 6.203125 
Q 37.796875 6.203125 41.984375 11.859375 
Q 46.1875 17.53125 46.1875 27.296875 
Q 46.1875 37.015625 41.984375 42.703125 
Q 37.796875 48.390625 30.609375 48.390625 
z
M 30.609375 56 
Q 42.328125 56 49.015625 48.375 
Q 55.71875 40.765625 55.71875 27.296875 
Q 55.71875 13.875 49.015625 6.21875 
Q 42.328125 -1.421875 30.609375 -1.421875 
Q 18.84375 -1.421875 12.171875 6.21875 
Q 5.515625 13.875 5.515625 27.296875 
Q 5.515625 40.765625 12.171875 48.375 
Q 18.84375 56 30.609375 56 
z
" id="DejaVuSans-111"/>
       <path d="M 4.203125 54.6875 
L 13.1875 54.6875 
L 24.421875 12.015625 
L 35.59375 54.6875 
L 46.1875 54.6875 
L 57.421875 12.015625 
L 68.609375 54.6875 
L 77.59375 54.6875 
L 63.28125 0 
L 52.6875 0 
L 40.921875 44.828125 
L 29.109375 0 
L 18.5 0 
z
" id="DejaVuSans-119"/>
       <path d="M 44.28125 53.078125 
L 44.28125 44.578125 
Q 40.484375 46.53125 36.375 47.5 
Q 32.28125 48.484375 27.875 48.484375 
Q 21.1875 48.484375 17.84375 46.4375 
Q 14.5 44.390625 14.5 40.28125 
Q 14.5 37.15625 16.890625 35.375 
Q 19.28125 33.59375 26.515625 31.984375 
L 29.59375 31.296875 
Q 39.15625 29.25 43.1875 25.515625 
Q 47.21875 21.78125 47.21875 15.09375 
Q 47.21875 7.46875 41.1875 3.015625 
Q 35.15625 -1.421875 24.609375 -1.421875 
Q 20.21875 -1.421875 15.453125 -0.5625 
Q 10.6875 0.296875 5.421875 2 
L 5.421875 11.28125 
Q 10.40625 8.6875 15.234375 7.390625 
Q 20.0625 6.109375 24.8125 6.109375 
Q 31.15625 6.109375 34.5625 8.28125 
Q 37.984375 10.453125 37.984375 14.40625 
Q 37.984375 18.0625 35.515625 20.015625 
Q 33.0625 21.96875 24.703125 23.78125 
L 21.578125 24.515625 
Q 13.234375 26.265625 9.515625 29.90625 
Q 5.8125 33.546875 5.8125 39.890625 
Q 5.8125 47.609375 11.28125 51.796875 
Q 16.75 56 26.8125 56 
Q 31.78125 56 36.171875 55.265625 
Q 40.578125 54.546875 44.28125 53.078125 
z
" id="DejaVuSans-115"/>
      </defs>
      <use xlink:href="#DejaVuSans-110"/>
      <use x="63.378906" xlink:href="#DejaVuSans-114"/>
      <use x="102.242188" xlink:href="#DejaVuSans-111"/>
      <use x="163.423828" xlink:href="#DejaVuSans-119"/>
      <use x="245.210938" xlink:href="#DejaVuSans-115"/>
     </g>
    </g>
   </g>
   <g id="matplotlib.axis_2">
    <g id="ytick_1">
     <g id="line2d_10">
      <defs>
       <path d="M 0 0 
L -3.5 0 
" id="m4f2eb6842e" style="stroke:#000000;stroke-width:0.8;"/>
      </defs>
      <g>
       <use style="stroke:#000000;stroke-width:0.8;" x="43.78125" xlink:href="#m4f2eb6842e" y="261.216"/>
      </g>
     </g>
     <g id="text_11">
      <!-- 0.0 -->
      <g transform="translate(20.878125 265.015219)scale(0.1 -0.1)">
       <defs>
        <path d="M 10.6875 12.40625 
L 21 12.40625 
L 21 0 
L 10.6875 0 
z
" id="DejaVuSans-46"/>
       </defs>
       <use xlink:href="#DejaVuSans-48"/>
       <use x="63.623047" xlink:href="#DejaVuSans-46"/>
       <use x="95.410156" xlink:href="#DejaVuSans-48"/>
      </g>
     </g>
    </g>
    <g id="ytick_2">
     <g id="line2d_11">
      <g>
       <use style="stroke:#000000;stroke-width:0.8;" x="43.78125" xlink:href="#m4f2eb6842e" y="223.47648"/>
      </g>
     </g>
     <g id="text_12">
      <!-- 0.1 -->
      <g transform="translate(20.878125 227.275699)scale(0.1 -0.1)">
       <use xlink:href="#DejaVuSans-48"/>
       <use x="63.623047" xlink:href="#DejaVuSans-46"/>
       <use x="95.410156" xlink:href="#DejaVuSans-49"/>
      </g>
     </g>
    </g>
    <g id="ytick_3">
     <g id="line2d_12">
      <g>
       <use style="stroke:#000000;stroke-width:0.8;" x="43.78125" xlink:href="#m4f2eb6842e" y="185.73696"/>
      </g>
     </g>
     <g id="text_13">
      <!-- 0.2 -->
      <g transform="translate(20.878125 189.536179)scale(0.1 -0.1)">
       <use xlink:href="#DejaVuSans-48"/>
       <use x="63.623047" xlink:href="#DejaVuSans-46"/>
       <use x="95.410156" xlink:href="#DejaVuSans-50"/>
      </g>
     </g>
    </g>
    <g id="ytick_4">
     <g id="line2d_13">
      <g>
       <use style="stroke:#000000;stroke-width:0.8;" x="43.78125" xlink:href="#m4f2eb6842e" y="147.99744"/>
      </g>
     </g>
     <g id="text_14">
      <!-- 0.3 -->
      <g transform="translate(20.878125 151.796659)scale(0.1 -0.1)">
       <use xlink:href="#DejaVuSans-48"/>
       <use x="63.623047" xlink:href="#DejaVuSans-46"/>
       <use x="95.410156" xlink:href="#DejaVuSans-51"/>
      </g>
     </g>
    </g>
    <g id="ytick_5">
     <g id="line2d_14">
      <g>
       <use style="stroke:#000000;stroke-width:0.8;" x="43.78125" xlink:href="#m4f2eb6842e" y="110.25792"/>
      </g>
     </g>
     <g id="text_15">
      <!-- 0.4 -->
      <g transform="translate(20.878125 114.057139)scale(0.1 -0.1)">
       <use xlink:href="#DejaVuSans-48"/>
       <use x="63.623047" xlink:href="#DejaVuSans-46"/>
       <use x="95.410156" xlink:href="#DejaVuSans-52"/>
      </g>
     </g>
    </g>
    <g id="ytick_6">
     <g id="line2d_15">
      <g>
       <use style="stroke:#000000;stroke-width:0.8;" x="43.78125" xlink:href="#m4f2eb6842e" y="72.5184"/>
      </g>
     </g>
     <g id="text_16">
      <!-- 0.5 -->
      <g transform="translate(20.878125 76.317619)scale(0.1 -0.1)">
       <use xlink:href="#DejaVuSans-48"/>
       <use x="63.623047" xlink:href="#DejaVuSans-46"/>
       <use x="95.410156" xlink:href="#DejaVuSans-53"/>
      </g>
     </g>
    </g>
    <g id="ytick_7">
     <g id="line2d_16">
      <g>
       <use style="stroke:#000000;stroke-width:0.8;" x="43.78125" xlink:href="#m4f2eb6842e" y="34.77888"/>
      </g>
     </g>
     <g id="text_17">
      <!-- 0.6 -->
      <g transform="translate(20.878125 38.578099)scale(0.1 -0.1)">
       <defs>
        <path d="M 33.015625 40.375 
Q 26.375 40.375 22.484375 35.828125 
Q 18.609375 31.296875 18.609375 23.390625 
Q 18.609375 15.53125 22.484375 10.953125 
Q 26.375 6.390625 33.015625 6.390625 
Q 39.65625 6.390625 43.53125 10.953125 
Q 47.40625 15.53125 47.40625 23.390625 
Q 47.40625 31.296875 43.53125 35.828125 
Q 39.65625 40.375 33.015625 40.375 
z
M 52.59375 71.296875 
L 52.59375 62.3125 
Q 48.875 64.0625 45.09375 64.984375 
Q 41.3125 65.921875 37.59375 65.921875 
Q 27.828125 65.921875 22.671875 59.328125 
Q 17.53125 52.734375 16.796875 39.40625 
Q 19.671875 43.65625 24.015625 45.921875 
Q 28.375 48.1875 33.59375 48.1875 
Q 44.578125 48.1875 50.953125 41.515625 
Q 57.328125 34.859375 57.328125 23.390625 
Q 57.328125 12.15625 50.6875 5.359375 
Q 44.046875 -1.421875 33.015625 -1.421875 
Q 20.359375 -1.421875 13.671875 8.265625 
Q 6.984375 17.96875 6.984375 36.375 
Q 6.984375 53.65625 15.1875 63.9375 
Q 23.390625 74.21875 37.203125 74.21875 
Q 40.921875 74.21875 44.703125 73.484375 
Q 48.484375 72.75 52.59375 71.296875 
z
" id="DejaVuSans-54"/>
       </defs>
       <use xlink:href="#DejaVuSans-48"/>
       <use x="63.623047" xlink:href="#DejaVuSans-46"/>
       <use x="95.410156" xlink:href="#DejaVuSans-54"/>
      </g>
     </g>
    </g>
    <g id="text_18">
     <!-- score -->
     <g transform="translate(14.798438 153.688812)rotate(-90)scale(0.1 -0.1)">
      <defs>
       <path d="M 48.78125 52.59375 
L 48.78125 44.1875 
Q 44.96875 46.296875 41.140625 47.34375 
Q 37.3125 48.390625 33.40625 48.390625 
Q 24.65625 48.390625 19.8125 42.84375 
Q 14.984375 37.3125 14.984375 27.296875 
Q 14.984375 17.28125 19.8125 11.734375 
Q 24.65625 6.203125 33.40625 6.203125 
Q 37.3125 6.203125 41.140625 7.25 
Q 44.96875 8.296875 48.78125 10.40625 
L 48.78125 2.09375 
Q 45.015625 0.34375 40.984375 -0.53125 
Q 36.96875 -1.421875 32.421875 -1.421875 
Q 20.0625 -1.421875 12.78125 6.34375 
Q 5.515625 14.109375 5.515625 27.296875 
Q 5.515625 40.671875 12.859375 48.328125 
Q 20.21875 56 33.015625 56 
Q 37.15625 56 41.109375 55.140625 
Q 45.0625 54.296875 48.78125 52.59375 
z
" id="DejaVuSans-99"/>
       <path d="M 56.203125 29.59375 
L 56.203125 25.203125 
L 14.890625 25.203125 
Q 15.484375 15.921875 20.484375 11.0625 
Q 25.484375 6.203125 34.421875 6.203125 
Q 39.59375 6.203125 44.453125 7.46875 
Q 49.3125 8.734375 54.109375 11.28125 
L 54.109375 2.78125 
Q 49.265625 0.734375 44.1875 -0.34375 
Q 39.109375 -1.421875 33.890625 -1.421875 
Q 20.796875 -1.421875 13.15625 6.1875 
Q 5.515625 13.8125 5.515625 26.8125 
Q 5.515625 40.234375 12.765625 48.109375 
Q 20.015625 56 32.328125 56 
Q 43.359375 56 49.78125 48.890625 
Q 56.203125 41.796875 56.203125 29.59375 
z
M 47.21875 32.234375 
Q 47.125 39.59375 43.09375 43.984375 
Q 39.0625 48.390625 32.421875 48.390625 
Q 24.90625 48.390625 20.390625 44.140625 
Q 15.875 39.890625 15.1875 32.171875 
z
" id="DejaVuSans-101"/>
      </defs>
      <use xlink:href="#DejaVuSans-115"/>
      <use x="52.099609" xlink:href="#DejaVuSans-99"/>
      <use x="107.080078" xlink:href="#DejaVuSans-111"/>
      <use x="168.261719" xlink:href="#DejaVuSans-114"/>
      <use x="207.125" xlink:href="#DejaVuSans-101"/>
     </g>
    </g>
   </g>
   <g id="line2d_17">
    <path clip-path="url(#p9753271d50)" d="M 60.013977 261.216 
L 100.595795 135.4176 
L 141.177614 83.618259 
L 181.759432 97.13113 
L 222.34125 115.127535 
L 262.923068 85.683349 
L 303.504886 45.5616 
L 344.086705 32.792589 
L 384.668523 21.055418 
" style="fill:none;stroke:#f26b38;stroke-dasharray:7.4,3.2;stroke-dashoffset:0;stroke-width:2;"/>
   </g>
   <g id="line2d_18">
    <path clip-path="url(#p9753271d50)" d="M 60.013977 261.216 
L 100.595795 135.4176 
L 141.177614 119.6928 
L 181.759432 123.981382 
L 222.34125 115.127535 
L 262.923068 85.683349 
L 303.504886 45.5616 
L 344.086705 25.956655 
L 384.668523 21.055418 
" style="fill:none;stroke:#f26b38;stroke-dasharray:7.4,3.2;stroke-dashoffset:0;stroke-width:2;"/>
   </g>
   <g id="line2d_19">
    <path clip-path="url(#p9753271d50)" d="M 60.013977 135.4176 
L 100.595795 87.0336 
L 141.177614 51.552 
L 181.759432 72.5184 
L 222.34125 96.1056 
L 262.923068 72.5184 
L 303.504886 28.9728 
L 344.086705 19.296 
L 384.668523 21.055418 
" style="fill:none;stroke:#f26b38;stroke-dasharray:7.4,3.2;stroke-dashoffset:0;stroke-width:2;"/>
   </g>
   <g id="line2d_20">
    <path clip-path="url(#p9753271d50)" d="M 60.013977 261.216 
L 100.595795 135.4176 
L 141.177614 160.57728 
L 181.759432 153.3888 
L 222.34125 157.106979 
L 262.923068 113.939824 
L 303.504886 54.257342 
L 344.086705 54.42411 
L 384.668523 21.055418 
" style="fill:none;stroke:#2f9599;stroke-dasharray:2,3.3;stroke-dashoffset:0;stroke-width:2;"/>
   </g>
   <g id="line2d_21">
    <path clip-path="url(#p9753271d50)" d="M 60.013977 261.216 
L 100.595795 135.4176 
L 141.177614 119.6928 
L 181.759432 123.981382 
L 222.34125 135.4176 
L 262.923068 99.4752 
L 303.504886 45.5616 
L 344.086705 32.792589 
L 384.668523 21.055418 
" style="fill:none;stroke:#2f9599;stroke-dasharray:2,3.3;stroke-dashoffset:0;stroke-width:2;"/>
   </g>
   <g id="line2d_22">
    <path clip-path="url(#p9753271d50)" d="M 60.013977 135.4176 
L 100.595795 87.0336 
L 141.177614 119.6928 
L 181.759432 153.3888 
L 222.34125 180.3456 
L 262.923068 161.901474 
L 303.504886 82.113193 
L 344.086705 77.90976 
L 384.668523 33.023553 
" style="fill:none;stroke:#2f9599;stroke-dasharray:2,3.3;stroke-dashoffset:0;stroke-width:2;"/>
   </g>
   <g id="patch_3">
    <path d="M 43.78125 273.312 
L 43.78125 7.2 
" style="fill:none;stroke:#000000;stroke-linecap:square;stroke-linejoin:miter;stroke-width:0.8;"/>
   </g>
   <g id="patch_4">
    <path d="M 400.90125 273.312 
L 400.90125 7.2 
" style="fill:none;stroke:#000000;stroke-linecap:square;stroke-linejoin:miter;stroke-width:0.8;"/>
   </g>
   <g id="patch_5">
    <path d="M 43.78125 273.312 
L 400.90125 273.312 
" style="fill:none;stroke:#000000;stroke-linecap:square;stroke-linejoin:miter;stroke-width:0.8;"/>
   </g>
   <g id="patch_6">
    <path d="M 43.78125 7.2 
L 400.90125 7.2 
" style="fill:none;stroke:#000000;stroke-linecap:square;stroke-linejoin:miter;stroke-width:0.8;"/>
   </g>
   <g id="legend_1">
    <g id="patch_7">
     <path d="M 48.63925 84.637387 
L 129.254941 84.637387 
Q 130.642941 84.637387 130.642941 83.249387 
L 130.642941 12.058 
Q 130.642941 10.67 129.254941 10.67 
L 48.63925 10.67 
Q 47.25125 10.67 47.25125 12.058 
L 47.25125 83.249387 
Q 47.25125 84.637387 48.63925 84.637387 
z
" style="fill:#ffffff;opacity:0.8;stroke:#cccccc;stroke-linejoin:miter;"/>
    </g>
    <g id="text_19">
     <!-- pred -->
     <g transform="translate(69.45925 18.719316)scale(0.0694 -0.0694)">
      <defs>
       <path d="M 18.109375 8.203125 
L 18.109375 -20.796875 
L 9.078125 -20.796875 
L 9.078125 54.6875 
L 18.109375 54.6875 
L 18.109375 46.390625 
Q 20.953125 51.265625 25.265625 53.625 
Q 29.59375 56 35.59375 56 
Q 45.5625 56 51.78125 48.09375 
Q 58.015625 40.1875 58.015625 27.296875 
Q 58.015625 14.40625 51.78125 6.484375 
Q 45.5625 -1.421875 35.59375 -1.421875 
Q 29.59375 -1.421875 25.265625 0.953125 
Q 20.953125 3.328125 18.109375 8.203125 
z
M 48.6875 27.296875 
Q 48.6875 37.203125 44.609375 42.84375 
Q 40.53125 48.484375 33.40625 48.484375 
Q 26.265625 48.484375 22.1875 42.84375 
Q 18.109375 37.203125 18.109375 27.296875 
Q 18.109375 17.390625 22.1875 11.75 
Q 26.265625 6.109375 33.40625 6.109375 
Q 40.53125 6.109375 44.609375 11.75 
Q 48.6875 17.390625 48.6875 27.296875 
z
" id="DejaVuSans-112"/>
       <path d="M 45.40625 46.390625 
L 45.40625 75.984375 
L 54.390625 75.984375 
L 54.390625 0 
L 45.40625 0 
L 45.40625 8.203125 
Q 42.578125 3.328125 38.25 0.953125 
Q 33.9375 -1.421875 27.875 -1.421875 
Q 17.96875 -1.421875 11.734375 6.484375 
Q 5.515625 14.40625 5.515625 27.296875 
Q 5.515625 40.1875 11.734375 48.09375 
Q 17.96875 56 27.875 56 
Q 33.9375 56 38.25 53.625 
Q 42.578125 51.265625 45.40625 46.390625 
z
M 14.796875 27.296875 
Q 14.796875 17.390625 18.875 11.75 
Q 22.953125 6.109375 30.078125 6.109375 
Q 37.203125 6.109375 41.296875 11.75 
Q 45.40625 17.390625 45.40625 27.296875 
Q 45.40625 37.203125 41.296875 42.84375 
Q 37.203125 48.484375 30.078125 48.484375 
Q 22.953125 48.484375 18.875 42.84375 
Q 14.796875 37.203125 14.796875 27.296875 
z
" id="DejaVuSans-100"/>
      </defs>
      <use xlink:href="#DejaVuSans-112"/>
      <use x="63.476562" xlink:href="#DejaVuSans-114"/>
      <use x="102.339844" xlink:href="#DejaVuSans-101"/>
      <use x="163.863281" xlink:href="#DejaVuSans-100"/>
     </g>
    </g>
    <g id="PathCollection_7">
     <defs>
      <path d="M 0 3 
C 0.795609 3 1.55874 2.683901 2.12132 2.12132 
C 2.683901 1.55874 3 0.795609 3 0 
C 3 -0.795609 2.683901 -1.55874 2.12132 -2.12132 
C 1.55874 -2.683901 0.795609 -3 0 -3 
C -0.795609 -3 -1.55874 -2.683901 -2.12132 -2.12132 
C -2.683901 -1.55874 -3 -0.795609 -3 0 
C -3 0.795609 -2.683901 1.55874 -2.12132 2.12132 
C -1.55874 2.683901 -0.795609 3 0 3 
z
" id="ma0064d6a71" style="stroke:#f26b38;"/>
     </defs>
     <g>
      <use style="fill:#f26b38;stroke:#f26b38;" x="56.96725" xlink:href="#ma0064d6a71" y="27.084184"/>
     </g>
    </g>
    <g id="text_20">
     <!-- estimate -->
     <g transform="translate(69.45925 28.905934)scale(0.0694 -0.0694)">
      <defs>
       <path d="M 18.3125 70.21875 
L 18.3125 54.6875 
L 36.8125 54.6875 
L 36.8125 47.703125 
L 18.3125 47.703125 
L 18.3125 18.015625 
Q 18.3125 11.328125 20.140625 9.421875 
Q 21.96875 7.515625 27.59375 7.515625 
L 36.8125 7.515625 
L 36.8125 0 
L 27.59375 0 
Q 17.1875 0 13.234375 3.875 
Q 9.28125 7.765625 9.28125 18.015625 
L 9.28125 47.703125 
L 2.6875 47.703125 
L 2.6875 54.6875 
L 9.28125 54.6875 
L 9.28125 70.21875 
z
" id="DejaVuSans-116"/>
       <path d="M 9.421875 54.6875 
L 18.40625 54.6875 
L 18.40625 0 
L 9.421875 0 
z
M 9.421875 75.984375 
L 18.40625 75.984375 
L 18.40625 64.59375 
L 9.421875 64.59375 
z
" id="DejaVuSans-105"/>
       <path d="M 52 44.1875 
Q 55.375 50.25 60.0625 53.125 
Q 64.75 56 71.09375 56 
Q 79.640625 56 84.28125 50.015625 
Q 88.921875 44.046875 88.921875 33.015625 
L 88.921875 0 
L 79.890625 0 
L 79.890625 32.71875 
Q 79.890625 40.578125 77.09375 44.375 
Q 74.3125 48.1875 68.609375 48.1875 
Q 61.625 48.1875 57.5625 43.546875 
Q 53.515625 38.921875 53.515625 30.90625 
L 53.515625 0 
L 44.484375 0 
L 44.484375 32.71875 
Q 44.484375 40.625 41.703125 44.40625 
Q 38.921875 48.1875 33.109375 48.1875 
Q 26.21875 48.1875 22.15625 43.53125 
Q 18.109375 38.875 18.109375 30.90625 
L 18.109375 0 
L 9.078125 0 
L 9.078125 54.6875 
L 18.109375 54.6875 
L 18.109375 46.1875 
Q 21.1875 51.21875 25.484375 53.609375 
Q 29.78125 56 35.6875 56 
Q 41.65625 56 45.828125 52.96875 
Q 50 49.953125 52 44.1875 
z
" id="DejaVuSans-109"/>
       <path d="M 34.28125 27.484375 
Q 23.390625 27.484375 19.1875 25 
Q 14.984375 22.515625 14.984375 16.5 
Q 14.984375 11.71875 18.140625 8.90625 
Q 21.296875 6.109375 26.703125 6.109375 
Q 34.1875 6.109375 38.703125 11.40625 
Q 43.21875 16.703125 43.21875 25.484375 
L 43.21875 27.484375 
z
M 52.203125 31.203125 
L 52.203125 0 
L 43.21875 0 
L 43.21875 8.296875 
Q 40.140625 3.328125 35.546875 0.953125 
Q 30.953125 -1.421875 24.3125 -1.421875 
Q 15.921875 -1.421875 10.953125 3.296875 
Q 6 8.015625 6 15.921875 
Q 6 25.140625 12.171875 29.828125 
Q 18.359375 34.515625 30.609375 34.515625 
L 43.21875 34.515625 
L 43.21875 35.40625 
Q 43.21875 41.609375 39.140625 45 
Q 35.0625 48.390625 27.6875 48.390625 
Q 23 48.390625 18.546875 47.265625 
Q 14.109375 46.140625 10.015625 43.890625 
L 10.015625 52.203125 
Q 14.9375 54.109375 19.578125 55.046875 
Q 24.21875 56 28.609375 56 
Q 40.484375 56 46.34375 49.84375 
Q 52.203125 43.703125 52.203125 31.203125 
z
" id="DejaVuSans-97"/>
      </defs>
      <use xlink:href="#DejaVuSans-101"/>
      <use x="61.523438" xlink:href="#DejaVuSans-115"/>
      <use x="113.623047" xlink:href="#DejaVuSans-116"/>
      <use x="152.832031" xlink:href="#DejaVuSans-105"/>
      <use x="180.615234" xlink:href="#DejaVuSans-109"/>
      <use x="278.027344" xlink:href="#DejaVuSans-97"/>
      <use x="339.306641" xlink:href="#DejaVuSans-116"/>
      <use x="378.515625" xlink:href="#DejaVuSans-101"/>
     </g>
    </g>
    <g id="PathCollection_8">
     <defs>
      <path d="M 0 3 
C 0.795609 3 1.55874 2.683901 2.12132 2.12132 
C 2.683901 1.55874 3 0.795609 3 0 
C 3 -0.795609 2.683901 -1.55874 2.12132 -2.12132 
C 1.55874 -2.683901 0.795609 -3 0 -3 
C -0.795609 -3 -1.55874 -2.683901 -2.12132 -2.12132 
C -2.683901 -1.55874 -3 -0.795609 -3 0 
C -3 0.795609 -2.683901 1.55874 -2.12132 2.12132 
C -1.55874 2.683901 -0.795609 3 0 3 
z
" id="m8cbdf54e4b" style="stroke:#2f9599;"/>
     </defs>
     <g>
      <use style="fill:#2f9599;stroke:#2f9599;" x="56.96725" xlink:href="#m8cbdf54e4b" y="37.270803"/>
     </g>
    </g>
    <g id="text_21">
     <!-- exact -->
     <g transform="translate(69.45925 39.092553)scale(0.0694 -0.0694)">
      <defs>
       <path d="M 54.890625 54.6875 
L 35.109375 28.078125 
L 55.90625 0 
L 45.3125 0 
L 29.390625 21.484375 
L 13.484375 0 
L 2.875 0 
L 24.125 28.609375 
L 4.6875 54.6875 
L 15.28125 54.6875 
L 29.78125 35.203125 
L 44.28125 54.6875 
z
" id="DejaVuSans-120"/>
      </defs>
      <use xlink:href="#DejaVuSans-101"/>
      <use x="59.773438" xlink:href="#DejaVuSans-120"/>
      <use x="118.953125" xlink:href="#DejaVuSans-97"/>
      <use x="180.232422" xlink:href="#DejaVuSans-99"/>
      <use x="235.212891" xlink:href="#DejaVuSans-116"/>
     </g>
    </g>
    <g id="text_22">
     <!-- method -->
     <g transform="translate(69.45925 49.279172)scale(0.0694 -0.0694)">
      <defs>
       <path d="M 54.890625 33.015625 
L 54.890625 0 
L 45.90625 0 
L 45.90625 32.71875 
Q 45.90625 40.484375 42.875 44.328125 
Q 39.84375 48.1875 33.796875 48.1875 
Q 26.515625 48.1875 22.3125 43.546875 
Q 18.109375 38.921875 18.109375 30.90625 
L 18.109375 0 
L 9.078125 0 
L 9.078125 75.984375 
L 18.109375 75.984375 
L 18.109375 46.1875 
Q 21.34375 51.125 25.703125 53.5625 
Q 30.078125 56 35.796875 56 
Q 45.21875 56 50.046875 50.171875 
Q 54.890625 44.34375 54.890625 33.015625 
z
" id="DejaVuSans-104"/>
      </defs>
      <use xlink:href="#DejaVuSans-109"/>
      <use x="97.412109" xlink:href="#DejaVuSans-101"/>
      <use x="158.935547" xlink:href="#DejaVuSans-116"/>
      <use x="198.144531" xlink:href="#DejaVuSans-104"/>
      <use x="261.523438" xlink:href="#DejaVuSans-111"/>
      <use x="322.705078" xlink:href="#DejaVuSans-100"/>
     </g>
    </g>
    <g id="PathCollection_9">
     <defs>
      <path d="M 0 3 
C 0.795609 3 1.55874 2.683901 2.12132 2.12132 
C 2.683901 1.55874 3 0.795609 3 0 
C 3 -0.795609 2.683901 -1.55874 2.12132 -2.12132 
C 1.55874 -2.683901 0.795609 -3 0 -3 
C -0.795609 -3 -1.55874 -2.683901 -2.12132 -2.12132 
C -2.683901 -1.55874 -3 -0.795609 -3 0 
C -3 0.795609 -2.683901 1.55874 -2.12132 2.12132 
C -1.55874 2.683901 -0.795609 3 0 3 
z
" id="m630877e1ba" style="stroke:#333333;"/>
     </defs>
     <g>
      <use style="fill:#333333;stroke:#333333;" x="56.96725" xlink:href="#m630877e1ba" y="57.644041"/>
     </g>
    </g>
    <g id="text_23">
     <!-- mean_err -->
     <g transform="translate(69.45925 59.465791)scale(0.0694 -0.0694)">
      <defs>
       <path d="M 50.984375 -16.609375 
L 50.984375 -23.578125 
L -0.984375 -23.578125 
L -0.984375 -16.609375 
z
" id="DejaVuSans-95"/>
      </defs>
      <use xlink:href="#DejaVuSans-109"/>
      <use x="97.412109" xlink:href="#DejaVuSans-101"/>
      <use x="158.935547" xlink:href="#DejaVuSans-97"/>
      <use x="220.214844" xlink:href="#DejaVuSans-110"/>
      <use x="283.59375" xlink:href="#DejaVuSans-95"/>
      <use x="333.59375" xlink:href="#DejaVuSans-101"/>
      <use x="395.117188" xlink:href="#DejaVuSans-114"/>
      <use x="434.480469" xlink:href="#DejaVuSans-114"/>
     </g>
    </g>
    <g id="PathCollection_10">
     <defs>
      <path d="M -1.5 3 
L 0 1.5 
L 1.5 3 
L 3 1.5 
L 1.5 0 
L 3 -1.5 
L 1.5 -3 
L 0 -1.5 
L -1.5 -3 
L -3 -1.5 
L -1.5 0 
L -3 1.5 
z
" id="me7c66279f0" style="stroke:#333333;"/>
     </defs>
     <g>
      <use style="fill:#333333;stroke:#333333;" x="56.96725" xlink:href="#me7c66279f0" y="68.023678"/>
     </g>
    </g>
    <g id="text_24">
     <!-- mean_sq_err -->
     <g transform="translate(69.45925 69.845428)scale(0.0694 -0.0694)">
      <defs>
       <path d="M 14.796875 27.296875 
Q 14.796875 17.390625 18.875 11.75 
Q 22.953125 6.109375 30.078125 6.109375 
Q 37.203125 6.109375 41.296875 11.75 
Q 45.40625 17.390625 45.40625 27.296875 
Q 45.40625 37.203125 41.296875 42.84375 
Q 37.203125 48.484375 30.078125 48.484375 
Q 22.953125 48.484375 18.875 42.84375 
Q 14.796875 37.203125 14.796875 27.296875 
z
M 45.40625 8.203125 
Q 42.578125 3.328125 38.25 0.953125 
Q 33.9375 -1.421875 27.875 -1.421875 
Q 17.96875 -1.421875 11.734375 6.484375 
Q 5.515625 14.40625 5.515625 27.296875 
Q 5.515625 40.1875 11.734375 48.09375 
Q 17.96875 56 27.875 56 
Q 33.9375 56 38.25 53.625 
Q 42.578125 51.265625 45.40625 46.390625 
L 45.40625 54.6875 
L 54.390625 54.6875 
L 54.390625 -20.796875 
L 45.40625 -20.796875 
z
" id="DejaVuSans-113"/>
      </defs>
      <use xlink:href="#DejaVuSans-109"/>
      <use x="97.412109" xlink:href="#DejaVuSans-101"/>
      <use x="158.935547" xlink:href="#DejaVuSans-97"/>
      <use x="220.214844" xlink:href="#DejaVuSans-110"/>
      <use x="283.59375" xlink:href="#DejaVuSans-95"/>
      <use x="333.59375" xlink:href="#DejaVuSans-115"/>
      <use x="385.693359" xlink:href="#DejaVuSans-113"/>
      <use x="449.169922" xlink:href="#DejaVuSans-95"/>
      <use x="499.169922" xlink:href="#DejaVuSans-101"/>
      <use x="560.693359" xlink:href="#DejaVuSans-114"/>
      <use x="600.056641" xlink:href="#DejaVuSans-114"/>
     </g>
    </g>
    <g id="PathCollection_11">
     <defs>
      <path d="M -2.12132 -2.12132 
L -2.12132 2.12132 
L 2.12132 2.12132 
L 2.12132 -2.12132 
z
" id="mb6e89a7510" style="stroke:#333333;"/>
     </defs>
     <g>
      <use style="fill:#333333;stroke:#333333;" x="56.96725" xlink:href="#mb6e89a7510" y="78.403316"/>
     </g>
    </g>
    <g id="text_25">
     <!-- mean_sqroot_err -->
     <g transform="translate(69.45925 80.225066)scale(0.0694 -0.0694)">
      <use xlink:href="#DejaVuSans-109"/>
      <use x="97.412109" xlink:href="#DejaVuSans-101"/>
      <use x="158.935547" xlink:href="#DejaVuSans-97"/>
      <use x="220.214844" xlink:href="#DejaVuSans-110"/>
      <use x="283.59375" xlink:href="#DejaVuSans-95"/>
      <use x="333.59375" xlink:href="#DejaVuSans-115"/>
      <use x="385.693359" xlink:href="#DejaVuSans-113"/>
      <use x="449.169922" xlink:href="#DejaVuSans-114"/>
      <use x="488.033203" xlink:href="#DejaVuSans-111"/>
      <use x="549.214844" xlink:href="#DejaVuSans-111"/>
      <use x="610.396484" xlink:href="#DejaVuSans-116"/>
      <use x="649.605469" xlink:href="#DejaVuSans-95"/>
      <use x="699.605469" xlink:href="#DejaVuSans-101"/>
      <use x="761.128906" xlink:href="#DejaVuSans-114"/>
      <use x="800.492188" xlink:href="#DejaVuSans-114"/>
     </g>
    </g>
   </g>
  </g>
 </g>
 <defs>
  <clipPath id="p9753271d50">
   <rect height="266.112" width="357.12" x="43.78125" y="7.2"/>
  </clipPath>
 </defs>
</svg>
